G04 #@! TF.GenerationSoftware,KiCad,Pcbnew,(5.1.5)-2*
G04 #@! TF.CreationDate,2020-03-07T16:39:43+08:00*
G04 #@! TF.ProjectId,ESP32-sensorKit,45535033-322d-4736-956e-736f724b6974,rev?*
G04 #@! TF.SameCoordinates,Original*
G04 #@! TF.FileFunction,Paste,Top*
G04 #@! TF.FilePolarity,Positive*
%FSLAX46Y46*%
G04 Gerber Fmt 4.6, Leading zero omitted, Abs format (unit mm)*
G04 Created by KiCad (PCBNEW (5.1.5)-2) date 2020-03-07 16:39:43*
%MOMM*%
%LPD*%
G04 APERTURE LIST*
%ADD10C,0.100000*%
%ADD11R,2.000000X1.100000*%
%ADD12R,2.350000X3.500000*%
%ADD13R,1.450000X0.300000*%
%ADD14R,1.450000X0.600000*%
%ADD15R,5.000000X5.000000*%
%ADD16R,0.900000X2.000000*%
%ADD17R,2.000000X0.900000*%
%ADD18R,0.500000X0.350000*%
G04 APERTURE END LIST*
D10*
G04 #@! TO.C,C21*
G36*
X143453004Y-104415704D02*
G01*
X143477273Y-104419304D01*
X143501071Y-104425265D01*
X143524171Y-104433530D01*
X143546349Y-104444020D01*
X143567393Y-104456633D01*
X143587098Y-104471247D01*
X143605277Y-104487723D01*
X143621753Y-104505902D01*
X143636367Y-104525607D01*
X143648980Y-104546651D01*
X143659470Y-104568829D01*
X143667735Y-104591929D01*
X143673696Y-104615727D01*
X143677296Y-104639996D01*
X143678500Y-104664500D01*
X143678500Y-105764500D01*
X143677296Y-105789004D01*
X143673696Y-105813273D01*
X143667735Y-105837071D01*
X143659470Y-105860171D01*
X143648980Y-105882349D01*
X143636367Y-105903393D01*
X143621753Y-105923098D01*
X143605277Y-105941277D01*
X143587098Y-105957753D01*
X143567393Y-105972367D01*
X143546349Y-105984980D01*
X143524171Y-105995470D01*
X143501071Y-106003735D01*
X143477273Y-106009696D01*
X143453004Y-106013296D01*
X143428500Y-106014500D01*
X140428500Y-106014500D01*
X140403996Y-106013296D01*
X140379727Y-106009696D01*
X140355929Y-106003735D01*
X140332829Y-105995470D01*
X140310651Y-105984980D01*
X140289607Y-105972367D01*
X140269902Y-105957753D01*
X140251723Y-105941277D01*
X140235247Y-105923098D01*
X140220633Y-105903393D01*
X140208020Y-105882349D01*
X140197530Y-105860171D01*
X140189265Y-105837071D01*
X140183304Y-105813273D01*
X140179704Y-105789004D01*
X140178500Y-105764500D01*
X140178500Y-104664500D01*
X140179704Y-104639996D01*
X140183304Y-104615727D01*
X140189265Y-104591929D01*
X140197530Y-104568829D01*
X140208020Y-104546651D01*
X140220633Y-104525607D01*
X140235247Y-104505902D01*
X140251723Y-104487723D01*
X140269902Y-104471247D01*
X140289607Y-104456633D01*
X140310651Y-104444020D01*
X140332829Y-104433530D01*
X140355929Y-104425265D01*
X140379727Y-104419304D01*
X140403996Y-104415704D01*
X140428500Y-104414500D01*
X143428500Y-104414500D01*
X143453004Y-104415704D01*
G37*
G36*
X137853004Y-104415704D02*
G01*
X137877273Y-104419304D01*
X137901071Y-104425265D01*
X137924171Y-104433530D01*
X137946349Y-104444020D01*
X137967393Y-104456633D01*
X137987098Y-104471247D01*
X138005277Y-104487723D01*
X138021753Y-104505902D01*
X138036367Y-104525607D01*
X138048980Y-104546651D01*
X138059470Y-104568829D01*
X138067735Y-104591929D01*
X138073696Y-104615727D01*
X138077296Y-104639996D01*
X138078500Y-104664500D01*
X138078500Y-105764500D01*
X138077296Y-105789004D01*
X138073696Y-105813273D01*
X138067735Y-105837071D01*
X138059470Y-105860171D01*
X138048980Y-105882349D01*
X138036367Y-105903393D01*
X138021753Y-105923098D01*
X138005277Y-105941277D01*
X137987098Y-105957753D01*
X137967393Y-105972367D01*
X137946349Y-105984980D01*
X137924171Y-105995470D01*
X137901071Y-106003735D01*
X137877273Y-106009696D01*
X137853004Y-106013296D01*
X137828500Y-106014500D01*
X134828500Y-106014500D01*
X134803996Y-106013296D01*
X134779727Y-106009696D01*
X134755929Y-106003735D01*
X134732829Y-105995470D01*
X134710651Y-105984980D01*
X134689607Y-105972367D01*
X134669902Y-105957753D01*
X134651723Y-105941277D01*
X134635247Y-105923098D01*
X134620633Y-105903393D01*
X134608020Y-105882349D01*
X134597530Y-105860171D01*
X134589265Y-105837071D01*
X134583304Y-105813273D01*
X134579704Y-105789004D01*
X134578500Y-105764500D01*
X134578500Y-104664500D01*
X134579704Y-104639996D01*
X134583304Y-104615727D01*
X134589265Y-104591929D01*
X134597530Y-104568829D01*
X134608020Y-104546651D01*
X134620633Y-104525607D01*
X134635247Y-104505902D01*
X134651723Y-104487723D01*
X134669902Y-104471247D01*
X134689607Y-104456633D01*
X134710651Y-104444020D01*
X134732829Y-104433530D01*
X134755929Y-104425265D01*
X134779727Y-104419304D01*
X134803996Y-104415704D01*
X134828500Y-104414500D01*
X137828500Y-104414500D01*
X137853004Y-104415704D01*
G37*
G04 #@! TD*
G04 #@! TO.C,C1*
G36*
X137853004Y-95843204D02*
G01*
X137877273Y-95846804D01*
X137901071Y-95852765D01*
X137924171Y-95861030D01*
X137946349Y-95871520D01*
X137967393Y-95884133D01*
X137987098Y-95898747D01*
X138005277Y-95915223D01*
X138021753Y-95933402D01*
X138036367Y-95953107D01*
X138048980Y-95974151D01*
X138059470Y-95996329D01*
X138067735Y-96019429D01*
X138073696Y-96043227D01*
X138077296Y-96067496D01*
X138078500Y-96092000D01*
X138078500Y-97192000D01*
X138077296Y-97216504D01*
X138073696Y-97240773D01*
X138067735Y-97264571D01*
X138059470Y-97287671D01*
X138048980Y-97309849D01*
X138036367Y-97330893D01*
X138021753Y-97350598D01*
X138005277Y-97368777D01*
X137987098Y-97385253D01*
X137967393Y-97399867D01*
X137946349Y-97412480D01*
X137924171Y-97422970D01*
X137901071Y-97431235D01*
X137877273Y-97437196D01*
X137853004Y-97440796D01*
X137828500Y-97442000D01*
X134828500Y-97442000D01*
X134803996Y-97440796D01*
X134779727Y-97437196D01*
X134755929Y-97431235D01*
X134732829Y-97422970D01*
X134710651Y-97412480D01*
X134689607Y-97399867D01*
X134669902Y-97385253D01*
X134651723Y-97368777D01*
X134635247Y-97350598D01*
X134620633Y-97330893D01*
X134608020Y-97309849D01*
X134597530Y-97287671D01*
X134589265Y-97264571D01*
X134583304Y-97240773D01*
X134579704Y-97216504D01*
X134578500Y-97192000D01*
X134578500Y-96092000D01*
X134579704Y-96067496D01*
X134583304Y-96043227D01*
X134589265Y-96019429D01*
X134597530Y-95996329D01*
X134608020Y-95974151D01*
X134620633Y-95953107D01*
X134635247Y-95933402D01*
X134651723Y-95915223D01*
X134669902Y-95898747D01*
X134689607Y-95884133D01*
X134710651Y-95871520D01*
X134732829Y-95861030D01*
X134755929Y-95852765D01*
X134779727Y-95846804D01*
X134803996Y-95843204D01*
X134828500Y-95842000D01*
X137828500Y-95842000D01*
X137853004Y-95843204D01*
G37*
G36*
X143453004Y-95843204D02*
G01*
X143477273Y-95846804D01*
X143501071Y-95852765D01*
X143524171Y-95861030D01*
X143546349Y-95871520D01*
X143567393Y-95884133D01*
X143587098Y-95898747D01*
X143605277Y-95915223D01*
X143621753Y-95933402D01*
X143636367Y-95953107D01*
X143648980Y-95974151D01*
X143659470Y-95996329D01*
X143667735Y-96019429D01*
X143673696Y-96043227D01*
X143677296Y-96067496D01*
X143678500Y-96092000D01*
X143678500Y-97192000D01*
X143677296Y-97216504D01*
X143673696Y-97240773D01*
X143667735Y-97264571D01*
X143659470Y-97287671D01*
X143648980Y-97309849D01*
X143636367Y-97330893D01*
X143621753Y-97350598D01*
X143605277Y-97368777D01*
X143587098Y-97385253D01*
X143567393Y-97399867D01*
X143546349Y-97412480D01*
X143524171Y-97422970D01*
X143501071Y-97431235D01*
X143477273Y-97437196D01*
X143453004Y-97440796D01*
X143428500Y-97442000D01*
X140428500Y-97442000D01*
X140403996Y-97440796D01*
X140379727Y-97437196D01*
X140355929Y-97431235D01*
X140332829Y-97422970D01*
X140310651Y-97412480D01*
X140289607Y-97399867D01*
X140269902Y-97385253D01*
X140251723Y-97368777D01*
X140235247Y-97350598D01*
X140220633Y-97330893D01*
X140208020Y-97309849D01*
X140197530Y-97287671D01*
X140189265Y-97264571D01*
X140183304Y-97240773D01*
X140179704Y-97216504D01*
X140178500Y-97192000D01*
X140178500Y-96092000D01*
X140179704Y-96067496D01*
X140183304Y-96043227D01*
X140189265Y-96019429D01*
X140197530Y-95996329D01*
X140208020Y-95974151D01*
X140220633Y-95953107D01*
X140235247Y-95933402D01*
X140251723Y-95915223D01*
X140269902Y-95898747D01*
X140289607Y-95884133D01*
X140310651Y-95871520D01*
X140332829Y-95861030D01*
X140355929Y-95852765D01*
X140379727Y-95846804D01*
X140403996Y-95843204D01*
X140428500Y-95842000D01*
X143428500Y-95842000D01*
X143453004Y-95843204D01*
G37*
G04 #@! TD*
G04 #@! TO.C,C4*
G36*
X156653142Y-75496174D02*
G01*
X156676803Y-75499684D01*
X156700007Y-75505496D01*
X156722529Y-75513554D01*
X156744153Y-75523782D01*
X156764670Y-75536079D01*
X156783883Y-75550329D01*
X156801607Y-75566393D01*
X156817671Y-75584117D01*
X156831921Y-75603330D01*
X156844218Y-75623847D01*
X156854446Y-75645471D01*
X156862504Y-75667993D01*
X156868316Y-75691197D01*
X156871826Y-75714858D01*
X156873000Y-75738750D01*
X156873000Y-76651250D01*
X156871826Y-76675142D01*
X156868316Y-76698803D01*
X156862504Y-76722007D01*
X156854446Y-76744529D01*
X156844218Y-76766153D01*
X156831921Y-76786670D01*
X156817671Y-76805883D01*
X156801607Y-76823607D01*
X156783883Y-76839671D01*
X156764670Y-76853921D01*
X156744153Y-76866218D01*
X156722529Y-76876446D01*
X156700007Y-76884504D01*
X156676803Y-76890316D01*
X156653142Y-76893826D01*
X156629250Y-76895000D01*
X156141750Y-76895000D01*
X156117858Y-76893826D01*
X156094197Y-76890316D01*
X156070993Y-76884504D01*
X156048471Y-76876446D01*
X156026847Y-76866218D01*
X156006330Y-76853921D01*
X155987117Y-76839671D01*
X155969393Y-76823607D01*
X155953329Y-76805883D01*
X155939079Y-76786670D01*
X155926782Y-76766153D01*
X155916554Y-76744529D01*
X155908496Y-76722007D01*
X155902684Y-76698803D01*
X155899174Y-76675142D01*
X155898000Y-76651250D01*
X155898000Y-75738750D01*
X155899174Y-75714858D01*
X155902684Y-75691197D01*
X155908496Y-75667993D01*
X155916554Y-75645471D01*
X155926782Y-75623847D01*
X155939079Y-75603330D01*
X155953329Y-75584117D01*
X155969393Y-75566393D01*
X155987117Y-75550329D01*
X156006330Y-75536079D01*
X156026847Y-75523782D01*
X156048471Y-75513554D01*
X156070993Y-75505496D01*
X156094197Y-75499684D01*
X156117858Y-75496174D01*
X156141750Y-75495000D01*
X156629250Y-75495000D01*
X156653142Y-75496174D01*
G37*
G36*
X154778142Y-75496174D02*
G01*
X154801803Y-75499684D01*
X154825007Y-75505496D01*
X154847529Y-75513554D01*
X154869153Y-75523782D01*
X154889670Y-75536079D01*
X154908883Y-75550329D01*
X154926607Y-75566393D01*
X154942671Y-75584117D01*
X154956921Y-75603330D01*
X154969218Y-75623847D01*
X154979446Y-75645471D01*
X154987504Y-75667993D01*
X154993316Y-75691197D01*
X154996826Y-75714858D01*
X154998000Y-75738750D01*
X154998000Y-76651250D01*
X154996826Y-76675142D01*
X154993316Y-76698803D01*
X154987504Y-76722007D01*
X154979446Y-76744529D01*
X154969218Y-76766153D01*
X154956921Y-76786670D01*
X154942671Y-76805883D01*
X154926607Y-76823607D01*
X154908883Y-76839671D01*
X154889670Y-76853921D01*
X154869153Y-76866218D01*
X154847529Y-76876446D01*
X154825007Y-76884504D01*
X154801803Y-76890316D01*
X154778142Y-76893826D01*
X154754250Y-76895000D01*
X154266750Y-76895000D01*
X154242858Y-76893826D01*
X154219197Y-76890316D01*
X154195993Y-76884504D01*
X154173471Y-76876446D01*
X154151847Y-76866218D01*
X154131330Y-76853921D01*
X154112117Y-76839671D01*
X154094393Y-76823607D01*
X154078329Y-76805883D01*
X154064079Y-76786670D01*
X154051782Y-76766153D01*
X154041554Y-76744529D01*
X154033496Y-76722007D01*
X154027684Y-76698803D01*
X154024174Y-76675142D01*
X154023000Y-76651250D01*
X154023000Y-75738750D01*
X154024174Y-75714858D01*
X154027684Y-75691197D01*
X154033496Y-75667993D01*
X154041554Y-75645471D01*
X154051782Y-75623847D01*
X154064079Y-75603330D01*
X154078329Y-75584117D01*
X154094393Y-75566393D01*
X154112117Y-75550329D01*
X154131330Y-75536079D01*
X154151847Y-75523782D01*
X154173471Y-75513554D01*
X154195993Y-75505496D01*
X154219197Y-75499684D01*
X154242858Y-75496174D01*
X154266750Y-75495000D01*
X154754250Y-75495000D01*
X154778142Y-75496174D01*
G37*
G04 #@! TD*
G04 #@! TO.C,C3*
G36*
X156501191Y-77499053D02*
G01*
X156522426Y-77502203D01*
X156543250Y-77507419D01*
X156563462Y-77514651D01*
X156582868Y-77523830D01*
X156601281Y-77534866D01*
X156618524Y-77547654D01*
X156634430Y-77562070D01*
X156648846Y-77577976D01*
X156661634Y-77595219D01*
X156672670Y-77613632D01*
X156681849Y-77633038D01*
X156689081Y-77653250D01*
X156694297Y-77674074D01*
X156697447Y-77695309D01*
X156698500Y-77716750D01*
X156698500Y-78229250D01*
X156697447Y-78250691D01*
X156694297Y-78271926D01*
X156689081Y-78292750D01*
X156681849Y-78312962D01*
X156672670Y-78332368D01*
X156661634Y-78350781D01*
X156648846Y-78368024D01*
X156634430Y-78383930D01*
X156618524Y-78398346D01*
X156601281Y-78411134D01*
X156582868Y-78422170D01*
X156563462Y-78431349D01*
X156543250Y-78438581D01*
X156522426Y-78443797D01*
X156501191Y-78446947D01*
X156479750Y-78448000D01*
X156042250Y-78448000D01*
X156020809Y-78446947D01*
X155999574Y-78443797D01*
X155978750Y-78438581D01*
X155958538Y-78431349D01*
X155939132Y-78422170D01*
X155920719Y-78411134D01*
X155903476Y-78398346D01*
X155887570Y-78383930D01*
X155873154Y-78368024D01*
X155860366Y-78350781D01*
X155849330Y-78332368D01*
X155840151Y-78312962D01*
X155832919Y-78292750D01*
X155827703Y-78271926D01*
X155824553Y-78250691D01*
X155823500Y-78229250D01*
X155823500Y-77716750D01*
X155824553Y-77695309D01*
X155827703Y-77674074D01*
X155832919Y-77653250D01*
X155840151Y-77633038D01*
X155849330Y-77613632D01*
X155860366Y-77595219D01*
X155873154Y-77577976D01*
X155887570Y-77562070D01*
X155903476Y-77547654D01*
X155920719Y-77534866D01*
X155939132Y-77523830D01*
X155958538Y-77514651D01*
X155978750Y-77507419D01*
X155999574Y-77502203D01*
X156020809Y-77499053D01*
X156042250Y-77498000D01*
X156479750Y-77498000D01*
X156501191Y-77499053D01*
G37*
G36*
X154926191Y-77499053D02*
G01*
X154947426Y-77502203D01*
X154968250Y-77507419D01*
X154988462Y-77514651D01*
X155007868Y-77523830D01*
X155026281Y-77534866D01*
X155043524Y-77547654D01*
X155059430Y-77562070D01*
X155073846Y-77577976D01*
X155086634Y-77595219D01*
X155097670Y-77613632D01*
X155106849Y-77633038D01*
X155114081Y-77653250D01*
X155119297Y-77674074D01*
X155122447Y-77695309D01*
X155123500Y-77716750D01*
X155123500Y-78229250D01*
X155122447Y-78250691D01*
X155119297Y-78271926D01*
X155114081Y-78292750D01*
X155106849Y-78312962D01*
X155097670Y-78332368D01*
X155086634Y-78350781D01*
X155073846Y-78368024D01*
X155059430Y-78383930D01*
X155043524Y-78398346D01*
X155026281Y-78411134D01*
X155007868Y-78422170D01*
X154988462Y-78431349D01*
X154968250Y-78438581D01*
X154947426Y-78443797D01*
X154926191Y-78446947D01*
X154904750Y-78448000D01*
X154467250Y-78448000D01*
X154445809Y-78446947D01*
X154424574Y-78443797D01*
X154403750Y-78438581D01*
X154383538Y-78431349D01*
X154364132Y-78422170D01*
X154345719Y-78411134D01*
X154328476Y-78398346D01*
X154312570Y-78383930D01*
X154298154Y-78368024D01*
X154285366Y-78350781D01*
X154274330Y-78332368D01*
X154265151Y-78312962D01*
X154257919Y-78292750D01*
X154252703Y-78271926D01*
X154249553Y-78250691D01*
X154248500Y-78229250D01*
X154248500Y-77716750D01*
X154249553Y-77695309D01*
X154252703Y-77674074D01*
X154257919Y-77653250D01*
X154265151Y-77633038D01*
X154274330Y-77613632D01*
X154285366Y-77595219D01*
X154298154Y-77577976D01*
X154312570Y-77562070D01*
X154328476Y-77547654D01*
X154345719Y-77534866D01*
X154364132Y-77523830D01*
X154383538Y-77514651D01*
X154403750Y-77507419D01*
X154424574Y-77502203D01*
X154445809Y-77499053D01*
X154467250Y-77498000D01*
X154904750Y-77498000D01*
X154926191Y-77499053D01*
G37*
G04 #@! TD*
G04 #@! TO.C,C7*
G36*
X147331691Y-87278053D02*
G01*
X147352926Y-87281203D01*
X147373750Y-87286419D01*
X147393962Y-87293651D01*
X147413368Y-87302830D01*
X147431781Y-87313866D01*
X147449024Y-87326654D01*
X147464930Y-87341070D01*
X147479346Y-87356976D01*
X147492134Y-87374219D01*
X147503170Y-87392632D01*
X147512349Y-87412038D01*
X147519581Y-87432250D01*
X147524797Y-87453074D01*
X147527947Y-87474309D01*
X147529000Y-87495750D01*
X147529000Y-88008250D01*
X147527947Y-88029691D01*
X147524797Y-88050926D01*
X147519581Y-88071750D01*
X147512349Y-88091962D01*
X147503170Y-88111368D01*
X147492134Y-88129781D01*
X147479346Y-88147024D01*
X147464930Y-88162930D01*
X147449024Y-88177346D01*
X147431781Y-88190134D01*
X147413368Y-88201170D01*
X147393962Y-88210349D01*
X147373750Y-88217581D01*
X147352926Y-88222797D01*
X147331691Y-88225947D01*
X147310250Y-88227000D01*
X146872750Y-88227000D01*
X146851309Y-88225947D01*
X146830074Y-88222797D01*
X146809250Y-88217581D01*
X146789038Y-88210349D01*
X146769632Y-88201170D01*
X146751219Y-88190134D01*
X146733976Y-88177346D01*
X146718070Y-88162930D01*
X146703654Y-88147024D01*
X146690866Y-88129781D01*
X146679830Y-88111368D01*
X146670651Y-88091962D01*
X146663419Y-88071750D01*
X146658203Y-88050926D01*
X146655053Y-88029691D01*
X146654000Y-88008250D01*
X146654000Y-87495750D01*
X146655053Y-87474309D01*
X146658203Y-87453074D01*
X146663419Y-87432250D01*
X146670651Y-87412038D01*
X146679830Y-87392632D01*
X146690866Y-87374219D01*
X146703654Y-87356976D01*
X146718070Y-87341070D01*
X146733976Y-87326654D01*
X146751219Y-87313866D01*
X146769632Y-87302830D01*
X146789038Y-87293651D01*
X146809250Y-87286419D01*
X146830074Y-87281203D01*
X146851309Y-87278053D01*
X146872750Y-87277000D01*
X147310250Y-87277000D01*
X147331691Y-87278053D01*
G37*
G36*
X145756691Y-87278053D02*
G01*
X145777926Y-87281203D01*
X145798750Y-87286419D01*
X145818962Y-87293651D01*
X145838368Y-87302830D01*
X145856781Y-87313866D01*
X145874024Y-87326654D01*
X145889930Y-87341070D01*
X145904346Y-87356976D01*
X145917134Y-87374219D01*
X145928170Y-87392632D01*
X145937349Y-87412038D01*
X145944581Y-87432250D01*
X145949797Y-87453074D01*
X145952947Y-87474309D01*
X145954000Y-87495750D01*
X145954000Y-88008250D01*
X145952947Y-88029691D01*
X145949797Y-88050926D01*
X145944581Y-88071750D01*
X145937349Y-88091962D01*
X145928170Y-88111368D01*
X145917134Y-88129781D01*
X145904346Y-88147024D01*
X145889930Y-88162930D01*
X145874024Y-88177346D01*
X145856781Y-88190134D01*
X145838368Y-88201170D01*
X145818962Y-88210349D01*
X145798750Y-88217581D01*
X145777926Y-88222797D01*
X145756691Y-88225947D01*
X145735250Y-88227000D01*
X145297750Y-88227000D01*
X145276309Y-88225947D01*
X145255074Y-88222797D01*
X145234250Y-88217581D01*
X145214038Y-88210349D01*
X145194632Y-88201170D01*
X145176219Y-88190134D01*
X145158976Y-88177346D01*
X145143070Y-88162930D01*
X145128654Y-88147024D01*
X145115866Y-88129781D01*
X145104830Y-88111368D01*
X145095651Y-88091962D01*
X145088419Y-88071750D01*
X145083203Y-88050926D01*
X145080053Y-88029691D01*
X145079000Y-88008250D01*
X145079000Y-87495750D01*
X145080053Y-87474309D01*
X145083203Y-87453074D01*
X145088419Y-87432250D01*
X145095651Y-87412038D01*
X145104830Y-87392632D01*
X145115866Y-87374219D01*
X145128654Y-87356976D01*
X145143070Y-87341070D01*
X145158976Y-87326654D01*
X145176219Y-87313866D01*
X145194632Y-87302830D01*
X145214038Y-87293651D01*
X145234250Y-87286419D01*
X145255074Y-87281203D01*
X145276309Y-87278053D01*
X145297750Y-87277000D01*
X145735250Y-87277000D01*
X145756691Y-87278053D01*
G37*
G04 #@! TD*
G04 #@! TO.C,C8*
G36*
X145634142Y-88831174D02*
G01*
X145657803Y-88834684D01*
X145681007Y-88840496D01*
X145703529Y-88848554D01*
X145725153Y-88858782D01*
X145745670Y-88871079D01*
X145764883Y-88885329D01*
X145782607Y-88901393D01*
X145798671Y-88919117D01*
X145812921Y-88938330D01*
X145825218Y-88958847D01*
X145835446Y-88980471D01*
X145843504Y-89002993D01*
X145849316Y-89026197D01*
X145852826Y-89049858D01*
X145854000Y-89073750D01*
X145854000Y-89986250D01*
X145852826Y-90010142D01*
X145849316Y-90033803D01*
X145843504Y-90057007D01*
X145835446Y-90079529D01*
X145825218Y-90101153D01*
X145812921Y-90121670D01*
X145798671Y-90140883D01*
X145782607Y-90158607D01*
X145764883Y-90174671D01*
X145745670Y-90188921D01*
X145725153Y-90201218D01*
X145703529Y-90211446D01*
X145681007Y-90219504D01*
X145657803Y-90225316D01*
X145634142Y-90228826D01*
X145610250Y-90230000D01*
X145122750Y-90230000D01*
X145098858Y-90228826D01*
X145075197Y-90225316D01*
X145051993Y-90219504D01*
X145029471Y-90211446D01*
X145007847Y-90201218D01*
X144987330Y-90188921D01*
X144968117Y-90174671D01*
X144950393Y-90158607D01*
X144934329Y-90140883D01*
X144920079Y-90121670D01*
X144907782Y-90101153D01*
X144897554Y-90079529D01*
X144889496Y-90057007D01*
X144883684Y-90033803D01*
X144880174Y-90010142D01*
X144879000Y-89986250D01*
X144879000Y-89073750D01*
X144880174Y-89049858D01*
X144883684Y-89026197D01*
X144889496Y-89002993D01*
X144897554Y-88980471D01*
X144907782Y-88958847D01*
X144920079Y-88938330D01*
X144934329Y-88919117D01*
X144950393Y-88901393D01*
X144968117Y-88885329D01*
X144987330Y-88871079D01*
X145007847Y-88858782D01*
X145029471Y-88848554D01*
X145051993Y-88840496D01*
X145075197Y-88834684D01*
X145098858Y-88831174D01*
X145122750Y-88830000D01*
X145610250Y-88830000D01*
X145634142Y-88831174D01*
G37*
G36*
X147509142Y-88831174D02*
G01*
X147532803Y-88834684D01*
X147556007Y-88840496D01*
X147578529Y-88848554D01*
X147600153Y-88858782D01*
X147620670Y-88871079D01*
X147639883Y-88885329D01*
X147657607Y-88901393D01*
X147673671Y-88919117D01*
X147687921Y-88938330D01*
X147700218Y-88958847D01*
X147710446Y-88980471D01*
X147718504Y-89002993D01*
X147724316Y-89026197D01*
X147727826Y-89049858D01*
X147729000Y-89073750D01*
X147729000Y-89986250D01*
X147727826Y-90010142D01*
X147724316Y-90033803D01*
X147718504Y-90057007D01*
X147710446Y-90079529D01*
X147700218Y-90101153D01*
X147687921Y-90121670D01*
X147673671Y-90140883D01*
X147657607Y-90158607D01*
X147639883Y-90174671D01*
X147620670Y-90188921D01*
X147600153Y-90201218D01*
X147578529Y-90211446D01*
X147556007Y-90219504D01*
X147532803Y-90225316D01*
X147509142Y-90228826D01*
X147485250Y-90230000D01*
X146997750Y-90230000D01*
X146973858Y-90228826D01*
X146950197Y-90225316D01*
X146926993Y-90219504D01*
X146904471Y-90211446D01*
X146882847Y-90201218D01*
X146862330Y-90188921D01*
X146843117Y-90174671D01*
X146825393Y-90158607D01*
X146809329Y-90140883D01*
X146795079Y-90121670D01*
X146782782Y-90101153D01*
X146772554Y-90079529D01*
X146764496Y-90057007D01*
X146758684Y-90033803D01*
X146755174Y-90010142D01*
X146754000Y-89986250D01*
X146754000Y-89073750D01*
X146755174Y-89049858D01*
X146758684Y-89026197D01*
X146764496Y-89002993D01*
X146772554Y-88980471D01*
X146782782Y-88958847D01*
X146795079Y-88938330D01*
X146809329Y-88919117D01*
X146825393Y-88901393D01*
X146843117Y-88885329D01*
X146862330Y-88871079D01*
X146882847Y-88858782D01*
X146904471Y-88848554D01*
X146926993Y-88840496D01*
X146950197Y-88834684D01*
X146973858Y-88831174D01*
X146997750Y-88830000D01*
X147485250Y-88830000D01*
X147509142Y-88831174D01*
G37*
G04 #@! TD*
G04 #@! TO.C,C9*
G36*
X145819691Y-84242053D02*
G01*
X145840926Y-84245203D01*
X145861750Y-84250419D01*
X145881962Y-84257651D01*
X145901368Y-84266830D01*
X145919781Y-84277866D01*
X145937024Y-84290654D01*
X145952930Y-84305070D01*
X145967346Y-84320976D01*
X145980134Y-84338219D01*
X145991170Y-84356632D01*
X146000349Y-84376038D01*
X146007581Y-84396250D01*
X146012797Y-84417074D01*
X146015947Y-84438309D01*
X146017000Y-84459750D01*
X146017000Y-84897250D01*
X146015947Y-84918691D01*
X146012797Y-84939926D01*
X146007581Y-84960750D01*
X146000349Y-84980962D01*
X145991170Y-85000368D01*
X145980134Y-85018781D01*
X145967346Y-85036024D01*
X145952930Y-85051930D01*
X145937024Y-85066346D01*
X145919781Y-85079134D01*
X145901368Y-85090170D01*
X145881962Y-85099349D01*
X145861750Y-85106581D01*
X145840926Y-85111797D01*
X145819691Y-85114947D01*
X145798250Y-85116000D01*
X145285750Y-85116000D01*
X145264309Y-85114947D01*
X145243074Y-85111797D01*
X145222250Y-85106581D01*
X145202038Y-85099349D01*
X145182632Y-85090170D01*
X145164219Y-85079134D01*
X145146976Y-85066346D01*
X145131070Y-85051930D01*
X145116654Y-85036024D01*
X145103866Y-85018781D01*
X145092830Y-85000368D01*
X145083651Y-84980962D01*
X145076419Y-84960750D01*
X145071203Y-84939926D01*
X145068053Y-84918691D01*
X145067000Y-84897250D01*
X145067000Y-84459750D01*
X145068053Y-84438309D01*
X145071203Y-84417074D01*
X145076419Y-84396250D01*
X145083651Y-84376038D01*
X145092830Y-84356632D01*
X145103866Y-84338219D01*
X145116654Y-84320976D01*
X145131070Y-84305070D01*
X145146976Y-84290654D01*
X145164219Y-84277866D01*
X145182632Y-84266830D01*
X145202038Y-84257651D01*
X145222250Y-84250419D01*
X145243074Y-84245203D01*
X145264309Y-84242053D01*
X145285750Y-84241000D01*
X145798250Y-84241000D01*
X145819691Y-84242053D01*
G37*
G36*
X145819691Y-85817053D02*
G01*
X145840926Y-85820203D01*
X145861750Y-85825419D01*
X145881962Y-85832651D01*
X145901368Y-85841830D01*
X145919781Y-85852866D01*
X145937024Y-85865654D01*
X145952930Y-85880070D01*
X145967346Y-85895976D01*
X145980134Y-85913219D01*
X145991170Y-85931632D01*
X146000349Y-85951038D01*
X146007581Y-85971250D01*
X146012797Y-85992074D01*
X146015947Y-86013309D01*
X146017000Y-86034750D01*
X146017000Y-86472250D01*
X146015947Y-86493691D01*
X146012797Y-86514926D01*
X146007581Y-86535750D01*
X146000349Y-86555962D01*
X145991170Y-86575368D01*
X145980134Y-86593781D01*
X145967346Y-86611024D01*
X145952930Y-86626930D01*
X145937024Y-86641346D01*
X145919781Y-86654134D01*
X145901368Y-86665170D01*
X145881962Y-86674349D01*
X145861750Y-86681581D01*
X145840926Y-86686797D01*
X145819691Y-86689947D01*
X145798250Y-86691000D01*
X145285750Y-86691000D01*
X145264309Y-86689947D01*
X145243074Y-86686797D01*
X145222250Y-86681581D01*
X145202038Y-86674349D01*
X145182632Y-86665170D01*
X145164219Y-86654134D01*
X145146976Y-86641346D01*
X145131070Y-86626930D01*
X145116654Y-86611024D01*
X145103866Y-86593781D01*
X145092830Y-86575368D01*
X145083651Y-86555962D01*
X145076419Y-86535750D01*
X145071203Y-86514926D01*
X145068053Y-86493691D01*
X145067000Y-86472250D01*
X145067000Y-86034750D01*
X145068053Y-86013309D01*
X145071203Y-85992074D01*
X145076419Y-85971250D01*
X145083651Y-85951038D01*
X145092830Y-85931632D01*
X145103866Y-85913219D01*
X145116654Y-85895976D01*
X145131070Y-85880070D01*
X145146976Y-85865654D01*
X145164219Y-85852866D01*
X145182632Y-85841830D01*
X145202038Y-85832651D01*
X145222250Y-85825419D01*
X145243074Y-85820203D01*
X145264309Y-85817053D01*
X145285750Y-85816000D01*
X145798250Y-85816000D01*
X145819691Y-85817053D01*
G37*
G04 #@! TD*
G04 #@! TO.C,C10*
G36*
X138580691Y-85690053D02*
G01*
X138601926Y-85693203D01*
X138622750Y-85698419D01*
X138642962Y-85705651D01*
X138662368Y-85714830D01*
X138680781Y-85725866D01*
X138698024Y-85738654D01*
X138713930Y-85753070D01*
X138728346Y-85768976D01*
X138741134Y-85786219D01*
X138752170Y-85804632D01*
X138761349Y-85824038D01*
X138768581Y-85844250D01*
X138773797Y-85865074D01*
X138776947Y-85886309D01*
X138778000Y-85907750D01*
X138778000Y-86345250D01*
X138776947Y-86366691D01*
X138773797Y-86387926D01*
X138768581Y-86408750D01*
X138761349Y-86428962D01*
X138752170Y-86448368D01*
X138741134Y-86466781D01*
X138728346Y-86484024D01*
X138713930Y-86499930D01*
X138698024Y-86514346D01*
X138680781Y-86527134D01*
X138662368Y-86538170D01*
X138642962Y-86547349D01*
X138622750Y-86554581D01*
X138601926Y-86559797D01*
X138580691Y-86562947D01*
X138559250Y-86564000D01*
X138046750Y-86564000D01*
X138025309Y-86562947D01*
X138004074Y-86559797D01*
X137983250Y-86554581D01*
X137963038Y-86547349D01*
X137943632Y-86538170D01*
X137925219Y-86527134D01*
X137907976Y-86514346D01*
X137892070Y-86499930D01*
X137877654Y-86484024D01*
X137864866Y-86466781D01*
X137853830Y-86448368D01*
X137844651Y-86428962D01*
X137837419Y-86408750D01*
X137832203Y-86387926D01*
X137829053Y-86366691D01*
X137828000Y-86345250D01*
X137828000Y-85907750D01*
X137829053Y-85886309D01*
X137832203Y-85865074D01*
X137837419Y-85844250D01*
X137844651Y-85824038D01*
X137853830Y-85804632D01*
X137864866Y-85786219D01*
X137877654Y-85768976D01*
X137892070Y-85753070D01*
X137907976Y-85738654D01*
X137925219Y-85725866D01*
X137943632Y-85714830D01*
X137963038Y-85705651D01*
X137983250Y-85698419D01*
X138004074Y-85693203D01*
X138025309Y-85690053D01*
X138046750Y-85689000D01*
X138559250Y-85689000D01*
X138580691Y-85690053D01*
G37*
G36*
X138580691Y-84115053D02*
G01*
X138601926Y-84118203D01*
X138622750Y-84123419D01*
X138642962Y-84130651D01*
X138662368Y-84139830D01*
X138680781Y-84150866D01*
X138698024Y-84163654D01*
X138713930Y-84178070D01*
X138728346Y-84193976D01*
X138741134Y-84211219D01*
X138752170Y-84229632D01*
X138761349Y-84249038D01*
X138768581Y-84269250D01*
X138773797Y-84290074D01*
X138776947Y-84311309D01*
X138778000Y-84332750D01*
X138778000Y-84770250D01*
X138776947Y-84791691D01*
X138773797Y-84812926D01*
X138768581Y-84833750D01*
X138761349Y-84853962D01*
X138752170Y-84873368D01*
X138741134Y-84891781D01*
X138728346Y-84909024D01*
X138713930Y-84924930D01*
X138698024Y-84939346D01*
X138680781Y-84952134D01*
X138662368Y-84963170D01*
X138642962Y-84972349D01*
X138622750Y-84979581D01*
X138601926Y-84984797D01*
X138580691Y-84987947D01*
X138559250Y-84989000D01*
X138046750Y-84989000D01*
X138025309Y-84987947D01*
X138004074Y-84984797D01*
X137983250Y-84979581D01*
X137963038Y-84972349D01*
X137943632Y-84963170D01*
X137925219Y-84952134D01*
X137907976Y-84939346D01*
X137892070Y-84924930D01*
X137877654Y-84909024D01*
X137864866Y-84891781D01*
X137853830Y-84873368D01*
X137844651Y-84853962D01*
X137837419Y-84833750D01*
X137832203Y-84812926D01*
X137829053Y-84791691D01*
X137828000Y-84770250D01*
X137828000Y-84332750D01*
X137829053Y-84311309D01*
X137832203Y-84290074D01*
X137837419Y-84269250D01*
X137844651Y-84249038D01*
X137853830Y-84229632D01*
X137864866Y-84211219D01*
X137877654Y-84193976D01*
X137892070Y-84178070D01*
X137907976Y-84163654D01*
X137925219Y-84150866D01*
X137943632Y-84139830D01*
X137963038Y-84130651D01*
X137983250Y-84123419D01*
X138004074Y-84118203D01*
X138025309Y-84115053D01*
X138046750Y-84114000D01*
X138559250Y-84114000D01*
X138580691Y-84115053D01*
G37*
G04 #@! TD*
G04 #@! TO.C,C19*
G36*
X144677191Y-98009553D02*
G01*
X144698426Y-98012703D01*
X144719250Y-98017919D01*
X144739462Y-98025151D01*
X144758868Y-98034330D01*
X144777281Y-98045366D01*
X144794524Y-98058154D01*
X144810430Y-98072570D01*
X144824846Y-98088476D01*
X144837634Y-98105719D01*
X144848670Y-98124132D01*
X144857849Y-98143538D01*
X144865081Y-98163750D01*
X144870297Y-98184574D01*
X144873447Y-98205809D01*
X144874500Y-98227250D01*
X144874500Y-98739750D01*
X144873447Y-98761191D01*
X144870297Y-98782426D01*
X144865081Y-98803250D01*
X144857849Y-98823462D01*
X144848670Y-98842868D01*
X144837634Y-98861281D01*
X144824846Y-98878524D01*
X144810430Y-98894430D01*
X144794524Y-98908846D01*
X144777281Y-98921634D01*
X144758868Y-98932670D01*
X144739462Y-98941849D01*
X144719250Y-98949081D01*
X144698426Y-98954297D01*
X144677191Y-98957447D01*
X144655750Y-98958500D01*
X144218250Y-98958500D01*
X144196809Y-98957447D01*
X144175574Y-98954297D01*
X144154750Y-98949081D01*
X144134538Y-98941849D01*
X144115132Y-98932670D01*
X144096719Y-98921634D01*
X144079476Y-98908846D01*
X144063570Y-98894430D01*
X144049154Y-98878524D01*
X144036366Y-98861281D01*
X144025330Y-98842868D01*
X144016151Y-98823462D01*
X144008919Y-98803250D01*
X144003703Y-98782426D01*
X144000553Y-98761191D01*
X143999500Y-98739750D01*
X143999500Y-98227250D01*
X144000553Y-98205809D01*
X144003703Y-98184574D01*
X144008919Y-98163750D01*
X144016151Y-98143538D01*
X144025330Y-98124132D01*
X144036366Y-98105719D01*
X144049154Y-98088476D01*
X144063570Y-98072570D01*
X144079476Y-98058154D01*
X144096719Y-98045366D01*
X144115132Y-98034330D01*
X144134538Y-98025151D01*
X144154750Y-98017919D01*
X144175574Y-98012703D01*
X144196809Y-98009553D01*
X144218250Y-98008500D01*
X144655750Y-98008500D01*
X144677191Y-98009553D01*
G37*
G36*
X146252191Y-98009553D02*
G01*
X146273426Y-98012703D01*
X146294250Y-98017919D01*
X146314462Y-98025151D01*
X146333868Y-98034330D01*
X146352281Y-98045366D01*
X146369524Y-98058154D01*
X146385430Y-98072570D01*
X146399846Y-98088476D01*
X146412634Y-98105719D01*
X146423670Y-98124132D01*
X146432849Y-98143538D01*
X146440081Y-98163750D01*
X146445297Y-98184574D01*
X146448447Y-98205809D01*
X146449500Y-98227250D01*
X146449500Y-98739750D01*
X146448447Y-98761191D01*
X146445297Y-98782426D01*
X146440081Y-98803250D01*
X146432849Y-98823462D01*
X146423670Y-98842868D01*
X146412634Y-98861281D01*
X146399846Y-98878524D01*
X146385430Y-98894430D01*
X146369524Y-98908846D01*
X146352281Y-98921634D01*
X146333868Y-98932670D01*
X146314462Y-98941849D01*
X146294250Y-98949081D01*
X146273426Y-98954297D01*
X146252191Y-98957447D01*
X146230750Y-98958500D01*
X145793250Y-98958500D01*
X145771809Y-98957447D01*
X145750574Y-98954297D01*
X145729750Y-98949081D01*
X145709538Y-98941849D01*
X145690132Y-98932670D01*
X145671719Y-98921634D01*
X145654476Y-98908846D01*
X145638570Y-98894430D01*
X145624154Y-98878524D01*
X145611366Y-98861281D01*
X145600330Y-98842868D01*
X145591151Y-98823462D01*
X145583919Y-98803250D01*
X145578703Y-98782426D01*
X145575553Y-98761191D01*
X145574500Y-98739750D01*
X145574500Y-98227250D01*
X145575553Y-98205809D01*
X145578703Y-98184574D01*
X145583919Y-98163750D01*
X145591151Y-98143538D01*
X145600330Y-98124132D01*
X145611366Y-98105719D01*
X145624154Y-98088476D01*
X145638570Y-98072570D01*
X145654476Y-98058154D01*
X145671719Y-98045366D01*
X145690132Y-98034330D01*
X145709538Y-98025151D01*
X145729750Y-98017919D01*
X145750574Y-98012703D01*
X145771809Y-98009553D01*
X145793250Y-98008500D01*
X146230750Y-98008500D01*
X146252191Y-98009553D01*
G37*
G04 #@! TD*
G04 #@! TO.C,C20*
G36*
X146174004Y-99792704D02*
G01*
X146198273Y-99796304D01*
X146222071Y-99802265D01*
X146245171Y-99810530D01*
X146267349Y-99821020D01*
X146288393Y-99833633D01*
X146308098Y-99848247D01*
X146326277Y-99864723D01*
X146342753Y-99882902D01*
X146357367Y-99902607D01*
X146369980Y-99923651D01*
X146380470Y-99945829D01*
X146388735Y-99968929D01*
X146394696Y-99992727D01*
X146398296Y-100016996D01*
X146399500Y-100041500D01*
X146399500Y-101041500D01*
X146398296Y-101066004D01*
X146394696Y-101090273D01*
X146388735Y-101114071D01*
X146380470Y-101137171D01*
X146369980Y-101159349D01*
X146357367Y-101180393D01*
X146342753Y-101200098D01*
X146326277Y-101218277D01*
X146308098Y-101234753D01*
X146288393Y-101249367D01*
X146267349Y-101261980D01*
X146245171Y-101272470D01*
X146222071Y-101280735D01*
X146198273Y-101286696D01*
X146174004Y-101290296D01*
X146149500Y-101291500D01*
X144299500Y-101291500D01*
X144274996Y-101290296D01*
X144250727Y-101286696D01*
X144226929Y-101280735D01*
X144203829Y-101272470D01*
X144181651Y-101261980D01*
X144160607Y-101249367D01*
X144140902Y-101234753D01*
X144122723Y-101218277D01*
X144106247Y-101200098D01*
X144091633Y-101180393D01*
X144079020Y-101159349D01*
X144068530Y-101137171D01*
X144060265Y-101114071D01*
X144054304Y-101090273D01*
X144050704Y-101066004D01*
X144049500Y-101041500D01*
X144049500Y-100041500D01*
X144050704Y-100016996D01*
X144054304Y-99992727D01*
X144060265Y-99968929D01*
X144068530Y-99945829D01*
X144079020Y-99923651D01*
X144091633Y-99902607D01*
X144106247Y-99882902D01*
X144122723Y-99864723D01*
X144140902Y-99848247D01*
X144160607Y-99833633D01*
X144181651Y-99821020D01*
X144203829Y-99810530D01*
X144226929Y-99802265D01*
X144250727Y-99796304D01*
X144274996Y-99792704D01*
X144299500Y-99791500D01*
X146149500Y-99791500D01*
X146174004Y-99792704D01*
G37*
G36*
X146174004Y-103042704D02*
G01*
X146198273Y-103046304D01*
X146222071Y-103052265D01*
X146245171Y-103060530D01*
X146267349Y-103071020D01*
X146288393Y-103083633D01*
X146308098Y-103098247D01*
X146326277Y-103114723D01*
X146342753Y-103132902D01*
X146357367Y-103152607D01*
X146369980Y-103173651D01*
X146380470Y-103195829D01*
X146388735Y-103218929D01*
X146394696Y-103242727D01*
X146398296Y-103266996D01*
X146399500Y-103291500D01*
X146399500Y-104291500D01*
X146398296Y-104316004D01*
X146394696Y-104340273D01*
X146388735Y-104364071D01*
X146380470Y-104387171D01*
X146369980Y-104409349D01*
X146357367Y-104430393D01*
X146342753Y-104450098D01*
X146326277Y-104468277D01*
X146308098Y-104484753D01*
X146288393Y-104499367D01*
X146267349Y-104511980D01*
X146245171Y-104522470D01*
X146222071Y-104530735D01*
X146198273Y-104536696D01*
X146174004Y-104540296D01*
X146149500Y-104541500D01*
X144299500Y-104541500D01*
X144274996Y-104540296D01*
X144250727Y-104536696D01*
X144226929Y-104530735D01*
X144203829Y-104522470D01*
X144181651Y-104511980D01*
X144160607Y-104499367D01*
X144140902Y-104484753D01*
X144122723Y-104468277D01*
X144106247Y-104450098D01*
X144091633Y-104430393D01*
X144079020Y-104409349D01*
X144068530Y-104387171D01*
X144060265Y-104364071D01*
X144054304Y-104340273D01*
X144050704Y-104316004D01*
X144049500Y-104291500D01*
X144049500Y-103291500D01*
X144050704Y-103266996D01*
X144054304Y-103242727D01*
X144060265Y-103218929D01*
X144068530Y-103195829D01*
X144079020Y-103173651D01*
X144091633Y-103152607D01*
X144106247Y-103132902D01*
X144122723Y-103114723D01*
X144140902Y-103098247D01*
X144160607Y-103083633D01*
X144181651Y-103071020D01*
X144203829Y-103060530D01*
X144226929Y-103052265D01*
X144250727Y-103046304D01*
X144274996Y-103042704D01*
X144299500Y-103041500D01*
X146149500Y-103041500D01*
X146174004Y-103042704D01*
G37*
G04 #@! TD*
D11*
G04 #@! TO.C,D1*
X123621500Y-107994000D03*
X123621500Y-106294000D03*
X123621500Y-104594000D03*
X118821500Y-104594000D03*
X118821500Y-106294000D03*
X118821500Y-107994000D03*
G04 #@! TD*
D10*
G04 #@! TO.C,D2*
G36*
X165797142Y-91498174D02*
G01*
X165820803Y-91501684D01*
X165844007Y-91507496D01*
X165866529Y-91515554D01*
X165888153Y-91525782D01*
X165908670Y-91538079D01*
X165927883Y-91552329D01*
X165945607Y-91568393D01*
X165961671Y-91586117D01*
X165975921Y-91605330D01*
X165988218Y-91625847D01*
X165998446Y-91647471D01*
X166006504Y-91669993D01*
X166012316Y-91693197D01*
X166015826Y-91716858D01*
X166017000Y-91740750D01*
X166017000Y-92653250D01*
X166015826Y-92677142D01*
X166012316Y-92700803D01*
X166006504Y-92724007D01*
X165998446Y-92746529D01*
X165988218Y-92768153D01*
X165975921Y-92788670D01*
X165961671Y-92807883D01*
X165945607Y-92825607D01*
X165927883Y-92841671D01*
X165908670Y-92855921D01*
X165888153Y-92868218D01*
X165866529Y-92878446D01*
X165844007Y-92886504D01*
X165820803Y-92892316D01*
X165797142Y-92895826D01*
X165773250Y-92897000D01*
X165285750Y-92897000D01*
X165261858Y-92895826D01*
X165238197Y-92892316D01*
X165214993Y-92886504D01*
X165192471Y-92878446D01*
X165170847Y-92868218D01*
X165150330Y-92855921D01*
X165131117Y-92841671D01*
X165113393Y-92825607D01*
X165097329Y-92807883D01*
X165083079Y-92788670D01*
X165070782Y-92768153D01*
X165060554Y-92746529D01*
X165052496Y-92724007D01*
X165046684Y-92700803D01*
X165043174Y-92677142D01*
X165042000Y-92653250D01*
X165042000Y-91740750D01*
X165043174Y-91716858D01*
X165046684Y-91693197D01*
X165052496Y-91669993D01*
X165060554Y-91647471D01*
X165070782Y-91625847D01*
X165083079Y-91605330D01*
X165097329Y-91586117D01*
X165113393Y-91568393D01*
X165131117Y-91552329D01*
X165150330Y-91538079D01*
X165170847Y-91525782D01*
X165192471Y-91515554D01*
X165214993Y-91507496D01*
X165238197Y-91501684D01*
X165261858Y-91498174D01*
X165285750Y-91497000D01*
X165773250Y-91497000D01*
X165797142Y-91498174D01*
G37*
G36*
X163922142Y-91498174D02*
G01*
X163945803Y-91501684D01*
X163969007Y-91507496D01*
X163991529Y-91515554D01*
X164013153Y-91525782D01*
X164033670Y-91538079D01*
X164052883Y-91552329D01*
X164070607Y-91568393D01*
X164086671Y-91586117D01*
X164100921Y-91605330D01*
X164113218Y-91625847D01*
X164123446Y-91647471D01*
X164131504Y-91669993D01*
X164137316Y-91693197D01*
X164140826Y-91716858D01*
X164142000Y-91740750D01*
X164142000Y-92653250D01*
X164140826Y-92677142D01*
X164137316Y-92700803D01*
X164131504Y-92724007D01*
X164123446Y-92746529D01*
X164113218Y-92768153D01*
X164100921Y-92788670D01*
X164086671Y-92807883D01*
X164070607Y-92825607D01*
X164052883Y-92841671D01*
X164033670Y-92855921D01*
X164013153Y-92868218D01*
X163991529Y-92878446D01*
X163969007Y-92886504D01*
X163945803Y-92892316D01*
X163922142Y-92895826D01*
X163898250Y-92897000D01*
X163410750Y-92897000D01*
X163386858Y-92895826D01*
X163363197Y-92892316D01*
X163339993Y-92886504D01*
X163317471Y-92878446D01*
X163295847Y-92868218D01*
X163275330Y-92855921D01*
X163256117Y-92841671D01*
X163238393Y-92825607D01*
X163222329Y-92807883D01*
X163208079Y-92788670D01*
X163195782Y-92768153D01*
X163185554Y-92746529D01*
X163177496Y-92724007D01*
X163171684Y-92700803D01*
X163168174Y-92677142D01*
X163167000Y-92653250D01*
X163167000Y-91740750D01*
X163168174Y-91716858D01*
X163171684Y-91693197D01*
X163177496Y-91669993D01*
X163185554Y-91647471D01*
X163195782Y-91625847D01*
X163208079Y-91605330D01*
X163222329Y-91586117D01*
X163238393Y-91568393D01*
X163256117Y-91552329D01*
X163275330Y-91538079D01*
X163295847Y-91525782D01*
X163317471Y-91515554D01*
X163339993Y-91507496D01*
X163363197Y-91501684D01*
X163386858Y-91498174D01*
X163410750Y-91497000D01*
X163898250Y-91497000D01*
X163922142Y-91498174D01*
G37*
G04 #@! TD*
G04 #@! TO.C,D3*
G36*
X161860142Y-91498174D02*
G01*
X161883803Y-91501684D01*
X161907007Y-91507496D01*
X161929529Y-91515554D01*
X161951153Y-91525782D01*
X161971670Y-91538079D01*
X161990883Y-91552329D01*
X162008607Y-91568393D01*
X162024671Y-91586117D01*
X162038921Y-91605330D01*
X162051218Y-91625847D01*
X162061446Y-91647471D01*
X162069504Y-91669993D01*
X162075316Y-91693197D01*
X162078826Y-91716858D01*
X162080000Y-91740750D01*
X162080000Y-92653250D01*
X162078826Y-92677142D01*
X162075316Y-92700803D01*
X162069504Y-92724007D01*
X162061446Y-92746529D01*
X162051218Y-92768153D01*
X162038921Y-92788670D01*
X162024671Y-92807883D01*
X162008607Y-92825607D01*
X161990883Y-92841671D01*
X161971670Y-92855921D01*
X161951153Y-92868218D01*
X161929529Y-92878446D01*
X161907007Y-92886504D01*
X161883803Y-92892316D01*
X161860142Y-92895826D01*
X161836250Y-92897000D01*
X161348750Y-92897000D01*
X161324858Y-92895826D01*
X161301197Y-92892316D01*
X161277993Y-92886504D01*
X161255471Y-92878446D01*
X161233847Y-92868218D01*
X161213330Y-92855921D01*
X161194117Y-92841671D01*
X161176393Y-92825607D01*
X161160329Y-92807883D01*
X161146079Y-92788670D01*
X161133782Y-92768153D01*
X161123554Y-92746529D01*
X161115496Y-92724007D01*
X161109684Y-92700803D01*
X161106174Y-92677142D01*
X161105000Y-92653250D01*
X161105000Y-91740750D01*
X161106174Y-91716858D01*
X161109684Y-91693197D01*
X161115496Y-91669993D01*
X161123554Y-91647471D01*
X161133782Y-91625847D01*
X161146079Y-91605330D01*
X161160329Y-91586117D01*
X161176393Y-91568393D01*
X161194117Y-91552329D01*
X161213330Y-91538079D01*
X161233847Y-91525782D01*
X161255471Y-91515554D01*
X161277993Y-91507496D01*
X161301197Y-91501684D01*
X161324858Y-91498174D01*
X161348750Y-91497000D01*
X161836250Y-91497000D01*
X161860142Y-91498174D01*
G37*
G36*
X159985142Y-91498174D02*
G01*
X160008803Y-91501684D01*
X160032007Y-91507496D01*
X160054529Y-91515554D01*
X160076153Y-91525782D01*
X160096670Y-91538079D01*
X160115883Y-91552329D01*
X160133607Y-91568393D01*
X160149671Y-91586117D01*
X160163921Y-91605330D01*
X160176218Y-91625847D01*
X160186446Y-91647471D01*
X160194504Y-91669993D01*
X160200316Y-91693197D01*
X160203826Y-91716858D01*
X160205000Y-91740750D01*
X160205000Y-92653250D01*
X160203826Y-92677142D01*
X160200316Y-92700803D01*
X160194504Y-92724007D01*
X160186446Y-92746529D01*
X160176218Y-92768153D01*
X160163921Y-92788670D01*
X160149671Y-92807883D01*
X160133607Y-92825607D01*
X160115883Y-92841671D01*
X160096670Y-92855921D01*
X160076153Y-92868218D01*
X160054529Y-92878446D01*
X160032007Y-92886504D01*
X160008803Y-92892316D01*
X159985142Y-92895826D01*
X159961250Y-92897000D01*
X159473750Y-92897000D01*
X159449858Y-92895826D01*
X159426197Y-92892316D01*
X159402993Y-92886504D01*
X159380471Y-92878446D01*
X159358847Y-92868218D01*
X159338330Y-92855921D01*
X159319117Y-92841671D01*
X159301393Y-92825607D01*
X159285329Y-92807883D01*
X159271079Y-92788670D01*
X159258782Y-92768153D01*
X159248554Y-92746529D01*
X159240496Y-92724007D01*
X159234684Y-92700803D01*
X159231174Y-92677142D01*
X159230000Y-92653250D01*
X159230000Y-91740750D01*
X159231174Y-91716858D01*
X159234684Y-91693197D01*
X159240496Y-91669993D01*
X159248554Y-91647471D01*
X159258782Y-91625847D01*
X159271079Y-91605330D01*
X159285329Y-91586117D01*
X159301393Y-91568393D01*
X159319117Y-91552329D01*
X159338330Y-91538079D01*
X159358847Y-91525782D01*
X159380471Y-91515554D01*
X159402993Y-91507496D01*
X159426197Y-91501684D01*
X159449858Y-91498174D01*
X159473750Y-91497000D01*
X159961250Y-91497000D01*
X159985142Y-91498174D01*
G37*
G04 #@! TD*
D12*
G04 #@! TO.C,L1*
X150266400Y-99156600D03*
X150266400Y-93106600D03*
G04 #@! TD*
D13*
G04 #@! TO.C,P1*
X158261000Y-85589000D03*
X158261000Y-83589000D03*
X158261000Y-84089000D03*
X158261000Y-84589000D03*
X158261000Y-85089000D03*
X158261000Y-86089000D03*
X158261000Y-86589000D03*
X158261000Y-87089000D03*
D14*
X158261000Y-82089000D03*
X158261000Y-82889000D03*
X158261000Y-87789000D03*
X158261000Y-88589000D03*
X158261000Y-88589000D03*
X158261000Y-87789000D03*
X158261000Y-82889000D03*
X158261000Y-82089000D03*
G04 #@! TD*
D10*
G04 #@! TO.C,R1*
G36*
X145756691Y-75721053D02*
G01*
X145777926Y-75724203D01*
X145798750Y-75729419D01*
X145818962Y-75736651D01*
X145838368Y-75745830D01*
X145856781Y-75756866D01*
X145874024Y-75769654D01*
X145889930Y-75784070D01*
X145904346Y-75799976D01*
X145917134Y-75817219D01*
X145928170Y-75835632D01*
X145937349Y-75855038D01*
X145944581Y-75875250D01*
X145949797Y-75896074D01*
X145952947Y-75917309D01*
X145954000Y-75938750D01*
X145954000Y-76451250D01*
X145952947Y-76472691D01*
X145949797Y-76493926D01*
X145944581Y-76514750D01*
X145937349Y-76534962D01*
X145928170Y-76554368D01*
X145917134Y-76572781D01*
X145904346Y-76590024D01*
X145889930Y-76605930D01*
X145874024Y-76620346D01*
X145856781Y-76633134D01*
X145838368Y-76644170D01*
X145818962Y-76653349D01*
X145798750Y-76660581D01*
X145777926Y-76665797D01*
X145756691Y-76668947D01*
X145735250Y-76670000D01*
X145297750Y-76670000D01*
X145276309Y-76668947D01*
X145255074Y-76665797D01*
X145234250Y-76660581D01*
X145214038Y-76653349D01*
X145194632Y-76644170D01*
X145176219Y-76633134D01*
X145158976Y-76620346D01*
X145143070Y-76605930D01*
X145128654Y-76590024D01*
X145115866Y-76572781D01*
X145104830Y-76554368D01*
X145095651Y-76534962D01*
X145088419Y-76514750D01*
X145083203Y-76493926D01*
X145080053Y-76472691D01*
X145079000Y-76451250D01*
X145079000Y-75938750D01*
X145080053Y-75917309D01*
X145083203Y-75896074D01*
X145088419Y-75875250D01*
X145095651Y-75855038D01*
X145104830Y-75835632D01*
X145115866Y-75817219D01*
X145128654Y-75799976D01*
X145143070Y-75784070D01*
X145158976Y-75769654D01*
X145176219Y-75756866D01*
X145194632Y-75745830D01*
X145214038Y-75736651D01*
X145234250Y-75729419D01*
X145255074Y-75724203D01*
X145276309Y-75721053D01*
X145297750Y-75720000D01*
X145735250Y-75720000D01*
X145756691Y-75721053D01*
G37*
G36*
X147331691Y-75721053D02*
G01*
X147352926Y-75724203D01*
X147373750Y-75729419D01*
X147393962Y-75736651D01*
X147413368Y-75745830D01*
X147431781Y-75756866D01*
X147449024Y-75769654D01*
X147464930Y-75784070D01*
X147479346Y-75799976D01*
X147492134Y-75817219D01*
X147503170Y-75835632D01*
X147512349Y-75855038D01*
X147519581Y-75875250D01*
X147524797Y-75896074D01*
X147527947Y-75917309D01*
X147529000Y-75938750D01*
X147529000Y-76451250D01*
X147527947Y-76472691D01*
X147524797Y-76493926D01*
X147519581Y-76514750D01*
X147512349Y-76534962D01*
X147503170Y-76554368D01*
X147492134Y-76572781D01*
X147479346Y-76590024D01*
X147464930Y-76605930D01*
X147449024Y-76620346D01*
X147431781Y-76633134D01*
X147413368Y-76644170D01*
X147393962Y-76653349D01*
X147373750Y-76660581D01*
X147352926Y-76665797D01*
X147331691Y-76668947D01*
X147310250Y-76670000D01*
X146872750Y-76670000D01*
X146851309Y-76668947D01*
X146830074Y-76665797D01*
X146809250Y-76660581D01*
X146789038Y-76653349D01*
X146769632Y-76644170D01*
X146751219Y-76633134D01*
X146733976Y-76620346D01*
X146718070Y-76605930D01*
X146703654Y-76590024D01*
X146690866Y-76572781D01*
X146679830Y-76554368D01*
X146670651Y-76534962D01*
X146663419Y-76514750D01*
X146658203Y-76493926D01*
X146655053Y-76472691D01*
X146654000Y-76451250D01*
X146654000Y-75938750D01*
X146655053Y-75917309D01*
X146658203Y-75896074D01*
X146663419Y-75875250D01*
X146670651Y-75855038D01*
X146679830Y-75835632D01*
X146690866Y-75817219D01*
X146703654Y-75799976D01*
X146718070Y-75784070D01*
X146733976Y-75769654D01*
X146751219Y-75756866D01*
X146769632Y-75745830D01*
X146789038Y-75736651D01*
X146809250Y-75729419D01*
X146830074Y-75724203D01*
X146851309Y-75721053D01*
X146872750Y-75720000D01*
X147310250Y-75720000D01*
X147331691Y-75721053D01*
G37*
G04 #@! TD*
G04 #@! TO.C,R8*
G36*
X147343691Y-85817053D02*
G01*
X147364926Y-85820203D01*
X147385750Y-85825419D01*
X147405962Y-85832651D01*
X147425368Y-85841830D01*
X147443781Y-85852866D01*
X147461024Y-85865654D01*
X147476930Y-85880070D01*
X147491346Y-85895976D01*
X147504134Y-85913219D01*
X147515170Y-85931632D01*
X147524349Y-85951038D01*
X147531581Y-85971250D01*
X147536797Y-85992074D01*
X147539947Y-86013309D01*
X147541000Y-86034750D01*
X147541000Y-86472250D01*
X147539947Y-86493691D01*
X147536797Y-86514926D01*
X147531581Y-86535750D01*
X147524349Y-86555962D01*
X147515170Y-86575368D01*
X147504134Y-86593781D01*
X147491346Y-86611024D01*
X147476930Y-86626930D01*
X147461024Y-86641346D01*
X147443781Y-86654134D01*
X147425368Y-86665170D01*
X147405962Y-86674349D01*
X147385750Y-86681581D01*
X147364926Y-86686797D01*
X147343691Y-86689947D01*
X147322250Y-86691000D01*
X146809750Y-86691000D01*
X146788309Y-86689947D01*
X146767074Y-86686797D01*
X146746250Y-86681581D01*
X146726038Y-86674349D01*
X146706632Y-86665170D01*
X146688219Y-86654134D01*
X146670976Y-86641346D01*
X146655070Y-86626930D01*
X146640654Y-86611024D01*
X146627866Y-86593781D01*
X146616830Y-86575368D01*
X146607651Y-86555962D01*
X146600419Y-86535750D01*
X146595203Y-86514926D01*
X146592053Y-86493691D01*
X146591000Y-86472250D01*
X146591000Y-86034750D01*
X146592053Y-86013309D01*
X146595203Y-85992074D01*
X146600419Y-85971250D01*
X146607651Y-85951038D01*
X146616830Y-85931632D01*
X146627866Y-85913219D01*
X146640654Y-85895976D01*
X146655070Y-85880070D01*
X146670976Y-85865654D01*
X146688219Y-85852866D01*
X146706632Y-85841830D01*
X146726038Y-85832651D01*
X146746250Y-85825419D01*
X146767074Y-85820203D01*
X146788309Y-85817053D01*
X146809750Y-85816000D01*
X147322250Y-85816000D01*
X147343691Y-85817053D01*
G37*
G36*
X147343691Y-84242053D02*
G01*
X147364926Y-84245203D01*
X147385750Y-84250419D01*
X147405962Y-84257651D01*
X147425368Y-84266830D01*
X147443781Y-84277866D01*
X147461024Y-84290654D01*
X147476930Y-84305070D01*
X147491346Y-84320976D01*
X147504134Y-84338219D01*
X147515170Y-84356632D01*
X147524349Y-84376038D01*
X147531581Y-84396250D01*
X147536797Y-84417074D01*
X147539947Y-84438309D01*
X147541000Y-84459750D01*
X147541000Y-84897250D01*
X147539947Y-84918691D01*
X147536797Y-84939926D01*
X147531581Y-84960750D01*
X147524349Y-84980962D01*
X147515170Y-85000368D01*
X147504134Y-85018781D01*
X147491346Y-85036024D01*
X147476930Y-85051930D01*
X147461024Y-85066346D01*
X147443781Y-85079134D01*
X147425368Y-85090170D01*
X147405962Y-85099349D01*
X147385750Y-85106581D01*
X147364926Y-85111797D01*
X147343691Y-85114947D01*
X147322250Y-85116000D01*
X146809750Y-85116000D01*
X146788309Y-85114947D01*
X146767074Y-85111797D01*
X146746250Y-85106581D01*
X146726038Y-85099349D01*
X146706632Y-85090170D01*
X146688219Y-85079134D01*
X146670976Y-85066346D01*
X146655070Y-85051930D01*
X146640654Y-85036024D01*
X146627866Y-85018781D01*
X146616830Y-85000368D01*
X146607651Y-84980962D01*
X146600419Y-84960750D01*
X146595203Y-84939926D01*
X146592053Y-84918691D01*
X146591000Y-84897250D01*
X146591000Y-84459750D01*
X146592053Y-84438309D01*
X146595203Y-84417074D01*
X146600419Y-84396250D01*
X146607651Y-84376038D01*
X146616830Y-84356632D01*
X146627866Y-84338219D01*
X146640654Y-84320976D01*
X146655070Y-84305070D01*
X146670976Y-84290654D01*
X146688219Y-84277866D01*
X146706632Y-84266830D01*
X146726038Y-84257651D01*
X146746250Y-84250419D01*
X146767074Y-84245203D01*
X146788309Y-84242053D01*
X146809750Y-84241000D01*
X147322250Y-84241000D01*
X147343691Y-84242053D01*
G37*
G04 #@! TD*
G04 #@! TO.C,R9*
G36*
X152513291Y-88649653D02*
G01*
X152534526Y-88652803D01*
X152555350Y-88658019D01*
X152575562Y-88665251D01*
X152594968Y-88674430D01*
X152613381Y-88685466D01*
X152630624Y-88698254D01*
X152646530Y-88712670D01*
X152660946Y-88728576D01*
X152673734Y-88745819D01*
X152684770Y-88764232D01*
X152693949Y-88783638D01*
X152701181Y-88803850D01*
X152706397Y-88824674D01*
X152709547Y-88845909D01*
X152710600Y-88867350D01*
X152710600Y-89379850D01*
X152709547Y-89401291D01*
X152706397Y-89422526D01*
X152701181Y-89443350D01*
X152693949Y-89463562D01*
X152684770Y-89482968D01*
X152673734Y-89501381D01*
X152660946Y-89518624D01*
X152646530Y-89534530D01*
X152630624Y-89548946D01*
X152613381Y-89561734D01*
X152594968Y-89572770D01*
X152575562Y-89581949D01*
X152555350Y-89589181D01*
X152534526Y-89594397D01*
X152513291Y-89597547D01*
X152491850Y-89598600D01*
X152054350Y-89598600D01*
X152032909Y-89597547D01*
X152011674Y-89594397D01*
X151990850Y-89589181D01*
X151970638Y-89581949D01*
X151951232Y-89572770D01*
X151932819Y-89561734D01*
X151915576Y-89548946D01*
X151899670Y-89534530D01*
X151885254Y-89518624D01*
X151872466Y-89501381D01*
X151861430Y-89482968D01*
X151852251Y-89463562D01*
X151845019Y-89443350D01*
X151839803Y-89422526D01*
X151836653Y-89401291D01*
X151835600Y-89379850D01*
X151835600Y-88867350D01*
X151836653Y-88845909D01*
X151839803Y-88824674D01*
X151845019Y-88803850D01*
X151852251Y-88783638D01*
X151861430Y-88764232D01*
X151872466Y-88745819D01*
X151885254Y-88728576D01*
X151899670Y-88712670D01*
X151915576Y-88698254D01*
X151932819Y-88685466D01*
X151951232Y-88674430D01*
X151970638Y-88665251D01*
X151990850Y-88658019D01*
X152011674Y-88652803D01*
X152032909Y-88649653D01*
X152054350Y-88648600D01*
X152491850Y-88648600D01*
X152513291Y-88649653D01*
G37*
G36*
X150938291Y-88649653D02*
G01*
X150959526Y-88652803D01*
X150980350Y-88658019D01*
X151000562Y-88665251D01*
X151019968Y-88674430D01*
X151038381Y-88685466D01*
X151055624Y-88698254D01*
X151071530Y-88712670D01*
X151085946Y-88728576D01*
X151098734Y-88745819D01*
X151109770Y-88764232D01*
X151118949Y-88783638D01*
X151126181Y-88803850D01*
X151131397Y-88824674D01*
X151134547Y-88845909D01*
X151135600Y-88867350D01*
X151135600Y-89379850D01*
X151134547Y-89401291D01*
X151131397Y-89422526D01*
X151126181Y-89443350D01*
X151118949Y-89463562D01*
X151109770Y-89482968D01*
X151098734Y-89501381D01*
X151085946Y-89518624D01*
X151071530Y-89534530D01*
X151055624Y-89548946D01*
X151038381Y-89561734D01*
X151019968Y-89572770D01*
X151000562Y-89581949D01*
X150980350Y-89589181D01*
X150959526Y-89594397D01*
X150938291Y-89597547D01*
X150916850Y-89598600D01*
X150479350Y-89598600D01*
X150457909Y-89597547D01*
X150436674Y-89594397D01*
X150415850Y-89589181D01*
X150395638Y-89581949D01*
X150376232Y-89572770D01*
X150357819Y-89561734D01*
X150340576Y-89548946D01*
X150324670Y-89534530D01*
X150310254Y-89518624D01*
X150297466Y-89501381D01*
X150286430Y-89482968D01*
X150277251Y-89463562D01*
X150270019Y-89443350D01*
X150264803Y-89422526D01*
X150261653Y-89401291D01*
X150260600Y-89379850D01*
X150260600Y-88867350D01*
X150261653Y-88845909D01*
X150264803Y-88824674D01*
X150270019Y-88803850D01*
X150277251Y-88783638D01*
X150286430Y-88764232D01*
X150297466Y-88745819D01*
X150310254Y-88728576D01*
X150324670Y-88712670D01*
X150340576Y-88698254D01*
X150357819Y-88685466D01*
X150376232Y-88674430D01*
X150395638Y-88665251D01*
X150415850Y-88658019D01*
X150436674Y-88652803D01*
X150457909Y-88649653D01*
X150479350Y-88648600D01*
X150916850Y-88648600D01*
X150938291Y-88649653D01*
G37*
G04 #@! TD*
G04 #@! TO.C,R10*
G36*
X154354091Y-82997453D02*
G01*
X154375326Y-83000603D01*
X154396150Y-83005819D01*
X154416362Y-83013051D01*
X154435768Y-83022230D01*
X154454181Y-83033266D01*
X154471424Y-83046054D01*
X154487330Y-83060470D01*
X154501746Y-83076376D01*
X154514534Y-83093619D01*
X154525570Y-83112032D01*
X154534749Y-83131438D01*
X154541981Y-83151650D01*
X154547197Y-83172474D01*
X154550347Y-83193709D01*
X154551400Y-83215150D01*
X154551400Y-83652650D01*
X154550347Y-83674091D01*
X154547197Y-83695326D01*
X154541981Y-83716150D01*
X154534749Y-83736362D01*
X154525570Y-83755768D01*
X154514534Y-83774181D01*
X154501746Y-83791424D01*
X154487330Y-83807330D01*
X154471424Y-83821746D01*
X154454181Y-83834534D01*
X154435768Y-83845570D01*
X154416362Y-83854749D01*
X154396150Y-83861981D01*
X154375326Y-83867197D01*
X154354091Y-83870347D01*
X154332650Y-83871400D01*
X153820150Y-83871400D01*
X153798709Y-83870347D01*
X153777474Y-83867197D01*
X153756650Y-83861981D01*
X153736438Y-83854749D01*
X153717032Y-83845570D01*
X153698619Y-83834534D01*
X153681376Y-83821746D01*
X153665470Y-83807330D01*
X153651054Y-83791424D01*
X153638266Y-83774181D01*
X153627230Y-83755768D01*
X153618051Y-83736362D01*
X153610819Y-83716150D01*
X153605603Y-83695326D01*
X153602453Y-83674091D01*
X153601400Y-83652650D01*
X153601400Y-83215150D01*
X153602453Y-83193709D01*
X153605603Y-83172474D01*
X153610819Y-83151650D01*
X153618051Y-83131438D01*
X153627230Y-83112032D01*
X153638266Y-83093619D01*
X153651054Y-83076376D01*
X153665470Y-83060470D01*
X153681376Y-83046054D01*
X153698619Y-83033266D01*
X153717032Y-83022230D01*
X153736438Y-83013051D01*
X153756650Y-83005819D01*
X153777474Y-83000603D01*
X153798709Y-82997453D01*
X153820150Y-82996400D01*
X154332650Y-82996400D01*
X154354091Y-82997453D01*
G37*
G36*
X154354091Y-84572453D02*
G01*
X154375326Y-84575603D01*
X154396150Y-84580819D01*
X154416362Y-84588051D01*
X154435768Y-84597230D01*
X154454181Y-84608266D01*
X154471424Y-84621054D01*
X154487330Y-84635470D01*
X154501746Y-84651376D01*
X154514534Y-84668619D01*
X154525570Y-84687032D01*
X154534749Y-84706438D01*
X154541981Y-84726650D01*
X154547197Y-84747474D01*
X154550347Y-84768709D01*
X154551400Y-84790150D01*
X154551400Y-85227650D01*
X154550347Y-85249091D01*
X154547197Y-85270326D01*
X154541981Y-85291150D01*
X154534749Y-85311362D01*
X154525570Y-85330768D01*
X154514534Y-85349181D01*
X154501746Y-85366424D01*
X154487330Y-85382330D01*
X154471424Y-85396746D01*
X154454181Y-85409534D01*
X154435768Y-85420570D01*
X154416362Y-85429749D01*
X154396150Y-85436981D01*
X154375326Y-85442197D01*
X154354091Y-85445347D01*
X154332650Y-85446400D01*
X153820150Y-85446400D01*
X153798709Y-85445347D01*
X153777474Y-85442197D01*
X153756650Y-85436981D01*
X153736438Y-85429749D01*
X153717032Y-85420570D01*
X153698619Y-85409534D01*
X153681376Y-85396746D01*
X153665470Y-85382330D01*
X153651054Y-85366424D01*
X153638266Y-85349181D01*
X153627230Y-85330768D01*
X153618051Y-85311362D01*
X153610819Y-85291150D01*
X153605603Y-85270326D01*
X153602453Y-85249091D01*
X153601400Y-85227650D01*
X153601400Y-84790150D01*
X153602453Y-84768709D01*
X153605603Y-84747474D01*
X153610819Y-84726650D01*
X153618051Y-84706438D01*
X153627230Y-84687032D01*
X153638266Y-84668619D01*
X153651054Y-84651376D01*
X153665470Y-84635470D01*
X153681376Y-84621054D01*
X153698619Y-84608266D01*
X153717032Y-84597230D01*
X153736438Y-84588051D01*
X153756650Y-84580819D01*
X153777474Y-84575603D01*
X153798709Y-84572453D01*
X153820150Y-84571400D01*
X154332650Y-84571400D01*
X154354091Y-84572453D01*
G37*
G04 #@! TD*
G04 #@! TO.C,R11*
G36*
X150252691Y-75721053D02*
G01*
X150273926Y-75724203D01*
X150294750Y-75729419D01*
X150314962Y-75736651D01*
X150334368Y-75745830D01*
X150352781Y-75756866D01*
X150370024Y-75769654D01*
X150385930Y-75784070D01*
X150400346Y-75799976D01*
X150413134Y-75817219D01*
X150424170Y-75835632D01*
X150433349Y-75855038D01*
X150440581Y-75875250D01*
X150445797Y-75896074D01*
X150448947Y-75917309D01*
X150450000Y-75938750D01*
X150450000Y-76451250D01*
X150448947Y-76472691D01*
X150445797Y-76493926D01*
X150440581Y-76514750D01*
X150433349Y-76534962D01*
X150424170Y-76554368D01*
X150413134Y-76572781D01*
X150400346Y-76590024D01*
X150385930Y-76605930D01*
X150370024Y-76620346D01*
X150352781Y-76633134D01*
X150334368Y-76644170D01*
X150314962Y-76653349D01*
X150294750Y-76660581D01*
X150273926Y-76665797D01*
X150252691Y-76668947D01*
X150231250Y-76670000D01*
X149793750Y-76670000D01*
X149772309Y-76668947D01*
X149751074Y-76665797D01*
X149730250Y-76660581D01*
X149710038Y-76653349D01*
X149690632Y-76644170D01*
X149672219Y-76633134D01*
X149654976Y-76620346D01*
X149639070Y-76605930D01*
X149624654Y-76590024D01*
X149611866Y-76572781D01*
X149600830Y-76554368D01*
X149591651Y-76534962D01*
X149584419Y-76514750D01*
X149579203Y-76493926D01*
X149576053Y-76472691D01*
X149575000Y-76451250D01*
X149575000Y-75938750D01*
X149576053Y-75917309D01*
X149579203Y-75896074D01*
X149584419Y-75875250D01*
X149591651Y-75855038D01*
X149600830Y-75835632D01*
X149611866Y-75817219D01*
X149624654Y-75799976D01*
X149639070Y-75784070D01*
X149654976Y-75769654D01*
X149672219Y-75756866D01*
X149690632Y-75745830D01*
X149710038Y-75736651D01*
X149730250Y-75729419D01*
X149751074Y-75724203D01*
X149772309Y-75721053D01*
X149793750Y-75720000D01*
X150231250Y-75720000D01*
X150252691Y-75721053D01*
G37*
G36*
X148677691Y-75721053D02*
G01*
X148698926Y-75724203D01*
X148719750Y-75729419D01*
X148739962Y-75736651D01*
X148759368Y-75745830D01*
X148777781Y-75756866D01*
X148795024Y-75769654D01*
X148810930Y-75784070D01*
X148825346Y-75799976D01*
X148838134Y-75817219D01*
X148849170Y-75835632D01*
X148858349Y-75855038D01*
X148865581Y-75875250D01*
X148870797Y-75896074D01*
X148873947Y-75917309D01*
X148875000Y-75938750D01*
X148875000Y-76451250D01*
X148873947Y-76472691D01*
X148870797Y-76493926D01*
X148865581Y-76514750D01*
X148858349Y-76534962D01*
X148849170Y-76554368D01*
X148838134Y-76572781D01*
X148825346Y-76590024D01*
X148810930Y-76605930D01*
X148795024Y-76620346D01*
X148777781Y-76633134D01*
X148759368Y-76644170D01*
X148739962Y-76653349D01*
X148719750Y-76660581D01*
X148698926Y-76665797D01*
X148677691Y-76668947D01*
X148656250Y-76670000D01*
X148218750Y-76670000D01*
X148197309Y-76668947D01*
X148176074Y-76665797D01*
X148155250Y-76660581D01*
X148135038Y-76653349D01*
X148115632Y-76644170D01*
X148097219Y-76633134D01*
X148079976Y-76620346D01*
X148064070Y-76605930D01*
X148049654Y-76590024D01*
X148036866Y-76572781D01*
X148025830Y-76554368D01*
X148016651Y-76534962D01*
X148009419Y-76514750D01*
X148004203Y-76493926D01*
X148001053Y-76472691D01*
X148000000Y-76451250D01*
X148000000Y-75938750D01*
X148001053Y-75917309D01*
X148004203Y-75896074D01*
X148009419Y-75875250D01*
X148016651Y-75855038D01*
X148025830Y-75835632D01*
X148036866Y-75817219D01*
X148049654Y-75799976D01*
X148064070Y-75784070D01*
X148079976Y-75769654D01*
X148097219Y-75756866D01*
X148115632Y-75745830D01*
X148135038Y-75736651D01*
X148155250Y-75729419D01*
X148176074Y-75724203D01*
X148197309Y-75721053D01*
X148218750Y-75720000D01*
X148656250Y-75720000D01*
X148677691Y-75721053D01*
G37*
G04 #@! TD*
G04 #@! TO.C,R12*
G36*
X153173691Y-75721053D02*
G01*
X153194926Y-75724203D01*
X153215750Y-75729419D01*
X153235962Y-75736651D01*
X153255368Y-75745830D01*
X153273781Y-75756866D01*
X153291024Y-75769654D01*
X153306930Y-75784070D01*
X153321346Y-75799976D01*
X153334134Y-75817219D01*
X153345170Y-75835632D01*
X153354349Y-75855038D01*
X153361581Y-75875250D01*
X153366797Y-75896074D01*
X153369947Y-75917309D01*
X153371000Y-75938750D01*
X153371000Y-76451250D01*
X153369947Y-76472691D01*
X153366797Y-76493926D01*
X153361581Y-76514750D01*
X153354349Y-76534962D01*
X153345170Y-76554368D01*
X153334134Y-76572781D01*
X153321346Y-76590024D01*
X153306930Y-76605930D01*
X153291024Y-76620346D01*
X153273781Y-76633134D01*
X153255368Y-76644170D01*
X153235962Y-76653349D01*
X153215750Y-76660581D01*
X153194926Y-76665797D01*
X153173691Y-76668947D01*
X153152250Y-76670000D01*
X152714750Y-76670000D01*
X152693309Y-76668947D01*
X152672074Y-76665797D01*
X152651250Y-76660581D01*
X152631038Y-76653349D01*
X152611632Y-76644170D01*
X152593219Y-76633134D01*
X152575976Y-76620346D01*
X152560070Y-76605930D01*
X152545654Y-76590024D01*
X152532866Y-76572781D01*
X152521830Y-76554368D01*
X152512651Y-76534962D01*
X152505419Y-76514750D01*
X152500203Y-76493926D01*
X152497053Y-76472691D01*
X152496000Y-76451250D01*
X152496000Y-75938750D01*
X152497053Y-75917309D01*
X152500203Y-75896074D01*
X152505419Y-75875250D01*
X152512651Y-75855038D01*
X152521830Y-75835632D01*
X152532866Y-75817219D01*
X152545654Y-75799976D01*
X152560070Y-75784070D01*
X152575976Y-75769654D01*
X152593219Y-75756866D01*
X152611632Y-75745830D01*
X152631038Y-75736651D01*
X152651250Y-75729419D01*
X152672074Y-75724203D01*
X152693309Y-75721053D01*
X152714750Y-75720000D01*
X153152250Y-75720000D01*
X153173691Y-75721053D01*
G37*
G36*
X151598691Y-75721053D02*
G01*
X151619926Y-75724203D01*
X151640750Y-75729419D01*
X151660962Y-75736651D01*
X151680368Y-75745830D01*
X151698781Y-75756866D01*
X151716024Y-75769654D01*
X151731930Y-75784070D01*
X151746346Y-75799976D01*
X151759134Y-75817219D01*
X151770170Y-75835632D01*
X151779349Y-75855038D01*
X151786581Y-75875250D01*
X151791797Y-75896074D01*
X151794947Y-75917309D01*
X151796000Y-75938750D01*
X151796000Y-76451250D01*
X151794947Y-76472691D01*
X151791797Y-76493926D01*
X151786581Y-76514750D01*
X151779349Y-76534962D01*
X151770170Y-76554368D01*
X151759134Y-76572781D01*
X151746346Y-76590024D01*
X151731930Y-76605930D01*
X151716024Y-76620346D01*
X151698781Y-76633134D01*
X151680368Y-76644170D01*
X151660962Y-76653349D01*
X151640750Y-76660581D01*
X151619926Y-76665797D01*
X151598691Y-76668947D01*
X151577250Y-76670000D01*
X151139750Y-76670000D01*
X151118309Y-76668947D01*
X151097074Y-76665797D01*
X151076250Y-76660581D01*
X151056038Y-76653349D01*
X151036632Y-76644170D01*
X151018219Y-76633134D01*
X151000976Y-76620346D01*
X150985070Y-76605930D01*
X150970654Y-76590024D01*
X150957866Y-76572781D01*
X150946830Y-76554368D01*
X150937651Y-76534962D01*
X150930419Y-76514750D01*
X150925203Y-76493926D01*
X150922053Y-76472691D01*
X150921000Y-76451250D01*
X150921000Y-75938750D01*
X150922053Y-75917309D01*
X150925203Y-75896074D01*
X150930419Y-75875250D01*
X150937651Y-75855038D01*
X150946830Y-75835632D01*
X150957866Y-75817219D01*
X150970654Y-75799976D01*
X150985070Y-75784070D01*
X151000976Y-75769654D01*
X151018219Y-75756866D01*
X151036632Y-75745830D01*
X151056038Y-75736651D01*
X151076250Y-75729419D01*
X151097074Y-75724203D01*
X151118309Y-75721053D01*
X151139750Y-75720000D01*
X151577250Y-75720000D01*
X151598691Y-75721053D01*
G37*
G04 #@! TD*
G04 #@! TO.C,R16*
G36*
X145819691Y-77257053D02*
G01*
X145840926Y-77260203D01*
X145861750Y-77265419D01*
X145881962Y-77272651D01*
X145901368Y-77281830D01*
X145919781Y-77292866D01*
X145937024Y-77305654D01*
X145952930Y-77320070D01*
X145967346Y-77335976D01*
X145980134Y-77353219D01*
X145991170Y-77371632D01*
X146000349Y-77391038D01*
X146007581Y-77411250D01*
X146012797Y-77432074D01*
X146015947Y-77453309D01*
X146017000Y-77474750D01*
X146017000Y-77912250D01*
X146015947Y-77933691D01*
X146012797Y-77954926D01*
X146007581Y-77975750D01*
X146000349Y-77995962D01*
X145991170Y-78015368D01*
X145980134Y-78033781D01*
X145967346Y-78051024D01*
X145952930Y-78066930D01*
X145937024Y-78081346D01*
X145919781Y-78094134D01*
X145901368Y-78105170D01*
X145881962Y-78114349D01*
X145861750Y-78121581D01*
X145840926Y-78126797D01*
X145819691Y-78129947D01*
X145798250Y-78131000D01*
X145285750Y-78131000D01*
X145264309Y-78129947D01*
X145243074Y-78126797D01*
X145222250Y-78121581D01*
X145202038Y-78114349D01*
X145182632Y-78105170D01*
X145164219Y-78094134D01*
X145146976Y-78081346D01*
X145131070Y-78066930D01*
X145116654Y-78051024D01*
X145103866Y-78033781D01*
X145092830Y-78015368D01*
X145083651Y-77995962D01*
X145076419Y-77975750D01*
X145071203Y-77954926D01*
X145068053Y-77933691D01*
X145067000Y-77912250D01*
X145067000Y-77474750D01*
X145068053Y-77453309D01*
X145071203Y-77432074D01*
X145076419Y-77411250D01*
X145083651Y-77391038D01*
X145092830Y-77371632D01*
X145103866Y-77353219D01*
X145116654Y-77335976D01*
X145131070Y-77320070D01*
X145146976Y-77305654D01*
X145164219Y-77292866D01*
X145182632Y-77281830D01*
X145202038Y-77272651D01*
X145222250Y-77265419D01*
X145243074Y-77260203D01*
X145264309Y-77257053D01*
X145285750Y-77256000D01*
X145798250Y-77256000D01*
X145819691Y-77257053D01*
G37*
G36*
X145819691Y-78832053D02*
G01*
X145840926Y-78835203D01*
X145861750Y-78840419D01*
X145881962Y-78847651D01*
X145901368Y-78856830D01*
X145919781Y-78867866D01*
X145937024Y-78880654D01*
X145952930Y-78895070D01*
X145967346Y-78910976D01*
X145980134Y-78928219D01*
X145991170Y-78946632D01*
X146000349Y-78966038D01*
X146007581Y-78986250D01*
X146012797Y-79007074D01*
X146015947Y-79028309D01*
X146017000Y-79049750D01*
X146017000Y-79487250D01*
X146015947Y-79508691D01*
X146012797Y-79529926D01*
X146007581Y-79550750D01*
X146000349Y-79570962D01*
X145991170Y-79590368D01*
X145980134Y-79608781D01*
X145967346Y-79626024D01*
X145952930Y-79641930D01*
X145937024Y-79656346D01*
X145919781Y-79669134D01*
X145901368Y-79680170D01*
X145881962Y-79689349D01*
X145861750Y-79696581D01*
X145840926Y-79701797D01*
X145819691Y-79704947D01*
X145798250Y-79706000D01*
X145285750Y-79706000D01*
X145264309Y-79704947D01*
X145243074Y-79701797D01*
X145222250Y-79696581D01*
X145202038Y-79689349D01*
X145182632Y-79680170D01*
X145164219Y-79669134D01*
X145146976Y-79656346D01*
X145131070Y-79641930D01*
X145116654Y-79626024D01*
X145103866Y-79608781D01*
X145092830Y-79590368D01*
X145083651Y-79570962D01*
X145076419Y-79550750D01*
X145071203Y-79529926D01*
X145068053Y-79508691D01*
X145067000Y-79487250D01*
X145067000Y-79049750D01*
X145068053Y-79028309D01*
X145071203Y-79007074D01*
X145076419Y-78986250D01*
X145083651Y-78966038D01*
X145092830Y-78946632D01*
X145103866Y-78928219D01*
X145116654Y-78910976D01*
X145131070Y-78895070D01*
X145146976Y-78880654D01*
X145164219Y-78867866D01*
X145182632Y-78856830D01*
X145202038Y-78847651D01*
X145222250Y-78840419D01*
X145243074Y-78835203D01*
X145264309Y-78832053D01*
X145285750Y-78831000D01*
X145798250Y-78831000D01*
X145819691Y-78832053D01*
G37*
G04 #@! TD*
G04 #@! TO.C,R17*
G36*
X145565691Y-94783053D02*
G01*
X145586926Y-94786203D01*
X145607750Y-94791419D01*
X145627962Y-94798651D01*
X145647368Y-94807830D01*
X145665781Y-94818866D01*
X145683024Y-94831654D01*
X145698930Y-94846070D01*
X145713346Y-94861976D01*
X145726134Y-94879219D01*
X145737170Y-94897632D01*
X145746349Y-94917038D01*
X145753581Y-94937250D01*
X145758797Y-94958074D01*
X145761947Y-94979309D01*
X145763000Y-95000750D01*
X145763000Y-95438250D01*
X145761947Y-95459691D01*
X145758797Y-95480926D01*
X145753581Y-95501750D01*
X145746349Y-95521962D01*
X145737170Y-95541368D01*
X145726134Y-95559781D01*
X145713346Y-95577024D01*
X145698930Y-95592930D01*
X145683024Y-95607346D01*
X145665781Y-95620134D01*
X145647368Y-95631170D01*
X145627962Y-95640349D01*
X145607750Y-95647581D01*
X145586926Y-95652797D01*
X145565691Y-95655947D01*
X145544250Y-95657000D01*
X145031750Y-95657000D01*
X145010309Y-95655947D01*
X144989074Y-95652797D01*
X144968250Y-95647581D01*
X144948038Y-95640349D01*
X144928632Y-95631170D01*
X144910219Y-95620134D01*
X144892976Y-95607346D01*
X144877070Y-95592930D01*
X144862654Y-95577024D01*
X144849866Y-95559781D01*
X144838830Y-95541368D01*
X144829651Y-95521962D01*
X144822419Y-95501750D01*
X144817203Y-95480926D01*
X144814053Y-95459691D01*
X144813000Y-95438250D01*
X144813000Y-95000750D01*
X144814053Y-94979309D01*
X144817203Y-94958074D01*
X144822419Y-94937250D01*
X144829651Y-94917038D01*
X144838830Y-94897632D01*
X144849866Y-94879219D01*
X144862654Y-94861976D01*
X144877070Y-94846070D01*
X144892976Y-94831654D01*
X144910219Y-94818866D01*
X144928632Y-94807830D01*
X144948038Y-94798651D01*
X144968250Y-94791419D01*
X144989074Y-94786203D01*
X145010309Y-94783053D01*
X145031750Y-94782000D01*
X145544250Y-94782000D01*
X145565691Y-94783053D01*
G37*
G36*
X145565691Y-96358053D02*
G01*
X145586926Y-96361203D01*
X145607750Y-96366419D01*
X145627962Y-96373651D01*
X145647368Y-96382830D01*
X145665781Y-96393866D01*
X145683024Y-96406654D01*
X145698930Y-96421070D01*
X145713346Y-96436976D01*
X145726134Y-96454219D01*
X145737170Y-96472632D01*
X145746349Y-96492038D01*
X145753581Y-96512250D01*
X145758797Y-96533074D01*
X145761947Y-96554309D01*
X145763000Y-96575750D01*
X145763000Y-97013250D01*
X145761947Y-97034691D01*
X145758797Y-97055926D01*
X145753581Y-97076750D01*
X145746349Y-97096962D01*
X145737170Y-97116368D01*
X145726134Y-97134781D01*
X145713346Y-97152024D01*
X145698930Y-97167930D01*
X145683024Y-97182346D01*
X145665781Y-97195134D01*
X145647368Y-97206170D01*
X145627962Y-97215349D01*
X145607750Y-97222581D01*
X145586926Y-97227797D01*
X145565691Y-97230947D01*
X145544250Y-97232000D01*
X145031750Y-97232000D01*
X145010309Y-97230947D01*
X144989074Y-97227797D01*
X144968250Y-97222581D01*
X144948038Y-97215349D01*
X144928632Y-97206170D01*
X144910219Y-97195134D01*
X144892976Y-97182346D01*
X144877070Y-97167930D01*
X144862654Y-97152024D01*
X144849866Y-97134781D01*
X144838830Y-97116368D01*
X144829651Y-97096962D01*
X144822419Y-97076750D01*
X144817203Y-97055926D01*
X144814053Y-97034691D01*
X144813000Y-97013250D01*
X144813000Y-96575750D01*
X144814053Y-96554309D01*
X144817203Y-96533074D01*
X144822419Y-96512250D01*
X144829651Y-96492038D01*
X144838830Y-96472632D01*
X144849866Y-96454219D01*
X144862654Y-96436976D01*
X144877070Y-96421070D01*
X144892976Y-96406654D01*
X144910219Y-96393866D01*
X144928632Y-96382830D01*
X144948038Y-96373651D01*
X144968250Y-96366419D01*
X144989074Y-96361203D01*
X145010309Y-96358053D01*
X145031750Y-96357000D01*
X145544250Y-96357000D01*
X145565691Y-96358053D01*
G37*
G04 #@! TD*
G04 #@! TO.C,R19*
G36*
X145819691Y-82261053D02*
G01*
X145840926Y-82264203D01*
X145861750Y-82269419D01*
X145881962Y-82276651D01*
X145901368Y-82285830D01*
X145919781Y-82296866D01*
X145937024Y-82309654D01*
X145952930Y-82324070D01*
X145967346Y-82339976D01*
X145980134Y-82357219D01*
X145991170Y-82375632D01*
X146000349Y-82395038D01*
X146007581Y-82415250D01*
X146012797Y-82436074D01*
X146015947Y-82457309D01*
X146017000Y-82478750D01*
X146017000Y-82916250D01*
X146015947Y-82937691D01*
X146012797Y-82958926D01*
X146007581Y-82979750D01*
X146000349Y-82999962D01*
X145991170Y-83019368D01*
X145980134Y-83037781D01*
X145967346Y-83055024D01*
X145952930Y-83070930D01*
X145937024Y-83085346D01*
X145919781Y-83098134D01*
X145901368Y-83109170D01*
X145881962Y-83118349D01*
X145861750Y-83125581D01*
X145840926Y-83130797D01*
X145819691Y-83133947D01*
X145798250Y-83135000D01*
X145285750Y-83135000D01*
X145264309Y-83133947D01*
X145243074Y-83130797D01*
X145222250Y-83125581D01*
X145202038Y-83118349D01*
X145182632Y-83109170D01*
X145164219Y-83098134D01*
X145146976Y-83085346D01*
X145131070Y-83070930D01*
X145116654Y-83055024D01*
X145103866Y-83037781D01*
X145092830Y-83019368D01*
X145083651Y-82999962D01*
X145076419Y-82979750D01*
X145071203Y-82958926D01*
X145068053Y-82937691D01*
X145067000Y-82916250D01*
X145067000Y-82478750D01*
X145068053Y-82457309D01*
X145071203Y-82436074D01*
X145076419Y-82415250D01*
X145083651Y-82395038D01*
X145092830Y-82375632D01*
X145103866Y-82357219D01*
X145116654Y-82339976D01*
X145131070Y-82324070D01*
X145146976Y-82309654D01*
X145164219Y-82296866D01*
X145182632Y-82285830D01*
X145202038Y-82276651D01*
X145222250Y-82269419D01*
X145243074Y-82264203D01*
X145264309Y-82261053D01*
X145285750Y-82260000D01*
X145798250Y-82260000D01*
X145819691Y-82261053D01*
G37*
G36*
X145819691Y-80686053D02*
G01*
X145840926Y-80689203D01*
X145861750Y-80694419D01*
X145881962Y-80701651D01*
X145901368Y-80710830D01*
X145919781Y-80721866D01*
X145937024Y-80734654D01*
X145952930Y-80749070D01*
X145967346Y-80764976D01*
X145980134Y-80782219D01*
X145991170Y-80800632D01*
X146000349Y-80820038D01*
X146007581Y-80840250D01*
X146012797Y-80861074D01*
X146015947Y-80882309D01*
X146017000Y-80903750D01*
X146017000Y-81341250D01*
X146015947Y-81362691D01*
X146012797Y-81383926D01*
X146007581Y-81404750D01*
X146000349Y-81424962D01*
X145991170Y-81444368D01*
X145980134Y-81462781D01*
X145967346Y-81480024D01*
X145952930Y-81495930D01*
X145937024Y-81510346D01*
X145919781Y-81523134D01*
X145901368Y-81534170D01*
X145881962Y-81543349D01*
X145861750Y-81550581D01*
X145840926Y-81555797D01*
X145819691Y-81558947D01*
X145798250Y-81560000D01*
X145285750Y-81560000D01*
X145264309Y-81558947D01*
X145243074Y-81555797D01*
X145222250Y-81550581D01*
X145202038Y-81543349D01*
X145182632Y-81534170D01*
X145164219Y-81523134D01*
X145146976Y-81510346D01*
X145131070Y-81495930D01*
X145116654Y-81480024D01*
X145103866Y-81462781D01*
X145092830Y-81444368D01*
X145083651Y-81424962D01*
X145076419Y-81404750D01*
X145071203Y-81383926D01*
X145068053Y-81362691D01*
X145067000Y-81341250D01*
X145067000Y-80903750D01*
X145068053Y-80882309D01*
X145071203Y-80861074D01*
X145076419Y-80840250D01*
X145083651Y-80820038D01*
X145092830Y-80800632D01*
X145103866Y-80782219D01*
X145116654Y-80764976D01*
X145131070Y-80749070D01*
X145146976Y-80734654D01*
X145164219Y-80721866D01*
X145182632Y-80710830D01*
X145202038Y-80701651D01*
X145222250Y-80694419D01*
X145243074Y-80689203D01*
X145264309Y-80686053D01*
X145285750Y-80685000D01*
X145798250Y-80685000D01*
X145819691Y-80686053D01*
G37*
G04 #@! TD*
D15*
G04 #@! TO.C,U3*
X121800000Y-94467000D03*
D16*
X114300000Y-101967000D03*
X115570000Y-101967000D03*
X116840000Y-101967000D03*
X118110000Y-101967000D03*
X119380000Y-101967000D03*
X120650000Y-101967000D03*
X121920000Y-101967000D03*
X123190000Y-101967000D03*
X124460000Y-101967000D03*
X125730000Y-101967000D03*
X127000000Y-101967000D03*
X128270000Y-101967000D03*
X129540000Y-101967000D03*
X130810000Y-101967000D03*
D17*
X131810000Y-99182000D03*
X131810000Y-97912000D03*
X131810000Y-96642000D03*
X131810000Y-95372000D03*
X131810000Y-94102000D03*
X131810000Y-92832000D03*
X131810000Y-91562000D03*
X131810000Y-90292000D03*
X131810000Y-89022000D03*
X131810000Y-87752000D03*
D16*
X130810000Y-84967000D03*
X129540000Y-84967000D03*
X128270000Y-84967000D03*
X127000000Y-84967000D03*
X125730000Y-84967000D03*
X124460000Y-84967000D03*
X123190000Y-84967000D03*
X121920000Y-84967000D03*
X120650000Y-84967000D03*
X119380000Y-84967000D03*
X118110000Y-84967000D03*
X116840000Y-84967000D03*
X115570000Y-84967000D03*
X114300000Y-84967000D03*
G04 #@! TD*
D10*
G04 #@! TO.C,U4*
G36*
X140691351Y-88134361D02*
G01*
X140698632Y-88135441D01*
X140705771Y-88137229D01*
X140712701Y-88139709D01*
X140719355Y-88142856D01*
X140725668Y-88146640D01*
X140731579Y-88151024D01*
X140737033Y-88155967D01*
X140741976Y-88161421D01*
X140746360Y-88167332D01*
X140750144Y-88173645D01*
X140753291Y-88180299D01*
X140755771Y-88187229D01*
X140757559Y-88194368D01*
X140758639Y-88201649D01*
X140759000Y-88209000D01*
X140759000Y-88909000D01*
X140758639Y-88916351D01*
X140757559Y-88923632D01*
X140755771Y-88930771D01*
X140753291Y-88937701D01*
X140750144Y-88944355D01*
X140746360Y-88950668D01*
X140741976Y-88956579D01*
X140737033Y-88962033D01*
X140731579Y-88966976D01*
X140725668Y-88971360D01*
X140719355Y-88975144D01*
X140712701Y-88978291D01*
X140705771Y-88980771D01*
X140698632Y-88982559D01*
X140691351Y-88983639D01*
X140684000Y-88984000D01*
X140534000Y-88984000D01*
X140526649Y-88983639D01*
X140519368Y-88982559D01*
X140512229Y-88980771D01*
X140505299Y-88978291D01*
X140498645Y-88975144D01*
X140492332Y-88971360D01*
X140486421Y-88966976D01*
X140480967Y-88962033D01*
X140476024Y-88956579D01*
X140471640Y-88950668D01*
X140467856Y-88944355D01*
X140464709Y-88937701D01*
X140462229Y-88930771D01*
X140460441Y-88923632D01*
X140459361Y-88916351D01*
X140459000Y-88909000D01*
X140459000Y-88209000D01*
X140459361Y-88201649D01*
X140460441Y-88194368D01*
X140462229Y-88187229D01*
X140464709Y-88180299D01*
X140467856Y-88173645D01*
X140471640Y-88167332D01*
X140476024Y-88161421D01*
X140480967Y-88155967D01*
X140486421Y-88151024D01*
X140492332Y-88146640D01*
X140498645Y-88142856D01*
X140505299Y-88139709D01*
X140512229Y-88137229D01*
X140519368Y-88135441D01*
X140526649Y-88134361D01*
X140534000Y-88134000D01*
X140684000Y-88134000D01*
X140691351Y-88134361D01*
G37*
G36*
X141191351Y-88134361D02*
G01*
X141198632Y-88135441D01*
X141205771Y-88137229D01*
X141212701Y-88139709D01*
X141219355Y-88142856D01*
X141225668Y-88146640D01*
X141231579Y-88151024D01*
X141237033Y-88155967D01*
X141241976Y-88161421D01*
X141246360Y-88167332D01*
X141250144Y-88173645D01*
X141253291Y-88180299D01*
X141255771Y-88187229D01*
X141257559Y-88194368D01*
X141258639Y-88201649D01*
X141259000Y-88209000D01*
X141259000Y-88909000D01*
X141258639Y-88916351D01*
X141257559Y-88923632D01*
X141255771Y-88930771D01*
X141253291Y-88937701D01*
X141250144Y-88944355D01*
X141246360Y-88950668D01*
X141241976Y-88956579D01*
X141237033Y-88962033D01*
X141231579Y-88966976D01*
X141225668Y-88971360D01*
X141219355Y-88975144D01*
X141212701Y-88978291D01*
X141205771Y-88980771D01*
X141198632Y-88982559D01*
X141191351Y-88983639D01*
X141184000Y-88984000D01*
X141034000Y-88984000D01*
X141026649Y-88983639D01*
X141019368Y-88982559D01*
X141012229Y-88980771D01*
X141005299Y-88978291D01*
X140998645Y-88975144D01*
X140992332Y-88971360D01*
X140986421Y-88966976D01*
X140980967Y-88962033D01*
X140976024Y-88956579D01*
X140971640Y-88950668D01*
X140967856Y-88944355D01*
X140964709Y-88937701D01*
X140962229Y-88930771D01*
X140960441Y-88923632D01*
X140959361Y-88916351D01*
X140959000Y-88909000D01*
X140959000Y-88209000D01*
X140959361Y-88201649D01*
X140960441Y-88194368D01*
X140962229Y-88187229D01*
X140964709Y-88180299D01*
X140967856Y-88173645D01*
X140971640Y-88167332D01*
X140976024Y-88161421D01*
X140980967Y-88155967D01*
X140986421Y-88151024D01*
X140992332Y-88146640D01*
X140998645Y-88142856D01*
X141005299Y-88139709D01*
X141012229Y-88137229D01*
X141019368Y-88135441D01*
X141026649Y-88134361D01*
X141034000Y-88134000D01*
X141184000Y-88134000D01*
X141191351Y-88134361D01*
G37*
G36*
X141691351Y-88134361D02*
G01*
X141698632Y-88135441D01*
X141705771Y-88137229D01*
X141712701Y-88139709D01*
X141719355Y-88142856D01*
X141725668Y-88146640D01*
X141731579Y-88151024D01*
X141737033Y-88155967D01*
X141741976Y-88161421D01*
X141746360Y-88167332D01*
X141750144Y-88173645D01*
X141753291Y-88180299D01*
X141755771Y-88187229D01*
X141757559Y-88194368D01*
X141758639Y-88201649D01*
X141759000Y-88209000D01*
X141759000Y-88909000D01*
X141758639Y-88916351D01*
X141757559Y-88923632D01*
X141755771Y-88930771D01*
X141753291Y-88937701D01*
X141750144Y-88944355D01*
X141746360Y-88950668D01*
X141741976Y-88956579D01*
X141737033Y-88962033D01*
X141731579Y-88966976D01*
X141725668Y-88971360D01*
X141719355Y-88975144D01*
X141712701Y-88978291D01*
X141705771Y-88980771D01*
X141698632Y-88982559D01*
X141691351Y-88983639D01*
X141684000Y-88984000D01*
X141534000Y-88984000D01*
X141526649Y-88983639D01*
X141519368Y-88982559D01*
X141512229Y-88980771D01*
X141505299Y-88978291D01*
X141498645Y-88975144D01*
X141492332Y-88971360D01*
X141486421Y-88966976D01*
X141480967Y-88962033D01*
X141476024Y-88956579D01*
X141471640Y-88950668D01*
X141467856Y-88944355D01*
X141464709Y-88937701D01*
X141462229Y-88930771D01*
X141460441Y-88923632D01*
X141459361Y-88916351D01*
X141459000Y-88909000D01*
X141459000Y-88209000D01*
X141459361Y-88201649D01*
X141460441Y-88194368D01*
X141462229Y-88187229D01*
X141464709Y-88180299D01*
X141467856Y-88173645D01*
X141471640Y-88167332D01*
X141476024Y-88161421D01*
X141480967Y-88155967D01*
X141486421Y-88151024D01*
X141492332Y-88146640D01*
X141498645Y-88142856D01*
X141505299Y-88139709D01*
X141512229Y-88137229D01*
X141519368Y-88135441D01*
X141526649Y-88134361D01*
X141534000Y-88134000D01*
X141684000Y-88134000D01*
X141691351Y-88134361D01*
G37*
G36*
X142191351Y-88134361D02*
G01*
X142198632Y-88135441D01*
X142205771Y-88137229D01*
X142212701Y-88139709D01*
X142219355Y-88142856D01*
X142225668Y-88146640D01*
X142231579Y-88151024D01*
X142237033Y-88155967D01*
X142241976Y-88161421D01*
X142246360Y-88167332D01*
X142250144Y-88173645D01*
X142253291Y-88180299D01*
X142255771Y-88187229D01*
X142257559Y-88194368D01*
X142258639Y-88201649D01*
X142259000Y-88209000D01*
X142259000Y-88909000D01*
X142258639Y-88916351D01*
X142257559Y-88923632D01*
X142255771Y-88930771D01*
X142253291Y-88937701D01*
X142250144Y-88944355D01*
X142246360Y-88950668D01*
X142241976Y-88956579D01*
X142237033Y-88962033D01*
X142231579Y-88966976D01*
X142225668Y-88971360D01*
X142219355Y-88975144D01*
X142212701Y-88978291D01*
X142205771Y-88980771D01*
X142198632Y-88982559D01*
X142191351Y-88983639D01*
X142184000Y-88984000D01*
X142034000Y-88984000D01*
X142026649Y-88983639D01*
X142019368Y-88982559D01*
X142012229Y-88980771D01*
X142005299Y-88978291D01*
X141998645Y-88975144D01*
X141992332Y-88971360D01*
X141986421Y-88966976D01*
X141980967Y-88962033D01*
X141976024Y-88956579D01*
X141971640Y-88950668D01*
X141967856Y-88944355D01*
X141964709Y-88937701D01*
X141962229Y-88930771D01*
X141960441Y-88923632D01*
X141959361Y-88916351D01*
X141959000Y-88909000D01*
X141959000Y-88209000D01*
X141959361Y-88201649D01*
X141960441Y-88194368D01*
X141962229Y-88187229D01*
X141964709Y-88180299D01*
X141967856Y-88173645D01*
X141971640Y-88167332D01*
X141976024Y-88161421D01*
X141980967Y-88155967D01*
X141986421Y-88151024D01*
X141992332Y-88146640D01*
X141998645Y-88142856D01*
X142005299Y-88139709D01*
X142012229Y-88137229D01*
X142019368Y-88135441D01*
X142026649Y-88134361D01*
X142034000Y-88134000D01*
X142184000Y-88134000D01*
X142191351Y-88134361D01*
G37*
G36*
X142691351Y-88134361D02*
G01*
X142698632Y-88135441D01*
X142705771Y-88137229D01*
X142712701Y-88139709D01*
X142719355Y-88142856D01*
X142725668Y-88146640D01*
X142731579Y-88151024D01*
X142737033Y-88155967D01*
X142741976Y-88161421D01*
X142746360Y-88167332D01*
X142750144Y-88173645D01*
X142753291Y-88180299D01*
X142755771Y-88187229D01*
X142757559Y-88194368D01*
X142758639Y-88201649D01*
X142759000Y-88209000D01*
X142759000Y-88909000D01*
X142758639Y-88916351D01*
X142757559Y-88923632D01*
X142755771Y-88930771D01*
X142753291Y-88937701D01*
X142750144Y-88944355D01*
X142746360Y-88950668D01*
X142741976Y-88956579D01*
X142737033Y-88962033D01*
X142731579Y-88966976D01*
X142725668Y-88971360D01*
X142719355Y-88975144D01*
X142712701Y-88978291D01*
X142705771Y-88980771D01*
X142698632Y-88982559D01*
X142691351Y-88983639D01*
X142684000Y-88984000D01*
X142534000Y-88984000D01*
X142526649Y-88983639D01*
X142519368Y-88982559D01*
X142512229Y-88980771D01*
X142505299Y-88978291D01*
X142498645Y-88975144D01*
X142492332Y-88971360D01*
X142486421Y-88966976D01*
X142480967Y-88962033D01*
X142476024Y-88956579D01*
X142471640Y-88950668D01*
X142467856Y-88944355D01*
X142464709Y-88937701D01*
X142462229Y-88930771D01*
X142460441Y-88923632D01*
X142459361Y-88916351D01*
X142459000Y-88909000D01*
X142459000Y-88209000D01*
X142459361Y-88201649D01*
X142460441Y-88194368D01*
X142462229Y-88187229D01*
X142464709Y-88180299D01*
X142467856Y-88173645D01*
X142471640Y-88167332D01*
X142476024Y-88161421D01*
X142480967Y-88155967D01*
X142486421Y-88151024D01*
X142492332Y-88146640D01*
X142498645Y-88142856D01*
X142505299Y-88139709D01*
X142512229Y-88137229D01*
X142519368Y-88135441D01*
X142526649Y-88134361D01*
X142534000Y-88134000D01*
X142684000Y-88134000D01*
X142691351Y-88134361D01*
G37*
G36*
X143191351Y-88134361D02*
G01*
X143198632Y-88135441D01*
X143205771Y-88137229D01*
X143212701Y-88139709D01*
X143219355Y-88142856D01*
X143225668Y-88146640D01*
X143231579Y-88151024D01*
X143237033Y-88155967D01*
X143241976Y-88161421D01*
X143246360Y-88167332D01*
X143250144Y-88173645D01*
X143253291Y-88180299D01*
X143255771Y-88187229D01*
X143257559Y-88194368D01*
X143258639Y-88201649D01*
X143259000Y-88209000D01*
X143259000Y-88909000D01*
X143258639Y-88916351D01*
X143257559Y-88923632D01*
X143255771Y-88930771D01*
X143253291Y-88937701D01*
X143250144Y-88944355D01*
X143246360Y-88950668D01*
X143241976Y-88956579D01*
X143237033Y-88962033D01*
X143231579Y-88966976D01*
X143225668Y-88971360D01*
X143219355Y-88975144D01*
X143212701Y-88978291D01*
X143205771Y-88980771D01*
X143198632Y-88982559D01*
X143191351Y-88983639D01*
X143184000Y-88984000D01*
X143034000Y-88984000D01*
X143026649Y-88983639D01*
X143019368Y-88982559D01*
X143012229Y-88980771D01*
X143005299Y-88978291D01*
X142998645Y-88975144D01*
X142992332Y-88971360D01*
X142986421Y-88966976D01*
X142980967Y-88962033D01*
X142976024Y-88956579D01*
X142971640Y-88950668D01*
X142967856Y-88944355D01*
X142964709Y-88937701D01*
X142962229Y-88930771D01*
X142960441Y-88923632D01*
X142959361Y-88916351D01*
X142959000Y-88909000D01*
X142959000Y-88209000D01*
X142959361Y-88201649D01*
X142960441Y-88194368D01*
X142962229Y-88187229D01*
X142964709Y-88180299D01*
X142967856Y-88173645D01*
X142971640Y-88167332D01*
X142976024Y-88161421D01*
X142980967Y-88155967D01*
X142986421Y-88151024D01*
X142992332Y-88146640D01*
X142998645Y-88142856D01*
X143005299Y-88139709D01*
X143012229Y-88137229D01*
X143019368Y-88135441D01*
X143026649Y-88134361D01*
X143034000Y-88134000D01*
X143184000Y-88134000D01*
X143191351Y-88134361D01*
G37*
G36*
X144166351Y-87709361D02*
G01*
X144173632Y-87710441D01*
X144180771Y-87712229D01*
X144187701Y-87714709D01*
X144194355Y-87717856D01*
X144200668Y-87721640D01*
X144206579Y-87726024D01*
X144212033Y-87730967D01*
X144216976Y-87736421D01*
X144221360Y-87742332D01*
X144225144Y-87748645D01*
X144228291Y-87755299D01*
X144230771Y-87762229D01*
X144232559Y-87769368D01*
X144233639Y-87776649D01*
X144234000Y-87784000D01*
X144234000Y-87934000D01*
X144233639Y-87941351D01*
X144232559Y-87948632D01*
X144230771Y-87955771D01*
X144228291Y-87962701D01*
X144225144Y-87969355D01*
X144221360Y-87975668D01*
X144216976Y-87981579D01*
X144212033Y-87987033D01*
X144206579Y-87991976D01*
X144200668Y-87996360D01*
X144194355Y-88000144D01*
X144187701Y-88003291D01*
X144180771Y-88005771D01*
X144173632Y-88007559D01*
X144166351Y-88008639D01*
X144159000Y-88009000D01*
X143459000Y-88009000D01*
X143451649Y-88008639D01*
X143444368Y-88007559D01*
X143437229Y-88005771D01*
X143430299Y-88003291D01*
X143423645Y-88000144D01*
X143417332Y-87996360D01*
X143411421Y-87991976D01*
X143405967Y-87987033D01*
X143401024Y-87981579D01*
X143396640Y-87975668D01*
X143392856Y-87969355D01*
X143389709Y-87962701D01*
X143387229Y-87955771D01*
X143385441Y-87948632D01*
X143384361Y-87941351D01*
X143384000Y-87934000D01*
X143384000Y-87784000D01*
X143384361Y-87776649D01*
X143385441Y-87769368D01*
X143387229Y-87762229D01*
X143389709Y-87755299D01*
X143392856Y-87748645D01*
X143396640Y-87742332D01*
X143401024Y-87736421D01*
X143405967Y-87730967D01*
X143411421Y-87726024D01*
X143417332Y-87721640D01*
X143423645Y-87717856D01*
X143430299Y-87714709D01*
X143437229Y-87712229D01*
X143444368Y-87710441D01*
X143451649Y-87709361D01*
X143459000Y-87709000D01*
X144159000Y-87709000D01*
X144166351Y-87709361D01*
G37*
G36*
X144166351Y-87209361D02*
G01*
X144173632Y-87210441D01*
X144180771Y-87212229D01*
X144187701Y-87214709D01*
X144194355Y-87217856D01*
X144200668Y-87221640D01*
X144206579Y-87226024D01*
X144212033Y-87230967D01*
X144216976Y-87236421D01*
X144221360Y-87242332D01*
X144225144Y-87248645D01*
X144228291Y-87255299D01*
X144230771Y-87262229D01*
X144232559Y-87269368D01*
X144233639Y-87276649D01*
X144234000Y-87284000D01*
X144234000Y-87434000D01*
X144233639Y-87441351D01*
X144232559Y-87448632D01*
X144230771Y-87455771D01*
X144228291Y-87462701D01*
X144225144Y-87469355D01*
X144221360Y-87475668D01*
X144216976Y-87481579D01*
X144212033Y-87487033D01*
X144206579Y-87491976D01*
X144200668Y-87496360D01*
X144194355Y-87500144D01*
X144187701Y-87503291D01*
X144180771Y-87505771D01*
X144173632Y-87507559D01*
X144166351Y-87508639D01*
X144159000Y-87509000D01*
X143459000Y-87509000D01*
X143451649Y-87508639D01*
X143444368Y-87507559D01*
X143437229Y-87505771D01*
X143430299Y-87503291D01*
X143423645Y-87500144D01*
X143417332Y-87496360D01*
X143411421Y-87491976D01*
X143405967Y-87487033D01*
X143401024Y-87481579D01*
X143396640Y-87475668D01*
X143392856Y-87469355D01*
X143389709Y-87462701D01*
X143387229Y-87455771D01*
X143385441Y-87448632D01*
X143384361Y-87441351D01*
X143384000Y-87434000D01*
X143384000Y-87284000D01*
X143384361Y-87276649D01*
X143385441Y-87269368D01*
X143387229Y-87262229D01*
X143389709Y-87255299D01*
X143392856Y-87248645D01*
X143396640Y-87242332D01*
X143401024Y-87236421D01*
X143405967Y-87230967D01*
X143411421Y-87226024D01*
X143417332Y-87221640D01*
X143423645Y-87217856D01*
X143430299Y-87214709D01*
X143437229Y-87212229D01*
X143444368Y-87210441D01*
X143451649Y-87209361D01*
X143459000Y-87209000D01*
X144159000Y-87209000D01*
X144166351Y-87209361D01*
G37*
G36*
X144166351Y-86709361D02*
G01*
X144173632Y-86710441D01*
X144180771Y-86712229D01*
X144187701Y-86714709D01*
X144194355Y-86717856D01*
X144200668Y-86721640D01*
X144206579Y-86726024D01*
X144212033Y-86730967D01*
X144216976Y-86736421D01*
X144221360Y-86742332D01*
X144225144Y-86748645D01*
X144228291Y-86755299D01*
X144230771Y-86762229D01*
X144232559Y-86769368D01*
X144233639Y-86776649D01*
X144234000Y-86784000D01*
X144234000Y-86934000D01*
X144233639Y-86941351D01*
X144232559Y-86948632D01*
X144230771Y-86955771D01*
X144228291Y-86962701D01*
X144225144Y-86969355D01*
X144221360Y-86975668D01*
X144216976Y-86981579D01*
X144212033Y-86987033D01*
X144206579Y-86991976D01*
X144200668Y-86996360D01*
X144194355Y-87000144D01*
X144187701Y-87003291D01*
X144180771Y-87005771D01*
X144173632Y-87007559D01*
X144166351Y-87008639D01*
X144159000Y-87009000D01*
X143459000Y-87009000D01*
X143451649Y-87008639D01*
X143444368Y-87007559D01*
X143437229Y-87005771D01*
X143430299Y-87003291D01*
X143423645Y-87000144D01*
X143417332Y-86996360D01*
X143411421Y-86991976D01*
X143405967Y-86987033D01*
X143401024Y-86981579D01*
X143396640Y-86975668D01*
X143392856Y-86969355D01*
X143389709Y-86962701D01*
X143387229Y-86955771D01*
X143385441Y-86948632D01*
X143384361Y-86941351D01*
X143384000Y-86934000D01*
X143384000Y-86784000D01*
X143384361Y-86776649D01*
X143385441Y-86769368D01*
X143387229Y-86762229D01*
X143389709Y-86755299D01*
X143392856Y-86748645D01*
X143396640Y-86742332D01*
X143401024Y-86736421D01*
X143405967Y-86730967D01*
X143411421Y-86726024D01*
X143417332Y-86721640D01*
X143423645Y-86717856D01*
X143430299Y-86714709D01*
X143437229Y-86712229D01*
X143444368Y-86710441D01*
X143451649Y-86709361D01*
X143459000Y-86709000D01*
X144159000Y-86709000D01*
X144166351Y-86709361D01*
G37*
G36*
X144166351Y-86209361D02*
G01*
X144173632Y-86210441D01*
X144180771Y-86212229D01*
X144187701Y-86214709D01*
X144194355Y-86217856D01*
X144200668Y-86221640D01*
X144206579Y-86226024D01*
X144212033Y-86230967D01*
X144216976Y-86236421D01*
X144221360Y-86242332D01*
X144225144Y-86248645D01*
X144228291Y-86255299D01*
X144230771Y-86262229D01*
X144232559Y-86269368D01*
X144233639Y-86276649D01*
X144234000Y-86284000D01*
X144234000Y-86434000D01*
X144233639Y-86441351D01*
X144232559Y-86448632D01*
X144230771Y-86455771D01*
X144228291Y-86462701D01*
X144225144Y-86469355D01*
X144221360Y-86475668D01*
X144216976Y-86481579D01*
X144212033Y-86487033D01*
X144206579Y-86491976D01*
X144200668Y-86496360D01*
X144194355Y-86500144D01*
X144187701Y-86503291D01*
X144180771Y-86505771D01*
X144173632Y-86507559D01*
X144166351Y-86508639D01*
X144159000Y-86509000D01*
X143459000Y-86509000D01*
X143451649Y-86508639D01*
X143444368Y-86507559D01*
X143437229Y-86505771D01*
X143430299Y-86503291D01*
X143423645Y-86500144D01*
X143417332Y-86496360D01*
X143411421Y-86491976D01*
X143405967Y-86487033D01*
X143401024Y-86481579D01*
X143396640Y-86475668D01*
X143392856Y-86469355D01*
X143389709Y-86462701D01*
X143387229Y-86455771D01*
X143385441Y-86448632D01*
X143384361Y-86441351D01*
X143384000Y-86434000D01*
X143384000Y-86284000D01*
X143384361Y-86276649D01*
X143385441Y-86269368D01*
X143387229Y-86262229D01*
X143389709Y-86255299D01*
X143392856Y-86248645D01*
X143396640Y-86242332D01*
X143401024Y-86236421D01*
X143405967Y-86230967D01*
X143411421Y-86226024D01*
X143417332Y-86221640D01*
X143423645Y-86217856D01*
X143430299Y-86214709D01*
X143437229Y-86212229D01*
X143444368Y-86210441D01*
X143451649Y-86209361D01*
X143459000Y-86209000D01*
X144159000Y-86209000D01*
X144166351Y-86209361D01*
G37*
G36*
X144166351Y-85709361D02*
G01*
X144173632Y-85710441D01*
X144180771Y-85712229D01*
X144187701Y-85714709D01*
X144194355Y-85717856D01*
X144200668Y-85721640D01*
X144206579Y-85726024D01*
X144212033Y-85730967D01*
X144216976Y-85736421D01*
X144221360Y-85742332D01*
X144225144Y-85748645D01*
X144228291Y-85755299D01*
X144230771Y-85762229D01*
X144232559Y-85769368D01*
X144233639Y-85776649D01*
X144234000Y-85784000D01*
X144234000Y-85934000D01*
X144233639Y-85941351D01*
X144232559Y-85948632D01*
X144230771Y-85955771D01*
X144228291Y-85962701D01*
X144225144Y-85969355D01*
X144221360Y-85975668D01*
X144216976Y-85981579D01*
X144212033Y-85987033D01*
X144206579Y-85991976D01*
X144200668Y-85996360D01*
X144194355Y-86000144D01*
X144187701Y-86003291D01*
X144180771Y-86005771D01*
X144173632Y-86007559D01*
X144166351Y-86008639D01*
X144159000Y-86009000D01*
X143459000Y-86009000D01*
X143451649Y-86008639D01*
X143444368Y-86007559D01*
X143437229Y-86005771D01*
X143430299Y-86003291D01*
X143423645Y-86000144D01*
X143417332Y-85996360D01*
X143411421Y-85991976D01*
X143405967Y-85987033D01*
X143401024Y-85981579D01*
X143396640Y-85975668D01*
X143392856Y-85969355D01*
X143389709Y-85962701D01*
X143387229Y-85955771D01*
X143385441Y-85948632D01*
X143384361Y-85941351D01*
X143384000Y-85934000D01*
X143384000Y-85784000D01*
X143384361Y-85776649D01*
X143385441Y-85769368D01*
X143387229Y-85762229D01*
X143389709Y-85755299D01*
X143392856Y-85748645D01*
X143396640Y-85742332D01*
X143401024Y-85736421D01*
X143405967Y-85730967D01*
X143411421Y-85726024D01*
X143417332Y-85721640D01*
X143423645Y-85717856D01*
X143430299Y-85714709D01*
X143437229Y-85712229D01*
X143444368Y-85710441D01*
X143451649Y-85709361D01*
X143459000Y-85709000D01*
X144159000Y-85709000D01*
X144166351Y-85709361D01*
G37*
G36*
X144166351Y-85209361D02*
G01*
X144173632Y-85210441D01*
X144180771Y-85212229D01*
X144187701Y-85214709D01*
X144194355Y-85217856D01*
X144200668Y-85221640D01*
X144206579Y-85226024D01*
X144212033Y-85230967D01*
X144216976Y-85236421D01*
X144221360Y-85242332D01*
X144225144Y-85248645D01*
X144228291Y-85255299D01*
X144230771Y-85262229D01*
X144232559Y-85269368D01*
X144233639Y-85276649D01*
X144234000Y-85284000D01*
X144234000Y-85434000D01*
X144233639Y-85441351D01*
X144232559Y-85448632D01*
X144230771Y-85455771D01*
X144228291Y-85462701D01*
X144225144Y-85469355D01*
X144221360Y-85475668D01*
X144216976Y-85481579D01*
X144212033Y-85487033D01*
X144206579Y-85491976D01*
X144200668Y-85496360D01*
X144194355Y-85500144D01*
X144187701Y-85503291D01*
X144180771Y-85505771D01*
X144173632Y-85507559D01*
X144166351Y-85508639D01*
X144159000Y-85509000D01*
X143459000Y-85509000D01*
X143451649Y-85508639D01*
X143444368Y-85507559D01*
X143437229Y-85505771D01*
X143430299Y-85503291D01*
X143423645Y-85500144D01*
X143417332Y-85496360D01*
X143411421Y-85491976D01*
X143405967Y-85487033D01*
X143401024Y-85481579D01*
X143396640Y-85475668D01*
X143392856Y-85469355D01*
X143389709Y-85462701D01*
X143387229Y-85455771D01*
X143385441Y-85448632D01*
X143384361Y-85441351D01*
X143384000Y-85434000D01*
X143384000Y-85284000D01*
X143384361Y-85276649D01*
X143385441Y-85269368D01*
X143387229Y-85262229D01*
X143389709Y-85255299D01*
X143392856Y-85248645D01*
X143396640Y-85242332D01*
X143401024Y-85236421D01*
X143405967Y-85230967D01*
X143411421Y-85226024D01*
X143417332Y-85221640D01*
X143423645Y-85217856D01*
X143430299Y-85214709D01*
X143437229Y-85212229D01*
X143444368Y-85210441D01*
X143451649Y-85209361D01*
X143459000Y-85209000D01*
X144159000Y-85209000D01*
X144166351Y-85209361D01*
G37*
G36*
X143191351Y-84234361D02*
G01*
X143198632Y-84235441D01*
X143205771Y-84237229D01*
X143212701Y-84239709D01*
X143219355Y-84242856D01*
X143225668Y-84246640D01*
X143231579Y-84251024D01*
X143237033Y-84255967D01*
X143241976Y-84261421D01*
X143246360Y-84267332D01*
X143250144Y-84273645D01*
X143253291Y-84280299D01*
X143255771Y-84287229D01*
X143257559Y-84294368D01*
X143258639Y-84301649D01*
X143259000Y-84309000D01*
X143259000Y-85009000D01*
X143258639Y-85016351D01*
X143257559Y-85023632D01*
X143255771Y-85030771D01*
X143253291Y-85037701D01*
X143250144Y-85044355D01*
X143246360Y-85050668D01*
X143241976Y-85056579D01*
X143237033Y-85062033D01*
X143231579Y-85066976D01*
X143225668Y-85071360D01*
X143219355Y-85075144D01*
X143212701Y-85078291D01*
X143205771Y-85080771D01*
X143198632Y-85082559D01*
X143191351Y-85083639D01*
X143184000Y-85084000D01*
X143034000Y-85084000D01*
X143026649Y-85083639D01*
X143019368Y-85082559D01*
X143012229Y-85080771D01*
X143005299Y-85078291D01*
X142998645Y-85075144D01*
X142992332Y-85071360D01*
X142986421Y-85066976D01*
X142980967Y-85062033D01*
X142976024Y-85056579D01*
X142971640Y-85050668D01*
X142967856Y-85044355D01*
X142964709Y-85037701D01*
X142962229Y-85030771D01*
X142960441Y-85023632D01*
X142959361Y-85016351D01*
X142959000Y-85009000D01*
X142959000Y-84309000D01*
X142959361Y-84301649D01*
X142960441Y-84294368D01*
X142962229Y-84287229D01*
X142964709Y-84280299D01*
X142967856Y-84273645D01*
X142971640Y-84267332D01*
X142976024Y-84261421D01*
X142980967Y-84255967D01*
X142986421Y-84251024D01*
X142992332Y-84246640D01*
X142998645Y-84242856D01*
X143005299Y-84239709D01*
X143012229Y-84237229D01*
X143019368Y-84235441D01*
X143026649Y-84234361D01*
X143034000Y-84234000D01*
X143184000Y-84234000D01*
X143191351Y-84234361D01*
G37*
G36*
X142691351Y-84234361D02*
G01*
X142698632Y-84235441D01*
X142705771Y-84237229D01*
X142712701Y-84239709D01*
X142719355Y-84242856D01*
X142725668Y-84246640D01*
X142731579Y-84251024D01*
X142737033Y-84255967D01*
X142741976Y-84261421D01*
X142746360Y-84267332D01*
X142750144Y-84273645D01*
X142753291Y-84280299D01*
X142755771Y-84287229D01*
X142757559Y-84294368D01*
X142758639Y-84301649D01*
X142759000Y-84309000D01*
X142759000Y-85009000D01*
X142758639Y-85016351D01*
X142757559Y-85023632D01*
X142755771Y-85030771D01*
X142753291Y-85037701D01*
X142750144Y-85044355D01*
X142746360Y-85050668D01*
X142741976Y-85056579D01*
X142737033Y-85062033D01*
X142731579Y-85066976D01*
X142725668Y-85071360D01*
X142719355Y-85075144D01*
X142712701Y-85078291D01*
X142705771Y-85080771D01*
X142698632Y-85082559D01*
X142691351Y-85083639D01*
X142684000Y-85084000D01*
X142534000Y-85084000D01*
X142526649Y-85083639D01*
X142519368Y-85082559D01*
X142512229Y-85080771D01*
X142505299Y-85078291D01*
X142498645Y-85075144D01*
X142492332Y-85071360D01*
X142486421Y-85066976D01*
X142480967Y-85062033D01*
X142476024Y-85056579D01*
X142471640Y-85050668D01*
X142467856Y-85044355D01*
X142464709Y-85037701D01*
X142462229Y-85030771D01*
X142460441Y-85023632D01*
X142459361Y-85016351D01*
X142459000Y-85009000D01*
X142459000Y-84309000D01*
X142459361Y-84301649D01*
X142460441Y-84294368D01*
X142462229Y-84287229D01*
X142464709Y-84280299D01*
X142467856Y-84273645D01*
X142471640Y-84267332D01*
X142476024Y-84261421D01*
X142480967Y-84255967D01*
X142486421Y-84251024D01*
X142492332Y-84246640D01*
X142498645Y-84242856D01*
X142505299Y-84239709D01*
X142512229Y-84237229D01*
X142519368Y-84235441D01*
X142526649Y-84234361D01*
X142534000Y-84234000D01*
X142684000Y-84234000D01*
X142691351Y-84234361D01*
G37*
G36*
X142191351Y-84234361D02*
G01*
X142198632Y-84235441D01*
X142205771Y-84237229D01*
X142212701Y-84239709D01*
X142219355Y-84242856D01*
X142225668Y-84246640D01*
X142231579Y-84251024D01*
X142237033Y-84255967D01*
X142241976Y-84261421D01*
X142246360Y-84267332D01*
X142250144Y-84273645D01*
X142253291Y-84280299D01*
X142255771Y-84287229D01*
X142257559Y-84294368D01*
X142258639Y-84301649D01*
X142259000Y-84309000D01*
X142259000Y-85009000D01*
X142258639Y-85016351D01*
X142257559Y-85023632D01*
X142255771Y-85030771D01*
X142253291Y-85037701D01*
X142250144Y-85044355D01*
X142246360Y-85050668D01*
X142241976Y-85056579D01*
X142237033Y-85062033D01*
X142231579Y-85066976D01*
X142225668Y-85071360D01*
X142219355Y-85075144D01*
X142212701Y-85078291D01*
X142205771Y-85080771D01*
X142198632Y-85082559D01*
X142191351Y-85083639D01*
X142184000Y-85084000D01*
X142034000Y-85084000D01*
X142026649Y-85083639D01*
X142019368Y-85082559D01*
X142012229Y-85080771D01*
X142005299Y-85078291D01*
X141998645Y-85075144D01*
X141992332Y-85071360D01*
X141986421Y-85066976D01*
X141980967Y-85062033D01*
X141976024Y-85056579D01*
X141971640Y-85050668D01*
X141967856Y-85044355D01*
X141964709Y-85037701D01*
X141962229Y-85030771D01*
X141960441Y-85023632D01*
X141959361Y-85016351D01*
X141959000Y-85009000D01*
X141959000Y-84309000D01*
X141959361Y-84301649D01*
X141960441Y-84294368D01*
X141962229Y-84287229D01*
X141964709Y-84280299D01*
X141967856Y-84273645D01*
X141971640Y-84267332D01*
X141976024Y-84261421D01*
X141980967Y-84255967D01*
X141986421Y-84251024D01*
X141992332Y-84246640D01*
X141998645Y-84242856D01*
X142005299Y-84239709D01*
X142012229Y-84237229D01*
X142019368Y-84235441D01*
X142026649Y-84234361D01*
X142034000Y-84234000D01*
X142184000Y-84234000D01*
X142191351Y-84234361D01*
G37*
G36*
X141691351Y-84234361D02*
G01*
X141698632Y-84235441D01*
X141705771Y-84237229D01*
X141712701Y-84239709D01*
X141719355Y-84242856D01*
X141725668Y-84246640D01*
X141731579Y-84251024D01*
X141737033Y-84255967D01*
X141741976Y-84261421D01*
X141746360Y-84267332D01*
X141750144Y-84273645D01*
X141753291Y-84280299D01*
X141755771Y-84287229D01*
X141757559Y-84294368D01*
X141758639Y-84301649D01*
X141759000Y-84309000D01*
X141759000Y-85009000D01*
X141758639Y-85016351D01*
X141757559Y-85023632D01*
X141755771Y-85030771D01*
X141753291Y-85037701D01*
X141750144Y-85044355D01*
X141746360Y-85050668D01*
X141741976Y-85056579D01*
X141737033Y-85062033D01*
X141731579Y-85066976D01*
X141725668Y-85071360D01*
X141719355Y-85075144D01*
X141712701Y-85078291D01*
X141705771Y-85080771D01*
X141698632Y-85082559D01*
X141691351Y-85083639D01*
X141684000Y-85084000D01*
X141534000Y-85084000D01*
X141526649Y-85083639D01*
X141519368Y-85082559D01*
X141512229Y-85080771D01*
X141505299Y-85078291D01*
X141498645Y-85075144D01*
X141492332Y-85071360D01*
X141486421Y-85066976D01*
X141480967Y-85062033D01*
X141476024Y-85056579D01*
X141471640Y-85050668D01*
X141467856Y-85044355D01*
X141464709Y-85037701D01*
X141462229Y-85030771D01*
X141460441Y-85023632D01*
X141459361Y-85016351D01*
X141459000Y-85009000D01*
X141459000Y-84309000D01*
X141459361Y-84301649D01*
X141460441Y-84294368D01*
X141462229Y-84287229D01*
X141464709Y-84280299D01*
X141467856Y-84273645D01*
X141471640Y-84267332D01*
X141476024Y-84261421D01*
X141480967Y-84255967D01*
X141486421Y-84251024D01*
X141492332Y-84246640D01*
X141498645Y-84242856D01*
X141505299Y-84239709D01*
X141512229Y-84237229D01*
X141519368Y-84235441D01*
X141526649Y-84234361D01*
X141534000Y-84234000D01*
X141684000Y-84234000D01*
X141691351Y-84234361D01*
G37*
G36*
X141191351Y-84234361D02*
G01*
X141198632Y-84235441D01*
X141205771Y-84237229D01*
X141212701Y-84239709D01*
X141219355Y-84242856D01*
X141225668Y-84246640D01*
X141231579Y-84251024D01*
X141237033Y-84255967D01*
X141241976Y-84261421D01*
X141246360Y-84267332D01*
X141250144Y-84273645D01*
X141253291Y-84280299D01*
X141255771Y-84287229D01*
X141257559Y-84294368D01*
X141258639Y-84301649D01*
X141259000Y-84309000D01*
X141259000Y-85009000D01*
X141258639Y-85016351D01*
X141257559Y-85023632D01*
X141255771Y-85030771D01*
X141253291Y-85037701D01*
X141250144Y-85044355D01*
X141246360Y-85050668D01*
X141241976Y-85056579D01*
X141237033Y-85062033D01*
X141231579Y-85066976D01*
X141225668Y-85071360D01*
X141219355Y-85075144D01*
X141212701Y-85078291D01*
X141205771Y-85080771D01*
X141198632Y-85082559D01*
X141191351Y-85083639D01*
X141184000Y-85084000D01*
X141034000Y-85084000D01*
X141026649Y-85083639D01*
X141019368Y-85082559D01*
X141012229Y-85080771D01*
X141005299Y-85078291D01*
X140998645Y-85075144D01*
X140992332Y-85071360D01*
X140986421Y-85066976D01*
X140980967Y-85062033D01*
X140976024Y-85056579D01*
X140971640Y-85050668D01*
X140967856Y-85044355D01*
X140964709Y-85037701D01*
X140962229Y-85030771D01*
X140960441Y-85023632D01*
X140959361Y-85016351D01*
X140959000Y-85009000D01*
X140959000Y-84309000D01*
X140959361Y-84301649D01*
X140960441Y-84294368D01*
X140962229Y-84287229D01*
X140964709Y-84280299D01*
X140967856Y-84273645D01*
X140971640Y-84267332D01*
X140976024Y-84261421D01*
X140980967Y-84255967D01*
X140986421Y-84251024D01*
X140992332Y-84246640D01*
X140998645Y-84242856D01*
X141005299Y-84239709D01*
X141012229Y-84237229D01*
X141019368Y-84235441D01*
X141026649Y-84234361D01*
X141034000Y-84234000D01*
X141184000Y-84234000D01*
X141191351Y-84234361D01*
G37*
G36*
X140691351Y-84234361D02*
G01*
X140698632Y-84235441D01*
X140705771Y-84237229D01*
X140712701Y-84239709D01*
X140719355Y-84242856D01*
X140725668Y-84246640D01*
X140731579Y-84251024D01*
X140737033Y-84255967D01*
X140741976Y-84261421D01*
X140746360Y-84267332D01*
X140750144Y-84273645D01*
X140753291Y-84280299D01*
X140755771Y-84287229D01*
X140757559Y-84294368D01*
X140758639Y-84301649D01*
X140759000Y-84309000D01*
X140759000Y-85009000D01*
X140758639Y-85016351D01*
X140757559Y-85023632D01*
X140755771Y-85030771D01*
X140753291Y-85037701D01*
X140750144Y-85044355D01*
X140746360Y-85050668D01*
X140741976Y-85056579D01*
X140737033Y-85062033D01*
X140731579Y-85066976D01*
X140725668Y-85071360D01*
X140719355Y-85075144D01*
X140712701Y-85078291D01*
X140705771Y-85080771D01*
X140698632Y-85082559D01*
X140691351Y-85083639D01*
X140684000Y-85084000D01*
X140534000Y-85084000D01*
X140526649Y-85083639D01*
X140519368Y-85082559D01*
X140512229Y-85080771D01*
X140505299Y-85078291D01*
X140498645Y-85075144D01*
X140492332Y-85071360D01*
X140486421Y-85066976D01*
X140480967Y-85062033D01*
X140476024Y-85056579D01*
X140471640Y-85050668D01*
X140467856Y-85044355D01*
X140464709Y-85037701D01*
X140462229Y-85030771D01*
X140460441Y-85023632D01*
X140459361Y-85016351D01*
X140459000Y-85009000D01*
X140459000Y-84309000D01*
X140459361Y-84301649D01*
X140460441Y-84294368D01*
X140462229Y-84287229D01*
X140464709Y-84280299D01*
X140467856Y-84273645D01*
X140471640Y-84267332D01*
X140476024Y-84261421D01*
X140480967Y-84255967D01*
X140486421Y-84251024D01*
X140492332Y-84246640D01*
X140498645Y-84242856D01*
X140505299Y-84239709D01*
X140512229Y-84237229D01*
X140519368Y-84235441D01*
X140526649Y-84234361D01*
X140534000Y-84234000D01*
X140684000Y-84234000D01*
X140691351Y-84234361D01*
G37*
G36*
X140266351Y-85209361D02*
G01*
X140273632Y-85210441D01*
X140280771Y-85212229D01*
X140287701Y-85214709D01*
X140294355Y-85217856D01*
X140300668Y-85221640D01*
X140306579Y-85226024D01*
X140312033Y-85230967D01*
X140316976Y-85236421D01*
X140321360Y-85242332D01*
X140325144Y-85248645D01*
X140328291Y-85255299D01*
X140330771Y-85262229D01*
X140332559Y-85269368D01*
X140333639Y-85276649D01*
X140334000Y-85284000D01*
X140334000Y-85434000D01*
X140333639Y-85441351D01*
X140332559Y-85448632D01*
X140330771Y-85455771D01*
X140328291Y-85462701D01*
X140325144Y-85469355D01*
X140321360Y-85475668D01*
X140316976Y-85481579D01*
X140312033Y-85487033D01*
X140306579Y-85491976D01*
X140300668Y-85496360D01*
X140294355Y-85500144D01*
X140287701Y-85503291D01*
X140280771Y-85505771D01*
X140273632Y-85507559D01*
X140266351Y-85508639D01*
X140259000Y-85509000D01*
X139559000Y-85509000D01*
X139551649Y-85508639D01*
X139544368Y-85507559D01*
X139537229Y-85505771D01*
X139530299Y-85503291D01*
X139523645Y-85500144D01*
X139517332Y-85496360D01*
X139511421Y-85491976D01*
X139505967Y-85487033D01*
X139501024Y-85481579D01*
X139496640Y-85475668D01*
X139492856Y-85469355D01*
X139489709Y-85462701D01*
X139487229Y-85455771D01*
X139485441Y-85448632D01*
X139484361Y-85441351D01*
X139484000Y-85434000D01*
X139484000Y-85284000D01*
X139484361Y-85276649D01*
X139485441Y-85269368D01*
X139487229Y-85262229D01*
X139489709Y-85255299D01*
X139492856Y-85248645D01*
X139496640Y-85242332D01*
X139501024Y-85236421D01*
X139505967Y-85230967D01*
X139511421Y-85226024D01*
X139517332Y-85221640D01*
X139523645Y-85217856D01*
X139530299Y-85214709D01*
X139537229Y-85212229D01*
X139544368Y-85210441D01*
X139551649Y-85209361D01*
X139559000Y-85209000D01*
X140259000Y-85209000D01*
X140266351Y-85209361D01*
G37*
G36*
X140266351Y-85709361D02*
G01*
X140273632Y-85710441D01*
X140280771Y-85712229D01*
X140287701Y-85714709D01*
X140294355Y-85717856D01*
X140300668Y-85721640D01*
X140306579Y-85726024D01*
X140312033Y-85730967D01*
X140316976Y-85736421D01*
X140321360Y-85742332D01*
X140325144Y-85748645D01*
X140328291Y-85755299D01*
X140330771Y-85762229D01*
X140332559Y-85769368D01*
X140333639Y-85776649D01*
X140334000Y-85784000D01*
X140334000Y-85934000D01*
X140333639Y-85941351D01*
X140332559Y-85948632D01*
X140330771Y-85955771D01*
X140328291Y-85962701D01*
X140325144Y-85969355D01*
X140321360Y-85975668D01*
X140316976Y-85981579D01*
X140312033Y-85987033D01*
X140306579Y-85991976D01*
X140300668Y-85996360D01*
X140294355Y-86000144D01*
X140287701Y-86003291D01*
X140280771Y-86005771D01*
X140273632Y-86007559D01*
X140266351Y-86008639D01*
X140259000Y-86009000D01*
X139559000Y-86009000D01*
X139551649Y-86008639D01*
X139544368Y-86007559D01*
X139537229Y-86005771D01*
X139530299Y-86003291D01*
X139523645Y-86000144D01*
X139517332Y-85996360D01*
X139511421Y-85991976D01*
X139505967Y-85987033D01*
X139501024Y-85981579D01*
X139496640Y-85975668D01*
X139492856Y-85969355D01*
X139489709Y-85962701D01*
X139487229Y-85955771D01*
X139485441Y-85948632D01*
X139484361Y-85941351D01*
X139484000Y-85934000D01*
X139484000Y-85784000D01*
X139484361Y-85776649D01*
X139485441Y-85769368D01*
X139487229Y-85762229D01*
X139489709Y-85755299D01*
X139492856Y-85748645D01*
X139496640Y-85742332D01*
X139501024Y-85736421D01*
X139505967Y-85730967D01*
X139511421Y-85726024D01*
X139517332Y-85721640D01*
X139523645Y-85717856D01*
X139530299Y-85714709D01*
X139537229Y-85712229D01*
X139544368Y-85710441D01*
X139551649Y-85709361D01*
X139559000Y-85709000D01*
X140259000Y-85709000D01*
X140266351Y-85709361D01*
G37*
G36*
X140266351Y-86209361D02*
G01*
X140273632Y-86210441D01*
X140280771Y-86212229D01*
X140287701Y-86214709D01*
X140294355Y-86217856D01*
X140300668Y-86221640D01*
X140306579Y-86226024D01*
X140312033Y-86230967D01*
X140316976Y-86236421D01*
X140321360Y-86242332D01*
X140325144Y-86248645D01*
X140328291Y-86255299D01*
X140330771Y-86262229D01*
X140332559Y-86269368D01*
X140333639Y-86276649D01*
X140334000Y-86284000D01*
X140334000Y-86434000D01*
X140333639Y-86441351D01*
X140332559Y-86448632D01*
X140330771Y-86455771D01*
X140328291Y-86462701D01*
X140325144Y-86469355D01*
X140321360Y-86475668D01*
X140316976Y-86481579D01*
X140312033Y-86487033D01*
X140306579Y-86491976D01*
X140300668Y-86496360D01*
X140294355Y-86500144D01*
X140287701Y-86503291D01*
X140280771Y-86505771D01*
X140273632Y-86507559D01*
X140266351Y-86508639D01*
X140259000Y-86509000D01*
X139559000Y-86509000D01*
X139551649Y-86508639D01*
X139544368Y-86507559D01*
X139537229Y-86505771D01*
X139530299Y-86503291D01*
X139523645Y-86500144D01*
X139517332Y-86496360D01*
X139511421Y-86491976D01*
X139505967Y-86487033D01*
X139501024Y-86481579D01*
X139496640Y-86475668D01*
X139492856Y-86469355D01*
X139489709Y-86462701D01*
X139487229Y-86455771D01*
X139485441Y-86448632D01*
X139484361Y-86441351D01*
X139484000Y-86434000D01*
X139484000Y-86284000D01*
X139484361Y-86276649D01*
X139485441Y-86269368D01*
X139487229Y-86262229D01*
X139489709Y-86255299D01*
X139492856Y-86248645D01*
X139496640Y-86242332D01*
X139501024Y-86236421D01*
X139505967Y-86230967D01*
X139511421Y-86226024D01*
X139517332Y-86221640D01*
X139523645Y-86217856D01*
X139530299Y-86214709D01*
X139537229Y-86212229D01*
X139544368Y-86210441D01*
X139551649Y-86209361D01*
X139559000Y-86209000D01*
X140259000Y-86209000D01*
X140266351Y-86209361D01*
G37*
G36*
X140266351Y-86709361D02*
G01*
X140273632Y-86710441D01*
X140280771Y-86712229D01*
X140287701Y-86714709D01*
X140294355Y-86717856D01*
X140300668Y-86721640D01*
X140306579Y-86726024D01*
X140312033Y-86730967D01*
X140316976Y-86736421D01*
X140321360Y-86742332D01*
X140325144Y-86748645D01*
X140328291Y-86755299D01*
X140330771Y-86762229D01*
X140332559Y-86769368D01*
X140333639Y-86776649D01*
X140334000Y-86784000D01*
X140334000Y-86934000D01*
X140333639Y-86941351D01*
X140332559Y-86948632D01*
X140330771Y-86955771D01*
X140328291Y-86962701D01*
X140325144Y-86969355D01*
X140321360Y-86975668D01*
X140316976Y-86981579D01*
X140312033Y-86987033D01*
X140306579Y-86991976D01*
X140300668Y-86996360D01*
X140294355Y-87000144D01*
X140287701Y-87003291D01*
X140280771Y-87005771D01*
X140273632Y-87007559D01*
X140266351Y-87008639D01*
X140259000Y-87009000D01*
X139559000Y-87009000D01*
X139551649Y-87008639D01*
X139544368Y-87007559D01*
X139537229Y-87005771D01*
X139530299Y-87003291D01*
X139523645Y-87000144D01*
X139517332Y-86996360D01*
X139511421Y-86991976D01*
X139505967Y-86987033D01*
X139501024Y-86981579D01*
X139496640Y-86975668D01*
X139492856Y-86969355D01*
X139489709Y-86962701D01*
X139487229Y-86955771D01*
X139485441Y-86948632D01*
X139484361Y-86941351D01*
X139484000Y-86934000D01*
X139484000Y-86784000D01*
X139484361Y-86776649D01*
X139485441Y-86769368D01*
X139487229Y-86762229D01*
X139489709Y-86755299D01*
X139492856Y-86748645D01*
X139496640Y-86742332D01*
X139501024Y-86736421D01*
X139505967Y-86730967D01*
X139511421Y-86726024D01*
X139517332Y-86721640D01*
X139523645Y-86717856D01*
X139530299Y-86714709D01*
X139537229Y-86712229D01*
X139544368Y-86710441D01*
X139551649Y-86709361D01*
X139559000Y-86709000D01*
X140259000Y-86709000D01*
X140266351Y-86709361D01*
G37*
G36*
X140266351Y-87209361D02*
G01*
X140273632Y-87210441D01*
X140280771Y-87212229D01*
X140287701Y-87214709D01*
X140294355Y-87217856D01*
X140300668Y-87221640D01*
X140306579Y-87226024D01*
X140312033Y-87230967D01*
X140316976Y-87236421D01*
X140321360Y-87242332D01*
X140325144Y-87248645D01*
X140328291Y-87255299D01*
X140330771Y-87262229D01*
X140332559Y-87269368D01*
X140333639Y-87276649D01*
X140334000Y-87284000D01*
X140334000Y-87434000D01*
X140333639Y-87441351D01*
X140332559Y-87448632D01*
X140330771Y-87455771D01*
X140328291Y-87462701D01*
X140325144Y-87469355D01*
X140321360Y-87475668D01*
X140316976Y-87481579D01*
X140312033Y-87487033D01*
X140306579Y-87491976D01*
X140300668Y-87496360D01*
X140294355Y-87500144D01*
X140287701Y-87503291D01*
X140280771Y-87505771D01*
X140273632Y-87507559D01*
X140266351Y-87508639D01*
X140259000Y-87509000D01*
X139559000Y-87509000D01*
X139551649Y-87508639D01*
X139544368Y-87507559D01*
X139537229Y-87505771D01*
X139530299Y-87503291D01*
X139523645Y-87500144D01*
X139517332Y-87496360D01*
X139511421Y-87491976D01*
X139505967Y-87487033D01*
X139501024Y-87481579D01*
X139496640Y-87475668D01*
X139492856Y-87469355D01*
X139489709Y-87462701D01*
X139487229Y-87455771D01*
X139485441Y-87448632D01*
X139484361Y-87441351D01*
X139484000Y-87434000D01*
X139484000Y-87284000D01*
X139484361Y-87276649D01*
X139485441Y-87269368D01*
X139487229Y-87262229D01*
X139489709Y-87255299D01*
X139492856Y-87248645D01*
X139496640Y-87242332D01*
X139501024Y-87236421D01*
X139505967Y-87230967D01*
X139511421Y-87226024D01*
X139517332Y-87221640D01*
X139523645Y-87217856D01*
X139530299Y-87214709D01*
X139537229Y-87212229D01*
X139544368Y-87210441D01*
X139551649Y-87209361D01*
X139559000Y-87209000D01*
X140259000Y-87209000D01*
X140266351Y-87209361D01*
G37*
G36*
X140266351Y-87709361D02*
G01*
X140273632Y-87710441D01*
X140280771Y-87712229D01*
X140287701Y-87714709D01*
X140294355Y-87717856D01*
X140300668Y-87721640D01*
X140306579Y-87726024D01*
X140312033Y-87730967D01*
X140316976Y-87736421D01*
X140321360Y-87742332D01*
X140325144Y-87748645D01*
X140328291Y-87755299D01*
X140330771Y-87762229D01*
X140332559Y-87769368D01*
X140333639Y-87776649D01*
X140334000Y-87784000D01*
X140334000Y-87934000D01*
X140333639Y-87941351D01*
X140332559Y-87948632D01*
X140330771Y-87955771D01*
X140328291Y-87962701D01*
X140325144Y-87969355D01*
X140321360Y-87975668D01*
X140316976Y-87981579D01*
X140312033Y-87987033D01*
X140306579Y-87991976D01*
X140300668Y-87996360D01*
X140294355Y-88000144D01*
X140287701Y-88003291D01*
X140280771Y-88005771D01*
X140273632Y-88007559D01*
X140266351Y-88008639D01*
X140259000Y-88009000D01*
X139559000Y-88009000D01*
X139551649Y-88008639D01*
X139544368Y-88007559D01*
X139537229Y-88005771D01*
X139530299Y-88003291D01*
X139523645Y-88000144D01*
X139517332Y-87996360D01*
X139511421Y-87991976D01*
X139505967Y-87987033D01*
X139501024Y-87981579D01*
X139496640Y-87975668D01*
X139492856Y-87969355D01*
X139489709Y-87962701D01*
X139487229Y-87955771D01*
X139485441Y-87948632D01*
X139484361Y-87941351D01*
X139484000Y-87934000D01*
X139484000Y-87784000D01*
X139484361Y-87776649D01*
X139485441Y-87769368D01*
X139487229Y-87762229D01*
X139489709Y-87755299D01*
X139492856Y-87748645D01*
X139496640Y-87742332D01*
X139501024Y-87736421D01*
X139505967Y-87730967D01*
X139511421Y-87726024D01*
X139517332Y-87721640D01*
X139523645Y-87717856D01*
X139530299Y-87714709D01*
X139537229Y-87712229D01*
X139544368Y-87710441D01*
X139551649Y-87709361D01*
X139559000Y-87709000D01*
X140259000Y-87709000D01*
X140266351Y-87709361D01*
G37*
G04 #@! TD*
D18*
G04 #@! TO.C,U5*
X150711000Y-87660200D03*
X152311000Y-85710200D03*
X152311000Y-86360200D03*
X152311000Y-87010200D03*
X150711000Y-85710200D03*
X150711000Y-86360200D03*
X150711000Y-87010200D03*
X152311000Y-87660200D03*
G04 #@! TD*
D10*
G04 #@! TO.C,U6*
G36*
X152526626Y-81888301D02*
G01*
X152532693Y-81889201D01*
X152538643Y-81890691D01*
X152544418Y-81892758D01*
X152549962Y-81895380D01*
X152555223Y-81898533D01*
X152560150Y-81902187D01*
X152564694Y-81906306D01*
X152568813Y-81910850D01*
X152572467Y-81915777D01*
X152575620Y-81921038D01*
X152578242Y-81926582D01*
X152580309Y-81932357D01*
X152581799Y-81938307D01*
X152582699Y-81944374D01*
X152583000Y-81950500D01*
X152583000Y-82075500D01*
X152582699Y-82081626D01*
X152581799Y-82087693D01*
X152580309Y-82093643D01*
X152578242Y-82099418D01*
X152575620Y-82104962D01*
X152572467Y-82110223D01*
X152568813Y-82115150D01*
X152564694Y-82119694D01*
X152560150Y-82123813D01*
X152555223Y-82127467D01*
X152549962Y-82130620D01*
X152544418Y-82133242D01*
X152538643Y-82135309D01*
X152532693Y-82136799D01*
X152526626Y-82137699D01*
X152520500Y-82138000D01*
X151845500Y-82138000D01*
X151839374Y-82137699D01*
X151833307Y-82136799D01*
X151827357Y-82135309D01*
X151821582Y-82133242D01*
X151816038Y-82130620D01*
X151810777Y-82127467D01*
X151805850Y-82123813D01*
X151801306Y-82119694D01*
X151797187Y-82115150D01*
X151793533Y-82110223D01*
X151790380Y-82104962D01*
X151787758Y-82099418D01*
X151785691Y-82093643D01*
X151784201Y-82087693D01*
X151783301Y-82081626D01*
X151783000Y-82075500D01*
X151783000Y-81950500D01*
X151783301Y-81944374D01*
X151784201Y-81938307D01*
X151785691Y-81932357D01*
X151787758Y-81926582D01*
X151790380Y-81921038D01*
X151793533Y-81915777D01*
X151797187Y-81910850D01*
X151801306Y-81906306D01*
X151805850Y-81902187D01*
X151810777Y-81898533D01*
X151816038Y-81895380D01*
X151821582Y-81892758D01*
X151827357Y-81890691D01*
X151833307Y-81889201D01*
X151839374Y-81888301D01*
X151845500Y-81888000D01*
X152520500Y-81888000D01*
X152526626Y-81888301D01*
G37*
G36*
X152526626Y-81388301D02*
G01*
X152532693Y-81389201D01*
X152538643Y-81390691D01*
X152544418Y-81392758D01*
X152549962Y-81395380D01*
X152555223Y-81398533D01*
X152560150Y-81402187D01*
X152564694Y-81406306D01*
X152568813Y-81410850D01*
X152572467Y-81415777D01*
X152575620Y-81421038D01*
X152578242Y-81426582D01*
X152580309Y-81432357D01*
X152581799Y-81438307D01*
X152582699Y-81444374D01*
X152583000Y-81450500D01*
X152583000Y-81575500D01*
X152582699Y-81581626D01*
X152581799Y-81587693D01*
X152580309Y-81593643D01*
X152578242Y-81599418D01*
X152575620Y-81604962D01*
X152572467Y-81610223D01*
X152568813Y-81615150D01*
X152564694Y-81619694D01*
X152560150Y-81623813D01*
X152555223Y-81627467D01*
X152549962Y-81630620D01*
X152544418Y-81633242D01*
X152538643Y-81635309D01*
X152532693Y-81636799D01*
X152526626Y-81637699D01*
X152520500Y-81638000D01*
X151845500Y-81638000D01*
X151839374Y-81637699D01*
X151833307Y-81636799D01*
X151827357Y-81635309D01*
X151821582Y-81633242D01*
X151816038Y-81630620D01*
X151810777Y-81627467D01*
X151805850Y-81623813D01*
X151801306Y-81619694D01*
X151797187Y-81615150D01*
X151793533Y-81610223D01*
X151790380Y-81604962D01*
X151787758Y-81599418D01*
X151785691Y-81593643D01*
X151784201Y-81587693D01*
X151783301Y-81581626D01*
X151783000Y-81575500D01*
X151783000Y-81450500D01*
X151783301Y-81444374D01*
X151784201Y-81438307D01*
X151785691Y-81432357D01*
X151787758Y-81426582D01*
X151790380Y-81421038D01*
X151793533Y-81415777D01*
X151797187Y-81410850D01*
X151801306Y-81406306D01*
X151805850Y-81402187D01*
X151810777Y-81398533D01*
X151816038Y-81395380D01*
X151821582Y-81392758D01*
X151827357Y-81390691D01*
X151833307Y-81389201D01*
X151839374Y-81388301D01*
X151845500Y-81388000D01*
X152520500Y-81388000D01*
X152526626Y-81388301D01*
G37*
G36*
X152526626Y-80888301D02*
G01*
X152532693Y-80889201D01*
X152538643Y-80890691D01*
X152544418Y-80892758D01*
X152549962Y-80895380D01*
X152555223Y-80898533D01*
X152560150Y-80902187D01*
X152564694Y-80906306D01*
X152568813Y-80910850D01*
X152572467Y-80915777D01*
X152575620Y-80921038D01*
X152578242Y-80926582D01*
X152580309Y-80932357D01*
X152581799Y-80938307D01*
X152582699Y-80944374D01*
X152583000Y-80950500D01*
X152583000Y-81075500D01*
X152582699Y-81081626D01*
X152581799Y-81087693D01*
X152580309Y-81093643D01*
X152578242Y-81099418D01*
X152575620Y-81104962D01*
X152572467Y-81110223D01*
X152568813Y-81115150D01*
X152564694Y-81119694D01*
X152560150Y-81123813D01*
X152555223Y-81127467D01*
X152549962Y-81130620D01*
X152544418Y-81133242D01*
X152538643Y-81135309D01*
X152532693Y-81136799D01*
X152526626Y-81137699D01*
X152520500Y-81138000D01*
X151845500Y-81138000D01*
X151839374Y-81137699D01*
X151833307Y-81136799D01*
X151827357Y-81135309D01*
X151821582Y-81133242D01*
X151816038Y-81130620D01*
X151810777Y-81127467D01*
X151805850Y-81123813D01*
X151801306Y-81119694D01*
X151797187Y-81115150D01*
X151793533Y-81110223D01*
X151790380Y-81104962D01*
X151787758Y-81099418D01*
X151785691Y-81093643D01*
X151784201Y-81087693D01*
X151783301Y-81081626D01*
X151783000Y-81075500D01*
X151783000Y-80950500D01*
X151783301Y-80944374D01*
X151784201Y-80938307D01*
X151785691Y-80932357D01*
X151787758Y-80926582D01*
X151790380Y-80921038D01*
X151793533Y-80915777D01*
X151797187Y-80910850D01*
X151801306Y-80906306D01*
X151805850Y-80902187D01*
X151810777Y-80898533D01*
X151816038Y-80895380D01*
X151821582Y-80892758D01*
X151827357Y-80890691D01*
X151833307Y-80889201D01*
X151839374Y-80888301D01*
X151845500Y-80888000D01*
X152520500Y-80888000D01*
X152526626Y-80888301D01*
G37*
G36*
X152526626Y-80388301D02*
G01*
X152532693Y-80389201D01*
X152538643Y-80390691D01*
X152544418Y-80392758D01*
X152549962Y-80395380D01*
X152555223Y-80398533D01*
X152560150Y-80402187D01*
X152564694Y-80406306D01*
X152568813Y-80410850D01*
X152572467Y-80415777D01*
X152575620Y-80421038D01*
X152578242Y-80426582D01*
X152580309Y-80432357D01*
X152581799Y-80438307D01*
X152582699Y-80444374D01*
X152583000Y-80450500D01*
X152583000Y-80575500D01*
X152582699Y-80581626D01*
X152581799Y-80587693D01*
X152580309Y-80593643D01*
X152578242Y-80599418D01*
X152575620Y-80604962D01*
X152572467Y-80610223D01*
X152568813Y-80615150D01*
X152564694Y-80619694D01*
X152560150Y-80623813D01*
X152555223Y-80627467D01*
X152549962Y-80630620D01*
X152544418Y-80633242D01*
X152538643Y-80635309D01*
X152532693Y-80636799D01*
X152526626Y-80637699D01*
X152520500Y-80638000D01*
X151845500Y-80638000D01*
X151839374Y-80637699D01*
X151833307Y-80636799D01*
X151827357Y-80635309D01*
X151821582Y-80633242D01*
X151816038Y-80630620D01*
X151810777Y-80627467D01*
X151805850Y-80623813D01*
X151801306Y-80619694D01*
X151797187Y-80615150D01*
X151793533Y-80610223D01*
X151790380Y-80604962D01*
X151787758Y-80599418D01*
X151785691Y-80593643D01*
X151784201Y-80587693D01*
X151783301Y-80581626D01*
X151783000Y-80575500D01*
X151783000Y-80450500D01*
X151783301Y-80444374D01*
X151784201Y-80438307D01*
X151785691Y-80432357D01*
X151787758Y-80426582D01*
X151790380Y-80421038D01*
X151793533Y-80415777D01*
X151797187Y-80410850D01*
X151801306Y-80406306D01*
X151805850Y-80402187D01*
X151810777Y-80398533D01*
X151816038Y-80395380D01*
X151821582Y-80392758D01*
X151827357Y-80390691D01*
X151833307Y-80389201D01*
X151839374Y-80388301D01*
X151845500Y-80388000D01*
X152520500Y-80388000D01*
X152526626Y-80388301D01*
G37*
G36*
X152526626Y-79888301D02*
G01*
X152532693Y-79889201D01*
X152538643Y-79890691D01*
X152544418Y-79892758D01*
X152549962Y-79895380D01*
X152555223Y-79898533D01*
X152560150Y-79902187D01*
X152564694Y-79906306D01*
X152568813Y-79910850D01*
X152572467Y-79915777D01*
X152575620Y-79921038D01*
X152578242Y-79926582D01*
X152580309Y-79932357D01*
X152581799Y-79938307D01*
X152582699Y-79944374D01*
X152583000Y-79950500D01*
X152583000Y-80075500D01*
X152582699Y-80081626D01*
X152581799Y-80087693D01*
X152580309Y-80093643D01*
X152578242Y-80099418D01*
X152575620Y-80104962D01*
X152572467Y-80110223D01*
X152568813Y-80115150D01*
X152564694Y-80119694D01*
X152560150Y-80123813D01*
X152555223Y-80127467D01*
X152549962Y-80130620D01*
X152544418Y-80133242D01*
X152538643Y-80135309D01*
X152532693Y-80136799D01*
X152526626Y-80137699D01*
X152520500Y-80138000D01*
X151845500Y-80138000D01*
X151839374Y-80137699D01*
X151833307Y-80136799D01*
X151827357Y-80135309D01*
X151821582Y-80133242D01*
X151816038Y-80130620D01*
X151810777Y-80127467D01*
X151805850Y-80123813D01*
X151801306Y-80119694D01*
X151797187Y-80115150D01*
X151793533Y-80110223D01*
X151790380Y-80104962D01*
X151787758Y-80099418D01*
X151785691Y-80093643D01*
X151784201Y-80087693D01*
X151783301Y-80081626D01*
X151783000Y-80075500D01*
X151783000Y-79950500D01*
X151783301Y-79944374D01*
X151784201Y-79938307D01*
X151785691Y-79932357D01*
X151787758Y-79926582D01*
X151790380Y-79921038D01*
X151793533Y-79915777D01*
X151797187Y-79910850D01*
X151801306Y-79906306D01*
X151805850Y-79902187D01*
X151810777Y-79898533D01*
X151816038Y-79895380D01*
X151821582Y-79892758D01*
X151827357Y-79890691D01*
X151833307Y-79889201D01*
X151839374Y-79888301D01*
X151845500Y-79888000D01*
X152520500Y-79888000D01*
X152526626Y-79888301D01*
G37*
G36*
X152526626Y-79388301D02*
G01*
X152532693Y-79389201D01*
X152538643Y-79390691D01*
X152544418Y-79392758D01*
X152549962Y-79395380D01*
X152555223Y-79398533D01*
X152560150Y-79402187D01*
X152564694Y-79406306D01*
X152568813Y-79410850D01*
X152572467Y-79415777D01*
X152575620Y-79421038D01*
X152578242Y-79426582D01*
X152580309Y-79432357D01*
X152581799Y-79438307D01*
X152582699Y-79444374D01*
X152583000Y-79450500D01*
X152583000Y-79575500D01*
X152582699Y-79581626D01*
X152581799Y-79587693D01*
X152580309Y-79593643D01*
X152578242Y-79599418D01*
X152575620Y-79604962D01*
X152572467Y-79610223D01*
X152568813Y-79615150D01*
X152564694Y-79619694D01*
X152560150Y-79623813D01*
X152555223Y-79627467D01*
X152549962Y-79630620D01*
X152544418Y-79633242D01*
X152538643Y-79635309D01*
X152532693Y-79636799D01*
X152526626Y-79637699D01*
X152520500Y-79638000D01*
X151845500Y-79638000D01*
X151839374Y-79637699D01*
X151833307Y-79636799D01*
X151827357Y-79635309D01*
X151821582Y-79633242D01*
X151816038Y-79630620D01*
X151810777Y-79627467D01*
X151805850Y-79623813D01*
X151801306Y-79619694D01*
X151797187Y-79615150D01*
X151793533Y-79610223D01*
X151790380Y-79604962D01*
X151787758Y-79599418D01*
X151785691Y-79593643D01*
X151784201Y-79587693D01*
X151783301Y-79581626D01*
X151783000Y-79575500D01*
X151783000Y-79450500D01*
X151783301Y-79444374D01*
X151784201Y-79438307D01*
X151785691Y-79432357D01*
X151787758Y-79426582D01*
X151790380Y-79421038D01*
X151793533Y-79415777D01*
X151797187Y-79410850D01*
X151801306Y-79406306D01*
X151805850Y-79402187D01*
X151810777Y-79398533D01*
X151816038Y-79395380D01*
X151821582Y-79392758D01*
X151827357Y-79390691D01*
X151833307Y-79389201D01*
X151839374Y-79388301D01*
X151845500Y-79388000D01*
X152520500Y-79388000D01*
X152526626Y-79388301D01*
G37*
G36*
X152526626Y-78888301D02*
G01*
X152532693Y-78889201D01*
X152538643Y-78890691D01*
X152544418Y-78892758D01*
X152549962Y-78895380D01*
X152555223Y-78898533D01*
X152560150Y-78902187D01*
X152564694Y-78906306D01*
X152568813Y-78910850D01*
X152572467Y-78915777D01*
X152575620Y-78921038D01*
X152578242Y-78926582D01*
X152580309Y-78932357D01*
X152581799Y-78938307D01*
X152582699Y-78944374D01*
X152583000Y-78950500D01*
X152583000Y-79075500D01*
X152582699Y-79081626D01*
X152581799Y-79087693D01*
X152580309Y-79093643D01*
X152578242Y-79099418D01*
X152575620Y-79104962D01*
X152572467Y-79110223D01*
X152568813Y-79115150D01*
X152564694Y-79119694D01*
X152560150Y-79123813D01*
X152555223Y-79127467D01*
X152549962Y-79130620D01*
X152544418Y-79133242D01*
X152538643Y-79135309D01*
X152532693Y-79136799D01*
X152526626Y-79137699D01*
X152520500Y-79138000D01*
X151845500Y-79138000D01*
X151839374Y-79137699D01*
X151833307Y-79136799D01*
X151827357Y-79135309D01*
X151821582Y-79133242D01*
X151816038Y-79130620D01*
X151810777Y-79127467D01*
X151805850Y-79123813D01*
X151801306Y-79119694D01*
X151797187Y-79115150D01*
X151793533Y-79110223D01*
X151790380Y-79104962D01*
X151787758Y-79099418D01*
X151785691Y-79093643D01*
X151784201Y-79087693D01*
X151783301Y-79081626D01*
X151783000Y-79075500D01*
X151783000Y-78950500D01*
X151783301Y-78944374D01*
X151784201Y-78938307D01*
X151785691Y-78932357D01*
X151787758Y-78926582D01*
X151790380Y-78921038D01*
X151793533Y-78915777D01*
X151797187Y-78910850D01*
X151801306Y-78906306D01*
X151805850Y-78902187D01*
X151810777Y-78898533D01*
X151816038Y-78895380D01*
X151821582Y-78892758D01*
X151827357Y-78890691D01*
X151833307Y-78889201D01*
X151839374Y-78888301D01*
X151845500Y-78888000D01*
X152520500Y-78888000D01*
X152526626Y-78888301D01*
G37*
G36*
X151301626Y-77663301D02*
G01*
X151307693Y-77664201D01*
X151313643Y-77665691D01*
X151319418Y-77667758D01*
X151324962Y-77670380D01*
X151330223Y-77673533D01*
X151335150Y-77677187D01*
X151339694Y-77681306D01*
X151343813Y-77685850D01*
X151347467Y-77690777D01*
X151350620Y-77696038D01*
X151353242Y-77701582D01*
X151355309Y-77707357D01*
X151356799Y-77713307D01*
X151357699Y-77719374D01*
X151358000Y-77725500D01*
X151358000Y-78400500D01*
X151357699Y-78406626D01*
X151356799Y-78412693D01*
X151355309Y-78418643D01*
X151353242Y-78424418D01*
X151350620Y-78429962D01*
X151347467Y-78435223D01*
X151343813Y-78440150D01*
X151339694Y-78444694D01*
X151335150Y-78448813D01*
X151330223Y-78452467D01*
X151324962Y-78455620D01*
X151319418Y-78458242D01*
X151313643Y-78460309D01*
X151307693Y-78461799D01*
X151301626Y-78462699D01*
X151295500Y-78463000D01*
X151170500Y-78463000D01*
X151164374Y-78462699D01*
X151158307Y-78461799D01*
X151152357Y-78460309D01*
X151146582Y-78458242D01*
X151141038Y-78455620D01*
X151135777Y-78452467D01*
X151130850Y-78448813D01*
X151126306Y-78444694D01*
X151122187Y-78440150D01*
X151118533Y-78435223D01*
X151115380Y-78429962D01*
X151112758Y-78424418D01*
X151110691Y-78418643D01*
X151109201Y-78412693D01*
X151108301Y-78406626D01*
X151108000Y-78400500D01*
X151108000Y-77725500D01*
X151108301Y-77719374D01*
X151109201Y-77713307D01*
X151110691Y-77707357D01*
X151112758Y-77701582D01*
X151115380Y-77696038D01*
X151118533Y-77690777D01*
X151122187Y-77685850D01*
X151126306Y-77681306D01*
X151130850Y-77677187D01*
X151135777Y-77673533D01*
X151141038Y-77670380D01*
X151146582Y-77667758D01*
X151152357Y-77665691D01*
X151158307Y-77664201D01*
X151164374Y-77663301D01*
X151170500Y-77663000D01*
X151295500Y-77663000D01*
X151301626Y-77663301D01*
G37*
G36*
X150801626Y-77663301D02*
G01*
X150807693Y-77664201D01*
X150813643Y-77665691D01*
X150819418Y-77667758D01*
X150824962Y-77670380D01*
X150830223Y-77673533D01*
X150835150Y-77677187D01*
X150839694Y-77681306D01*
X150843813Y-77685850D01*
X150847467Y-77690777D01*
X150850620Y-77696038D01*
X150853242Y-77701582D01*
X150855309Y-77707357D01*
X150856799Y-77713307D01*
X150857699Y-77719374D01*
X150858000Y-77725500D01*
X150858000Y-78400500D01*
X150857699Y-78406626D01*
X150856799Y-78412693D01*
X150855309Y-78418643D01*
X150853242Y-78424418D01*
X150850620Y-78429962D01*
X150847467Y-78435223D01*
X150843813Y-78440150D01*
X150839694Y-78444694D01*
X150835150Y-78448813D01*
X150830223Y-78452467D01*
X150824962Y-78455620D01*
X150819418Y-78458242D01*
X150813643Y-78460309D01*
X150807693Y-78461799D01*
X150801626Y-78462699D01*
X150795500Y-78463000D01*
X150670500Y-78463000D01*
X150664374Y-78462699D01*
X150658307Y-78461799D01*
X150652357Y-78460309D01*
X150646582Y-78458242D01*
X150641038Y-78455620D01*
X150635777Y-78452467D01*
X150630850Y-78448813D01*
X150626306Y-78444694D01*
X150622187Y-78440150D01*
X150618533Y-78435223D01*
X150615380Y-78429962D01*
X150612758Y-78424418D01*
X150610691Y-78418643D01*
X150609201Y-78412693D01*
X150608301Y-78406626D01*
X150608000Y-78400500D01*
X150608000Y-77725500D01*
X150608301Y-77719374D01*
X150609201Y-77713307D01*
X150610691Y-77707357D01*
X150612758Y-77701582D01*
X150615380Y-77696038D01*
X150618533Y-77690777D01*
X150622187Y-77685850D01*
X150626306Y-77681306D01*
X150630850Y-77677187D01*
X150635777Y-77673533D01*
X150641038Y-77670380D01*
X150646582Y-77667758D01*
X150652357Y-77665691D01*
X150658307Y-77664201D01*
X150664374Y-77663301D01*
X150670500Y-77663000D01*
X150795500Y-77663000D01*
X150801626Y-77663301D01*
G37*
G36*
X150301626Y-77663301D02*
G01*
X150307693Y-77664201D01*
X150313643Y-77665691D01*
X150319418Y-77667758D01*
X150324962Y-77670380D01*
X150330223Y-77673533D01*
X150335150Y-77677187D01*
X150339694Y-77681306D01*
X150343813Y-77685850D01*
X150347467Y-77690777D01*
X150350620Y-77696038D01*
X150353242Y-77701582D01*
X150355309Y-77707357D01*
X150356799Y-77713307D01*
X150357699Y-77719374D01*
X150358000Y-77725500D01*
X150358000Y-78400500D01*
X150357699Y-78406626D01*
X150356799Y-78412693D01*
X150355309Y-78418643D01*
X150353242Y-78424418D01*
X150350620Y-78429962D01*
X150347467Y-78435223D01*
X150343813Y-78440150D01*
X150339694Y-78444694D01*
X150335150Y-78448813D01*
X150330223Y-78452467D01*
X150324962Y-78455620D01*
X150319418Y-78458242D01*
X150313643Y-78460309D01*
X150307693Y-78461799D01*
X150301626Y-78462699D01*
X150295500Y-78463000D01*
X150170500Y-78463000D01*
X150164374Y-78462699D01*
X150158307Y-78461799D01*
X150152357Y-78460309D01*
X150146582Y-78458242D01*
X150141038Y-78455620D01*
X150135777Y-78452467D01*
X150130850Y-78448813D01*
X150126306Y-78444694D01*
X150122187Y-78440150D01*
X150118533Y-78435223D01*
X150115380Y-78429962D01*
X150112758Y-78424418D01*
X150110691Y-78418643D01*
X150109201Y-78412693D01*
X150108301Y-78406626D01*
X150108000Y-78400500D01*
X150108000Y-77725500D01*
X150108301Y-77719374D01*
X150109201Y-77713307D01*
X150110691Y-77707357D01*
X150112758Y-77701582D01*
X150115380Y-77696038D01*
X150118533Y-77690777D01*
X150122187Y-77685850D01*
X150126306Y-77681306D01*
X150130850Y-77677187D01*
X150135777Y-77673533D01*
X150141038Y-77670380D01*
X150146582Y-77667758D01*
X150152357Y-77665691D01*
X150158307Y-77664201D01*
X150164374Y-77663301D01*
X150170500Y-77663000D01*
X150295500Y-77663000D01*
X150301626Y-77663301D01*
G37*
G36*
X149801626Y-77663301D02*
G01*
X149807693Y-77664201D01*
X149813643Y-77665691D01*
X149819418Y-77667758D01*
X149824962Y-77670380D01*
X149830223Y-77673533D01*
X149835150Y-77677187D01*
X149839694Y-77681306D01*
X149843813Y-77685850D01*
X149847467Y-77690777D01*
X149850620Y-77696038D01*
X149853242Y-77701582D01*
X149855309Y-77707357D01*
X149856799Y-77713307D01*
X149857699Y-77719374D01*
X149858000Y-77725500D01*
X149858000Y-78400500D01*
X149857699Y-78406626D01*
X149856799Y-78412693D01*
X149855309Y-78418643D01*
X149853242Y-78424418D01*
X149850620Y-78429962D01*
X149847467Y-78435223D01*
X149843813Y-78440150D01*
X149839694Y-78444694D01*
X149835150Y-78448813D01*
X149830223Y-78452467D01*
X149824962Y-78455620D01*
X149819418Y-78458242D01*
X149813643Y-78460309D01*
X149807693Y-78461799D01*
X149801626Y-78462699D01*
X149795500Y-78463000D01*
X149670500Y-78463000D01*
X149664374Y-78462699D01*
X149658307Y-78461799D01*
X149652357Y-78460309D01*
X149646582Y-78458242D01*
X149641038Y-78455620D01*
X149635777Y-78452467D01*
X149630850Y-78448813D01*
X149626306Y-78444694D01*
X149622187Y-78440150D01*
X149618533Y-78435223D01*
X149615380Y-78429962D01*
X149612758Y-78424418D01*
X149610691Y-78418643D01*
X149609201Y-78412693D01*
X149608301Y-78406626D01*
X149608000Y-78400500D01*
X149608000Y-77725500D01*
X149608301Y-77719374D01*
X149609201Y-77713307D01*
X149610691Y-77707357D01*
X149612758Y-77701582D01*
X149615380Y-77696038D01*
X149618533Y-77690777D01*
X149622187Y-77685850D01*
X149626306Y-77681306D01*
X149630850Y-77677187D01*
X149635777Y-77673533D01*
X149641038Y-77670380D01*
X149646582Y-77667758D01*
X149652357Y-77665691D01*
X149658307Y-77664201D01*
X149664374Y-77663301D01*
X149670500Y-77663000D01*
X149795500Y-77663000D01*
X149801626Y-77663301D01*
G37*
G36*
X149301626Y-77663301D02*
G01*
X149307693Y-77664201D01*
X149313643Y-77665691D01*
X149319418Y-77667758D01*
X149324962Y-77670380D01*
X149330223Y-77673533D01*
X149335150Y-77677187D01*
X149339694Y-77681306D01*
X149343813Y-77685850D01*
X149347467Y-77690777D01*
X149350620Y-77696038D01*
X149353242Y-77701582D01*
X149355309Y-77707357D01*
X149356799Y-77713307D01*
X149357699Y-77719374D01*
X149358000Y-77725500D01*
X149358000Y-78400500D01*
X149357699Y-78406626D01*
X149356799Y-78412693D01*
X149355309Y-78418643D01*
X149353242Y-78424418D01*
X149350620Y-78429962D01*
X149347467Y-78435223D01*
X149343813Y-78440150D01*
X149339694Y-78444694D01*
X149335150Y-78448813D01*
X149330223Y-78452467D01*
X149324962Y-78455620D01*
X149319418Y-78458242D01*
X149313643Y-78460309D01*
X149307693Y-78461799D01*
X149301626Y-78462699D01*
X149295500Y-78463000D01*
X149170500Y-78463000D01*
X149164374Y-78462699D01*
X149158307Y-78461799D01*
X149152357Y-78460309D01*
X149146582Y-78458242D01*
X149141038Y-78455620D01*
X149135777Y-78452467D01*
X149130850Y-78448813D01*
X149126306Y-78444694D01*
X149122187Y-78440150D01*
X149118533Y-78435223D01*
X149115380Y-78429962D01*
X149112758Y-78424418D01*
X149110691Y-78418643D01*
X149109201Y-78412693D01*
X149108301Y-78406626D01*
X149108000Y-78400500D01*
X149108000Y-77725500D01*
X149108301Y-77719374D01*
X149109201Y-77713307D01*
X149110691Y-77707357D01*
X149112758Y-77701582D01*
X149115380Y-77696038D01*
X149118533Y-77690777D01*
X149122187Y-77685850D01*
X149126306Y-77681306D01*
X149130850Y-77677187D01*
X149135777Y-77673533D01*
X149141038Y-77670380D01*
X149146582Y-77667758D01*
X149152357Y-77665691D01*
X149158307Y-77664201D01*
X149164374Y-77663301D01*
X149170500Y-77663000D01*
X149295500Y-77663000D01*
X149301626Y-77663301D01*
G37*
G36*
X148801626Y-77663301D02*
G01*
X148807693Y-77664201D01*
X148813643Y-77665691D01*
X148819418Y-77667758D01*
X148824962Y-77670380D01*
X148830223Y-77673533D01*
X148835150Y-77677187D01*
X148839694Y-77681306D01*
X148843813Y-77685850D01*
X148847467Y-77690777D01*
X148850620Y-77696038D01*
X148853242Y-77701582D01*
X148855309Y-77707357D01*
X148856799Y-77713307D01*
X148857699Y-77719374D01*
X148858000Y-77725500D01*
X148858000Y-78400500D01*
X148857699Y-78406626D01*
X148856799Y-78412693D01*
X148855309Y-78418643D01*
X148853242Y-78424418D01*
X148850620Y-78429962D01*
X148847467Y-78435223D01*
X148843813Y-78440150D01*
X148839694Y-78444694D01*
X148835150Y-78448813D01*
X148830223Y-78452467D01*
X148824962Y-78455620D01*
X148819418Y-78458242D01*
X148813643Y-78460309D01*
X148807693Y-78461799D01*
X148801626Y-78462699D01*
X148795500Y-78463000D01*
X148670500Y-78463000D01*
X148664374Y-78462699D01*
X148658307Y-78461799D01*
X148652357Y-78460309D01*
X148646582Y-78458242D01*
X148641038Y-78455620D01*
X148635777Y-78452467D01*
X148630850Y-78448813D01*
X148626306Y-78444694D01*
X148622187Y-78440150D01*
X148618533Y-78435223D01*
X148615380Y-78429962D01*
X148612758Y-78424418D01*
X148610691Y-78418643D01*
X148609201Y-78412693D01*
X148608301Y-78406626D01*
X148608000Y-78400500D01*
X148608000Y-77725500D01*
X148608301Y-77719374D01*
X148609201Y-77713307D01*
X148610691Y-77707357D01*
X148612758Y-77701582D01*
X148615380Y-77696038D01*
X148618533Y-77690777D01*
X148622187Y-77685850D01*
X148626306Y-77681306D01*
X148630850Y-77677187D01*
X148635777Y-77673533D01*
X148641038Y-77670380D01*
X148646582Y-77667758D01*
X148652357Y-77665691D01*
X148658307Y-77664201D01*
X148664374Y-77663301D01*
X148670500Y-77663000D01*
X148795500Y-77663000D01*
X148801626Y-77663301D01*
G37*
G36*
X148301626Y-77663301D02*
G01*
X148307693Y-77664201D01*
X148313643Y-77665691D01*
X148319418Y-77667758D01*
X148324962Y-77670380D01*
X148330223Y-77673533D01*
X148335150Y-77677187D01*
X148339694Y-77681306D01*
X148343813Y-77685850D01*
X148347467Y-77690777D01*
X148350620Y-77696038D01*
X148353242Y-77701582D01*
X148355309Y-77707357D01*
X148356799Y-77713307D01*
X148357699Y-77719374D01*
X148358000Y-77725500D01*
X148358000Y-78400500D01*
X148357699Y-78406626D01*
X148356799Y-78412693D01*
X148355309Y-78418643D01*
X148353242Y-78424418D01*
X148350620Y-78429962D01*
X148347467Y-78435223D01*
X148343813Y-78440150D01*
X148339694Y-78444694D01*
X148335150Y-78448813D01*
X148330223Y-78452467D01*
X148324962Y-78455620D01*
X148319418Y-78458242D01*
X148313643Y-78460309D01*
X148307693Y-78461799D01*
X148301626Y-78462699D01*
X148295500Y-78463000D01*
X148170500Y-78463000D01*
X148164374Y-78462699D01*
X148158307Y-78461799D01*
X148152357Y-78460309D01*
X148146582Y-78458242D01*
X148141038Y-78455620D01*
X148135777Y-78452467D01*
X148130850Y-78448813D01*
X148126306Y-78444694D01*
X148122187Y-78440150D01*
X148118533Y-78435223D01*
X148115380Y-78429962D01*
X148112758Y-78424418D01*
X148110691Y-78418643D01*
X148109201Y-78412693D01*
X148108301Y-78406626D01*
X148108000Y-78400500D01*
X148108000Y-77725500D01*
X148108301Y-77719374D01*
X148109201Y-77713307D01*
X148110691Y-77707357D01*
X148112758Y-77701582D01*
X148115380Y-77696038D01*
X148118533Y-77690777D01*
X148122187Y-77685850D01*
X148126306Y-77681306D01*
X148130850Y-77677187D01*
X148135777Y-77673533D01*
X148141038Y-77670380D01*
X148146582Y-77667758D01*
X148152357Y-77665691D01*
X148158307Y-77664201D01*
X148164374Y-77663301D01*
X148170500Y-77663000D01*
X148295500Y-77663000D01*
X148301626Y-77663301D01*
G37*
G36*
X147626626Y-78888301D02*
G01*
X147632693Y-78889201D01*
X147638643Y-78890691D01*
X147644418Y-78892758D01*
X147649962Y-78895380D01*
X147655223Y-78898533D01*
X147660150Y-78902187D01*
X147664694Y-78906306D01*
X147668813Y-78910850D01*
X147672467Y-78915777D01*
X147675620Y-78921038D01*
X147678242Y-78926582D01*
X147680309Y-78932357D01*
X147681799Y-78938307D01*
X147682699Y-78944374D01*
X147683000Y-78950500D01*
X147683000Y-79075500D01*
X147682699Y-79081626D01*
X147681799Y-79087693D01*
X147680309Y-79093643D01*
X147678242Y-79099418D01*
X147675620Y-79104962D01*
X147672467Y-79110223D01*
X147668813Y-79115150D01*
X147664694Y-79119694D01*
X147660150Y-79123813D01*
X147655223Y-79127467D01*
X147649962Y-79130620D01*
X147644418Y-79133242D01*
X147638643Y-79135309D01*
X147632693Y-79136799D01*
X147626626Y-79137699D01*
X147620500Y-79138000D01*
X146945500Y-79138000D01*
X146939374Y-79137699D01*
X146933307Y-79136799D01*
X146927357Y-79135309D01*
X146921582Y-79133242D01*
X146916038Y-79130620D01*
X146910777Y-79127467D01*
X146905850Y-79123813D01*
X146901306Y-79119694D01*
X146897187Y-79115150D01*
X146893533Y-79110223D01*
X146890380Y-79104962D01*
X146887758Y-79099418D01*
X146885691Y-79093643D01*
X146884201Y-79087693D01*
X146883301Y-79081626D01*
X146883000Y-79075500D01*
X146883000Y-78950500D01*
X146883301Y-78944374D01*
X146884201Y-78938307D01*
X146885691Y-78932357D01*
X146887758Y-78926582D01*
X146890380Y-78921038D01*
X146893533Y-78915777D01*
X146897187Y-78910850D01*
X146901306Y-78906306D01*
X146905850Y-78902187D01*
X146910777Y-78898533D01*
X146916038Y-78895380D01*
X146921582Y-78892758D01*
X146927357Y-78890691D01*
X146933307Y-78889201D01*
X146939374Y-78888301D01*
X146945500Y-78888000D01*
X147620500Y-78888000D01*
X147626626Y-78888301D01*
G37*
G36*
X147626626Y-79388301D02*
G01*
X147632693Y-79389201D01*
X147638643Y-79390691D01*
X147644418Y-79392758D01*
X147649962Y-79395380D01*
X147655223Y-79398533D01*
X147660150Y-79402187D01*
X147664694Y-79406306D01*
X147668813Y-79410850D01*
X147672467Y-79415777D01*
X147675620Y-79421038D01*
X147678242Y-79426582D01*
X147680309Y-79432357D01*
X147681799Y-79438307D01*
X147682699Y-79444374D01*
X147683000Y-79450500D01*
X147683000Y-79575500D01*
X147682699Y-79581626D01*
X147681799Y-79587693D01*
X147680309Y-79593643D01*
X147678242Y-79599418D01*
X147675620Y-79604962D01*
X147672467Y-79610223D01*
X147668813Y-79615150D01*
X147664694Y-79619694D01*
X147660150Y-79623813D01*
X147655223Y-79627467D01*
X147649962Y-79630620D01*
X147644418Y-79633242D01*
X147638643Y-79635309D01*
X147632693Y-79636799D01*
X147626626Y-79637699D01*
X147620500Y-79638000D01*
X146945500Y-79638000D01*
X146939374Y-79637699D01*
X146933307Y-79636799D01*
X146927357Y-79635309D01*
X146921582Y-79633242D01*
X146916038Y-79630620D01*
X146910777Y-79627467D01*
X146905850Y-79623813D01*
X146901306Y-79619694D01*
X146897187Y-79615150D01*
X146893533Y-79610223D01*
X146890380Y-79604962D01*
X146887758Y-79599418D01*
X146885691Y-79593643D01*
X146884201Y-79587693D01*
X146883301Y-79581626D01*
X146883000Y-79575500D01*
X146883000Y-79450500D01*
X146883301Y-79444374D01*
X146884201Y-79438307D01*
X146885691Y-79432357D01*
X146887758Y-79426582D01*
X146890380Y-79421038D01*
X146893533Y-79415777D01*
X146897187Y-79410850D01*
X146901306Y-79406306D01*
X146905850Y-79402187D01*
X146910777Y-79398533D01*
X146916038Y-79395380D01*
X146921582Y-79392758D01*
X146927357Y-79390691D01*
X146933307Y-79389201D01*
X146939374Y-79388301D01*
X146945500Y-79388000D01*
X147620500Y-79388000D01*
X147626626Y-79388301D01*
G37*
G36*
X147626626Y-79888301D02*
G01*
X147632693Y-79889201D01*
X147638643Y-79890691D01*
X147644418Y-79892758D01*
X147649962Y-79895380D01*
X147655223Y-79898533D01*
X147660150Y-79902187D01*
X147664694Y-79906306D01*
X147668813Y-79910850D01*
X147672467Y-79915777D01*
X147675620Y-79921038D01*
X147678242Y-79926582D01*
X147680309Y-79932357D01*
X147681799Y-79938307D01*
X147682699Y-79944374D01*
X147683000Y-79950500D01*
X147683000Y-80075500D01*
X147682699Y-80081626D01*
X147681799Y-80087693D01*
X147680309Y-80093643D01*
X147678242Y-80099418D01*
X147675620Y-80104962D01*
X147672467Y-80110223D01*
X147668813Y-80115150D01*
X147664694Y-80119694D01*
X147660150Y-80123813D01*
X147655223Y-80127467D01*
X147649962Y-80130620D01*
X147644418Y-80133242D01*
X147638643Y-80135309D01*
X147632693Y-80136799D01*
X147626626Y-80137699D01*
X147620500Y-80138000D01*
X146945500Y-80138000D01*
X146939374Y-80137699D01*
X146933307Y-80136799D01*
X146927357Y-80135309D01*
X146921582Y-80133242D01*
X146916038Y-80130620D01*
X146910777Y-80127467D01*
X146905850Y-80123813D01*
X146901306Y-80119694D01*
X146897187Y-80115150D01*
X146893533Y-80110223D01*
X146890380Y-80104962D01*
X146887758Y-80099418D01*
X146885691Y-80093643D01*
X146884201Y-80087693D01*
X146883301Y-80081626D01*
X146883000Y-80075500D01*
X146883000Y-79950500D01*
X146883301Y-79944374D01*
X146884201Y-79938307D01*
X146885691Y-79932357D01*
X146887758Y-79926582D01*
X146890380Y-79921038D01*
X146893533Y-79915777D01*
X146897187Y-79910850D01*
X146901306Y-79906306D01*
X146905850Y-79902187D01*
X146910777Y-79898533D01*
X146916038Y-79895380D01*
X146921582Y-79892758D01*
X146927357Y-79890691D01*
X146933307Y-79889201D01*
X146939374Y-79888301D01*
X146945500Y-79888000D01*
X147620500Y-79888000D01*
X147626626Y-79888301D01*
G37*
G36*
X147626626Y-80388301D02*
G01*
X147632693Y-80389201D01*
X147638643Y-80390691D01*
X147644418Y-80392758D01*
X147649962Y-80395380D01*
X147655223Y-80398533D01*
X147660150Y-80402187D01*
X147664694Y-80406306D01*
X147668813Y-80410850D01*
X147672467Y-80415777D01*
X147675620Y-80421038D01*
X147678242Y-80426582D01*
X147680309Y-80432357D01*
X147681799Y-80438307D01*
X147682699Y-80444374D01*
X147683000Y-80450500D01*
X147683000Y-80575500D01*
X147682699Y-80581626D01*
X147681799Y-80587693D01*
X147680309Y-80593643D01*
X147678242Y-80599418D01*
X147675620Y-80604962D01*
X147672467Y-80610223D01*
X147668813Y-80615150D01*
X147664694Y-80619694D01*
X147660150Y-80623813D01*
X147655223Y-80627467D01*
X147649962Y-80630620D01*
X147644418Y-80633242D01*
X147638643Y-80635309D01*
X147632693Y-80636799D01*
X147626626Y-80637699D01*
X147620500Y-80638000D01*
X146945500Y-80638000D01*
X146939374Y-80637699D01*
X146933307Y-80636799D01*
X146927357Y-80635309D01*
X146921582Y-80633242D01*
X146916038Y-80630620D01*
X146910777Y-80627467D01*
X146905850Y-80623813D01*
X146901306Y-80619694D01*
X146897187Y-80615150D01*
X146893533Y-80610223D01*
X146890380Y-80604962D01*
X146887758Y-80599418D01*
X146885691Y-80593643D01*
X146884201Y-80587693D01*
X146883301Y-80581626D01*
X146883000Y-80575500D01*
X146883000Y-80450500D01*
X146883301Y-80444374D01*
X146884201Y-80438307D01*
X146885691Y-80432357D01*
X146887758Y-80426582D01*
X146890380Y-80421038D01*
X146893533Y-80415777D01*
X146897187Y-80410850D01*
X146901306Y-80406306D01*
X146905850Y-80402187D01*
X146910777Y-80398533D01*
X146916038Y-80395380D01*
X146921582Y-80392758D01*
X146927357Y-80390691D01*
X146933307Y-80389201D01*
X146939374Y-80388301D01*
X146945500Y-80388000D01*
X147620500Y-80388000D01*
X147626626Y-80388301D01*
G37*
G36*
X147626626Y-80888301D02*
G01*
X147632693Y-80889201D01*
X147638643Y-80890691D01*
X147644418Y-80892758D01*
X147649962Y-80895380D01*
X147655223Y-80898533D01*
X147660150Y-80902187D01*
X147664694Y-80906306D01*
X147668813Y-80910850D01*
X147672467Y-80915777D01*
X147675620Y-80921038D01*
X147678242Y-80926582D01*
X147680309Y-80932357D01*
X147681799Y-80938307D01*
X147682699Y-80944374D01*
X147683000Y-80950500D01*
X147683000Y-81075500D01*
X147682699Y-81081626D01*
X147681799Y-81087693D01*
X147680309Y-81093643D01*
X147678242Y-81099418D01*
X147675620Y-81104962D01*
X147672467Y-81110223D01*
X147668813Y-81115150D01*
X147664694Y-81119694D01*
X147660150Y-81123813D01*
X147655223Y-81127467D01*
X147649962Y-81130620D01*
X147644418Y-81133242D01*
X147638643Y-81135309D01*
X147632693Y-81136799D01*
X147626626Y-81137699D01*
X147620500Y-81138000D01*
X146945500Y-81138000D01*
X146939374Y-81137699D01*
X146933307Y-81136799D01*
X146927357Y-81135309D01*
X146921582Y-81133242D01*
X146916038Y-81130620D01*
X146910777Y-81127467D01*
X146905850Y-81123813D01*
X146901306Y-81119694D01*
X146897187Y-81115150D01*
X146893533Y-81110223D01*
X146890380Y-81104962D01*
X146887758Y-81099418D01*
X146885691Y-81093643D01*
X146884201Y-81087693D01*
X146883301Y-81081626D01*
X146883000Y-81075500D01*
X146883000Y-80950500D01*
X146883301Y-80944374D01*
X146884201Y-80938307D01*
X146885691Y-80932357D01*
X146887758Y-80926582D01*
X146890380Y-80921038D01*
X146893533Y-80915777D01*
X146897187Y-80910850D01*
X146901306Y-80906306D01*
X146905850Y-80902187D01*
X146910777Y-80898533D01*
X146916038Y-80895380D01*
X146921582Y-80892758D01*
X146927357Y-80890691D01*
X146933307Y-80889201D01*
X146939374Y-80888301D01*
X146945500Y-80888000D01*
X147620500Y-80888000D01*
X147626626Y-80888301D01*
G37*
G36*
X147626626Y-81388301D02*
G01*
X147632693Y-81389201D01*
X147638643Y-81390691D01*
X147644418Y-81392758D01*
X147649962Y-81395380D01*
X147655223Y-81398533D01*
X147660150Y-81402187D01*
X147664694Y-81406306D01*
X147668813Y-81410850D01*
X147672467Y-81415777D01*
X147675620Y-81421038D01*
X147678242Y-81426582D01*
X147680309Y-81432357D01*
X147681799Y-81438307D01*
X147682699Y-81444374D01*
X147683000Y-81450500D01*
X147683000Y-81575500D01*
X147682699Y-81581626D01*
X147681799Y-81587693D01*
X147680309Y-81593643D01*
X147678242Y-81599418D01*
X147675620Y-81604962D01*
X147672467Y-81610223D01*
X147668813Y-81615150D01*
X147664694Y-81619694D01*
X147660150Y-81623813D01*
X147655223Y-81627467D01*
X147649962Y-81630620D01*
X147644418Y-81633242D01*
X147638643Y-81635309D01*
X147632693Y-81636799D01*
X147626626Y-81637699D01*
X147620500Y-81638000D01*
X146945500Y-81638000D01*
X146939374Y-81637699D01*
X146933307Y-81636799D01*
X146927357Y-81635309D01*
X146921582Y-81633242D01*
X146916038Y-81630620D01*
X146910777Y-81627467D01*
X146905850Y-81623813D01*
X146901306Y-81619694D01*
X146897187Y-81615150D01*
X146893533Y-81610223D01*
X146890380Y-81604962D01*
X146887758Y-81599418D01*
X146885691Y-81593643D01*
X146884201Y-81587693D01*
X146883301Y-81581626D01*
X146883000Y-81575500D01*
X146883000Y-81450500D01*
X146883301Y-81444374D01*
X146884201Y-81438307D01*
X146885691Y-81432357D01*
X146887758Y-81426582D01*
X146890380Y-81421038D01*
X146893533Y-81415777D01*
X146897187Y-81410850D01*
X146901306Y-81406306D01*
X146905850Y-81402187D01*
X146910777Y-81398533D01*
X146916038Y-81395380D01*
X146921582Y-81392758D01*
X146927357Y-81390691D01*
X146933307Y-81389201D01*
X146939374Y-81388301D01*
X146945500Y-81388000D01*
X147620500Y-81388000D01*
X147626626Y-81388301D01*
G37*
G36*
X147626626Y-81888301D02*
G01*
X147632693Y-81889201D01*
X147638643Y-81890691D01*
X147644418Y-81892758D01*
X147649962Y-81895380D01*
X147655223Y-81898533D01*
X147660150Y-81902187D01*
X147664694Y-81906306D01*
X147668813Y-81910850D01*
X147672467Y-81915777D01*
X147675620Y-81921038D01*
X147678242Y-81926582D01*
X147680309Y-81932357D01*
X147681799Y-81938307D01*
X147682699Y-81944374D01*
X147683000Y-81950500D01*
X147683000Y-82075500D01*
X147682699Y-82081626D01*
X147681799Y-82087693D01*
X147680309Y-82093643D01*
X147678242Y-82099418D01*
X147675620Y-82104962D01*
X147672467Y-82110223D01*
X147668813Y-82115150D01*
X147664694Y-82119694D01*
X147660150Y-82123813D01*
X147655223Y-82127467D01*
X147649962Y-82130620D01*
X147644418Y-82133242D01*
X147638643Y-82135309D01*
X147632693Y-82136799D01*
X147626626Y-82137699D01*
X147620500Y-82138000D01*
X146945500Y-82138000D01*
X146939374Y-82137699D01*
X146933307Y-82136799D01*
X146927357Y-82135309D01*
X146921582Y-82133242D01*
X146916038Y-82130620D01*
X146910777Y-82127467D01*
X146905850Y-82123813D01*
X146901306Y-82119694D01*
X146897187Y-82115150D01*
X146893533Y-82110223D01*
X146890380Y-82104962D01*
X146887758Y-82099418D01*
X146885691Y-82093643D01*
X146884201Y-82087693D01*
X146883301Y-82081626D01*
X146883000Y-82075500D01*
X146883000Y-81950500D01*
X146883301Y-81944374D01*
X146884201Y-81938307D01*
X146885691Y-81932357D01*
X146887758Y-81926582D01*
X146890380Y-81921038D01*
X146893533Y-81915777D01*
X146897187Y-81910850D01*
X146901306Y-81906306D01*
X146905850Y-81902187D01*
X146910777Y-81898533D01*
X146916038Y-81895380D01*
X146921582Y-81892758D01*
X146927357Y-81890691D01*
X146933307Y-81889201D01*
X146939374Y-81888301D01*
X146945500Y-81888000D01*
X147620500Y-81888000D01*
X147626626Y-81888301D01*
G37*
G36*
X148301626Y-82563301D02*
G01*
X148307693Y-82564201D01*
X148313643Y-82565691D01*
X148319418Y-82567758D01*
X148324962Y-82570380D01*
X148330223Y-82573533D01*
X148335150Y-82577187D01*
X148339694Y-82581306D01*
X148343813Y-82585850D01*
X148347467Y-82590777D01*
X148350620Y-82596038D01*
X148353242Y-82601582D01*
X148355309Y-82607357D01*
X148356799Y-82613307D01*
X148357699Y-82619374D01*
X148358000Y-82625500D01*
X148358000Y-83300500D01*
X148357699Y-83306626D01*
X148356799Y-83312693D01*
X148355309Y-83318643D01*
X148353242Y-83324418D01*
X148350620Y-83329962D01*
X148347467Y-83335223D01*
X148343813Y-83340150D01*
X148339694Y-83344694D01*
X148335150Y-83348813D01*
X148330223Y-83352467D01*
X148324962Y-83355620D01*
X148319418Y-83358242D01*
X148313643Y-83360309D01*
X148307693Y-83361799D01*
X148301626Y-83362699D01*
X148295500Y-83363000D01*
X148170500Y-83363000D01*
X148164374Y-83362699D01*
X148158307Y-83361799D01*
X148152357Y-83360309D01*
X148146582Y-83358242D01*
X148141038Y-83355620D01*
X148135777Y-83352467D01*
X148130850Y-83348813D01*
X148126306Y-83344694D01*
X148122187Y-83340150D01*
X148118533Y-83335223D01*
X148115380Y-83329962D01*
X148112758Y-83324418D01*
X148110691Y-83318643D01*
X148109201Y-83312693D01*
X148108301Y-83306626D01*
X148108000Y-83300500D01*
X148108000Y-82625500D01*
X148108301Y-82619374D01*
X148109201Y-82613307D01*
X148110691Y-82607357D01*
X148112758Y-82601582D01*
X148115380Y-82596038D01*
X148118533Y-82590777D01*
X148122187Y-82585850D01*
X148126306Y-82581306D01*
X148130850Y-82577187D01*
X148135777Y-82573533D01*
X148141038Y-82570380D01*
X148146582Y-82567758D01*
X148152357Y-82565691D01*
X148158307Y-82564201D01*
X148164374Y-82563301D01*
X148170500Y-82563000D01*
X148295500Y-82563000D01*
X148301626Y-82563301D01*
G37*
G36*
X148801626Y-82563301D02*
G01*
X148807693Y-82564201D01*
X148813643Y-82565691D01*
X148819418Y-82567758D01*
X148824962Y-82570380D01*
X148830223Y-82573533D01*
X148835150Y-82577187D01*
X148839694Y-82581306D01*
X148843813Y-82585850D01*
X148847467Y-82590777D01*
X148850620Y-82596038D01*
X148853242Y-82601582D01*
X148855309Y-82607357D01*
X148856799Y-82613307D01*
X148857699Y-82619374D01*
X148858000Y-82625500D01*
X148858000Y-83300500D01*
X148857699Y-83306626D01*
X148856799Y-83312693D01*
X148855309Y-83318643D01*
X148853242Y-83324418D01*
X148850620Y-83329962D01*
X148847467Y-83335223D01*
X148843813Y-83340150D01*
X148839694Y-83344694D01*
X148835150Y-83348813D01*
X148830223Y-83352467D01*
X148824962Y-83355620D01*
X148819418Y-83358242D01*
X148813643Y-83360309D01*
X148807693Y-83361799D01*
X148801626Y-83362699D01*
X148795500Y-83363000D01*
X148670500Y-83363000D01*
X148664374Y-83362699D01*
X148658307Y-83361799D01*
X148652357Y-83360309D01*
X148646582Y-83358242D01*
X148641038Y-83355620D01*
X148635777Y-83352467D01*
X148630850Y-83348813D01*
X148626306Y-83344694D01*
X148622187Y-83340150D01*
X148618533Y-83335223D01*
X148615380Y-83329962D01*
X148612758Y-83324418D01*
X148610691Y-83318643D01*
X148609201Y-83312693D01*
X148608301Y-83306626D01*
X148608000Y-83300500D01*
X148608000Y-82625500D01*
X148608301Y-82619374D01*
X148609201Y-82613307D01*
X148610691Y-82607357D01*
X148612758Y-82601582D01*
X148615380Y-82596038D01*
X148618533Y-82590777D01*
X148622187Y-82585850D01*
X148626306Y-82581306D01*
X148630850Y-82577187D01*
X148635777Y-82573533D01*
X148641038Y-82570380D01*
X148646582Y-82567758D01*
X148652357Y-82565691D01*
X148658307Y-82564201D01*
X148664374Y-82563301D01*
X148670500Y-82563000D01*
X148795500Y-82563000D01*
X148801626Y-82563301D01*
G37*
G36*
X149301626Y-82563301D02*
G01*
X149307693Y-82564201D01*
X149313643Y-82565691D01*
X149319418Y-82567758D01*
X149324962Y-82570380D01*
X149330223Y-82573533D01*
X149335150Y-82577187D01*
X149339694Y-82581306D01*
X149343813Y-82585850D01*
X149347467Y-82590777D01*
X149350620Y-82596038D01*
X149353242Y-82601582D01*
X149355309Y-82607357D01*
X149356799Y-82613307D01*
X149357699Y-82619374D01*
X149358000Y-82625500D01*
X149358000Y-83300500D01*
X149357699Y-83306626D01*
X149356799Y-83312693D01*
X149355309Y-83318643D01*
X149353242Y-83324418D01*
X149350620Y-83329962D01*
X149347467Y-83335223D01*
X149343813Y-83340150D01*
X149339694Y-83344694D01*
X149335150Y-83348813D01*
X149330223Y-83352467D01*
X149324962Y-83355620D01*
X149319418Y-83358242D01*
X149313643Y-83360309D01*
X149307693Y-83361799D01*
X149301626Y-83362699D01*
X149295500Y-83363000D01*
X149170500Y-83363000D01*
X149164374Y-83362699D01*
X149158307Y-83361799D01*
X149152357Y-83360309D01*
X149146582Y-83358242D01*
X149141038Y-83355620D01*
X149135777Y-83352467D01*
X149130850Y-83348813D01*
X149126306Y-83344694D01*
X149122187Y-83340150D01*
X149118533Y-83335223D01*
X149115380Y-83329962D01*
X149112758Y-83324418D01*
X149110691Y-83318643D01*
X149109201Y-83312693D01*
X149108301Y-83306626D01*
X149108000Y-83300500D01*
X149108000Y-82625500D01*
X149108301Y-82619374D01*
X149109201Y-82613307D01*
X149110691Y-82607357D01*
X149112758Y-82601582D01*
X149115380Y-82596038D01*
X149118533Y-82590777D01*
X149122187Y-82585850D01*
X149126306Y-82581306D01*
X149130850Y-82577187D01*
X149135777Y-82573533D01*
X149141038Y-82570380D01*
X149146582Y-82567758D01*
X149152357Y-82565691D01*
X149158307Y-82564201D01*
X149164374Y-82563301D01*
X149170500Y-82563000D01*
X149295500Y-82563000D01*
X149301626Y-82563301D01*
G37*
G36*
X149801626Y-82563301D02*
G01*
X149807693Y-82564201D01*
X149813643Y-82565691D01*
X149819418Y-82567758D01*
X149824962Y-82570380D01*
X149830223Y-82573533D01*
X149835150Y-82577187D01*
X149839694Y-82581306D01*
X149843813Y-82585850D01*
X149847467Y-82590777D01*
X149850620Y-82596038D01*
X149853242Y-82601582D01*
X149855309Y-82607357D01*
X149856799Y-82613307D01*
X149857699Y-82619374D01*
X149858000Y-82625500D01*
X149858000Y-83300500D01*
X149857699Y-83306626D01*
X149856799Y-83312693D01*
X149855309Y-83318643D01*
X149853242Y-83324418D01*
X149850620Y-83329962D01*
X149847467Y-83335223D01*
X149843813Y-83340150D01*
X149839694Y-83344694D01*
X149835150Y-83348813D01*
X149830223Y-83352467D01*
X149824962Y-83355620D01*
X149819418Y-83358242D01*
X149813643Y-83360309D01*
X149807693Y-83361799D01*
X149801626Y-83362699D01*
X149795500Y-83363000D01*
X149670500Y-83363000D01*
X149664374Y-83362699D01*
X149658307Y-83361799D01*
X149652357Y-83360309D01*
X149646582Y-83358242D01*
X149641038Y-83355620D01*
X149635777Y-83352467D01*
X149630850Y-83348813D01*
X149626306Y-83344694D01*
X149622187Y-83340150D01*
X149618533Y-83335223D01*
X149615380Y-83329962D01*
X149612758Y-83324418D01*
X149610691Y-83318643D01*
X149609201Y-83312693D01*
X149608301Y-83306626D01*
X149608000Y-83300500D01*
X149608000Y-82625500D01*
X149608301Y-82619374D01*
X149609201Y-82613307D01*
X149610691Y-82607357D01*
X149612758Y-82601582D01*
X149615380Y-82596038D01*
X149618533Y-82590777D01*
X149622187Y-82585850D01*
X149626306Y-82581306D01*
X149630850Y-82577187D01*
X149635777Y-82573533D01*
X149641038Y-82570380D01*
X149646582Y-82567758D01*
X149652357Y-82565691D01*
X149658307Y-82564201D01*
X149664374Y-82563301D01*
X149670500Y-82563000D01*
X149795500Y-82563000D01*
X149801626Y-82563301D01*
G37*
G36*
X150301626Y-82563301D02*
G01*
X150307693Y-82564201D01*
X150313643Y-82565691D01*
X150319418Y-82567758D01*
X150324962Y-82570380D01*
X150330223Y-82573533D01*
X150335150Y-82577187D01*
X150339694Y-82581306D01*
X150343813Y-82585850D01*
X150347467Y-82590777D01*
X150350620Y-82596038D01*
X150353242Y-82601582D01*
X150355309Y-82607357D01*
X150356799Y-82613307D01*
X150357699Y-82619374D01*
X150358000Y-82625500D01*
X150358000Y-83300500D01*
X150357699Y-83306626D01*
X150356799Y-83312693D01*
X150355309Y-83318643D01*
X150353242Y-83324418D01*
X150350620Y-83329962D01*
X150347467Y-83335223D01*
X150343813Y-83340150D01*
X150339694Y-83344694D01*
X150335150Y-83348813D01*
X150330223Y-83352467D01*
X150324962Y-83355620D01*
X150319418Y-83358242D01*
X150313643Y-83360309D01*
X150307693Y-83361799D01*
X150301626Y-83362699D01*
X150295500Y-83363000D01*
X150170500Y-83363000D01*
X150164374Y-83362699D01*
X150158307Y-83361799D01*
X150152357Y-83360309D01*
X150146582Y-83358242D01*
X150141038Y-83355620D01*
X150135777Y-83352467D01*
X150130850Y-83348813D01*
X150126306Y-83344694D01*
X150122187Y-83340150D01*
X150118533Y-83335223D01*
X150115380Y-83329962D01*
X150112758Y-83324418D01*
X150110691Y-83318643D01*
X150109201Y-83312693D01*
X150108301Y-83306626D01*
X150108000Y-83300500D01*
X150108000Y-82625500D01*
X150108301Y-82619374D01*
X150109201Y-82613307D01*
X150110691Y-82607357D01*
X150112758Y-82601582D01*
X150115380Y-82596038D01*
X150118533Y-82590777D01*
X150122187Y-82585850D01*
X150126306Y-82581306D01*
X150130850Y-82577187D01*
X150135777Y-82573533D01*
X150141038Y-82570380D01*
X150146582Y-82567758D01*
X150152357Y-82565691D01*
X150158307Y-82564201D01*
X150164374Y-82563301D01*
X150170500Y-82563000D01*
X150295500Y-82563000D01*
X150301626Y-82563301D01*
G37*
G36*
X150801626Y-82563301D02*
G01*
X150807693Y-82564201D01*
X150813643Y-82565691D01*
X150819418Y-82567758D01*
X150824962Y-82570380D01*
X150830223Y-82573533D01*
X150835150Y-82577187D01*
X150839694Y-82581306D01*
X150843813Y-82585850D01*
X150847467Y-82590777D01*
X150850620Y-82596038D01*
X150853242Y-82601582D01*
X150855309Y-82607357D01*
X150856799Y-82613307D01*
X150857699Y-82619374D01*
X150858000Y-82625500D01*
X150858000Y-83300500D01*
X150857699Y-83306626D01*
X150856799Y-83312693D01*
X150855309Y-83318643D01*
X150853242Y-83324418D01*
X150850620Y-83329962D01*
X150847467Y-83335223D01*
X150843813Y-83340150D01*
X150839694Y-83344694D01*
X150835150Y-83348813D01*
X150830223Y-83352467D01*
X150824962Y-83355620D01*
X150819418Y-83358242D01*
X150813643Y-83360309D01*
X150807693Y-83361799D01*
X150801626Y-83362699D01*
X150795500Y-83363000D01*
X150670500Y-83363000D01*
X150664374Y-83362699D01*
X150658307Y-83361799D01*
X150652357Y-83360309D01*
X150646582Y-83358242D01*
X150641038Y-83355620D01*
X150635777Y-83352467D01*
X150630850Y-83348813D01*
X150626306Y-83344694D01*
X150622187Y-83340150D01*
X150618533Y-83335223D01*
X150615380Y-83329962D01*
X150612758Y-83324418D01*
X150610691Y-83318643D01*
X150609201Y-83312693D01*
X150608301Y-83306626D01*
X150608000Y-83300500D01*
X150608000Y-82625500D01*
X150608301Y-82619374D01*
X150609201Y-82613307D01*
X150610691Y-82607357D01*
X150612758Y-82601582D01*
X150615380Y-82596038D01*
X150618533Y-82590777D01*
X150622187Y-82585850D01*
X150626306Y-82581306D01*
X150630850Y-82577187D01*
X150635777Y-82573533D01*
X150641038Y-82570380D01*
X150646582Y-82567758D01*
X150652357Y-82565691D01*
X150658307Y-82564201D01*
X150664374Y-82563301D01*
X150670500Y-82563000D01*
X150795500Y-82563000D01*
X150801626Y-82563301D01*
G37*
G36*
X151301626Y-82563301D02*
G01*
X151307693Y-82564201D01*
X151313643Y-82565691D01*
X151319418Y-82567758D01*
X151324962Y-82570380D01*
X151330223Y-82573533D01*
X151335150Y-82577187D01*
X151339694Y-82581306D01*
X151343813Y-82585850D01*
X151347467Y-82590777D01*
X151350620Y-82596038D01*
X151353242Y-82601582D01*
X151355309Y-82607357D01*
X151356799Y-82613307D01*
X151357699Y-82619374D01*
X151358000Y-82625500D01*
X151358000Y-83300500D01*
X151357699Y-83306626D01*
X151356799Y-83312693D01*
X151355309Y-83318643D01*
X151353242Y-83324418D01*
X151350620Y-83329962D01*
X151347467Y-83335223D01*
X151343813Y-83340150D01*
X151339694Y-83344694D01*
X151335150Y-83348813D01*
X151330223Y-83352467D01*
X151324962Y-83355620D01*
X151319418Y-83358242D01*
X151313643Y-83360309D01*
X151307693Y-83361799D01*
X151301626Y-83362699D01*
X151295500Y-83363000D01*
X151170500Y-83363000D01*
X151164374Y-83362699D01*
X151158307Y-83361799D01*
X151152357Y-83360309D01*
X151146582Y-83358242D01*
X151141038Y-83355620D01*
X151135777Y-83352467D01*
X151130850Y-83348813D01*
X151126306Y-83344694D01*
X151122187Y-83340150D01*
X151118533Y-83335223D01*
X151115380Y-83329962D01*
X151112758Y-83324418D01*
X151110691Y-83318643D01*
X151109201Y-83312693D01*
X151108301Y-83306626D01*
X151108000Y-83300500D01*
X151108000Y-82625500D01*
X151108301Y-82619374D01*
X151109201Y-82613307D01*
X151110691Y-82607357D01*
X151112758Y-82601582D01*
X151115380Y-82596038D01*
X151118533Y-82590777D01*
X151122187Y-82585850D01*
X151126306Y-82581306D01*
X151130850Y-82577187D01*
X151135777Y-82573533D01*
X151141038Y-82570380D01*
X151146582Y-82567758D01*
X151152357Y-82565691D01*
X151158307Y-82564201D01*
X151164374Y-82563301D01*
X151170500Y-82563000D01*
X151295500Y-82563000D01*
X151301626Y-82563301D01*
G37*
G36*
X151100054Y-81184083D02*
G01*
X151121895Y-81187323D01*
X151143314Y-81192688D01*
X151164104Y-81200127D01*
X151184064Y-81209568D01*
X151203003Y-81220919D01*
X151220738Y-81234073D01*
X151237099Y-81248901D01*
X151251927Y-81265262D01*
X151265081Y-81282997D01*
X151276432Y-81301936D01*
X151285873Y-81321896D01*
X151293312Y-81342686D01*
X151298677Y-81364105D01*
X151301917Y-81385946D01*
X151303000Y-81408000D01*
X151303000Y-81858000D01*
X151301917Y-81880054D01*
X151298677Y-81901895D01*
X151293312Y-81923314D01*
X151285873Y-81944104D01*
X151276432Y-81964064D01*
X151265081Y-81983003D01*
X151251927Y-82000738D01*
X151237099Y-82017099D01*
X151220738Y-82031927D01*
X151203003Y-82045081D01*
X151184064Y-82056432D01*
X151164104Y-82065873D01*
X151143314Y-82073312D01*
X151121895Y-82078677D01*
X151100054Y-82081917D01*
X151078000Y-82083000D01*
X150628000Y-82083000D01*
X150605946Y-82081917D01*
X150584105Y-82078677D01*
X150562686Y-82073312D01*
X150541896Y-82065873D01*
X150521936Y-82056432D01*
X150502997Y-82045081D01*
X150485262Y-82031927D01*
X150468901Y-82017099D01*
X150454073Y-82000738D01*
X150440919Y-81983003D01*
X150429568Y-81964064D01*
X150420127Y-81944104D01*
X150412688Y-81923314D01*
X150407323Y-81901895D01*
X150404083Y-81880054D01*
X150403000Y-81858000D01*
X150403000Y-81408000D01*
X150404083Y-81385946D01*
X150407323Y-81364105D01*
X150412688Y-81342686D01*
X150420127Y-81321896D01*
X150429568Y-81301936D01*
X150440919Y-81282997D01*
X150454073Y-81265262D01*
X150468901Y-81248901D01*
X150485262Y-81234073D01*
X150502997Y-81220919D01*
X150521936Y-81209568D01*
X150541896Y-81200127D01*
X150562686Y-81192688D01*
X150584105Y-81187323D01*
X150605946Y-81184083D01*
X150628000Y-81183000D01*
X151078000Y-81183000D01*
X151100054Y-81184083D01*
G37*
G36*
X151100054Y-80064083D02*
G01*
X151121895Y-80067323D01*
X151143314Y-80072688D01*
X151164104Y-80080127D01*
X151184064Y-80089568D01*
X151203003Y-80100919D01*
X151220738Y-80114073D01*
X151237099Y-80128901D01*
X151251927Y-80145262D01*
X151265081Y-80162997D01*
X151276432Y-80181936D01*
X151285873Y-80201896D01*
X151293312Y-80222686D01*
X151298677Y-80244105D01*
X151301917Y-80265946D01*
X151303000Y-80288000D01*
X151303000Y-80738000D01*
X151301917Y-80760054D01*
X151298677Y-80781895D01*
X151293312Y-80803314D01*
X151285873Y-80824104D01*
X151276432Y-80844064D01*
X151265081Y-80863003D01*
X151251927Y-80880738D01*
X151237099Y-80897099D01*
X151220738Y-80911927D01*
X151203003Y-80925081D01*
X151184064Y-80936432D01*
X151164104Y-80945873D01*
X151143314Y-80953312D01*
X151121895Y-80958677D01*
X151100054Y-80961917D01*
X151078000Y-80963000D01*
X150628000Y-80963000D01*
X150605946Y-80961917D01*
X150584105Y-80958677D01*
X150562686Y-80953312D01*
X150541896Y-80945873D01*
X150521936Y-80936432D01*
X150502997Y-80925081D01*
X150485262Y-80911927D01*
X150468901Y-80897099D01*
X150454073Y-80880738D01*
X150440919Y-80863003D01*
X150429568Y-80844064D01*
X150420127Y-80824104D01*
X150412688Y-80803314D01*
X150407323Y-80781895D01*
X150404083Y-80760054D01*
X150403000Y-80738000D01*
X150403000Y-80288000D01*
X150404083Y-80265946D01*
X150407323Y-80244105D01*
X150412688Y-80222686D01*
X150420127Y-80201896D01*
X150429568Y-80181936D01*
X150440919Y-80162997D01*
X150454073Y-80145262D01*
X150468901Y-80128901D01*
X150485262Y-80114073D01*
X150502997Y-80100919D01*
X150521936Y-80089568D01*
X150541896Y-80080127D01*
X150562686Y-80072688D01*
X150584105Y-80067323D01*
X150605946Y-80064083D01*
X150628000Y-80063000D01*
X151078000Y-80063000D01*
X151100054Y-80064083D01*
G37*
G36*
X151100054Y-78944083D02*
G01*
X151121895Y-78947323D01*
X151143314Y-78952688D01*
X151164104Y-78960127D01*
X151184064Y-78969568D01*
X151203003Y-78980919D01*
X151220738Y-78994073D01*
X151237099Y-79008901D01*
X151251927Y-79025262D01*
X151265081Y-79042997D01*
X151276432Y-79061936D01*
X151285873Y-79081896D01*
X151293312Y-79102686D01*
X151298677Y-79124105D01*
X151301917Y-79145946D01*
X151303000Y-79168000D01*
X151303000Y-79618000D01*
X151301917Y-79640054D01*
X151298677Y-79661895D01*
X151293312Y-79683314D01*
X151285873Y-79704104D01*
X151276432Y-79724064D01*
X151265081Y-79743003D01*
X151251927Y-79760738D01*
X151237099Y-79777099D01*
X151220738Y-79791927D01*
X151203003Y-79805081D01*
X151184064Y-79816432D01*
X151164104Y-79825873D01*
X151143314Y-79833312D01*
X151121895Y-79838677D01*
X151100054Y-79841917D01*
X151078000Y-79843000D01*
X150628000Y-79843000D01*
X150605946Y-79841917D01*
X150584105Y-79838677D01*
X150562686Y-79833312D01*
X150541896Y-79825873D01*
X150521936Y-79816432D01*
X150502997Y-79805081D01*
X150485262Y-79791927D01*
X150468901Y-79777099D01*
X150454073Y-79760738D01*
X150440919Y-79743003D01*
X150429568Y-79724064D01*
X150420127Y-79704104D01*
X150412688Y-79683314D01*
X150407323Y-79661895D01*
X150404083Y-79640054D01*
X150403000Y-79618000D01*
X150403000Y-79168000D01*
X150404083Y-79145946D01*
X150407323Y-79124105D01*
X150412688Y-79102686D01*
X150420127Y-79081896D01*
X150429568Y-79061936D01*
X150440919Y-79042997D01*
X150454073Y-79025262D01*
X150468901Y-79008901D01*
X150485262Y-78994073D01*
X150502997Y-78980919D01*
X150521936Y-78969568D01*
X150541896Y-78960127D01*
X150562686Y-78952688D01*
X150584105Y-78947323D01*
X150605946Y-78944083D01*
X150628000Y-78943000D01*
X151078000Y-78943000D01*
X151100054Y-78944083D01*
G37*
G36*
X149980054Y-81184083D02*
G01*
X150001895Y-81187323D01*
X150023314Y-81192688D01*
X150044104Y-81200127D01*
X150064064Y-81209568D01*
X150083003Y-81220919D01*
X150100738Y-81234073D01*
X150117099Y-81248901D01*
X150131927Y-81265262D01*
X150145081Y-81282997D01*
X150156432Y-81301936D01*
X150165873Y-81321896D01*
X150173312Y-81342686D01*
X150178677Y-81364105D01*
X150181917Y-81385946D01*
X150183000Y-81408000D01*
X150183000Y-81858000D01*
X150181917Y-81880054D01*
X150178677Y-81901895D01*
X150173312Y-81923314D01*
X150165873Y-81944104D01*
X150156432Y-81964064D01*
X150145081Y-81983003D01*
X150131927Y-82000738D01*
X150117099Y-82017099D01*
X150100738Y-82031927D01*
X150083003Y-82045081D01*
X150064064Y-82056432D01*
X150044104Y-82065873D01*
X150023314Y-82073312D01*
X150001895Y-82078677D01*
X149980054Y-82081917D01*
X149958000Y-82083000D01*
X149508000Y-82083000D01*
X149485946Y-82081917D01*
X149464105Y-82078677D01*
X149442686Y-82073312D01*
X149421896Y-82065873D01*
X149401936Y-82056432D01*
X149382997Y-82045081D01*
X149365262Y-82031927D01*
X149348901Y-82017099D01*
X149334073Y-82000738D01*
X149320919Y-81983003D01*
X149309568Y-81964064D01*
X149300127Y-81944104D01*
X149292688Y-81923314D01*
X149287323Y-81901895D01*
X149284083Y-81880054D01*
X149283000Y-81858000D01*
X149283000Y-81408000D01*
X149284083Y-81385946D01*
X149287323Y-81364105D01*
X149292688Y-81342686D01*
X149300127Y-81321896D01*
X149309568Y-81301936D01*
X149320919Y-81282997D01*
X149334073Y-81265262D01*
X149348901Y-81248901D01*
X149365262Y-81234073D01*
X149382997Y-81220919D01*
X149401936Y-81209568D01*
X149421896Y-81200127D01*
X149442686Y-81192688D01*
X149464105Y-81187323D01*
X149485946Y-81184083D01*
X149508000Y-81183000D01*
X149958000Y-81183000D01*
X149980054Y-81184083D01*
G37*
G36*
X149980054Y-80064083D02*
G01*
X150001895Y-80067323D01*
X150023314Y-80072688D01*
X150044104Y-80080127D01*
X150064064Y-80089568D01*
X150083003Y-80100919D01*
X150100738Y-80114073D01*
X150117099Y-80128901D01*
X150131927Y-80145262D01*
X150145081Y-80162997D01*
X150156432Y-80181936D01*
X150165873Y-80201896D01*
X150173312Y-80222686D01*
X150178677Y-80244105D01*
X150181917Y-80265946D01*
X150183000Y-80288000D01*
X150183000Y-80738000D01*
X150181917Y-80760054D01*
X150178677Y-80781895D01*
X150173312Y-80803314D01*
X150165873Y-80824104D01*
X150156432Y-80844064D01*
X150145081Y-80863003D01*
X150131927Y-80880738D01*
X150117099Y-80897099D01*
X150100738Y-80911927D01*
X150083003Y-80925081D01*
X150064064Y-80936432D01*
X150044104Y-80945873D01*
X150023314Y-80953312D01*
X150001895Y-80958677D01*
X149980054Y-80961917D01*
X149958000Y-80963000D01*
X149508000Y-80963000D01*
X149485946Y-80961917D01*
X149464105Y-80958677D01*
X149442686Y-80953312D01*
X149421896Y-80945873D01*
X149401936Y-80936432D01*
X149382997Y-80925081D01*
X149365262Y-80911927D01*
X149348901Y-80897099D01*
X149334073Y-80880738D01*
X149320919Y-80863003D01*
X149309568Y-80844064D01*
X149300127Y-80824104D01*
X149292688Y-80803314D01*
X149287323Y-80781895D01*
X149284083Y-80760054D01*
X149283000Y-80738000D01*
X149283000Y-80288000D01*
X149284083Y-80265946D01*
X149287323Y-80244105D01*
X149292688Y-80222686D01*
X149300127Y-80201896D01*
X149309568Y-80181936D01*
X149320919Y-80162997D01*
X149334073Y-80145262D01*
X149348901Y-80128901D01*
X149365262Y-80114073D01*
X149382997Y-80100919D01*
X149401936Y-80089568D01*
X149421896Y-80080127D01*
X149442686Y-80072688D01*
X149464105Y-80067323D01*
X149485946Y-80064083D01*
X149508000Y-80063000D01*
X149958000Y-80063000D01*
X149980054Y-80064083D01*
G37*
G36*
X149980054Y-78944083D02*
G01*
X150001895Y-78947323D01*
X150023314Y-78952688D01*
X150044104Y-78960127D01*
X150064064Y-78969568D01*
X150083003Y-78980919D01*
X150100738Y-78994073D01*
X150117099Y-79008901D01*
X150131927Y-79025262D01*
X150145081Y-79042997D01*
X150156432Y-79061936D01*
X150165873Y-79081896D01*
X150173312Y-79102686D01*
X150178677Y-79124105D01*
X150181917Y-79145946D01*
X150183000Y-79168000D01*
X150183000Y-79618000D01*
X150181917Y-79640054D01*
X150178677Y-79661895D01*
X150173312Y-79683314D01*
X150165873Y-79704104D01*
X150156432Y-79724064D01*
X150145081Y-79743003D01*
X150131927Y-79760738D01*
X150117099Y-79777099D01*
X150100738Y-79791927D01*
X150083003Y-79805081D01*
X150064064Y-79816432D01*
X150044104Y-79825873D01*
X150023314Y-79833312D01*
X150001895Y-79838677D01*
X149980054Y-79841917D01*
X149958000Y-79843000D01*
X149508000Y-79843000D01*
X149485946Y-79841917D01*
X149464105Y-79838677D01*
X149442686Y-79833312D01*
X149421896Y-79825873D01*
X149401936Y-79816432D01*
X149382997Y-79805081D01*
X149365262Y-79791927D01*
X149348901Y-79777099D01*
X149334073Y-79760738D01*
X149320919Y-79743003D01*
X149309568Y-79724064D01*
X149300127Y-79704104D01*
X149292688Y-79683314D01*
X149287323Y-79661895D01*
X149284083Y-79640054D01*
X149283000Y-79618000D01*
X149283000Y-79168000D01*
X149284083Y-79145946D01*
X149287323Y-79124105D01*
X149292688Y-79102686D01*
X149300127Y-79081896D01*
X149309568Y-79061936D01*
X149320919Y-79042997D01*
X149334073Y-79025262D01*
X149348901Y-79008901D01*
X149365262Y-78994073D01*
X149382997Y-78980919D01*
X149401936Y-78969568D01*
X149421896Y-78960127D01*
X149442686Y-78952688D01*
X149464105Y-78947323D01*
X149485946Y-78944083D01*
X149508000Y-78943000D01*
X149958000Y-78943000D01*
X149980054Y-78944083D01*
G37*
G36*
X148860054Y-81184083D02*
G01*
X148881895Y-81187323D01*
X148903314Y-81192688D01*
X148924104Y-81200127D01*
X148944064Y-81209568D01*
X148963003Y-81220919D01*
X148980738Y-81234073D01*
X148997099Y-81248901D01*
X149011927Y-81265262D01*
X149025081Y-81282997D01*
X149036432Y-81301936D01*
X149045873Y-81321896D01*
X149053312Y-81342686D01*
X149058677Y-81364105D01*
X149061917Y-81385946D01*
X149063000Y-81408000D01*
X149063000Y-81858000D01*
X149061917Y-81880054D01*
X149058677Y-81901895D01*
X149053312Y-81923314D01*
X149045873Y-81944104D01*
X149036432Y-81964064D01*
X149025081Y-81983003D01*
X149011927Y-82000738D01*
X148997099Y-82017099D01*
X148980738Y-82031927D01*
X148963003Y-82045081D01*
X148944064Y-82056432D01*
X148924104Y-82065873D01*
X148903314Y-82073312D01*
X148881895Y-82078677D01*
X148860054Y-82081917D01*
X148838000Y-82083000D01*
X148388000Y-82083000D01*
X148365946Y-82081917D01*
X148344105Y-82078677D01*
X148322686Y-82073312D01*
X148301896Y-82065873D01*
X148281936Y-82056432D01*
X148262997Y-82045081D01*
X148245262Y-82031927D01*
X148228901Y-82017099D01*
X148214073Y-82000738D01*
X148200919Y-81983003D01*
X148189568Y-81964064D01*
X148180127Y-81944104D01*
X148172688Y-81923314D01*
X148167323Y-81901895D01*
X148164083Y-81880054D01*
X148163000Y-81858000D01*
X148163000Y-81408000D01*
X148164083Y-81385946D01*
X148167323Y-81364105D01*
X148172688Y-81342686D01*
X148180127Y-81321896D01*
X148189568Y-81301936D01*
X148200919Y-81282997D01*
X148214073Y-81265262D01*
X148228901Y-81248901D01*
X148245262Y-81234073D01*
X148262997Y-81220919D01*
X148281936Y-81209568D01*
X148301896Y-81200127D01*
X148322686Y-81192688D01*
X148344105Y-81187323D01*
X148365946Y-81184083D01*
X148388000Y-81183000D01*
X148838000Y-81183000D01*
X148860054Y-81184083D01*
G37*
G36*
X148860054Y-80064083D02*
G01*
X148881895Y-80067323D01*
X148903314Y-80072688D01*
X148924104Y-80080127D01*
X148944064Y-80089568D01*
X148963003Y-80100919D01*
X148980738Y-80114073D01*
X148997099Y-80128901D01*
X149011927Y-80145262D01*
X149025081Y-80162997D01*
X149036432Y-80181936D01*
X149045873Y-80201896D01*
X149053312Y-80222686D01*
X149058677Y-80244105D01*
X149061917Y-80265946D01*
X149063000Y-80288000D01*
X149063000Y-80738000D01*
X149061917Y-80760054D01*
X149058677Y-80781895D01*
X149053312Y-80803314D01*
X149045873Y-80824104D01*
X149036432Y-80844064D01*
X149025081Y-80863003D01*
X149011927Y-80880738D01*
X148997099Y-80897099D01*
X148980738Y-80911927D01*
X148963003Y-80925081D01*
X148944064Y-80936432D01*
X148924104Y-80945873D01*
X148903314Y-80953312D01*
X148881895Y-80958677D01*
X148860054Y-80961917D01*
X148838000Y-80963000D01*
X148388000Y-80963000D01*
X148365946Y-80961917D01*
X148344105Y-80958677D01*
X148322686Y-80953312D01*
X148301896Y-80945873D01*
X148281936Y-80936432D01*
X148262997Y-80925081D01*
X148245262Y-80911927D01*
X148228901Y-80897099D01*
X148214073Y-80880738D01*
X148200919Y-80863003D01*
X148189568Y-80844064D01*
X148180127Y-80824104D01*
X148172688Y-80803314D01*
X148167323Y-80781895D01*
X148164083Y-80760054D01*
X148163000Y-80738000D01*
X148163000Y-80288000D01*
X148164083Y-80265946D01*
X148167323Y-80244105D01*
X148172688Y-80222686D01*
X148180127Y-80201896D01*
X148189568Y-80181936D01*
X148200919Y-80162997D01*
X148214073Y-80145262D01*
X148228901Y-80128901D01*
X148245262Y-80114073D01*
X148262997Y-80100919D01*
X148281936Y-80089568D01*
X148301896Y-80080127D01*
X148322686Y-80072688D01*
X148344105Y-80067323D01*
X148365946Y-80064083D01*
X148388000Y-80063000D01*
X148838000Y-80063000D01*
X148860054Y-80064083D01*
G37*
G36*
X148860054Y-78944083D02*
G01*
X148881895Y-78947323D01*
X148903314Y-78952688D01*
X148924104Y-78960127D01*
X148944064Y-78969568D01*
X148963003Y-78980919D01*
X148980738Y-78994073D01*
X148997099Y-79008901D01*
X149011927Y-79025262D01*
X149025081Y-79042997D01*
X149036432Y-79061936D01*
X149045873Y-79081896D01*
X149053312Y-79102686D01*
X149058677Y-79124105D01*
X149061917Y-79145946D01*
X149063000Y-79168000D01*
X149063000Y-79618000D01*
X149061917Y-79640054D01*
X149058677Y-79661895D01*
X149053312Y-79683314D01*
X149045873Y-79704104D01*
X149036432Y-79724064D01*
X149025081Y-79743003D01*
X149011927Y-79760738D01*
X148997099Y-79777099D01*
X148980738Y-79791927D01*
X148963003Y-79805081D01*
X148944064Y-79816432D01*
X148924104Y-79825873D01*
X148903314Y-79833312D01*
X148881895Y-79838677D01*
X148860054Y-79841917D01*
X148838000Y-79843000D01*
X148388000Y-79843000D01*
X148365946Y-79841917D01*
X148344105Y-79838677D01*
X148322686Y-79833312D01*
X148301896Y-79825873D01*
X148281936Y-79816432D01*
X148262997Y-79805081D01*
X148245262Y-79791927D01*
X148228901Y-79777099D01*
X148214073Y-79760738D01*
X148200919Y-79743003D01*
X148189568Y-79724064D01*
X148180127Y-79704104D01*
X148172688Y-79683314D01*
X148167323Y-79661895D01*
X148164083Y-79640054D01*
X148163000Y-79618000D01*
X148163000Y-79168000D01*
X148164083Y-79145946D01*
X148167323Y-79124105D01*
X148172688Y-79102686D01*
X148180127Y-79081896D01*
X148189568Y-79061936D01*
X148200919Y-79042997D01*
X148214073Y-79025262D01*
X148228901Y-79008901D01*
X148245262Y-78994073D01*
X148262997Y-78980919D01*
X148281936Y-78969568D01*
X148301896Y-78960127D01*
X148322686Y-78952688D01*
X148344105Y-78947323D01*
X148365946Y-78944083D01*
X148388000Y-78943000D01*
X148838000Y-78943000D01*
X148860054Y-78944083D01*
G37*
G04 #@! TD*
M02*
