%FSLAX45Y45*%
G04 Gerber Fmt 4.5, Leading zero omitted, Abs format (unit mm)*
G04 Created by KiCad (PCBNEW (5.1.5)-2) date 2020-03-24 14:46:55*
%MOMM*%
%LPD*%
G04 APERTURE LIST*
%TA.AperFunction,Profile*%
%ADD10C,0.050000*%
%TD*%
%ADD11C,0.200000*%
%ADD12C,0.300000*%
G04 APERTURE END LIST*
D10*
X10668000Y-10273800D02*
X11277600Y-10273800D01*
X10668000Y-11366000D02*
X10668000Y-10273800D01*
X11277600Y-8419600D02*
X11277600Y-10273800D01*
X10668000Y-8419600D02*
X11277600Y-8419600D01*
X10668000Y-7366000D02*
X10668000Y-8419600D01*
X16668000Y-7366000D02*
X16668000Y-11366000D01*
X10668000Y-7366000D02*
X16668000Y-7366000D01*
X10668000Y-11366000D02*
X16668000Y-11366000D01*
D11*
X15938100Y-8212400D02*
X16003100Y-8277400D01*
X16003100Y-8212400D02*
X15938100Y-8277400D01*
X15938100Y-8790400D02*
X16003100Y-8855400D01*
X16003100Y-8790400D02*
X15938100Y-8855400D01*
D12*
X10951928Y-11834214D02*
X10951928Y-11534214D01*
X11023357Y-11534214D01*
X11066214Y-11548500D01*
X11094786Y-11577071D01*
X11109071Y-11605643D01*
X11123357Y-11662786D01*
X11123357Y-11705643D01*
X11109071Y-11762786D01*
X11094786Y-11791357D01*
X11066214Y-11819929D01*
X11023357Y-11834214D01*
X10951928Y-11834214D01*
X11251928Y-11834214D02*
X11251928Y-11634214D01*
X11251928Y-11691357D02*
X11266214Y-11662786D01*
X11280500Y-11648500D01*
X11309071Y-11634214D01*
X11337643Y-11634214D01*
X11437643Y-11834214D02*
X11437643Y-11634214D01*
X11437643Y-11534214D02*
X11423357Y-11548500D01*
X11437643Y-11562786D01*
X11451928Y-11548500D01*
X11437643Y-11534214D01*
X11437643Y-11562786D01*
X11623357Y-11834214D02*
X11594786Y-11819929D01*
X11580500Y-11791357D01*
X11580500Y-11534214D01*
X11780500Y-11834214D02*
X11751928Y-11819929D01*
X11737643Y-11791357D01*
X11737643Y-11534214D01*
X12123357Y-11834214D02*
X12123357Y-11534214D01*
X12223357Y-11748500D01*
X12323357Y-11534214D01*
X12323357Y-11834214D01*
X12594786Y-11834214D02*
X12594786Y-11677071D01*
X12580500Y-11648500D01*
X12551928Y-11634214D01*
X12494786Y-11634214D01*
X12466214Y-11648500D01*
X12594786Y-11819929D02*
X12566214Y-11834214D01*
X12494786Y-11834214D01*
X12466214Y-11819929D01*
X12451928Y-11791357D01*
X12451928Y-11762786D01*
X12466214Y-11734214D01*
X12494786Y-11719929D01*
X12566214Y-11719929D01*
X12594786Y-11705643D01*
X12737643Y-11634214D02*
X12737643Y-11934214D01*
X12737643Y-11648500D02*
X12766214Y-11634214D01*
X12823357Y-11634214D01*
X12851928Y-11648500D01*
X12866214Y-11662786D01*
X12880500Y-11691357D01*
X12880500Y-11777071D01*
X12866214Y-11805643D01*
X12851928Y-11819929D01*
X12823357Y-11834214D01*
X12766214Y-11834214D01*
X12737643Y-11819929D01*
X13009071Y-11805643D02*
X13023357Y-11819929D01*
X13009071Y-11834214D01*
X12994786Y-11819929D01*
X13009071Y-11805643D01*
X13009071Y-11834214D01*
X13009071Y-11648500D02*
X13023357Y-11662786D01*
X13009071Y-11677071D01*
X12994786Y-11662786D01*
X13009071Y-11648500D01*
X13009071Y-11677071D01*
X10600500Y-12296000D02*
X10665500Y-12361000D01*
X10665500Y-12296000D02*
X10600500Y-12361000D01*
X11009071Y-12164214D02*
X11037643Y-12164214D01*
X11066214Y-12178500D01*
X11080500Y-12192786D01*
X11094786Y-12221357D01*
X11109071Y-12278500D01*
X11109071Y-12349929D01*
X11094786Y-12407071D01*
X11080500Y-12435643D01*
X11066214Y-12449929D01*
X11037643Y-12464214D01*
X11009071Y-12464214D01*
X10980500Y-12449929D01*
X10966214Y-12435643D01*
X10951928Y-12407071D01*
X10937643Y-12349929D01*
X10937643Y-12278500D01*
X10951928Y-12221357D01*
X10966214Y-12192786D01*
X10980500Y-12178500D01*
X11009071Y-12164214D01*
X11237643Y-12435643D02*
X11251928Y-12449929D01*
X11237643Y-12464214D01*
X11223357Y-12449929D01*
X11237643Y-12435643D01*
X11237643Y-12464214D01*
X11509071Y-12164214D02*
X11451928Y-12164214D01*
X11423357Y-12178500D01*
X11409071Y-12192786D01*
X11380500Y-12235643D01*
X11366214Y-12292786D01*
X11366214Y-12407071D01*
X11380500Y-12435643D01*
X11394786Y-12449929D01*
X11423357Y-12464214D01*
X11480500Y-12464214D01*
X11509071Y-12449929D01*
X11523357Y-12435643D01*
X11537643Y-12407071D01*
X11537643Y-12335643D01*
X11523357Y-12307071D01*
X11509071Y-12292786D01*
X11480500Y-12278500D01*
X11423357Y-12278500D01*
X11394786Y-12292786D01*
X11380500Y-12307071D01*
X11366214Y-12335643D01*
X11809071Y-12164214D02*
X11666214Y-12164214D01*
X11651928Y-12307071D01*
X11666214Y-12292786D01*
X11694786Y-12278500D01*
X11766214Y-12278500D01*
X11794786Y-12292786D01*
X11809071Y-12307071D01*
X11823357Y-12335643D01*
X11823357Y-12407071D01*
X11809071Y-12435643D01*
X11794786Y-12449929D01*
X11766214Y-12464214D01*
X11694786Y-12464214D01*
X11666214Y-12449929D01*
X11651928Y-12435643D01*
X11951928Y-12464214D02*
X11951928Y-12264214D01*
X11951928Y-12292786D02*
X11966214Y-12278500D01*
X11994786Y-12264214D01*
X12037643Y-12264214D01*
X12066214Y-12278500D01*
X12080500Y-12307071D01*
X12080500Y-12464214D01*
X12080500Y-12307071D02*
X12094786Y-12278500D01*
X12123357Y-12264214D01*
X12166214Y-12264214D01*
X12194786Y-12278500D01*
X12209071Y-12307071D01*
X12209071Y-12464214D01*
X12351928Y-12464214D02*
X12351928Y-12264214D01*
X12351928Y-12292786D02*
X12366214Y-12278500D01*
X12394786Y-12264214D01*
X12437643Y-12264214D01*
X12466214Y-12278500D01*
X12480500Y-12307071D01*
X12480500Y-12464214D01*
X12480500Y-12307071D02*
X12494786Y-12278500D01*
X12523357Y-12264214D01*
X12566214Y-12264214D01*
X12594786Y-12278500D01*
X12609071Y-12307071D01*
X12609071Y-12464214D01*
X13194786Y-12149929D02*
X12937643Y-12535643D01*
X13580500Y-12164214D02*
X13609071Y-12164214D01*
X13637643Y-12178500D01*
X13651928Y-12192786D01*
X13666214Y-12221357D01*
X13680500Y-12278500D01*
X13680500Y-12349929D01*
X13666214Y-12407071D01*
X13651928Y-12435643D01*
X13637643Y-12449929D01*
X13609071Y-12464214D01*
X13580500Y-12464214D01*
X13551928Y-12449929D01*
X13537643Y-12435643D01*
X13523357Y-12407071D01*
X13509071Y-12349929D01*
X13509071Y-12278500D01*
X13523357Y-12221357D01*
X13537643Y-12192786D01*
X13551928Y-12178500D01*
X13580500Y-12164214D01*
X13809071Y-12435643D02*
X13823357Y-12449929D01*
X13809071Y-12464214D01*
X13794786Y-12449929D01*
X13809071Y-12435643D01*
X13809071Y-12464214D01*
X14009071Y-12164214D02*
X14037643Y-12164214D01*
X14066214Y-12178500D01*
X14080500Y-12192786D01*
X14094786Y-12221357D01*
X14109071Y-12278500D01*
X14109071Y-12349929D01*
X14094786Y-12407071D01*
X14080500Y-12435643D01*
X14066214Y-12449929D01*
X14037643Y-12464214D01*
X14009071Y-12464214D01*
X13980500Y-12449929D01*
X13966214Y-12435643D01*
X13951928Y-12407071D01*
X13937643Y-12349929D01*
X13937643Y-12278500D01*
X13951928Y-12221357D01*
X13966214Y-12192786D01*
X13980500Y-12178500D01*
X14009071Y-12164214D01*
X14223357Y-12192786D02*
X14237643Y-12178500D01*
X14266214Y-12164214D01*
X14337643Y-12164214D01*
X14366214Y-12178500D01*
X14380500Y-12192786D01*
X14394786Y-12221357D01*
X14394786Y-12249929D01*
X14380500Y-12292786D01*
X14209071Y-12464214D01*
X14394786Y-12464214D01*
X14651928Y-12164214D02*
X14594786Y-12164214D01*
X14566214Y-12178500D01*
X14551928Y-12192786D01*
X14523357Y-12235643D01*
X14509071Y-12292786D01*
X14509071Y-12407071D01*
X14523357Y-12435643D01*
X14537643Y-12449929D01*
X14566214Y-12464214D01*
X14623357Y-12464214D01*
X14651928Y-12449929D01*
X14666214Y-12435643D01*
X14680500Y-12407071D01*
X14680500Y-12335643D01*
X14666214Y-12307071D01*
X14651928Y-12292786D01*
X14623357Y-12278500D01*
X14566214Y-12278500D01*
X14537643Y-12292786D01*
X14523357Y-12307071D01*
X14509071Y-12335643D01*
X14794786Y-12164214D02*
X14794786Y-12221357D01*
X14909071Y-12164214D02*
X14909071Y-12221357D01*
X15351928Y-12578500D02*
X15337643Y-12564214D01*
X15309071Y-12521357D01*
X15294786Y-12492786D01*
X15280500Y-12449929D01*
X15266214Y-12378500D01*
X15266214Y-12321357D01*
X15280500Y-12249929D01*
X15294786Y-12207071D01*
X15309071Y-12178500D01*
X15337643Y-12135643D01*
X15351928Y-12121357D01*
X15451928Y-12192786D02*
X15466214Y-12178500D01*
X15494786Y-12164214D01*
X15566214Y-12164214D01*
X15594786Y-12178500D01*
X15609071Y-12192786D01*
X15623357Y-12221357D01*
X15623357Y-12249929D01*
X15609071Y-12292786D01*
X15437643Y-12464214D01*
X15623357Y-12464214D01*
X15980500Y-12464214D02*
X15980500Y-12164214D01*
X16109071Y-12464214D02*
X16109071Y-12307071D01*
X16094786Y-12278500D01*
X16066214Y-12264214D01*
X16023357Y-12264214D01*
X15994786Y-12278500D01*
X15980500Y-12292786D01*
X16294786Y-12464214D02*
X16266214Y-12449929D01*
X16251928Y-12435643D01*
X16237643Y-12407071D01*
X16237643Y-12321357D01*
X16251928Y-12292786D01*
X16266214Y-12278500D01*
X16294786Y-12264214D01*
X16337643Y-12264214D01*
X16366214Y-12278500D01*
X16380500Y-12292786D01*
X16394786Y-12321357D01*
X16394786Y-12407071D01*
X16380500Y-12435643D01*
X16366214Y-12449929D01*
X16337643Y-12464214D01*
X16294786Y-12464214D01*
X16566214Y-12464214D02*
X16537643Y-12449929D01*
X16523357Y-12421357D01*
X16523357Y-12164214D01*
X16794786Y-12449929D02*
X16766214Y-12464214D01*
X16709071Y-12464214D01*
X16680500Y-12449929D01*
X16666214Y-12421357D01*
X16666214Y-12307071D01*
X16680500Y-12278500D01*
X16709071Y-12264214D01*
X16766214Y-12264214D01*
X16794786Y-12278500D01*
X16809071Y-12307071D01*
X16809071Y-12335643D01*
X16666214Y-12364214D01*
X16923357Y-12449929D02*
X16951928Y-12464214D01*
X17009071Y-12464214D01*
X17037643Y-12449929D01*
X17051928Y-12421357D01*
X17051928Y-12407071D01*
X17037643Y-12378500D01*
X17009071Y-12364214D01*
X16966214Y-12364214D01*
X16937643Y-12349929D01*
X16923357Y-12321357D01*
X16923357Y-12307071D01*
X16937643Y-12278500D01*
X16966214Y-12264214D01*
X17009071Y-12264214D01*
X17037643Y-12278500D01*
X17151928Y-12578500D02*
X17166214Y-12564214D01*
X17194786Y-12521357D01*
X17209071Y-12492786D01*
X17223357Y-12449929D01*
X17237643Y-12378500D01*
X17237643Y-12321357D01*
X17223357Y-12249929D01*
X17209071Y-12207071D01*
X17194786Y-12178500D01*
X17166214Y-12135643D01*
X17151928Y-12121357D01*
X17694786Y-12578500D02*
X17680500Y-12564214D01*
X17651928Y-12521357D01*
X17637643Y-12492786D01*
X17623357Y-12449929D01*
X17609071Y-12378500D01*
X17609071Y-12321357D01*
X17623357Y-12249929D01*
X17637643Y-12207071D01*
X17651928Y-12178500D01*
X17680500Y-12135643D01*
X17694786Y-12121357D01*
X17809071Y-12264214D02*
X17809071Y-12464214D01*
X17809071Y-12292786D02*
X17823357Y-12278500D01*
X17851928Y-12264214D01*
X17894786Y-12264214D01*
X17923357Y-12278500D01*
X17937643Y-12307071D01*
X17937643Y-12464214D01*
X18123357Y-12464214D02*
X18094786Y-12449929D01*
X18080500Y-12435643D01*
X18066214Y-12407071D01*
X18066214Y-12321357D01*
X18080500Y-12292786D01*
X18094786Y-12278500D01*
X18123357Y-12264214D01*
X18166214Y-12264214D01*
X18194786Y-12278500D01*
X18209071Y-12292786D01*
X18223357Y-12321357D01*
X18223357Y-12407071D01*
X18209071Y-12435643D01*
X18194786Y-12449929D01*
X18166214Y-12464214D01*
X18123357Y-12464214D01*
X18309071Y-12264214D02*
X18423357Y-12264214D01*
X18351928Y-12164214D02*
X18351928Y-12421357D01*
X18366214Y-12449929D01*
X18394786Y-12464214D01*
X18423357Y-12464214D01*
X18751928Y-12264214D02*
X18751928Y-12564214D01*
X18751928Y-12278500D02*
X18780500Y-12264214D01*
X18837643Y-12264214D01*
X18866214Y-12278500D01*
X18880500Y-12292786D01*
X18894786Y-12321357D01*
X18894786Y-12407071D01*
X18880500Y-12435643D01*
X18866214Y-12449929D01*
X18837643Y-12464214D01*
X18780500Y-12464214D01*
X18751928Y-12449929D01*
X19066214Y-12464214D02*
X19037643Y-12449929D01*
X19023357Y-12421357D01*
X19023357Y-12164214D01*
X19309071Y-12464214D02*
X19309071Y-12307071D01*
X19294786Y-12278500D01*
X19266214Y-12264214D01*
X19209071Y-12264214D01*
X19180500Y-12278500D01*
X19309071Y-12449929D02*
X19280500Y-12464214D01*
X19209071Y-12464214D01*
X19180500Y-12449929D01*
X19166214Y-12421357D01*
X19166214Y-12392786D01*
X19180500Y-12364214D01*
X19209071Y-12349929D01*
X19280500Y-12349929D01*
X19309071Y-12335643D01*
X19409071Y-12264214D02*
X19523357Y-12264214D01*
X19451928Y-12164214D02*
X19451928Y-12421357D01*
X19466214Y-12449929D01*
X19494786Y-12464214D01*
X19523357Y-12464214D01*
X19737643Y-12449929D02*
X19709071Y-12464214D01*
X19651928Y-12464214D01*
X19623357Y-12449929D01*
X19609071Y-12421357D01*
X19609071Y-12307071D01*
X19623357Y-12278500D01*
X19651928Y-12264214D01*
X19709071Y-12264214D01*
X19737643Y-12278500D01*
X19751928Y-12307071D01*
X19751928Y-12335643D01*
X19609071Y-12364214D01*
X20009071Y-12464214D02*
X20009071Y-12164214D01*
X20009071Y-12449929D02*
X19980500Y-12464214D01*
X19923357Y-12464214D01*
X19894786Y-12449929D01*
X19880500Y-12435643D01*
X19866214Y-12407071D01*
X19866214Y-12321357D01*
X19880500Y-12292786D01*
X19894786Y-12278500D01*
X19923357Y-12264214D01*
X19980500Y-12264214D01*
X20009071Y-12278500D01*
X20123357Y-12578500D02*
X20137643Y-12564214D01*
X20166214Y-12521357D01*
X20180500Y-12492786D01*
X20194786Y-12449929D01*
X20209071Y-12378500D01*
X20209071Y-12321357D01*
X20194786Y-12249929D01*
X20180500Y-12207071D01*
X20166214Y-12178500D01*
X20137643Y-12135643D01*
X20123357Y-12121357D01*
M02*
