%FSLAX45Y45*%
G04 Gerber Fmt 4.5, Leading zero omitted, Abs format (unit mm)*
G04 Created by KiCad (PCBNEW (5.1.5)-2) date 2020-03-24 14:46:55*
%MOMM*%
%LPD*%
G04 APERTURE LIST*
%TA.AperFunction,Profile*%
%ADD10C,0.050000*%
%TD*%
%ADD11C,0.200000*%
%ADD12C,0.300000*%
G04 APERTURE END LIST*
D10*
X10668000Y-10273800D02*
X11277600Y-10273800D01*
X10668000Y-11366000D02*
X10668000Y-10273800D01*
X11277600Y-8419600D02*
X11277600Y-10273800D01*
X10668000Y-8419600D02*
X11277600Y-8419600D01*
X10668000Y-7366000D02*
X10668000Y-8419600D01*
X16668000Y-7366000D02*
X16668000Y-11366000D01*
X10668000Y-7366000D02*
X16668000Y-7366000D01*
X10668000Y-11366000D02*
X16668000Y-11366000D01*
D11*
X11415000Y-10004800D02*
X11445000Y-10034800D01*
X11445000Y-10004800D02*
X11415000Y-10034800D01*
X11427700Y-10423900D02*
X11457700Y-10453900D01*
X11457700Y-10423900D02*
X11427700Y-10453900D01*
X11542000Y-8645900D02*
X11572000Y-8675900D01*
X11572000Y-8645900D02*
X11542000Y-8675900D01*
X11542000Y-9903200D02*
X11572000Y-9933200D01*
X11572000Y-9903200D02*
X11542000Y-9933200D01*
X11592800Y-10360400D02*
X11622800Y-10390400D01*
X11622800Y-10360400D02*
X11592800Y-10390400D01*
X11599150Y-9179300D02*
X11629150Y-9209300D01*
X11629150Y-9179300D02*
X11599150Y-9209300D01*
X11669000Y-9928600D02*
X11699000Y-9958600D01*
X11699000Y-9928600D02*
X11669000Y-9958600D01*
X11796000Y-8480800D02*
X11826000Y-8510800D01*
X11826000Y-8480800D02*
X11796000Y-8510800D01*
X11821400Y-9128500D02*
X11851400Y-9158500D01*
X11851400Y-9128500D02*
X11821400Y-9158500D01*
X11834100Y-8633200D02*
X11864100Y-8663200D01*
X11864100Y-8633200D02*
X11834100Y-8663200D01*
X12011900Y-10442950D02*
X12041900Y-10472950D01*
X12041900Y-10442950D02*
X12011900Y-10472950D01*
X12011900Y-10614400D02*
X12041900Y-10644400D01*
X12041900Y-10614400D02*
X12011900Y-10644400D01*
X12011900Y-10785850D02*
X12041900Y-10815850D01*
X12041900Y-10785850D02*
X12011900Y-10815850D01*
X12164300Y-9433300D02*
X12194300Y-9463300D01*
X12194300Y-9433300D02*
X12164300Y-9463300D01*
X12253200Y-8633200D02*
X12283200Y-8663200D01*
X12283200Y-8633200D02*
X12253200Y-8663200D01*
X12348450Y-10912850D02*
X12378450Y-10942850D01*
X12378450Y-10912850D02*
X12348450Y-10942850D01*
X12411950Y-9846050D02*
X12441950Y-9876050D01*
X12441950Y-9846050D02*
X12411950Y-9876050D01*
X12621500Y-10944600D02*
X12651500Y-10974600D01*
X12651500Y-10944600D02*
X12621500Y-10974600D01*
X12697700Y-8734800D02*
X12727700Y-8764800D01*
X12727700Y-8734800D02*
X12697700Y-8764800D01*
X12837400Y-9858750D02*
X12867400Y-9888750D01*
X12867400Y-9858750D02*
X12837400Y-9888750D01*
X12913600Y-9858750D02*
X12943600Y-9888750D01*
X12943600Y-9858750D02*
X12913600Y-9888750D01*
X12989800Y-9776200D02*
X13019800Y-9806200D01*
X13019800Y-9776200D02*
X12989800Y-9806200D01*
X13129500Y-10944600D02*
X13159500Y-10974600D01*
X13159500Y-10944600D02*
X13129500Y-10974600D01*
X13167600Y-8417300D02*
X13197600Y-8447300D01*
X13197600Y-8417300D02*
X13167600Y-8447300D01*
X13377150Y-7979150D02*
X13407150Y-8009150D01*
X13407150Y-7979150D02*
X13377150Y-8009150D01*
X13383500Y-10944600D02*
X13413500Y-10974600D01*
X13413500Y-10944600D02*
X13383500Y-10974600D01*
X13447000Y-9026900D02*
X13477000Y-9056900D01*
X13477000Y-9026900D02*
X13447000Y-9056900D01*
X13491450Y-8734800D02*
X13521450Y-8764800D01*
X13521450Y-8734800D02*
X13491450Y-8764800D01*
X13580350Y-8734800D02*
X13610350Y-8764800D01*
X13610350Y-8734800D02*
X13580350Y-8764800D01*
X13580350Y-8893550D02*
X13610350Y-8923550D01*
X13610350Y-8893550D02*
X13580350Y-8923550D01*
X13684450Y-10887450D02*
X13714450Y-10917450D01*
X13714450Y-10887450D02*
X13684450Y-10917450D01*
X13685760Y-8673840D02*
X13715760Y-8703840D01*
X13715760Y-8673840D02*
X13685760Y-8703840D01*
X13688300Y-8303000D02*
X13718300Y-8333000D01*
X13718300Y-8303000D02*
X13688300Y-8333000D01*
X13723352Y-8796522D02*
X13753352Y-8826522D01*
X13753352Y-8796522D02*
X13723352Y-8826522D01*
X13726400Y-9490450D02*
X13756400Y-9520450D01*
X13756400Y-9490450D02*
X13726400Y-9520450D01*
X14045900Y-9005850D02*
X14075900Y-9035850D01*
X14075900Y-9005850D02*
X14045900Y-9035850D01*
X14094700Y-8582400D02*
X14124700Y-8612400D01*
X14124700Y-8582400D02*
X14094700Y-8612400D01*
X14141700Y-10249900D02*
X14171700Y-10279900D01*
X14171700Y-10249900D02*
X14141700Y-10279900D01*
X14170900Y-7934700D02*
X14200900Y-7964700D01*
X14200900Y-7934700D02*
X14170900Y-7964700D01*
X14170900Y-8252200D02*
X14200900Y-8282200D01*
X14200900Y-8252200D02*
X14170900Y-8282200D01*
X14272500Y-8582400D02*
X14302500Y-8612400D01*
X14302500Y-8582400D02*
X14272500Y-8612400D01*
X14412200Y-9122150D02*
X14442200Y-9152150D01*
X14442200Y-9122150D02*
X14412200Y-9152150D01*
X14437600Y-10049250D02*
X14467600Y-10079250D01*
X14467600Y-10049250D02*
X14437600Y-10079250D01*
X14437600Y-10360400D02*
X14467600Y-10390400D01*
X14467600Y-10360400D02*
X14437600Y-10390400D01*
X14513800Y-9407900D02*
X14543800Y-9437900D01*
X14543800Y-9407900D02*
X14513800Y-9437900D01*
X14539200Y-7756900D02*
X14569200Y-7786900D01*
X14569200Y-7756900D02*
X14539200Y-7786900D01*
X14539200Y-8099800D02*
X14569200Y-8129800D01*
X14569200Y-8099800D02*
X14539200Y-8129800D01*
X14577300Y-10049250D02*
X14607300Y-10079250D01*
X14607300Y-10049250D02*
X14577300Y-10079250D01*
X14577300Y-10360400D02*
X14607300Y-10390400D01*
X14607300Y-10360400D02*
X14577300Y-10390400D01*
X14710650Y-8988800D02*
X14740650Y-9018800D01*
X14740650Y-8988800D02*
X14710650Y-9018800D01*
X14831300Y-7604500D02*
X14861300Y-7634500D01*
X14861300Y-7604500D02*
X14831300Y-7634500D01*
X14831300Y-8468100D02*
X14861300Y-8498100D01*
X14861300Y-8468100D02*
X14831300Y-8498100D01*
X14856700Y-7934700D02*
X14886700Y-7964700D01*
X14886700Y-7934700D02*
X14856700Y-7964700D01*
X14907500Y-8366500D02*
X14937500Y-8396500D01*
X14937500Y-8366500D02*
X14907500Y-8396500D01*
X14932900Y-8709400D02*
X14962900Y-8739400D01*
X14962900Y-8709400D02*
X14932900Y-8739400D01*
X14935440Y-8546840D02*
X14965440Y-8576840D01*
X14965440Y-8546840D02*
X14935440Y-8576840D01*
X14935440Y-8628120D02*
X14965440Y-8658120D01*
X14965440Y-8628120D02*
X14935440Y-8658120D01*
X14958300Y-10017500D02*
X14988300Y-10047500D01*
X14988300Y-10017500D02*
X14958300Y-10047500D01*
X15059900Y-10017500D02*
X15089900Y-10047500D01*
X15089900Y-10017500D02*
X15059900Y-10047500D01*
X15110700Y-8366500D02*
X15140700Y-8396500D01*
X15140700Y-8366500D02*
X15110700Y-8396500D01*
X15300970Y-8696470D02*
X15330970Y-8726470D01*
X15330970Y-8696470D02*
X15300970Y-8726470D01*
X15303740Y-8600180D02*
X15333740Y-8630180D01*
X15333740Y-8600180D02*
X15303740Y-8630180D01*
X15339300Y-7769600D02*
X15369300Y-7799600D01*
X15369300Y-7769600D02*
X15339300Y-7799600D01*
X15339300Y-7909300D02*
X15369300Y-7939300D01*
X15369300Y-7909300D02*
X15339300Y-7939300D01*
X15352000Y-9185650D02*
X15382000Y-9215650D01*
X15382000Y-9185650D02*
X15352000Y-9215650D01*
X15352000Y-9293600D02*
X15382000Y-9323600D01*
X15382000Y-9293600D02*
X15352000Y-9323600D01*
X15631400Y-8760200D02*
X15661400Y-8790200D01*
X15661400Y-8760200D02*
X15631400Y-8790200D01*
X16139400Y-9369800D02*
X16169400Y-9399800D01*
X16169400Y-9369800D02*
X16139400Y-9399800D01*
X14605950Y-10902450D02*
G75*
G03X14605950Y-10902450I-20000J0D01*
G01*
X14834550Y-11061200D02*
G75*
G03X14834550Y-11061200I-20000J0D01*
G01*
X10802400Y-11086600D02*
G75*
G03X10802400Y-11086600I-20000J0D01*
G01*
X10850727Y-10969927D02*
G75*
G03X10850727Y-10969927I-20000J0D01*
G01*
X10850727Y-11203273D02*
G75*
G03X10850727Y-11203273I-20000J0D01*
G01*
X10967400Y-10921600D02*
G75*
G03X10967400Y-10921600I-20000J0D01*
G01*
X10967400Y-11251600D02*
G75*
G03X10967400Y-11251600I-20000J0D01*
G01*
X11084073Y-10969927D02*
G75*
G03X11084073Y-10969927I-20000J0D01*
G01*
X11084073Y-11203273D02*
G75*
G03X11084073Y-11203273I-20000J0D01*
G01*
X11132400Y-11086600D02*
G75*
G03X11132400Y-11086600I-20000J0D01*
G01*
X16238000Y-7644900D02*
G75*
G03X16238000Y-7644900I-20000J0D01*
G01*
X16286327Y-7528227D02*
G75*
G03X16286327Y-7528227I-20000J0D01*
G01*
X16286327Y-7761573D02*
G75*
G03X16286327Y-7761573I-20000J0D01*
G01*
X16403000Y-7479900D02*
G75*
G03X16403000Y-7479900I-20000J0D01*
G01*
X16403000Y-7809900D02*
G75*
G03X16403000Y-7809900I-20000J0D01*
G01*
X16519673Y-7528227D02*
G75*
G03X16519673Y-7528227I-20000J0D01*
G01*
X16519673Y-7761573D02*
G75*
G03X16519673Y-7761573I-20000J0D01*
G01*
X16568000Y-7644900D02*
G75*
G03X16568000Y-7644900I-20000J0D01*
G01*
X10802400Y-7644900D02*
G75*
G03X10802400Y-7644900I-20000J0D01*
G01*
X10850727Y-7528227D02*
G75*
G03X10850727Y-7528227I-20000J0D01*
G01*
X10850727Y-7761573D02*
G75*
G03X10850727Y-7761573I-20000J0D01*
G01*
X10967400Y-7479900D02*
G75*
G03X10967400Y-7479900I-20000J0D01*
G01*
X10967400Y-7809900D02*
G75*
G03X10967400Y-7809900I-20000J0D01*
G01*
X11084073Y-7528227D02*
G75*
G03X11084073Y-7528227I-20000J0D01*
G01*
X11084073Y-7761573D02*
G75*
G03X11084073Y-7761573I-20000J0D01*
G01*
X11132400Y-7644900D02*
G75*
G03X11132400Y-7644900I-20000J0D01*
G01*
X16238000Y-11086600D02*
G75*
G03X16238000Y-11086600I-20000J0D01*
G01*
X16286327Y-10969927D02*
G75*
G03X16286327Y-10969927I-20000J0D01*
G01*
X16286327Y-11203273D02*
G75*
G03X16286327Y-11203273I-20000J0D01*
G01*
X16403000Y-10921600D02*
G75*
G03X16403000Y-10921600I-20000J0D01*
G01*
X16403000Y-11251600D02*
G75*
G03X16403000Y-11251600I-20000J0D01*
G01*
X16519673Y-10969927D02*
G75*
G03X16519673Y-10969927I-20000J0D01*
G01*
X16519673Y-11203273D02*
G75*
G03X16519673Y-11203273I-20000J0D01*
G01*
X16568000Y-11086600D02*
G75*
G03X16568000Y-11086600I-20000J0D01*
G01*
X14713900Y-9478780D02*
G75*
G03X14713900Y-9478780I-20000J0D01*
G01*
X14713900Y-9588000D02*
G75*
G03X14713900Y-9588000I-20000J0D01*
G01*
X14713900Y-9694680D02*
G75*
G03X14713900Y-9694680I-20000J0D01*
G01*
X14840900Y-9478780D02*
G75*
G03X14840900Y-9478780I-20000J0D01*
G01*
X14840900Y-9588000D02*
G75*
G03X14840900Y-9588000I-20000J0D01*
G01*
X14840900Y-9694680D02*
G75*
G03X14840900Y-9694680I-20000J0D01*
G01*
X15917600Y-8071900D02*
X15917600Y-8131900D01*
X15887600Y-8101900D02*
X15947600Y-8101900D01*
X15862600Y-8121900D02*
X15972600Y-8121900D01*
X15862600Y-8081900D02*
X15972600Y-8081900D01*
X15972600Y-8121900D02*
G75*
G03X15972600Y-8081900I0J20000D01*
G01*
X15862600Y-8081900D02*
G75*
G03X15862600Y-8121900I0J-20000D01*
G01*
X15917600Y-8935900D02*
X15917600Y-8995900D01*
X15887600Y-8965900D02*
X15947600Y-8965900D01*
X15862600Y-8985900D02*
X15972600Y-8985900D01*
X15862600Y-8945900D02*
X15972600Y-8945900D01*
X15972600Y-8985900D02*
G75*
G03X15972600Y-8945900I0J20000D01*
G01*
X15862600Y-8945900D02*
G75*
G03X15862600Y-8985900I0J-20000D01*
G01*
X16335600Y-8071900D02*
X16335600Y-8131900D01*
X16305600Y-8101900D02*
X16365600Y-8101900D01*
X16305600Y-8121900D02*
X16365600Y-8121900D01*
X16305600Y-8081900D02*
X16365600Y-8081900D01*
X16365600Y-8121900D02*
G75*
G03X16365600Y-8081900I0J20000D01*
G01*
X16305600Y-8081900D02*
G75*
G03X16305600Y-8121900I0J-20000D01*
G01*
X16335600Y-8935900D02*
X16335600Y-8995900D01*
X16305600Y-8965900D02*
X16365600Y-8965900D01*
X16305600Y-8985900D02*
X16365600Y-8985900D01*
X16305600Y-8945900D02*
X16365600Y-8945900D01*
X16365600Y-8985900D02*
G75*
G03X16365600Y-8945900I0J20000D01*
G01*
X16305600Y-8945900D02*
G75*
G03X16305600Y-8985900I0J-20000D01*
G01*
X15554756Y-10918756D02*
X15554756Y-10848044D01*
X15484044Y-10848044D01*
X15484044Y-10918756D01*
X15554756Y-10918756D01*
X15808756Y-10918756D02*
X15808756Y-10848044D01*
X15738044Y-10848044D01*
X15738044Y-10918756D01*
X15808756Y-10918756D01*
X11573306Y-7826306D02*
X11573306Y-7755594D01*
X11502594Y-7755594D01*
X11502594Y-7826306D01*
X11573306Y-7826306D01*
X11827306Y-7826306D02*
X11827306Y-7755594D01*
X11756594Y-7755594D01*
X11756594Y-7826306D01*
X11827306Y-7826306D01*
X12081306Y-7826306D02*
X12081306Y-7755594D01*
X12010594Y-7755594D01*
X12010594Y-7826306D01*
X12081306Y-7826306D01*
X12335306Y-7826306D02*
X12335306Y-7755594D01*
X12264594Y-7755594D01*
X12264594Y-7826306D01*
X12335306Y-7826306D01*
X12589306Y-7826306D02*
X12589306Y-7755594D01*
X12518594Y-7755594D01*
X12518594Y-7826306D01*
X12589306Y-7826306D01*
X12843306Y-7826306D02*
X12843306Y-7755594D01*
X12772594Y-7755594D01*
X12772594Y-7826306D01*
X12843306Y-7826306D01*
X13097306Y-7826306D02*
X13097306Y-7755594D01*
X13026594Y-7755594D01*
X13026594Y-7826306D01*
X13097306Y-7826306D01*
X13351306Y-7826306D02*
X13351306Y-7755594D01*
X13280594Y-7755594D01*
X13280594Y-7826306D01*
X13351306Y-7826306D01*
X11909856Y-11198156D02*
X11909856Y-11127444D01*
X11839144Y-11127444D01*
X11839144Y-11198156D01*
X11909856Y-11198156D01*
X12163856Y-11198156D02*
X12163856Y-11127444D01*
X12093144Y-11127444D01*
X12093144Y-11198156D01*
X12163856Y-11198156D01*
X12417856Y-11198156D02*
X12417856Y-11127444D01*
X12347144Y-11127444D01*
X12347144Y-11198156D01*
X12417856Y-11198156D01*
X12671856Y-11198156D02*
X12671856Y-11127444D01*
X12601144Y-11127444D01*
X12601144Y-11198156D01*
X12671856Y-11198156D01*
X12925856Y-11198156D02*
X12925856Y-11127444D01*
X12855144Y-11127444D01*
X12855144Y-11198156D01*
X12925856Y-11198156D01*
X13179856Y-11198156D02*
X13179856Y-11127444D01*
X13109144Y-11127444D01*
X13109144Y-11198156D01*
X13179856Y-11198156D01*
X13433856Y-11198156D02*
X13433856Y-11127444D01*
X13363144Y-11127444D01*
X13363144Y-11198156D01*
X13433856Y-11198156D01*
X15521940Y-9599580D02*
X15591940Y-9529580D01*
X15521940Y-9459580D01*
X15451940Y-9529580D01*
X15521940Y-9599580D01*
X15521940Y-10079580D02*
X15591940Y-10009580D01*
X15521940Y-9939580D01*
X15451940Y-10009580D01*
X15521940Y-10079580D01*
X15521940Y-10559580D02*
X15591940Y-10489580D01*
X15521940Y-10419580D01*
X15451940Y-10489580D01*
X15521940Y-10559580D01*
X16273000Y-7534900D02*
X16493000Y-7754900D01*
X16493000Y-7534900D02*
X16273000Y-7754900D01*
X16493000Y-7644900D02*
G75*
G03X16493000Y-7644900I-110000J0D01*
G01*
X10837400Y-7534900D02*
X11057400Y-7754900D01*
X11057400Y-7534900D02*
X10837400Y-7754900D01*
X11057400Y-7644900D02*
G75*
G03X11057400Y-7644900I-110000J0D01*
G01*
X16273000Y-10976600D02*
X16493000Y-11196600D01*
X16493000Y-10976600D02*
X16273000Y-11196600D01*
X16493000Y-11086600D02*
G75*
G03X16493000Y-11086600I-110000J0D01*
G01*
X10837400Y-10976600D02*
X11057400Y-11196600D01*
X11057400Y-10976600D02*
X10837400Y-11196600D01*
X11057400Y-11086600D02*
G75*
G03X11057400Y-11086600I-110000J0D01*
G01*
D12*
X10951928Y-11834214D02*
X10951928Y-11534214D01*
X11023357Y-11534214D01*
X11066214Y-11548500D01*
X11094786Y-11577071D01*
X11109071Y-11605643D01*
X11123357Y-11662786D01*
X11123357Y-11705643D01*
X11109071Y-11762786D01*
X11094786Y-11791357D01*
X11066214Y-11819929D01*
X11023357Y-11834214D01*
X10951928Y-11834214D01*
X11251928Y-11834214D02*
X11251928Y-11634214D01*
X11251928Y-11691357D02*
X11266214Y-11662786D01*
X11280500Y-11648500D01*
X11309071Y-11634214D01*
X11337643Y-11634214D01*
X11437643Y-11834214D02*
X11437643Y-11634214D01*
X11437643Y-11534214D02*
X11423357Y-11548500D01*
X11437643Y-11562786D01*
X11451928Y-11548500D01*
X11437643Y-11534214D01*
X11437643Y-11562786D01*
X11623357Y-11834214D02*
X11594786Y-11819929D01*
X11580500Y-11791357D01*
X11580500Y-11534214D01*
X11780500Y-11834214D02*
X11751928Y-11819929D01*
X11737643Y-11791357D01*
X11737643Y-11534214D01*
X12123357Y-11834214D02*
X12123357Y-11534214D01*
X12223357Y-11748500D01*
X12323357Y-11534214D01*
X12323357Y-11834214D01*
X12594786Y-11834214D02*
X12594786Y-11677071D01*
X12580500Y-11648500D01*
X12551928Y-11634214D01*
X12494786Y-11634214D01*
X12466214Y-11648500D01*
X12594786Y-11819929D02*
X12566214Y-11834214D01*
X12494786Y-11834214D01*
X12466214Y-11819929D01*
X12451928Y-11791357D01*
X12451928Y-11762786D01*
X12466214Y-11734214D01*
X12494786Y-11719929D01*
X12566214Y-11719929D01*
X12594786Y-11705643D01*
X12737643Y-11634214D02*
X12737643Y-11934214D01*
X12737643Y-11648500D02*
X12766214Y-11634214D01*
X12823357Y-11634214D01*
X12851928Y-11648500D01*
X12866214Y-11662786D01*
X12880500Y-11691357D01*
X12880500Y-11777071D01*
X12866214Y-11805643D01*
X12851928Y-11819929D01*
X12823357Y-11834214D01*
X12766214Y-11834214D01*
X12737643Y-11819929D01*
X13009071Y-11805643D02*
X13023357Y-11819929D01*
X13009071Y-11834214D01*
X12994786Y-11819929D01*
X13009071Y-11805643D01*
X13009071Y-11834214D01*
X13009071Y-11648500D02*
X13023357Y-11662786D01*
X13009071Y-11677071D01*
X12994786Y-11662786D01*
X13009071Y-11648500D01*
X13009071Y-11677071D01*
X10635500Y-12313500D02*
X10665500Y-12343500D01*
X10665500Y-12313500D02*
X10635500Y-12343500D01*
X11009071Y-12164214D02*
X11037643Y-12164214D01*
X11066214Y-12178500D01*
X11080500Y-12192786D01*
X11094786Y-12221357D01*
X11109071Y-12278500D01*
X11109071Y-12349929D01*
X11094786Y-12407071D01*
X11080500Y-12435643D01*
X11066214Y-12449929D01*
X11037643Y-12464214D01*
X11009071Y-12464214D01*
X10980500Y-12449929D01*
X10966214Y-12435643D01*
X10951928Y-12407071D01*
X10937643Y-12349929D01*
X10937643Y-12278500D01*
X10951928Y-12221357D01*
X10966214Y-12192786D01*
X10980500Y-12178500D01*
X11009071Y-12164214D01*
X11237643Y-12435643D02*
X11251928Y-12449929D01*
X11237643Y-12464214D01*
X11223357Y-12449929D01*
X11237643Y-12435643D01*
X11237643Y-12464214D01*
X11351928Y-12164214D02*
X11537643Y-12164214D01*
X11437643Y-12278500D01*
X11480500Y-12278500D01*
X11509071Y-12292786D01*
X11523357Y-12307071D01*
X11537643Y-12335643D01*
X11537643Y-12407071D01*
X11523357Y-12435643D01*
X11509071Y-12449929D01*
X11480500Y-12464214D01*
X11394786Y-12464214D01*
X11366214Y-12449929D01*
X11351928Y-12435643D01*
X11723357Y-12164214D02*
X11751928Y-12164214D01*
X11780500Y-12178500D01*
X11794786Y-12192786D01*
X11809071Y-12221357D01*
X11823357Y-12278500D01*
X11823357Y-12349929D01*
X11809071Y-12407071D01*
X11794786Y-12435643D01*
X11780500Y-12449929D01*
X11751928Y-12464214D01*
X11723357Y-12464214D01*
X11694786Y-12449929D01*
X11680500Y-12435643D01*
X11666214Y-12407071D01*
X11651928Y-12349929D01*
X11651928Y-12278500D01*
X11666214Y-12221357D01*
X11680500Y-12192786D01*
X11694786Y-12178500D01*
X11723357Y-12164214D01*
X11951928Y-12464214D02*
X11951928Y-12264214D01*
X11951928Y-12292786D02*
X11966214Y-12278500D01*
X11994786Y-12264214D01*
X12037643Y-12264214D01*
X12066214Y-12278500D01*
X12080500Y-12307071D01*
X12080500Y-12464214D01*
X12080500Y-12307071D02*
X12094786Y-12278500D01*
X12123357Y-12264214D01*
X12166214Y-12264214D01*
X12194786Y-12278500D01*
X12209071Y-12307071D01*
X12209071Y-12464214D01*
X12351928Y-12464214D02*
X12351928Y-12264214D01*
X12351928Y-12292786D02*
X12366214Y-12278500D01*
X12394786Y-12264214D01*
X12437643Y-12264214D01*
X12466214Y-12278500D01*
X12480500Y-12307071D01*
X12480500Y-12464214D01*
X12480500Y-12307071D02*
X12494786Y-12278500D01*
X12523357Y-12264214D01*
X12566214Y-12264214D01*
X12594786Y-12278500D01*
X12609071Y-12307071D01*
X12609071Y-12464214D01*
X13194786Y-12149929D02*
X12937643Y-12535643D01*
X13580500Y-12164214D02*
X13609071Y-12164214D01*
X13637643Y-12178500D01*
X13651928Y-12192786D01*
X13666214Y-12221357D01*
X13680500Y-12278500D01*
X13680500Y-12349929D01*
X13666214Y-12407071D01*
X13651928Y-12435643D01*
X13637643Y-12449929D01*
X13609071Y-12464214D01*
X13580500Y-12464214D01*
X13551928Y-12449929D01*
X13537643Y-12435643D01*
X13523357Y-12407071D01*
X13509071Y-12349929D01*
X13509071Y-12278500D01*
X13523357Y-12221357D01*
X13537643Y-12192786D01*
X13551928Y-12178500D01*
X13580500Y-12164214D01*
X13809071Y-12435643D02*
X13823357Y-12449929D01*
X13809071Y-12464214D01*
X13794786Y-12449929D01*
X13809071Y-12435643D01*
X13809071Y-12464214D01*
X14009071Y-12164214D02*
X14037643Y-12164214D01*
X14066214Y-12178500D01*
X14080500Y-12192786D01*
X14094786Y-12221357D01*
X14109071Y-12278500D01*
X14109071Y-12349929D01*
X14094786Y-12407071D01*
X14080500Y-12435643D01*
X14066214Y-12449929D01*
X14037643Y-12464214D01*
X14009071Y-12464214D01*
X13980500Y-12449929D01*
X13966214Y-12435643D01*
X13951928Y-12407071D01*
X13937643Y-12349929D01*
X13937643Y-12278500D01*
X13951928Y-12221357D01*
X13966214Y-12192786D01*
X13980500Y-12178500D01*
X14009071Y-12164214D01*
X14394786Y-12464214D02*
X14223357Y-12464214D01*
X14309071Y-12464214D02*
X14309071Y-12164214D01*
X14280500Y-12207071D01*
X14251928Y-12235643D01*
X14223357Y-12249929D01*
X14509071Y-12192786D02*
X14523357Y-12178500D01*
X14551928Y-12164214D01*
X14623357Y-12164214D01*
X14651928Y-12178500D01*
X14666214Y-12192786D01*
X14680500Y-12221357D01*
X14680500Y-12249929D01*
X14666214Y-12292786D01*
X14494786Y-12464214D01*
X14680500Y-12464214D01*
X14794786Y-12164214D02*
X14794786Y-12221357D01*
X14909071Y-12164214D02*
X14909071Y-12221357D01*
X15351928Y-12578500D02*
X15337643Y-12564214D01*
X15309071Y-12521357D01*
X15294786Y-12492786D01*
X15280500Y-12449929D01*
X15266214Y-12378500D01*
X15266214Y-12321357D01*
X15280500Y-12249929D01*
X15294786Y-12207071D01*
X15309071Y-12178500D01*
X15337643Y-12135643D01*
X15351928Y-12121357D01*
X15594786Y-12164214D02*
X15537643Y-12164214D01*
X15509071Y-12178500D01*
X15494786Y-12192786D01*
X15466214Y-12235643D01*
X15451928Y-12292786D01*
X15451928Y-12407071D01*
X15466214Y-12435643D01*
X15480500Y-12449929D01*
X15509071Y-12464214D01*
X15566214Y-12464214D01*
X15594786Y-12449929D01*
X15609071Y-12435643D01*
X15623357Y-12407071D01*
X15623357Y-12335643D01*
X15609071Y-12307071D01*
X15594786Y-12292786D01*
X15566214Y-12278500D01*
X15509071Y-12278500D01*
X15480500Y-12292786D01*
X15466214Y-12307071D01*
X15451928Y-12335643D01*
X15794786Y-12292786D02*
X15766214Y-12278500D01*
X15751928Y-12264214D01*
X15737643Y-12235643D01*
X15737643Y-12221357D01*
X15751928Y-12192786D01*
X15766214Y-12178500D01*
X15794786Y-12164214D01*
X15851928Y-12164214D01*
X15880500Y-12178500D01*
X15894786Y-12192786D01*
X15909071Y-12221357D01*
X15909071Y-12235643D01*
X15894786Y-12264214D01*
X15880500Y-12278500D01*
X15851928Y-12292786D01*
X15794786Y-12292786D01*
X15766214Y-12307071D01*
X15751928Y-12321357D01*
X15737643Y-12349929D01*
X15737643Y-12407071D01*
X15751928Y-12435643D01*
X15766214Y-12449929D01*
X15794786Y-12464214D01*
X15851928Y-12464214D01*
X15880500Y-12449929D01*
X15894786Y-12435643D01*
X15909071Y-12407071D01*
X15909071Y-12349929D01*
X15894786Y-12321357D01*
X15880500Y-12307071D01*
X15851928Y-12292786D01*
X16266214Y-12464214D02*
X16266214Y-12164214D01*
X16394786Y-12464214D02*
X16394786Y-12307071D01*
X16380500Y-12278500D01*
X16351928Y-12264214D01*
X16309071Y-12264214D01*
X16280500Y-12278500D01*
X16266214Y-12292786D01*
X16580500Y-12464214D02*
X16551928Y-12449929D01*
X16537643Y-12435643D01*
X16523357Y-12407071D01*
X16523357Y-12321357D01*
X16537643Y-12292786D01*
X16551928Y-12278500D01*
X16580500Y-12264214D01*
X16623357Y-12264214D01*
X16651928Y-12278500D01*
X16666214Y-12292786D01*
X16680500Y-12321357D01*
X16680500Y-12407071D01*
X16666214Y-12435643D01*
X16651928Y-12449929D01*
X16623357Y-12464214D01*
X16580500Y-12464214D01*
X16851928Y-12464214D02*
X16823357Y-12449929D01*
X16809071Y-12421357D01*
X16809071Y-12164214D01*
X17080500Y-12449929D02*
X17051928Y-12464214D01*
X16994786Y-12464214D01*
X16966214Y-12449929D01*
X16951928Y-12421357D01*
X16951928Y-12307071D01*
X16966214Y-12278500D01*
X16994786Y-12264214D01*
X17051928Y-12264214D01*
X17080500Y-12278500D01*
X17094786Y-12307071D01*
X17094786Y-12335643D01*
X16951928Y-12364214D01*
X17209071Y-12449929D02*
X17237643Y-12464214D01*
X17294786Y-12464214D01*
X17323357Y-12449929D01*
X17337643Y-12421357D01*
X17337643Y-12407071D01*
X17323357Y-12378500D01*
X17294786Y-12364214D01*
X17251928Y-12364214D01*
X17223357Y-12349929D01*
X17209071Y-12321357D01*
X17209071Y-12307071D01*
X17223357Y-12278500D01*
X17251928Y-12264214D01*
X17294786Y-12264214D01*
X17323357Y-12278500D01*
X17437643Y-12578500D02*
X17451928Y-12564214D01*
X17480500Y-12521357D01*
X17494786Y-12492786D01*
X17509071Y-12449929D01*
X17523357Y-12378500D01*
X17523357Y-12321357D01*
X17509071Y-12249929D01*
X17494786Y-12207071D01*
X17480500Y-12178500D01*
X17451928Y-12135643D01*
X17437643Y-12121357D01*
X10665500Y-12724500D02*
G75*
G03X10665500Y-12724500I-20000J0D01*
G01*
X11009071Y-12560214D02*
X11037643Y-12560214D01*
X11066214Y-12574500D01*
X11080500Y-12588786D01*
X11094786Y-12617357D01*
X11109071Y-12674500D01*
X11109071Y-12745929D01*
X11094786Y-12803071D01*
X11080500Y-12831643D01*
X11066214Y-12845929D01*
X11037643Y-12860214D01*
X11009071Y-12860214D01*
X10980500Y-12845929D01*
X10966214Y-12831643D01*
X10951928Y-12803071D01*
X10937643Y-12745929D01*
X10937643Y-12674500D01*
X10951928Y-12617357D01*
X10966214Y-12588786D01*
X10980500Y-12574500D01*
X11009071Y-12560214D01*
X11237643Y-12831643D02*
X11251928Y-12845929D01*
X11237643Y-12860214D01*
X11223357Y-12845929D01*
X11237643Y-12831643D01*
X11237643Y-12860214D01*
X11509071Y-12660214D02*
X11509071Y-12860214D01*
X11437643Y-12545929D02*
X11366214Y-12760214D01*
X11551928Y-12760214D01*
X11723357Y-12560214D02*
X11751928Y-12560214D01*
X11780500Y-12574500D01*
X11794786Y-12588786D01*
X11809071Y-12617357D01*
X11823357Y-12674500D01*
X11823357Y-12745929D01*
X11809071Y-12803071D01*
X11794786Y-12831643D01*
X11780500Y-12845929D01*
X11751928Y-12860214D01*
X11723357Y-12860214D01*
X11694786Y-12845929D01*
X11680500Y-12831643D01*
X11666214Y-12803071D01*
X11651928Y-12745929D01*
X11651928Y-12674500D01*
X11666214Y-12617357D01*
X11680500Y-12588786D01*
X11694786Y-12574500D01*
X11723357Y-12560214D01*
X11951928Y-12860214D02*
X11951928Y-12660214D01*
X11951928Y-12688786D02*
X11966214Y-12674500D01*
X11994786Y-12660214D01*
X12037643Y-12660214D01*
X12066214Y-12674500D01*
X12080500Y-12703071D01*
X12080500Y-12860214D01*
X12080500Y-12703071D02*
X12094786Y-12674500D01*
X12123357Y-12660214D01*
X12166214Y-12660214D01*
X12194786Y-12674500D01*
X12209071Y-12703071D01*
X12209071Y-12860214D01*
X12351928Y-12860214D02*
X12351928Y-12660214D01*
X12351928Y-12688786D02*
X12366214Y-12674500D01*
X12394786Y-12660214D01*
X12437643Y-12660214D01*
X12466214Y-12674500D01*
X12480500Y-12703071D01*
X12480500Y-12860214D01*
X12480500Y-12703071D02*
X12494786Y-12674500D01*
X12523357Y-12660214D01*
X12566214Y-12660214D01*
X12594786Y-12674500D01*
X12609071Y-12703071D01*
X12609071Y-12860214D01*
X13194786Y-12545929D02*
X12937643Y-12931643D01*
X13580500Y-12560214D02*
X13609071Y-12560214D01*
X13637643Y-12574500D01*
X13651928Y-12588786D01*
X13666214Y-12617357D01*
X13680500Y-12674500D01*
X13680500Y-12745929D01*
X13666214Y-12803071D01*
X13651928Y-12831643D01*
X13637643Y-12845929D01*
X13609071Y-12860214D01*
X13580500Y-12860214D01*
X13551928Y-12845929D01*
X13537643Y-12831643D01*
X13523357Y-12803071D01*
X13509071Y-12745929D01*
X13509071Y-12674500D01*
X13523357Y-12617357D01*
X13537643Y-12588786D01*
X13551928Y-12574500D01*
X13580500Y-12560214D01*
X13809071Y-12831643D02*
X13823357Y-12845929D01*
X13809071Y-12860214D01*
X13794786Y-12845929D01*
X13809071Y-12831643D01*
X13809071Y-12860214D01*
X14009071Y-12560214D02*
X14037643Y-12560214D01*
X14066214Y-12574500D01*
X14080500Y-12588786D01*
X14094786Y-12617357D01*
X14109071Y-12674500D01*
X14109071Y-12745929D01*
X14094786Y-12803071D01*
X14080500Y-12831643D01*
X14066214Y-12845929D01*
X14037643Y-12860214D01*
X14009071Y-12860214D01*
X13980500Y-12845929D01*
X13966214Y-12831643D01*
X13951928Y-12803071D01*
X13937643Y-12745929D01*
X13937643Y-12674500D01*
X13951928Y-12617357D01*
X13966214Y-12588786D01*
X13980500Y-12574500D01*
X14009071Y-12560214D01*
X14394786Y-12860214D02*
X14223357Y-12860214D01*
X14309071Y-12860214D02*
X14309071Y-12560214D01*
X14280500Y-12603071D01*
X14251928Y-12631643D01*
X14223357Y-12645929D01*
X14651928Y-12560214D02*
X14594786Y-12560214D01*
X14566214Y-12574500D01*
X14551928Y-12588786D01*
X14523357Y-12631643D01*
X14509071Y-12688786D01*
X14509071Y-12803071D01*
X14523357Y-12831643D01*
X14537643Y-12845929D01*
X14566214Y-12860214D01*
X14623357Y-12860214D01*
X14651928Y-12845929D01*
X14666214Y-12831643D01*
X14680500Y-12803071D01*
X14680500Y-12731643D01*
X14666214Y-12703071D01*
X14651928Y-12688786D01*
X14623357Y-12674500D01*
X14566214Y-12674500D01*
X14537643Y-12688786D01*
X14523357Y-12703071D01*
X14509071Y-12731643D01*
X14794786Y-12560214D02*
X14794786Y-12617357D01*
X14909071Y-12560214D02*
X14909071Y-12617357D01*
X15351928Y-12974500D02*
X15337643Y-12960214D01*
X15309071Y-12917357D01*
X15294786Y-12888786D01*
X15280500Y-12845929D01*
X15266214Y-12774500D01*
X15266214Y-12717357D01*
X15280500Y-12645929D01*
X15294786Y-12603071D01*
X15309071Y-12574500D01*
X15337643Y-12531643D01*
X15351928Y-12517357D01*
X15594786Y-12660214D02*
X15594786Y-12860214D01*
X15523357Y-12545929D02*
X15451928Y-12760214D01*
X15637643Y-12760214D01*
X15809071Y-12560214D02*
X15837643Y-12560214D01*
X15866214Y-12574500D01*
X15880500Y-12588786D01*
X15894786Y-12617357D01*
X15909071Y-12674500D01*
X15909071Y-12745929D01*
X15894786Y-12803071D01*
X15880500Y-12831643D01*
X15866214Y-12845929D01*
X15837643Y-12860214D01*
X15809071Y-12860214D01*
X15780500Y-12845929D01*
X15766214Y-12831643D01*
X15751928Y-12803071D01*
X15737643Y-12745929D01*
X15737643Y-12674500D01*
X15751928Y-12617357D01*
X15766214Y-12588786D01*
X15780500Y-12574500D01*
X15809071Y-12560214D01*
X16266214Y-12860214D02*
X16266214Y-12560214D01*
X16394786Y-12860214D02*
X16394786Y-12703071D01*
X16380500Y-12674500D01*
X16351928Y-12660214D01*
X16309071Y-12660214D01*
X16280500Y-12674500D01*
X16266214Y-12688786D01*
X16580500Y-12860214D02*
X16551928Y-12845929D01*
X16537643Y-12831643D01*
X16523357Y-12803071D01*
X16523357Y-12717357D01*
X16537643Y-12688786D01*
X16551928Y-12674500D01*
X16580500Y-12660214D01*
X16623357Y-12660214D01*
X16651928Y-12674500D01*
X16666214Y-12688786D01*
X16680500Y-12717357D01*
X16680500Y-12803071D01*
X16666214Y-12831643D01*
X16651928Y-12845929D01*
X16623357Y-12860214D01*
X16580500Y-12860214D01*
X16851928Y-12860214D02*
X16823357Y-12845929D01*
X16809071Y-12817357D01*
X16809071Y-12560214D01*
X17080500Y-12845929D02*
X17051928Y-12860214D01*
X16994786Y-12860214D01*
X16966214Y-12845929D01*
X16951928Y-12817357D01*
X16951928Y-12703071D01*
X16966214Y-12674500D01*
X16994786Y-12660214D01*
X17051928Y-12660214D01*
X17080500Y-12674500D01*
X17094786Y-12703071D01*
X17094786Y-12731643D01*
X16951928Y-12760214D01*
X17209071Y-12845929D02*
X17237643Y-12860214D01*
X17294786Y-12860214D01*
X17323357Y-12845929D01*
X17337643Y-12817357D01*
X17337643Y-12803071D01*
X17323357Y-12774500D01*
X17294786Y-12760214D01*
X17251928Y-12760214D01*
X17223357Y-12745929D01*
X17209071Y-12717357D01*
X17209071Y-12703071D01*
X17223357Y-12674500D01*
X17251928Y-12660214D01*
X17294786Y-12660214D01*
X17323357Y-12674500D01*
X17437643Y-12974500D02*
X17451928Y-12960214D01*
X17480500Y-12917357D01*
X17494786Y-12888786D01*
X17509071Y-12845929D01*
X17523357Y-12774500D01*
X17523357Y-12717357D01*
X17509071Y-12645929D01*
X17494786Y-12603071D01*
X17480500Y-12574500D01*
X17451928Y-12531643D01*
X17437643Y-12517357D01*
X10635500Y-13090500D02*
X10635500Y-13150500D01*
X10605500Y-13120500D02*
X10665500Y-13120500D01*
X11009071Y-12956214D02*
X11037643Y-12956214D01*
X11066214Y-12970500D01*
X11080500Y-12984786D01*
X11094786Y-13013357D01*
X11109071Y-13070500D01*
X11109071Y-13141929D01*
X11094786Y-13199071D01*
X11080500Y-13227643D01*
X11066214Y-13241929D01*
X11037643Y-13256214D01*
X11009071Y-13256214D01*
X10980500Y-13241929D01*
X10966214Y-13227643D01*
X10951928Y-13199071D01*
X10937643Y-13141929D01*
X10937643Y-13070500D01*
X10951928Y-13013357D01*
X10966214Y-12984786D01*
X10980500Y-12970500D01*
X11009071Y-12956214D01*
X11237643Y-13227643D02*
X11251928Y-13241929D01*
X11237643Y-13256214D01*
X11223357Y-13241929D01*
X11237643Y-13227643D01*
X11237643Y-13256214D01*
X11509071Y-12956214D02*
X11451928Y-12956214D01*
X11423357Y-12970500D01*
X11409071Y-12984786D01*
X11380500Y-13027643D01*
X11366214Y-13084786D01*
X11366214Y-13199071D01*
X11380500Y-13227643D01*
X11394786Y-13241929D01*
X11423357Y-13256214D01*
X11480500Y-13256214D01*
X11509071Y-13241929D01*
X11523357Y-13227643D01*
X11537643Y-13199071D01*
X11537643Y-13127643D01*
X11523357Y-13099071D01*
X11509071Y-13084786D01*
X11480500Y-13070500D01*
X11423357Y-13070500D01*
X11394786Y-13084786D01*
X11380500Y-13099071D01*
X11366214Y-13127643D01*
X11723357Y-12956214D02*
X11751928Y-12956214D01*
X11780500Y-12970500D01*
X11794786Y-12984786D01*
X11809071Y-13013357D01*
X11823357Y-13070500D01*
X11823357Y-13141929D01*
X11809071Y-13199071D01*
X11794786Y-13227643D01*
X11780500Y-13241929D01*
X11751928Y-13256214D01*
X11723357Y-13256214D01*
X11694786Y-13241929D01*
X11680500Y-13227643D01*
X11666214Y-13199071D01*
X11651928Y-13141929D01*
X11651928Y-13070500D01*
X11666214Y-13013357D01*
X11680500Y-12984786D01*
X11694786Y-12970500D01*
X11723357Y-12956214D01*
X11951928Y-13256214D02*
X11951928Y-13056214D01*
X11951928Y-13084786D02*
X11966214Y-13070500D01*
X11994786Y-13056214D01*
X12037643Y-13056214D01*
X12066214Y-13070500D01*
X12080500Y-13099071D01*
X12080500Y-13256214D01*
X12080500Y-13099071D02*
X12094786Y-13070500D01*
X12123357Y-13056214D01*
X12166214Y-13056214D01*
X12194786Y-13070500D01*
X12209071Y-13099071D01*
X12209071Y-13256214D01*
X12351928Y-13256214D02*
X12351928Y-13056214D01*
X12351928Y-13084786D02*
X12366214Y-13070500D01*
X12394786Y-13056214D01*
X12437643Y-13056214D01*
X12466214Y-13070500D01*
X12480500Y-13099071D01*
X12480500Y-13256214D01*
X12480500Y-13099071D02*
X12494786Y-13070500D01*
X12523357Y-13056214D01*
X12566214Y-13056214D01*
X12594786Y-13070500D01*
X12609071Y-13099071D01*
X12609071Y-13256214D01*
X13194786Y-12941929D02*
X12937643Y-13327643D01*
X13580500Y-12956214D02*
X13609071Y-12956214D01*
X13637643Y-12970500D01*
X13651928Y-12984786D01*
X13666214Y-13013357D01*
X13680500Y-13070500D01*
X13680500Y-13141929D01*
X13666214Y-13199071D01*
X13651928Y-13227643D01*
X13637643Y-13241929D01*
X13609071Y-13256214D01*
X13580500Y-13256214D01*
X13551928Y-13241929D01*
X13537643Y-13227643D01*
X13523357Y-13199071D01*
X13509071Y-13141929D01*
X13509071Y-13070500D01*
X13523357Y-13013357D01*
X13537643Y-12984786D01*
X13551928Y-12970500D01*
X13580500Y-12956214D01*
X13809071Y-13227643D02*
X13823357Y-13241929D01*
X13809071Y-13256214D01*
X13794786Y-13241929D01*
X13809071Y-13227643D01*
X13809071Y-13256214D01*
X14009071Y-12956214D02*
X14037643Y-12956214D01*
X14066214Y-12970500D01*
X14080500Y-12984786D01*
X14094786Y-13013357D01*
X14109071Y-13070500D01*
X14109071Y-13141929D01*
X14094786Y-13199071D01*
X14080500Y-13227643D01*
X14066214Y-13241929D01*
X14037643Y-13256214D01*
X14009071Y-13256214D01*
X13980500Y-13241929D01*
X13966214Y-13227643D01*
X13951928Y-13199071D01*
X13937643Y-13141929D01*
X13937643Y-13070500D01*
X13951928Y-13013357D01*
X13966214Y-12984786D01*
X13980500Y-12970500D01*
X14009071Y-12956214D01*
X14223357Y-12984786D02*
X14237643Y-12970500D01*
X14266214Y-12956214D01*
X14337643Y-12956214D01*
X14366214Y-12970500D01*
X14380500Y-12984786D01*
X14394786Y-13013357D01*
X14394786Y-13041929D01*
X14380500Y-13084786D01*
X14209071Y-13256214D01*
X14394786Y-13256214D01*
X14651928Y-13056214D02*
X14651928Y-13256214D01*
X14580500Y-12941929D02*
X14509071Y-13156214D01*
X14694786Y-13156214D01*
X14794786Y-12956214D02*
X14794786Y-13013357D01*
X14909071Y-12956214D02*
X14909071Y-13013357D01*
X15351928Y-13370500D02*
X15337643Y-13356214D01*
X15309071Y-13313357D01*
X15294786Y-13284786D01*
X15280500Y-13241929D01*
X15266214Y-13170500D01*
X15266214Y-13113357D01*
X15280500Y-13041929D01*
X15294786Y-12999071D01*
X15309071Y-12970500D01*
X15337643Y-12927643D01*
X15351928Y-12913357D01*
X15523357Y-12956214D02*
X15551928Y-12956214D01*
X15580500Y-12970500D01*
X15594786Y-12984786D01*
X15609071Y-13013357D01*
X15623357Y-13070500D01*
X15623357Y-13141929D01*
X15609071Y-13199071D01*
X15594786Y-13227643D01*
X15580500Y-13241929D01*
X15551928Y-13256214D01*
X15523357Y-13256214D01*
X15494786Y-13241929D01*
X15480500Y-13227643D01*
X15466214Y-13199071D01*
X15451928Y-13141929D01*
X15451928Y-13070500D01*
X15466214Y-13013357D01*
X15480500Y-12984786D01*
X15494786Y-12970500D01*
X15523357Y-12956214D01*
X15980500Y-13256214D02*
X15980500Y-12956214D01*
X16109071Y-13256214D02*
X16109071Y-13099071D01*
X16094786Y-13070500D01*
X16066214Y-13056214D01*
X16023357Y-13056214D01*
X15994786Y-13070500D01*
X15980500Y-13084786D01*
X16294786Y-13256214D02*
X16266214Y-13241929D01*
X16251928Y-13227643D01*
X16237643Y-13199071D01*
X16237643Y-13113357D01*
X16251928Y-13084786D01*
X16266214Y-13070500D01*
X16294786Y-13056214D01*
X16337643Y-13056214D01*
X16366214Y-13070500D01*
X16380500Y-13084786D01*
X16394786Y-13113357D01*
X16394786Y-13199071D01*
X16380500Y-13227643D01*
X16366214Y-13241929D01*
X16337643Y-13256214D01*
X16294786Y-13256214D01*
X16566214Y-13256214D02*
X16537643Y-13241929D01*
X16523357Y-13213357D01*
X16523357Y-12956214D01*
X16794786Y-13241929D02*
X16766214Y-13256214D01*
X16709071Y-13256214D01*
X16680500Y-13241929D01*
X16666214Y-13213357D01*
X16666214Y-13099071D01*
X16680500Y-13070500D01*
X16709071Y-13056214D01*
X16766214Y-13056214D01*
X16794786Y-13070500D01*
X16809071Y-13099071D01*
X16809071Y-13127643D01*
X16666214Y-13156214D01*
X16923357Y-13241929D02*
X16951928Y-13256214D01*
X17009071Y-13256214D01*
X17037643Y-13241929D01*
X17051928Y-13213357D01*
X17051928Y-13199071D01*
X17037643Y-13170500D01*
X17009071Y-13156214D01*
X16966214Y-13156214D01*
X16937643Y-13141929D01*
X16923357Y-13113357D01*
X16923357Y-13099071D01*
X16937643Y-13070500D01*
X16966214Y-13056214D01*
X17009071Y-13056214D01*
X17037643Y-13070500D01*
X17409071Y-13141929D02*
X17637643Y-13141929D01*
X17523357Y-13256214D02*
X17523357Y-13027643D01*
X18137643Y-13056214D02*
X18137643Y-13256214D01*
X18066214Y-12941929D02*
X17994786Y-13156214D01*
X18180500Y-13156214D01*
X18509071Y-13241929D02*
X18537643Y-13256214D01*
X18594786Y-13256214D01*
X18623357Y-13241929D01*
X18637643Y-13213357D01*
X18637643Y-13199071D01*
X18623357Y-13170500D01*
X18594786Y-13156214D01*
X18551928Y-13156214D01*
X18523357Y-13141929D01*
X18509071Y-13113357D01*
X18509071Y-13099071D01*
X18523357Y-13070500D01*
X18551928Y-13056214D01*
X18594786Y-13056214D01*
X18623357Y-13070500D01*
X18809071Y-13256214D02*
X18780500Y-13241929D01*
X18766214Y-13213357D01*
X18766214Y-12956214D01*
X18966214Y-13256214D02*
X18937643Y-13241929D01*
X18923357Y-13227643D01*
X18909071Y-13199071D01*
X18909071Y-13113357D01*
X18923357Y-13084786D01*
X18937643Y-13070500D01*
X18966214Y-13056214D01*
X19009071Y-13056214D01*
X19037643Y-13070500D01*
X19051928Y-13084786D01*
X19066214Y-13113357D01*
X19066214Y-13199071D01*
X19051928Y-13227643D01*
X19037643Y-13241929D01*
X19009071Y-13256214D01*
X18966214Y-13256214D01*
X19151928Y-13056214D02*
X19266214Y-13056214D01*
X19194786Y-12956214D02*
X19194786Y-13213357D01*
X19209071Y-13241929D01*
X19237643Y-13256214D01*
X19266214Y-13256214D01*
X19351928Y-13241929D02*
X19380500Y-13256214D01*
X19437643Y-13256214D01*
X19466214Y-13241929D01*
X19480500Y-13213357D01*
X19480500Y-13199071D01*
X19466214Y-13170500D01*
X19437643Y-13156214D01*
X19394786Y-13156214D01*
X19366214Y-13141929D01*
X19351928Y-13113357D01*
X19351928Y-13099071D01*
X19366214Y-13070500D01*
X19394786Y-13056214D01*
X19437643Y-13056214D01*
X19466214Y-13070500D01*
X19580500Y-13370500D02*
X19594786Y-13356214D01*
X19623357Y-13313357D01*
X19637643Y-13284786D01*
X19651928Y-13241929D01*
X19666214Y-13170500D01*
X19666214Y-13113357D01*
X19651928Y-13041929D01*
X19637643Y-12999071D01*
X19623357Y-12970500D01*
X19594786Y-12927643D01*
X19580500Y-12913357D01*
X10650856Y-13551856D02*
X10650856Y-13481144D01*
X10580144Y-13481144D01*
X10580144Y-13551856D01*
X10650856Y-13551856D01*
X11109071Y-13652214D02*
X10937643Y-13652214D01*
X11023357Y-13652214D02*
X11023357Y-13352214D01*
X10994786Y-13395071D01*
X10966214Y-13423643D01*
X10937643Y-13437929D01*
X11237643Y-13623643D02*
X11251928Y-13637929D01*
X11237643Y-13652214D01*
X11223357Y-13637929D01*
X11237643Y-13623643D01*
X11237643Y-13652214D01*
X11437643Y-13352214D02*
X11466214Y-13352214D01*
X11494786Y-13366500D01*
X11509071Y-13380786D01*
X11523357Y-13409357D01*
X11537643Y-13466500D01*
X11537643Y-13537929D01*
X11523357Y-13595071D01*
X11509071Y-13623643D01*
X11494786Y-13637929D01*
X11466214Y-13652214D01*
X11437643Y-13652214D01*
X11409071Y-13637929D01*
X11394786Y-13623643D01*
X11380500Y-13595071D01*
X11366214Y-13537929D01*
X11366214Y-13466500D01*
X11380500Y-13409357D01*
X11394786Y-13380786D01*
X11409071Y-13366500D01*
X11437643Y-13352214D01*
X11723357Y-13352214D02*
X11751928Y-13352214D01*
X11780500Y-13366500D01*
X11794786Y-13380786D01*
X11809071Y-13409357D01*
X11823357Y-13466500D01*
X11823357Y-13537929D01*
X11809071Y-13595071D01*
X11794786Y-13623643D01*
X11780500Y-13637929D01*
X11751928Y-13652214D01*
X11723357Y-13652214D01*
X11694786Y-13637929D01*
X11680500Y-13623643D01*
X11666214Y-13595071D01*
X11651928Y-13537929D01*
X11651928Y-13466500D01*
X11666214Y-13409357D01*
X11680500Y-13380786D01*
X11694786Y-13366500D01*
X11723357Y-13352214D01*
X11951928Y-13652214D02*
X11951928Y-13452214D01*
X11951928Y-13480786D02*
X11966214Y-13466500D01*
X11994786Y-13452214D01*
X12037643Y-13452214D01*
X12066214Y-13466500D01*
X12080500Y-13495071D01*
X12080500Y-13652214D01*
X12080500Y-13495071D02*
X12094786Y-13466500D01*
X12123357Y-13452214D01*
X12166214Y-13452214D01*
X12194786Y-13466500D01*
X12209071Y-13495071D01*
X12209071Y-13652214D01*
X12351928Y-13652214D02*
X12351928Y-13452214D01*
X12351928Y-13480786D02*
X12366214Y-13466500D01*
X12394786Y-13452214D01*
X12437643Y-13452214D01*
X12466214Y-13466500D01*
X12480500Y-13495071D01*
X12480500Y-13652214D01*
X12480500Y-13495071D02*
X12494786Y-13466500D01*
X12523357Y-13452214D01*
X12566214Y-13452214D01*
X12594786Y-13466500D01*
X12609071Y-13495071D01*
X12609071Y-13652214D01*
X13194786Y-13337929D02*
X12937643Y-13723643D01*
X13580500Y-13352214D02*
X13609071Y-13352214D01*
X13637643Y-13366500D01*
X13651928Y-13380786D01*
X13666214Y-13409357D01*
X13680500Y-13466500D01*
X13680500Y-13537929D01*
X13666214Y-13595071D01*
X13651928Y-13623643D01*
X13637643Y-13637929D01*
X13609071Y-13652214D01*
X13580500Y-13652214D01*
X13551928Y-13637929D01*
X13537643Y-13623643D01*
X13523357Y-13595071D01*
X13509071Y-13537929D01*
X13509071Y-13466500D01*
X13523357Y-13409357D01*
X13537643Y-13380786D01*
X13551928Y-13366500D01*
X13580500Y-13352214D01*
X13809071Y-13623643D02*
X13823357Y-13637929D01*
X13809071Y-13652214D01*
X13794786Y-13637929D01*
X13809071Y-13623643D01*
X13809071Y-13652214D01*
X14009071Y-13352214D02*
X14037643Y-13352214D01*
X14066214Y-13366500D01*
X14080500Y-13380786D01*
X14094786Y-13409357D01*
X14109071Y-13466500D01*
X14109071Y-13537929D01*
X14094786Y-13595071D01*
X14080500Y-13623643D01*
X14066214Y-13637929D01*
X14037643Y-13652214D01*
X14009071Y-13652214D01*
X13980500Y-13637929D01*
X13966214Y-13623643D01*
X13951928Y-13595071D01*
X13937643Y-13537929D01*
X13937643Y-13466500D01*
X13951928Y-13409357D01*
X13966214Y-13380786D01*
X13980500Y-13366500D01*
X14009071Y-13352214D01*
X14209071Y-13352214D02*
X14394786Y-13352214D01*
X14294786Y-13466500D01*
X14337643Y-13466500D01*
X14366214Y-13480786D01*
X14380500Y-13495071D01*
X14394786Y-13523643D01*
X14394786Y-13595071D01*
X14380500Y-13623643D01*
X14366214Y-13637929D01*
X14337643Y-13652214D01*
X14251928Y-13652214D01*
X14223357Y-13637929D01*
X14209071Y-13623643D01*
X14537643Y-13652214D02*
X14594786Y-13652214D01*
X14623357Y-13637929D01*
X14637643Y-13623643D01*
X14666214Y-13580786D01*
X14680500Y-13523643D01*
X14680500Y-13409357D01*
X14666214Y-13380786D01*
X14651928Y-13366500D01*
X14623357Y-13352214D01*
X14566214Y-13352214D01*
X14537643Y-13366500D01*
X14523357Y-13380786D01*
X14509071Y-13409357D01*
X14509071Y-13480786D01*
X14523357Y-13509357D01*
X14537643Y-13523643D01*
X14566214Y-13537929D01*
X14623357Y-13537929D01*
X14651928Y-13523643D01*
X14666214Y-13509357D01*
X14680500Y-13480786D01*
X14794786Y-13352214D02*
X14794786Y-13409357D01*
X14909071Y-13352214D02*
X14909071Y-13409357D01*
X15351928Y-13766500D02*
X15337643Y-13752214D01*
X15309071Y-13709357D01*
X15294786Y-13680786D01*
X15280500Y-13637929D01*
X15266214Y-13566500D01*
X15266214Y-13509357D01*
X15280500Y-13437929D01*
X15294786Y-13395071D01*
X15309071Y-13366500D01*
X15337643Y-13323643D01*
X15351928Y-13309357D01*
X15623357Y-13652214D02*
X15451928Y-13652214D01*
X15537643Y-13652214D02*
X15537643Y-13352214D01*
X15509071Y-13395071D01*
X15480500Y-13423643D01*
X15451928Y-13437929D01*
X15723357Y-13352214D02*
X15923357Y-13352214D01*
X15794786Y-13652214D01*
X16266214Y-13652214D02*
X16266214Y-13352214D01*
X16394786Y-13652214D02*
X16394786Y-13495071D01*
X16380500Y-13466500D01*
X16351928Y-13452214D01*
X16309071Y-13452214D01*
X16280500Y-13466500D01*
X16266214Y-13480786D01*
X16580500Y-13652214D02*
X16551928Y-13637929D01*
X16537643Y-13623643D01*
X16523357Y-13595071D01*
X16523357Y-13509357D01*
X16537643Y-13480786D01*
X16551928Y-13466500D01*
X16580500Y-13452214D01*
X16623357Y-13452214D01*
X16651928Y-13466500D01*
X16666214Y-13480786D01*
X16680500Y-13509357D01*
X16680500Y-13595071D01*
X16666214Y-13623643D01*
X16651928Y-13637929D01*
X16623357Y-13652214D01*
X16580500Y-13652214D01*
X16851928Y-13652214D02*
X16823357Y-13637929D01*
X16809071Y-13609357D01*
X16809071Y-13352214D01*
X17080500Y-13637929D02*
X17051928Y-13652214D01*
X16994786Y-13652214D01*
X16966214Y-13637929D01*
X16951928Y-13609357D01*
X16951928Y-13495071D01*
X16966214Y-13466500D01*
X16994786Y-13452214D01*
X17051928Y-13452214D01*
X17080500Y-13466500D01*
X17094786Y-13495071D01*
X17094786Y-13523643D01*
X16951928Y-13552214D01*
X17209071Y-13637929D02*
X17237643Y-13652214D01*
X17294786Y-13652214D01*
X17323357Y-13637929D01*
X17337643Y-13609357D01*
X17337643Y-13595071D01*
X17323357Y-13566500D01*
X17294786Y-13552214D01*
X17251928Y-13552214D01*
X17223357Y-13537929D01*
X17209071Y-13509357D01*
X17209071Y-13495071D01*
X17223357Y-13466500D01*
X17251928Y-13452214D01*
X17294786Y-13452214D01*
X17323357Y-13466500D01*
X17437643Y-13766500D02*
X17451928Y-13752214D01*
X17480500Y-13709357D01*
X17494786Y-13680786D01*
X17509071Y-13637929D01*
X17523357Y-13566500D01*
X17523357Y-13509357D01*
X17509071Y-13437929D01*
X17494786Y-13395071D01*
X17480500Y-13366500D01*
X17451928Y-13323643D01*
X17437643Y-13309357D01*
X10595500Y-13982500D02*
X10665500Y-13912500D01*
X10595500Y-13842500D01*
X10525500Y-13912500D01*
X10595500Y-13982500D01*
X11109071Y-14048214D02*
X10937643Y-14048214D01*
X11023357Y-14048214D02*
X11023357Y-13748214D01*
X10994786Y-13791071D01*
X10966214Y-13819643D01*
X10937643Y-13833929D01*
X11237643Y-14019643D02*
X11251928Y-14033929D01*
X11237643Y-14048214D01*
X11223357Y-14033929D01*
X11237643Y-14019643D01*
X11237643Y-14048214D01*
X11509071Y-13848214D02*
X11509071Y-14048214D01*
X11437643Y-13733929D02*
X11366214Y-13948214D01*
X11551928Y-13948214D01*
X11723357Y-13748214D02*
X11751928Y-13748214D01*
X11780500Y-13762500D01*
X11794786Y-13776786D01*
X11809071Y-13805357D01*
X11823357Y-13862500D01*
X11823357Y-13933929D01*
X11809071Y-13991071D01*
X11794786Y-14019643D01*
X11780500Y-14033929D01*
X11751928Y-14048214D01*
X11723357Y-14048214D01*
X11694786Y-14033929D01*
X11680500Y-14019643D01*
X11666214Y-13991071D01*
X11651928Y-13933929D01*
X11651928Y-13862500D01*
X11666214Y-13805357D01*
X11680500Y-13776786D01*
X11694786Y-13762500D01*
X11723357Y-13748214D01*
X11951928Y-14048214D02*
X11951928Y-13848214D01*
X11951928Y-13876786D02*
X11966214Y-13862500D01*
X11994786Y-13848214D01*
X12037643Y-13848214D01*
X12066214Y-13862500D01*
X12080500Y-13891071D01*
X12080500Y-14048214D01*
X12080500Y-13891071D02*
X12094786Y-13862500D01*
X12123357Y-13848214D01*
X12166214Y-13848214D01*
X12194786Y-13862500D01*
X12209071Y-13891071D01*
X12209071Y-14048214D01*
X12351928Y-14048214D02*
X12351928Y-13848214D01*
X12351928Y-13876786D02*
X12366214Y-13862500D01*
X12394786Y-13848214D01*
X12437643Y-13848214D01*
X12466214Y-13862500D01*
X12480500Y-13891071D01*
X12480500Y-14048214D01*
X12480500Y-13891071D02*
X12494786Y-13862500D01*
X12523357Y-13848214D01*
X12566214Y-13848214D01*
X12594786Y-13862500D01*
X12609071Y-13891071D01*
X12609071Y-14048214D01*
X13194786Y-13733929D02*
X12937643Y-14119643D01*
X13580500Y-13748214D02*
X13609071Y-13748214D01*
X13637643Y-13762500D01*
X13651928Y-13776786D01*
X13666214Y-13805357D01*
X13680500Y-13862500D01*
X13680500Y-13933929D01*
X13666214Y-13991071D01*
X13651928Y-14019643D01*
X13637643Y-14033929D01*
X13609071Y-14048214D01*
X13580500Y-14048214D01*
X13551928Y-14033929D01*
X13537643Y-14019643D01*
X13523357Y-13991071D01*
X13509071Y-13933929D01*
X13509071Y-13862500D01*
X13523357Y-13805357D01*
X13537643Y-13776786D01*
X13551928Y-13762500D01*
X13580500Y-13748214D01*
X13809071Y-14019643D02*
X13823357Y-14033929D01*
X13809071Y-14048214D01*
X13794786Y-14033929D01*
X13809071Y-14019643D01*
X13809071Y-14048214D01*
X14009071Y-13748214D02*
X14037643Y-13748214D01*
X14066214Y-13762500D01*
X14080500Y-13776786D01*
X14094786Y-13805357D01*
X14109071Y-13862500D01*
X14109071Y-13933929D01*
X14094786Y-13991071D01*
X14080500Y-14019643D01*
X14066214Y-14033929D01*
X14037643Y-14048214D01*
X14009071Y-14048214D01*
X13980500Y-14033929D01*
X13966214Y-14019643D01*
X13951928Y-13991071D01*
X13937643Y-13933929D01*
X13937643Y-13862500D01*
X13951928Y-13805357D01*
X13966214Y-13776786D01*
X13980500Y-13762500D01*
X14009071Y-13748214D01*
X14380500Y-13748214D02*
X14237643Y-13748214D01*
X14223357Y-13891071D01*
X14237643Y-13876786D01*
X14266214Y-13862500D01*
X14337643Y-13862500D01*
X14366214Y-13876786D01*
X14380500Y-13891071D01*
X14394786Y-13919643D01*
X14394786Y-13991071D01*
X14380500Y-14019643D01*
X14366214Y-14033929D01*
X14337643Y-14048214D01*
X14266214Y-14048214D01*
X14237643Y-14033929D01*
X14223357Y-14019643D01*
X14666214Y-13748214D02*
X14523357Y-13748214D01*
X14509071Y-13891071D01*
X14523357Y-13876786D01*
X14551928Y-13862500D01*
X14623357Y-13862500D01*
X14651928Y-13876786D01*
X14666214Y-13891071D01*
X14680500Y-13919643D01*
X14680500Y-13991071D01*
X14666214Y-14019643D01*
X14651928Y-14033929D01*
X14623357Y-14048214D01*
X14551928Y-14048214D01*
X14523357Y-14033929D01*
X14509071Y-14019643D01*
X14794786Y-13748214D02*
X14794786Y-13805357D01*
X14909071Y-13748214D02*
X14909071Y-13805357D01*
X15351928Y-14162500D02*
X15337643Y-14148214D01*
X15309071Y-14105357D01*
X15294786Y-14076786D01*
X15280500Y-14033929D01*
X15266214Y-13962500D01*
X15266214Y-13905357D01*
X15280500Y-13833929D01*
X15294786Y-13791071D01*
X15309071Y-13762500D01*
X15337643Y-13719643D01*
X15351928Y-13705357D01*
X15437643Y-13748214D02*
X15623357Y-13748214D01*
X15523357Y-13862500D01*
X15566214Y-13862500D01*
X15594786Y-13876786D01*
X15609071Y-13891071D01*
X15623357Y-13919643D01*
X15623357Y-13991071D01*
X15609071Y-14019643D01*
X15594786Y-14033929D01*
X15566214Y-14048214D01*
X15480500Y-14048214D01*
X15451928Y-14033929D01*
X15437643Y-14019643D01*
X15980500Y-14048214D02*
X15980500Y-13748214D01*
X16109071Y-14048214D02*
X16109071Y-13891071D01*
X16094786Y-13862500D01*
X16066214Y-13848214D01*
X16023357Y-13848214D01*
X15994786Y-13862500D01*
X15980500Y-13876786D01*
X16294786Y-14048214D02*
X16266214Y-14033929D01*
X16251928Y-14019643D01*
X16237643Y-13991071D01*
X16237643Y-13905357D01*
X16251928Y-13876786D01*
X16266214Y-13862500D01*
X16294786Y-13848214D01*
X16337643Y-13848214D01*
X16366214Y-13862500D01*
X16380500Y-13876786D01*
X16394786Y-13905357D01*
X16394786Y-13991071D01*
X16380500Y-14019643D01*
X16366214Y-14033929D01*
X16337643Y-14048214D01*
X16294786Y-14048214D01*
X16566214Y-14048214D02*
X16537643Y-14033929D01*
X16523357Y-14005357D01*
X16523357Y-13748214D01*
X16794786Y-14033929D02*
X16766214Y-14048214D01*
X16709071Y-14048214D01*
X16680500Y-14033929D01*
X16666214Y-14005357D01*
X16666214Y-13891071D01*
X16680500Y-13862500D01*
X16709071Y-13848214D01*
X16766214Y-13848214D01*
X16794786Y-13862500D01*
X16809071Y-13891071D01*
X16809071Y-13919643D01*
X16666214Y-13948214D01*
X16923357Y-14033929D02*
X16951928Y-14048214D01*
X17009071Y-14048214D01*
X17037643Y-14033929D01*
X17051928Y-14005357D01*
X17051928Y-13991071D01*
X17037643Y-13962500D01*
X17009071Y-13948214D01*
X16966214Y-13948214D01*
X16937643Y-13933929D01*
X16923357Y-13905357D01*
X16923357Y-13891071D01*
X16937643Y-13862500D01*
X16966214Y-13848214D01*
X17009071Y-13848214D01*
X17037643Y-13862500D01*
X17151928Y-14162500D02*
X17166214Y-14148214D01*
X17194786Y-14105357D01*
X17209071Y-14076786D01*
X17223357Y-14033929D01*
X17237643Y-13962500D01*
X17237643Y-13905357D01*
X17223357Y-13833929D01*
X17209071Y-13791071D01*
X17194786Y-13762500D01*
X17166214Y-13719643D01*
X17151928Y-13705357D01*
X10445500Y-14198500D02*
X10665500Y-14418500D01*
X10665500Y-14198500D02*
X10445500Y-14418500D01*
X10665500Y-14308500D02*
G75*
G03X10665500Y-14308500I-110000J0D01*
G01*
X10937643Y-14172786D02*
X10951928Y-14158500D01*
X10980500Y-14144214D01*
X11051928Y-14144214D01*
X11080500Y-14158500D01*
X11094786Y-14172786D01*
X11109071Y-14201357D01*
X11109071Y-14229929D01*
X11094786Y-14272786D01*
X10923357Y-14444214D01*
X11109071Y-14444214D01*
X11237643Y-14415643D02*
X11251928Y-14429929D01*
X11237643Y-14444214D01*
X11223357Y-14429929D01*
X11237643Y-14415643D01*
X11237643Y-14444214D01*
X11366214Y-14172786D02*
X11380500Y-14158500D01*
X11409071Y-14144214D01*
X11480500Y-14144214D01*
X11509071Y-14158500D01*
X11523357Y-14172786D01*
X11537643Y-14201357D01*
X11537643Y-14229929D01*
X11523357Y-14272786D01*
X11351928Y-14444214D01*
X11537643Y-14444214D01*
X11723357Y-14144214D02*
X11751928Y-14144214D01*
X11780500Y-14158500D01*
X11794786Y-14172786D01*
X11809071Y-14201357D01*
X11823357Y-14258500D01*
X11823357Y-14329929D01*
X11809071Y-14387071D01*
X11794786Y-14415643D01*
X11780500Y-14429929D01*
X11751928Y-14444214D01*
X11723357Y-14444214D01*
X11694786Y-14429929D01*
X11680500Y-14415643D01*
X11666214Y-14387071D01*
X11651928Y-14329929D01*
X11651928Y-14258500D01*
X11666214Y-14201357D01*
X11680500Y-14172786D01*
X11694786Y-14158500D01*
X11723357Y-14144214D01*
X11951928Y-14444214D02*
X11951928Y-14244214D01*
X11951928Y-14272786D02*
X11966214Y-14258500D01*
X11994786Y-14244214D01*
X12037643Y-14244214D01*
X12066214Y-14258500D01*
X12080500Y-14287071D01*
X12080500Y-14444214D01*
X12080500Y-14287071D02*
X12094786Y-14258500D01*
X12123357Y-14244214D01*
X12166214Y-14244214D01*
X12194786Y-14258500D01*
X12209071Y-14287071D01*
X12209071Y-14444214D01*
X12351928Y-14444214D02*
X12351928Y-14244214D01*
X12351928Y-14272786D02*
X12366214Y-14258500D01*
X12394786Y-14244214D01*
X12437643Y-14244214D01*
X12466214Y-14258500D01*
X12480500Y-14287071D01*
X12480500Y-14444214D01*
X12480500Y-14287071D02*
X12494786Y-14258500D01*
X12523357Y-14244214D01*
X12566214Y-14244214D01*
X12594786Y-14258500D01*
X12609071Y-14287071D01*
X12609071Y-14444214D01*
X13194786Y-14129929D02*
X12937643Y-14515643D01*
X13580500Y-14144214D02*
X13609071Y-14144214D01*
X13637643Y-14158500D01*
X13651928Y-14172786D01*
X13666214Y-14201357D01*
X13680500Y-14258500D01*
X13680500Y-14329929D01*
X13666214Y-14387071D01*
X13651928Y-14415643D01*
X13637643Y-14429929D01*
X13609071Y-14444214D01*
X13580500Y-14444214D01*
X13551928Y-14429929D01*
X13537643Y-14415643D01*
X13523357Y-14387071D01*
X13509071Y-14329929D01*
X13509071Y-14258500D01*
X13523357Y-14201357D01*
X13537643Y-14172786D01*
X13551928Y-14158500D01*
X13580500Y-14144214D01*
X13809071Y-14415643D02*
X13823357Y-14429929D01*
X13809071Y-14444214D01*
X13794786Y-14429929D01*
X13809071Y-14415643D01*
X13809071Y-14444214D01*
X14009071Y-14144214D02*
X14037643Y-14144214D01*
X14066214Y-14158500D01*
X14080500Y-14172786D01*
X14094786Y-14201357D01*
X14109071Y-14258500D01*
X14109071Y-14329929D01*
X14094786Y-14387071D01*
X14080500Y-14415643D01*
X14066214Y-14429929D01*
X14037643Y-14444214D01*
X14009071Y-14444214D01*
X13980500Y-14429929D01*
X13966214Y-14415643D01*
X13951928Y-14387071D01*
X13937643Y-14329929D01*
X13937643Y-14258500D01*
X13951928Y-14201357D01*
X13966214Y-14172786D01*
X13980500Y-14158500D01*
X14009071Y-14144214D01*
X14280500Y-14272786D02*
X14251928Y-14258500D01*
X14237643Y-14244214D01*
X14223357Y-14215643D01*
X14223357Y-14201357D01*
X14237643Y-14172786D01*
X14251928Y-14158500D01*
X14280500Y-14144214D01*
X14337643Y-14144214D01*
X14366214Y-14158500D01*
X14380500Y-14172786D01*
X14394786Y-14201357D01*
X14394786Y-14215643D01*
X14380500Y-14244214D01*
X14366214Y-14258500D01*
X14337643Y-14272786D01*
X14280500Y-14272786D01*
X14251928Y-14287071D01*
X14237643Y-14301357D01*
X14223357Y-14329929D01*
X14223357Y-14387071D01*
X14237643Y-14415643D01*
X14251928Y-14429929D01*
X14280500Y-14444214D01*
X14337643Y-14444214D01*
X14366214Y-14429929D01*
X14380500Y-14415643D01*
X14394786Y-14387071D01*
X14394786Y-14329929D01*
X14380500Y-14301357D01*
X14366214Y-14287071D01*
X14337643Y-14272786D01*
X14494786Y-14144214D02*
X14694786Y-14144214D01*
X14566214Y-14444214D01*
X14794786Y-14144214D02*
X14794786Y-14201357D01*
X14909071Y-14144214D02*
X14909071Y-14201357D01*
X15351928Y-14558500D02*
X15337643Y-14544214D01*
X15309071Y-14501357D01*
X15294786Y-14472786D01*
X15280500Y-14429929D01*
X15266214Y-14358500D01*
X15266214Y-14301357D01*
X15280500Y-14229929D01*
X15294786Y-14187071D01*
X15309071Y-14158500D01*
X15337643Y-14115643D01*
X15351928Y-14101357D01*
X15594786Y-14244214D02*
X15594786Y-14444214D01*
X15523357Y-14129929D02*
X15451928Y-14344214D01*
X15637643Y-14344214D01*
X15980500Y-14444214D02*
X15980500Y-14144214D01*
X16109071Y-14444214D02*
X16109071Y-14287071D01*
X16094786Y-14258500D01*
X16066214Y-14244214D01*
X16023357Y-14244214D01*
X15994786Y-14258500D01*
X15980500Y-14272786D01*
X16294786Y-14444214D02*
X16266214Y-14429929D01*
X16251928Y-14415643D01*
X16237643Y-14387071D01*
X16237643Y-14301357D01*
X16251928Y-14272786D01*
X16266214Y-14258500D01*
X16294786Y-14244214D01*
X16337643Y-14244214D01*
X16366214Y-14258500D01*
X16380500Y-14272786D01*
X16394786Y-14301357D01*
X16394786Y-14387071D01*
X16380500Y-14415643D01*
X16366214Y-14429929D01*
X16337643Y-14444214D01*
X16294786Y-14444214D01*
X16566214Y-14444214D02*
X16537643Y-14429929D01*
X16523357Y-14401357D01*
X16523357Y-14144214D01*
X16794786Y-14429929D02*
X16766214Y-14444214D01*
X16709071Y-14444214D01*
X16680500Y-14429929D01*
X16666214Y-14401357D01*
X16666214Y-14287071D01*
X16680500Y-14258500D01*
X16709071Y-14244214D01*
X16766214Y-14244214D01*
X16794786Y-14258500D01*
X16809071Y-14287071D01*
X16809071Y-14315643D01*
X16666214Y-14344214D01*
X16923357Y-14429929D02*
X16951928Y-14444214D01*
X17009071Y-14444214D01*
X17037643Y-14429929D01*
X17051928Y-14401357D01*
X17051928Y-14387071D01*
X17037643Y-14358500D01*
X17009071Y-14344214D01*
X16966214Y-14344214D01*
X16937643Y-14329929D01*
X16923357Y-14301357D01*
X16923357Y-14287071D01*
X16937643Y-14258500D01*
X16966214Y-14244214D01*
X17009071Y-14244214D01*
X17037643Y-14258500D01*
X17151928Y-14558500D02*
X17166214Y-14544214D01*
X17194786Y-14501357D01*
X17209071Y-14472786D01*
X17223357Y-14429929D01*
X17237643Y-14358500D01*
X17237643Y-14301357D01*
X17223357Y-14229929D01*
X17209071Y-14187071D01*
X17194786Y-14158500D01*
X17166214Y-14115643D01*
X17151928Y-14101357D01*
M02*
