G04 #@! TF.GenerationSoftware,KiCad,Pcbnew,(5.1.5)-2*
G04 #@! TF.CreationDate,2020-03-24T14:46:46+08:00*
G04 #@! TF.ProjectId,ESP32-sensorKit,45535033-322d-4736-956e-736f724b6974,rev?*
G04 #@! TF.SameCoordinates,Original*
G04 #@! TF.FileFunction,Soldermask,Bot*
G04 #@! TF.FilePolarity,Negative*
%FSLAX46Y46*%
G04 Gerber Fmt 4.6, Leading zero omitted, Abs format (unit mm)*
G04 Created by KiCad (PCBNEW (5.1.5)-2) date 2020-03-24 14:46:46*
%MOMM*%
%LPD*%
G04 APERTURE LIST*
%ADD10C,0.100000*%
G04 APERTURE END LIST*
D10*
G36*
X134493000Y-83561000D02*
G01*
X118173500Y-83497500D01*
X118173500Y-81592500D01*
X134493000Y-81592500D01*
X134493000Y-83561000D01*
G37*
X134493000Y-83561000D02*
X118173500Y-83497500D01*
X118173500Y-81592500D01*
X134493000Y-81592500D01*
X134493000Y-83561000D01*
G36*
X139509500Y-97404000D02*
G01*
X125539500Y-97467500D01*
X125539500Y-95626000D01*
X139509500Y-95626000D01*
X139509500Y-97404000D01*
G37*
X139509500Y-97404000D02*
X125539500Y-97467500D01*
X125539500Y-95626000D01*
X139509500Y-95626000D01*
X139509500Y-97404000D01*
G36*
X164105880Y-108625776D02*
G01*
X164486593Y-108701504D01*
X164896249Y-108871189D01*
X165264929Y-109117534D01*
X165578466Y-109431071D01*
X165824811Y-109799751D01*
X165994496Y-110209407D01*
X166081000Y-110644296D01*
X166081000Y-111087704D01*
X165994496Y-111522593D01*
X165824811Y-111932249D01*
X165578466Y-112300929D01*
X165264929Y-112614466D01*
X164896249Y-112860811D01*
X164486593Y-113030496D01*
X164105880Y-113106224D01*
X164051705Y-113117000D01*
X163608295Y-113117000D01*
X163554120Y-113106224D01*
X163173407Y-113030496D01*
X162763751Y-112860811D01*
X162395071Y-112614466D01*
X162081534Y-112300929D01*
X161835189Y-111932249D01*
X161665504Y-111522593D01*
X161579000Y-111087704D01*
X161579000Y-110644296D01*
X161665504Y-110209407D01*
X161835189Y-109799751D01*
X162081534Y-109431071D01*
X162395071Y-109117534D01*
X162763751Y-108871189D01*
X163173407Y-108701504D01*
X163554120Y-108625776D01*
X163608295Y-108615000D01*
X164051705Y-108615000D01*
X164105880Y-108625776D01*
G37*
G36*
X109749880Y-108625776D02*
G01*
X110130593Y-108701504D01*
X110540249Y-108871189D01*
X110908929Y-109117534D01*
X111222466Y-109431071D01*
X111468811Y-109799751D01*
X111638496Y-110209407D01*
X111725000Y-110644296D01*
X111725000Y-111087704D01*
X111638496Y-111522593D01*
X111468811Y-111932249D01*
X111222466Y-112300929D01*
X110908929Y-112614466D01*
X110540249Y-112860811D01*
X110130593Y-113030496D01*
X109749880Y-113106224D01*
X109695705Y-113117000D01*
X109252295Y-113117000D01*
X109198120Y-113106224D01*
X108817407Y-113030496D01*
X108407751Y-112860811D01*
X108039071Y-112614466D01*
X107725534Y-112300929D01*
X107479189Y-111932249D01*
X107309504Y-111522593D01*
X107223000Y-111087704D01*
X107223000Y-110644296D01*
X107309504Y-110209407D01*
X107479189Y-109799751D01*
X107725534Y-109431071D01*
X108039071Y-109117534D01*
X108407751Y-108871189D01*
X108817407Y-108701504D01*
X109198120Y-108625776D01*
X109252295Y-108615000D01*
X109695705Y-108615000D01*
X109749880Y-108625776D01*
G37*
G36*
X119646000Y-112529000D02*
G01*
X117844000Y-112529000D01*
X117844000Y-110727000D01*
X119646000Y-110727000D01*
X119646000Y-112529000D01*
G37*
G36*
X134098512Y-110731927D02*
G01*
X134247812Y-110761624D01*
X134411784Y-110829544D01*
X134559354Y-110928147D01*
X134684853Y-111053646D01*
X134783456Y-111201216D01*
X134851376Y-111365188D01*
X134886000Y-111539259D01*
X134886000Y-111716741D01*
X134851376Y-111890812D01*
X134783456Y-112054784D01*
X134684853Y-112202354D01*
X134559354Y-112327853D01*
X134411784Y-112426456D01*
X134247812Y-112494376D01*
X134098512Y-112524073D01*
X134073742Y-112529000D01*
X133896258Y-112529000D01*
X133871488Y-112524073D01*
X133722188Y-112494376D01*
X133558216Y-112426456D01*
X133410646Y-112327853D01*
X133285147Y-112202354D01*
X133186544Y-112054784D01*
X133118624Y-111890812D01*
X133084000Y-111716741D01*
X133084000Y-111539259D01*
X133118624Y-111365188D01*
X133186544Y-111201216D01*
X133285147Y-111053646D01*
X133410646Y-110928147D01*
X133558216Y-110829544D01*
X133722188Y-110761624D01*
X133871488Y-110731927D01*
X133896258Y-110727000D01*
X134073742Y-110727000D01*
X134098512Y-110731927D01*
G37*
G36*
X131558512Y-110731927D02*
G01*
X131707812Y-110761624D01*
X131871784Y-110829544D01*
X132019354Y-110928147D01*
X132144853Y-111053646D01*
X132243456Y-111201216D01*
X132311376Y-111365188D01*
X132346000Y-111539259D01*
X132346000Y-111716741D01*
X132311376Y-111890812D01*
X132243456Y-112054784D01*
X132144853Y-112202354D01*
X132019354Y-112327853D01*
X131871784Y-112426456D01*
X131707812Y-112494376D01*
X131558512Y-112524073D01*
X131533742Y-112529000D01*
X131356258Y-112529000D01*
X131331488Y-112524073D01*
X131182188Y-112494376D01*
X131018216Y-112426456D01*
X130870646Y-112327853D01*
X130745147Y-112202354D01*
X130646544Y-112054784D01*
X130578624Y-111890812D01*
X130544000Y-111716741D01*
X130544000Y-111539259D01*
X130578624Y-111365188D01*
X130646544Y-111201216D01*
X130745147Y-111053646D01*
X130870646Y-110928147D01*
X131018216Y-110829544D01*
X131182188Y-110761624D01*
X131331488Y-110731927D01*
X131356258Y-110727000D01*
X131533742Y-110727000D01*
X131558512Y-110731927D01*
G37*
G36*
X129018512Y-110731927D02*
G01*
X129167812Y-110761624D01*
X129331784Y-110829544D01*
X129479354Y-110928147D01*
X129604853Y-111053646D01*
X129703456Y-111201216D01*
X129771376Y-111365188D01*
X129806000Y-111539259D01*
X129806000Y-111716741D01*
X129771376Y-111890812D01*
X129703456Y-112054784D01*
X129604853Y-112202354D01*
X129479354Y-112327853D01*
X129331784Y-112426456D01*
X129167812Y-112494376D01*
X129018512Y-112524073D01*
X128993742Y-112529000D01*
X128816258Y-112529000D01*
X128791488Y-112524073D01*
X128642188Y-112494376D01*
X128478216Y-112426456D01*
X128330646Y-112327853D01*
X128205147Y-112202354D01*
X128106544Y-112054784D01*
X128038624Y-111890812D01*
X128004000Y-111716741D01*
X128004000Y-111539259D01*
X128038624Y-111365188D01*
X128106544Y-111201216D01*
X128205147Y-111053646D01*
X128330646Y-110928147D01*
X128478216Y-110829544D01*
X128642188Y-110761624D01*
X128791488Y-110731927D01*
X128816258Y-110727000D01*
X128993742Y-110727000D01*
X129018512Y-110731927D01*
G37*
G36*
X123938512Y-110731927D02*
G01*
X124087812Y-110761624D01*
X124251784Y-110829544D01*
X124399354Y-110928147D01*
X124524853Y-111053646D01*
X124623456Y-111201216D01*
X124691376Y-111365188D01*
X124726000Y-111539259D01*
X124726000Y-111716741D01*
X124691376Y-111890812D01*
X124623456Y-112054784D01*
X124524853Y-112202354D01*
X124399354Y-112327853D01*
X124251784Y-112426456D01*
X124087812Y-112494376D01*
X123938512Y-112524073D01*
X123913742Y-112529000D01*
X123736258Y-112529000D01*
X123711488Y-112524073D01*
X123562188Y-112494376D01*
X123398216Y-112426456D01*
X123250646Y-112327853D01*
X123125147Y-112202354D01*
X123026544Y-112054784D01*
X122958624Y-111890812D01*
X122924000Y-111716741D01*
X122924000Y-111539259D01*
X122958624Y-111365188D01*
X123026544Y-111201216D01*
X123125147Y-111053646D01*
X123250646Y-110928147D01*
X123398216Y-110829544D01*
X123562188Y-110761624D01*
X123711488Y-110731927D01*
X123736258Y-110727000D01*
X123913742Y-110727000D01*
X123938512Y-110731927D01*
G37*
G36*
X121398512Y-110731927D02*
G01*
X121547812Y-110761624D01*
X121711784Y-110829544D01*
X121859354Y-110928147D01*
X121984853Y-111053646D01*
X122083456Y-111201216D01*
X122151376Y-111365188D01*
X122186000Y-111539259D01*
X122186000Y-111716741D01*
X122151376Y-111890812D01*
X122083456Y-112054784D01*
X121984853Y-112202354D01*
X121859354Y-112327853D01*
X121711784Y-112426456D01*
X121547812Y-112494376D01*
X121398512Y-112524073D01*
X121373742Y-112529000D01*
X121196258Y-112529000D01*
X121171488Y-112524073D01*
X121022188Y-112494376D01*
X120858216Y-112426456D01*
X120710646Y-112327853D01*
X120585147Y-112202354D01*
X120486544Y-112054784D01*
X120418624Y-111890812D01*
X120384000Y-111716741D01*
X120384000Y-111539259D01*
X120418624Y-111365188D01*
X120486544Y-111201216D01*
X120585147Y-111053646D01*
X120710646Y-110928147D01*
X120858216Y-110829544D01*
X121022188Y-110761624D01*
X121171488Y-110731927D01*
X121196258Y-110727000D01*
X121373742Y-110727000D01*
X121398512Y-110731927D01*
G37*
G36*
X126478512Y-110731927D02*
G01*
X126627812Y-110761624D01*
X126791784Y-110829544D01*
X126939354Y-110928147D01*
X127064853Y-111053646D01*
X127163456Y-111201216D01*
X127231376Y-111365188D01*
X127266000Y-111539259D01*
X127266000Y-111716741D01*
X127231376Y-111890812D01*
X127163456Y-112054784D01*
X127064853Y-112202354D01*
X126939354Y-112327853D01*
X126791784Y-112426456D01*
X126627812Y-112494376D01*
X126478512Y-112524073D01*
X126453742Y-112529000D01*
X126276258Y-112529000D01*
X126251488Y-112524073D01*
X126102188Y-112494376D01*
X125938216Y-112426456D01*
X125790646Y-112327853D01*
X125665147Y-112202354D01*
X125566544Y-112054784D01*
X125498624Y-111890812D01*
X125464000Y-111716741D01*
X125464000Y-111539259D01*
X125498624Y-111365188D01*
X125566544Y-111201216D01*
X125665147Y-111053646D01*
X125790646Y-110928147D01*
X125938216Y-110829544D01*
X126102188Y-110761624D01*
X126251488Y-110731927D01*
X126276258Y-110727000D01*
X126453742Y-110727000D01*
X126478512Y-110731927D01*
G37*
G36*
X144345500Y-112125500D02*
G01*
X142243500Y-112125500D01*
X142243500Y-110523500D01*
X144345500Y-110523500D01*
X144345500Y-112125500D01*
G37*
G36*
X153235500Y-112125500D02*
G01*
X151133500Y-112125500D01*
X151133500Y-110523500D01*
X153235500Y-110523500D01*
X153235500Y-112125500D01*
G37*
G36*
X146935500Y-110975500D02*
G01*
X144833500Y-110975500D01*
X144833500Y-107073500D01*
X146935500Y-107073500D01*
X146935500Y-110975500D01*
G37*
G36*
X138045500Y-110975500D02*
G01*
X135943500Y-110975500D01*
X135943500Y-107073500D01*
X138045500Y-107073500D01*
X138045500Y-110975500D01*
G37*
G36*
X153235500Y-109825500D02*
G01*
X151133500Y-109825500D01*
X151133500Y-108223500D01*
X153235500Y-108223500D01*
X153235500Y-109825500D01*
G37*
G36*
X144345500Y-109825500D02*
G01*
X142243500Y-109825500D01*
X142243500Y-108223500D01*
X144345500Y-108223500D01*
X144345500Y-109825500D01*
G37*
G36*
X158635000Y-109735000D02*
G01*
X156833000Y-109735000D01*
X156833000Y-107933000D01*
X158635000Y-107933000D01*
X158635000Y-109735000D01*
G37*
G36*
X155307512Y-107937927D02*
G01*
X155456812Y-107967624D01*
X155620784Y-108035544D01*
X155768354Y-108134147D01*
X155893853Y-108259646D01*
X155992456Y-108407216D01*
X156060376Y-108571188D01*
X156095000Y-108745259D01*
X156095000Y-108922741D01*
X156060376Y-109096812D01*
X155992456Y-109260784D01*
X155893853Y-109408354D01*
X155768354Y-109533853D01*
X155620784Y-109632456D01*
X155456812Y-109700376D01*
X155307512Y-109730073D01*
X155282742Y-109735000D01*
X155105258Y-109735000D01*
X155080488Y-109730073D01*
X154931188Y-109700376D01*
X154767216Y-109632456D01*
X154619646Y-109533853D01*
X154494147Y-109408354D01*
X154395544Y-109260784D01*
X154327624Y-109096812D01*
X154293000Y-108922741D01*
X154293000Y-108745259D01*
X154327624Y-108571188D01*
X154395544Y-108407216D01*
X154494147Y-108259646D01*
X154619646Y-108134147D01*
X154767216Y-108035544D01*
X154931188Y-107967624D01*
X155080488Y-107937927D01*
X155105258Y-107933000D01*
X155282742Y-107933000D01*
X155307512Y-107937927D01*
G37*
G36*
X144345500Y-107525500D02*
G01*
X142243500Y-107525500D01*
X142243500Y-105923500D01*
X144345500Y-105923500D01*
X144345500Y-107525500D01*
G37*
G36*
X153235500Y-107525500D02*
G01*
X151133500Y-107525500D01*
X151133500Y-105923500D01*
X153235500Y-105923500D01*
X153235500Y-107525500D01*
G37*
G36*
X155525964Y-103885189D02*
G01*
X155668212Y-103944110D01*
X155717235Y-103964416D01*
X155791113Y-104013780D01*
X155889373Y-104079435D01*
X156035765Y-104225827D01*
X156150785Y-104397967D01*
X156230011Y-104589236D01*
X156270400Y-104792284D01*
X156270400Y-104999316D01*
X156230011Y-105202364D01*
X156150785Y-105393633D01*
X156150784Y-105393635D01*
X156035765Y-105565773D01*
X155889373Y-105712165D01*
X155717235Y-105827184D01*
X155717234Y-105827185D01*
X155717233Y-105827185D01*
X155525964Y-105906411D01*
X155322916Y-105946800D01*
X155115884Y-105946800D01*
X154912836Y-105906411D01*
X154721567Y-105827185D01*
X154721566Y-105827185D01*
X154721565Y-105827184D01*
X154549427Y-105712165D01*
X154403035Y-105565773D01*
X154288016Y-105393635D01*
X154288015Y-105393633D01*
X154208789Y-105202364D01*
X154168400Y-104999316D01*
X154168400Y-104792284D01*
X154208789Y-104589236D01*
X154288015Y-104397967D01*
X154403035Y-104225827D01*
X154549427Y-104079435D01*
X154647687Y-104013780D01*
X154721565Y-103964416D01*
X154770588Y-103944110D01*
X154912836Y-103885189D01*
X155115884Y-103844800D01*
X155322916Y-103844800D01*
X155525964Y-103885189D01*
G37*
G36*
X115632591Y-104248085D02*
G01*
X115666569Y-104258393D01*
X115697890Y-104275134D01*
X115725339Y-104297661D01*
X115747866Y-104325110D01*
X115764607Y-104356431D01*
X115774915Y-104390409D01*
X115779000Y-104431890D01*
X115779000Y-105108110D01*
X115774915Y-105149591D01*
X115764607Y-105183569D01*
X115747866Y-105214890D01*
X115725339Y-105242339D01*
X115697890Y-105264866D01*
X115666569Y-105281607D01*
X115632591Y-105291915D01*
X115591110Y-105296000D01*
X114989890Y-105296000D01*
X114948409Y-105291915D01*
X114914431Y-105281607D01*
X114883110Y-105264866D01*
X114855661Y-105242339D01*
X114833134Y-105214890D01*
X114816393Y-105183569D01*
X114806085Y-105149591D01*
X114802000Y-105108110D01*
X114802000Y-104431890D01*
X114806085Y-104390409D01*
X114816393Y-104356431D01*
X114833134Y-104325110D01*
X114855661Y-104297661D01*
X114883110Y-104275134D01*
X114914431Y-104258393D01*
X114948409Y-104248085D01*
X114989890Y-104244000D01*
X115591110Y-104244000D01*
X115632591Y-104248085D01*
G37*
G36*
X117207591Y-104248085D02*
G01*
X117241569Y-104258393D01*
X117272890Y-104275134D01*
X117300339Y-104297661D01*
X117322866Y-104325110D01*
X117339607Y-104356431D01*
X117349915Y-104390409D01*
X117354000Y-104431890D01*
X117354000Y-105108110D01*
X117349915Y-105149591D01*
X117339607Y-105183569D01*
X117322866Y-105214890D01*
X117300339Y-105242339D01*
X117272890Y-105264866D01*
X117241569Y-105281607D01*
X117207591Y-105291915D01*
X117166110Y-105296000D01*
X116564890Y-105296000D01*
X116523409Y-105291915D01*
X116489431Y-105281607D01*
X116458110Y-105264866D01*
X116430661Y-105242339D01*
X116408134Y-105214890D01*
X116391393Y-105183569D01*
X116381085Y-105149591D01*
X116377000Y-105108110D01*
X116377000Y-104431890D01*
X116381085Y-104390409D01*
X116391393Y-104356431D01*
X116408134Y-104325110D01*
X116430661Y-104297661D01*
X116458110Y-104275134D01*
X116489431Y-104258393D01*
X116523409Y-104248085D01*
X116564890Y-104244000D01*
X117166110Y-104244000D01*
X117207591Y-104248085D01*
G37*
G36*
X141909091Y-103867085D02*
G01*
X141943069Y-103877393D01*
X141974390Y-103894134D01*
X142001839Y-103916661D01*
X142024366Y-103944110D01*
X142041107Y-103975431D01*
X142051415Y-104009409D01*
X142055500Y-104050890D01*
X142055500Y-104727110D01*
X142051415Y-104768591D01*
X142041107Y-104802569D01*
X142024366Y-104833890D01*
X142001839Y-104861339D01*
X141974390Y-104883866D01*
X141943069Y-104900607D01*
X141909091Y-104910915D01*
X141867610Y-104915000D01*
X141266390Y-104915000D01*
X141224909Y-104910915D01*
X141190931Y-104900607D01*
X141159610Y-104883866D01*
X141132161Y-104861339D01*
X141109634Y-104833890D01*
X141092893Y-104802569D01*
X141082585Y-104768591D01*
X141078500Y-104727110D01*
X141078500Y-104050890D01*
X141082585Y-104009409D01*
X141092893Y-103975431D01*
X141109634Y-103944110D01*
X141132161Y-103916661D01*
X141159610Y-103894134D01*
X141190931Y-103877393D01*
X141224909Y-103867085D01*
X141266390Y-103863000D01*
X141867610Y-103863000D01*
X141909091Y-103867085D01*
G37*
G36*
X137222591Y-103867085D02*
G01*
X137256569Y-103877393D01*
X137287890Y-103894134D01*
X137315339Y-103916661D01*
X137337866Y-103944110D01*
X137354607Y-103975431D01*
X137364915Y-104009409D01*
X137369000Y-104050890D01*
X137369000Y-104727110D01*
X137364915Y-104768591D01*
X137354607Y-104802569D01*
X137337866Y-104833890D01*
X137315339Y-104861339D01*
X137287890Y-104883866D01*
X137256569Y-104900607D01*
X137222591Y-104910915D01*
X137181110Y-104915000D01*
X136579890Y-104915000D01*
X136538409Y-104910915D01*
X136504431Y-104900607D01*
X136473110Y-104883866D01*
X136445661Y-104861339D01*
X136423134Y-104833890D01*
X136406393Y-104802569D01*
X136396085Y-104768591D01*
X136392000Y-104727110D01*
X136392000Y-104050890D01*
X136396085Y-104009409D01*
X136406393Y-103975431D01*
X136423134Y-103944110D01*
X136445661Y-103916661D01*
X136473110Y-103894134D01*
X136504431Y-103877393D01*
X136538409Y-103867085D01*
X136579890Y-103863000D01*
X137181110Y-103863000D01*
X137222591Y-103867085D01*
G37*
G36*
X138797591Y-103867085D02*
G01*
X138831569Y-103877393D01*
X138862890Y-103894134D01*
X138890339Y-103916661D01*
X138912866Y-103944110D01*
X138929607Y-103975431D01*
X138939915Y-104009409D01*
X138944000Y-104050890D01*
X138944000Y-104727110D01*
X138939915Y-104768591D01*
X138929607Y-104802569D01*
X138912866Y-104833890D01*
X138890339Y-104861339D01*
X138862890Y-104883866D01*
X138831569Y-104900607D01*
X138797591Y-104910915D01*
X138756110Y-104915000D01*
X138154890Y-104915000D01*
X138113409Y-104910915D01*
X138079431Y-104900607D01*
X138048110Y-104883866D01*
X138020661Y-104861339D01*
X137998134Y-104833890D01*
X137981393Y-104802569D01*
X137971085Y-104768591D01*
X137967000Y-104727110D01*
X137967000Y-104050890D01*
X137971085Y-104009409D01*
X137981393Y-103975431D01*
X137998134Y-103944110D01*
X138020661Y-103916661D01*
X138048110Y-103894134D01*
X138079431Y-103877393D01*
X138113409Y-103867085D01*
X138154890Y-103863000D01*
X138756110Y-103863000D01*
X138797591Y-103867085D01*
G37*
G36*
X140334091Y-103867085D02*
G01*
X140368069Y-103877393D01*
X140399390Y-103894134D01*
X140426839Y-103916661D01*
X140449366Y-103944110D01*
X140466107Y-103975431D01*
X140476415Y-104009409D01*
X140480500Y-104050890D01*
X140480500Y-104727110D01*
X140476415Y-104768591D01*
X140466107Y-104802569D01*
X140449366Y-104833890D01*
X140426839Y-104861339D01*
X140399390Y-104883866D01*
X140368069Y-104900607D01*
X140334091Y-104910915D01*
X140292610Y-104915000D01*
X139691390Y-104915000D01*
X139649909Y-104910915D01*
X139615931Y-104900607D01*
X139584610Y-104883866D01*
X139557161Y-104861339D01*
X139534634Y-104833890D01*
X139517893Y-104802569D01*
X139507585Y-104768591D01*
X139503500Y-104727110D01*
X139503500Y-104050890D01*
X139507585Y-104009409D01*
X139517893Y-103975431D01*
X139534634Y-103944110D01*
X139557161Y-103916661D01*
X139584610Y-103894134D01*
X139615931Y-103877393D01*
X139649909Y-103867085D01*
X139691390Y-103863000D01*
X140292610Y-103863000D01*
X140334091Y-103867085D01*
G37*
G36*
X115069604Y-100985347D02*
G01*
X115106144Y-100996432D01*
X115139821Y-101014433D01*
X115169341Y-101038659D01*
X115193567Y-101068179D01*
X115211568Y-101101856D01*
X115222653Y-101138396D01*
X115227000Y-101182538D01*
X115227000Y-103531462D01*
X115222653Y-103575604D01*
X115211568Y-103612144D01*
X115193567Y-103645821D01*
X115169341Y-103675341D01*
X115139821Y-103699567D01*
X115106144Y-103717568D01*
X115069604Y-103728653D01*
X115025462Y-103733000D01*
X114076538Y-103733000D01*
X114032396Y-103728653D01*
X113995856Y-103717568D01*
X113962179Y-103699567D01*
X113932659Y-103675341D01*
X113908433Y-103645821D01*
X113890432Y-103612144D01*
X113879347Y-103575604D01*
X113875000Y-103531462D01*
X113875000Y-101182538D01*
X113879347Y-101138396D01*
X113890432Y-101101856D01*
X113908433Y-101068179D01*
X113932659Y-101038659D01*
X113962179Y-101014433D01*
X113995856Y-100996432D01*
X114032396Y-100985347D01*
X114076538Y-100981000D01*
X115025462Y-100981000D01*
X115069604Y-100985347D01*
G37*
G36*
X117869604Y-100985347D02*
G01*
X117906144Y-100996432D01*
X117939821Y-101014433D01*
X117969341Y-101038659D01*
X117993567Y-101068179D01*
X118011568Y-101101856D01*
X118022653Y-101138396D01*
X118027000Y-101182538D01*
X118027000Y-103531462D01*
X118022653Y-103575604D01*
X118011568Y-103612144D01*
X117993567Y-103645821D01*
X117969341Y-103675341D01*
X117939821Y-103699567D01*
X117906144Y-103717568D01*
X117869604Y-103728653D01*
X117825462Y-103733000D01*
X116876538Y-103733000D01*
X116832396Y-103728653D01*
X116795856Y-103717568D01*
X116762179Y-103699567D01*
X116732659Y-103675341D01*
X116708433Y-103645821D01*
X116690432Y-103612144D01*
X116679347Y-103575604D01*
X116675000Y-103531462D01*
X116675000Y-101182538D01*
X116679347Y-101138396D01*
X116690432Y-101101856D01*
X116708433Y-101068179D01*
X116732659Y-101038659D01*
X116762179Y-101014433D01*
X116795856Y-100996432D01*
X116832396Y-100985347D01*
X116876538Y-100981000D01*
X117825462Y-100981000D01*
X117869604Y-100985347D01*
G37*
G36*
X151875000Y-101530000D02*
G01*
X148273000Y-101530000D01*
X148273000Y-99628000D01*
X151875000Y-99628000D01*
X151875000Y-101530000D01*
G37*
G36*
X146875000Y-101530000D02*
G01*
X143273000Y-101530000D01*
X143273000Y-99628000D01*
X146875000Y-99628000D01*
X146875000Y-101530000D01*
G37*
G36*
X155525964Y-99085189D02*
G01*
X155717233Y-99164415D01*
X155717235Y-99164416D01*
X155889373Y-99279435D01*
X156035765Y-99425827D01*
X156150785Y-99597967D01*
X156230011Y-99789236D01*
X156270400Y-99992284D01*
X156270400Y-100199316D01*
X156230011Y-100402364D01*
X156150785Y-100593633D01*
X156150784Y-100593635D01*
X156035765Y-100765773D01*
X155889373Y-100912165D01*
X155717235Y-101027184D01*
X155717234Y-101027185D01*
X155717233Y-101027185D01*
X155525964Y-101106411D01*
X155322916Y-101146800D01*
X155115884Y-101146800D01*
X154912836Y-101106411D01*
X154721567Y-101027185D01*
X154721566Y-101027185D01*
X154721565Y-101027184D01*
X154549427Y-100912165D01*
X154403035Y-100765773D01*
X154288016Y-100593635D01*
X154288015Y-100593633D01*
X154208789Y-100402364D01*
X154168400Y-100199316D01*
X154168400Y-99992284D01*
X154208789Y-99789236D01*
X154288015Y-99597967D01*
X154403035Y-99425827D01*
X154549427Y-99279435D01*
X154721565Y-99164416D01*
X154721567Y-99164415D01*
X154912836Y-99085189D01*
X155115884Y-99044800D01*
X155322916Y-99044800D01*
X155525964Y-99085189D01*
G37*
G36*
X162508604Y-97751347D02*
G01*
X162545144Y-97762432D01*
X162578821Y-97780433D01*
X162608341Y-97804659D01*
X162632567Y-97834179D01*
X162650568Y-97867856D01*
X162661653Y-97904396D01*
X162666000Y-97948538D01*
X162666000Y-98897462D01*
X162661653Y-98941604D01*
X162650568Y-98978144D01*
X162632567Y-99011821D01*
X162608341Y-99041341D01*
X162578821Y-99065567D01*
X162545144Y-99083568D01*
X162508604Y-99094653D01*
X162464462Y-99099000D01*
X160115538Y-99099000D01*
X160071396Y-99094653D01*
X160034856Y-99083568D01*
X160001179Y-99065567D01*
X159971659Y-99041341D01*
X159947433Y-99011821D01*
X159929432Y-98978144D01*
X159918347Y-98941604D01*
X159914000Y-98897462D01*
X159914000Y-97948538D01*
X159918347Y-97904396D01*
X159929432Y-97867856D01*
X159947433Y-97834179D01*
X159971659Y-97804659D01*
X160001179Y-97780433D01*
X160034856Y-97762432D01*
X160071396Y-97751347D01*
X160115538Y-97747000D01*
X162464462Y-97747000D01*
X162508604Y-97751347D01*
G37*
G36*
X159333604Y-97751347D02*
G01*
X159370144Y-97762432D01*
X159403821Y-97780433D01*
X159433341Y-97804659D01*
X159457567Y-97834179D01*
X159475568Y-97867856D01*
X159486653Y-97904396D01*
X159491000Y-97948538D01*
X159491000Y-98897462D01*
X159486653Y-98941604D01*
X159475568Y-98978144D01*
X159457567Y-99011821D01*
X159433341Y-99041341D01*
X159403821Y-99065567D01*
X159370144Y-99083568D01*
X159333604Y-99094653D01*
X159289462Y-99099000D01*
X156940538Y-99099000D01*
X156896396Y-99094653D01*
X156859856Y-99083568D01*
X156826179Y-99065567D01*
X156796659Y-99041341D01*
X156772433Y-99011821D01*
X156754432Y-98978144D01*
X156743347Y-98941604D01*
X156739000Y-98897462D01*
X156739000Y-97948538D01*
X156743347Y-97904396D01*
X156754432Y-97867856D01*
X156772433Y-97834179D01*
X156796659Y-97804659D01*
X156826179Y-97780433D01*
X156859856Y-97762432D01*
X156896396Y-97751347D01*
X156940538Y-97747000D01*
X159289462Y-97747000D01*
X159333604Y-97751347D01*
G37*
G36*
X115886591Y-97644085D02*
G01*
X115920569Y-97654393D01*
X115951890Y-97671134D01*
X115979339Y-97693661D01*
X116001866Y-97721110D01*
X116018607Y-97752431D01*
X116028915Y-97786409D01*
X116033000Y-97827890D01*
X116033000Y-98504110D01*
X116028915Y-98545591D01*
X116018607Y-98579569D01*
X116001866Y-98610890D01*
X115979339Y-98638339D01*
X115951890Y-98660866D01*
X115920569Y-98677607D01*
X115886591Y-98687915D01*
X115845110Y-98692000D01*
X115243890Y-98692000D01*
X115202409Y-98687915D01*
X115168431Y-98677607D01*
X115137110Y-98660866D01*
X115109661Y-98638339D01*
X115087134Y-98610890D01*
X115070393Y-98579569D01*
X115060085Y-98545591D01*
X115056000Y-98504110D01*
X115056000Y-97827890D01*
X115060085Y-97786409D01*
X115070393Y-97752431D01*
X115087134Y-97721110D01*
X115109661Y-97693661D01*
X115137110Y-97671134D01*
X115168431Y-97654393D01*
X115202409Y-97644085D01*
X115243890Y-97640000D01*
X115845110Y-97640000D01*
X115886591Y-97644085D01*
G37*
G36*
X120382591Y-97644085D02*
G01*
X120416569Y-97654393D01*
X120447890Y-97671134D01*
X120475339Y-97693661D01*
X120497866Y-97721110D01*
X120514607Y-97752431D01*
X120524915Y-97786409D01*
X120529000Y-97827890D01*
X120529000Y-98504110D01*
X120524915Y-98545591D01*
X120514607Y-98579569D01*
X120497866Y-98610890D01*
X120475339Y-98638339D01*
X120447890Y-98660866D01*
X120416569Y-98677607D01*
X120382591Y-98687915D01*
X120341110Y-98692000D01*
X119739890Y-98692000D01*
X119698409Y-98687915D01*
X119664431Y-98677607D01*
X119633110Y-98660866D01*
X119605661Y-98638339D01*
X119583134Y-98610890D01*
X119566393Y-98579569D01*
X119556085Y-98545591D01*
X119552000Y-98504110D01*
X119552000Y-97827890D01*
X119556085Y-97786409D01*
X119566393Y-97752431D01*
X119583134Y-97721110D01*
X119605661Y-97693661D01*
X119633110Y-97671134D01*
X119664431Y-97654393D01*
X119698409Y-97644085D01*
X119739890Y-97640000D01*
X120341110Y-97640000D01*
X120382591Y-97644085D01*
G37*
G36*
X118807591Y-97644085D02*
G01*
X118841569Y-97654393D01*
X118872890Y-97671134D01*
X118900339Y-97693661D01*
X118922866Y-97721110D01*
X118939607Y-97752431D01*
X118949915Y-97786409D01*
X118954000Y-97827890D01*
X118954000Y-98504110D01*
X118949915Y-98545591D01*
X118939607Y-98579569D01*
X118922866Y-98610890D01*
X118900339Y-98638339D01*
X118872890Y-98660866D01*
X118841569Y-98677607D01*
X118807591Y-98687915D01*
X118766110Y-98692000D01*
X118164890Y-98692000D01*
X118123409Y-98687915D01*
X118089431Y-98677607D01*
X118058110Y-98660866D01*
X118030661Y-98638339D01*
X118008134Y-98610890D01*
X117991393Y-98579569D01*
X117981085Y-98545591D01*
X117977000Y-98504110D01*
X117977000Y-97827890D01*
X117981085Y-97786409D01*
X117991393Y-97752431D01*
X118008134Y-97721110D01*
X118030661Y-97693661D01*
X118058110Y-97671134D01*
X118089431Y-97654393D01*
X118123409Y-97644085D01*
X118164890Y-97640000D01*
X118766110Y-97640000D01*
X118807591Y-97644085D01*
G37*
G36*
X117461591Y-97644085D02*
G01*
X117495569Y-97654393D01*
X117526890Y-97671134D01*
X117554339Y-97693661D01*
X117576866Y-97721110D01*
X117593607Y-97752431D01*
X117603915Y-97786409D01*
X117608000Y-97827890D01*
X117608000Y-98504110D01*
X117603915Y-98545591D01*
X117593607Y-98579569D01*
X117576866Y-98610890D01*
X117554339Y-98638339D01*
X117526890Y-98660866D01*
X117495569Y-98677607D01*
X117461591Y-98687915D01*
X117420110Y-98692000D01*
X116818890Y-98692000D01*
X116777409Y-98687915D01*
X116743431Y-98677607D01*
X116712110Y-98660866D01*
X116684661Y-98638339D01*
X116662134Y-98610890D01*
X116645393Y-98579569D01*
X116635085Y-98545591D01*
X116631000Y-98504110D01*
X116631000Y-97827890D01*
X116635085Y-97786409D01*
X116645393Y-97752431D01*
X116662134Y-97721110D01*
X116684661Y-97693661D01*
X116712110Y-97671134D01*
X116743431Y-97654393D01*
X116777409Y-97644085D01*
X116818890Y-97640000D01*
X117420110Y-97640000D01*
X117461591Y-97644085D01*
G37*
G36*
X164082591Y-97326085D02*
G01*
X164116569Y-97336393D01*
X164147890Y-97353134D01*
X164175339Y-97375661D01*
X164197866Y-97403110D01*
X164214607Y-97434431D01*
X164224915Y-97468409D01*
X164229000Y-97509890D01*
X164229000Y-98111110D01*
X164224915Y-98152591D01*
X164214607Y-98186569D01*
X164197866Y-98217890D01*
X164175339Y-98245339D01*
X164147890Y-98267866D01*
X164116569Y-98284607D01*
X164082591Y-98294915D01*
X164041110Y-98299000D01*
X163364890Y-98299000D01*
X163323409Y-98294915D01*
X163289431Y-98284607D01*
X163258110Y-98267866D01*
X163230661Y-98245339D01*
X163208134Y-98217890D01*
X163191393Y-98186569D01*
X163181085Y-98152591D01*
X163177000Y-98111110D01*
X163177000Y-97509890D01*
X163181085Y-97468409D01*
X163191393Y-97434431D01*
X163208134Y-97403110D01*
X163230661Y-97375661D01*
X163258110Y-97353134D01*
X163289431Y-97336393D01*
X163323409Y-97326085D01*
X163364890Y-97322000D01*
X164041110Y-97322000D01*
X164082591Y-97326085D01*
G37*
G36*
X152625000Y-98091000D02*
G01*
X150523000Y-98091000D01*
X150523000Y-97479000D01*
X152625000Y-97479000D01*
X152625000Y-98091000D01*
G37*
G36*
X144625000Y-98091000D02*
G01*
X142523000Y-98091000D01*
X142523000Y-97479000D01*
X144625000Y-97479000D01*
X144625000Y-98091000D01*
G37*
G36*
X148831500Y-97582000D02*
G01*
X146316500Y-97582000D01*
X146316500Y-94178000D01*
X148831500Y-94178000D01*
X148831500Y-97582000D01*
G37*
G36*
X152625000Y-96821000D02*
G01*
X150523000Y-96821000D01*
X150523000Y-96209000D01*
X152625000Y-96209000D01*
X152625000Y-96821000D01*
G37*
G36*
X144625000Y-96821000D02*
G01*
X142523000Y-96821000D01*
X142523000Y-96209000D01*
X144625000Y-96209000D01*
X144625000Y-96821000D01*
G37*
G36*
X164082591Y-95751085D02*
G01*
X164116569Y-95761393D01*
X164147890Y-95778134D01*
X164175339Y-95800661D01*
X164197866Y-95828110D01*
X164214607Y-95859431D01*
X164224915Y-95893409D01*
X164229000Y-95934890D01*
X164229000Y-96536110D01*
X164224915Y-96577591D01*
X164214607Y-96611569D01*
X164197866Y-96642890D01*
X164175339Y-96670339D01*
X164147890Y-96692866D01*
X164116569Y-96709607D01*
X164082591Y-96719915D01*
X164041110Y-96724000D01*
X163364890Y-96724000D01*
X163323409Y-96719915D01*
X163289431Y-96709607D01*
X163258110Y-96692866D01*
X163230661Y-96670339D01*
X163208134Y-96642890D01*
X163191393Y-96611569D01*
X163181085Y-96577591D01*
X163177000Y-96536110D01*
X163177000Y-95934890D01*
X163181085Y-95893409D01*
X163191393Y-95859431D01*
X163208134Y-95828110D01*
X163230661Y-95800661D01*
X163258110Y-95778134D01*
X163289431Y-95761393D01*
X163323409Y-95751085D01*
X163364890Y-95747000D01*
X164041110Y-95747000D01*
X164082591Y-95751085D01*
G37*
G36*
X155525964Y-94285189D02*
G01*
X155717233Y-94364415D01*
X155717235Y-94364416D01*
X155731578Y-94374000D01*
X155889373Y-94479435D01*
X156035765Y-94625827D01*
X156150785Y-94797967D01*
X156230011Y-94989236D01*
X156270400Y-95192284D01*
X156270400Y-95399316D01*
X156230011Y-95602364D01*
X156170101Y-95747000D01*
X156150784Y-95793635D01*
X156035765Y-95965773D01*
X155889373Y-96112165D01*
X155717235Y-96227184D01*
X155717234Y-96227185D01*
X155717233Y-96227185D01*
X155525964Y-96306411D01*
X155322916Y-96346800D01*
X155115884Y-96346800D01*
X154912836Y-96306411D01*
X154721567Y-96227185D01*
X154721566Y-96227185D01*
X154721565Y-96227184D01*
X154549427Y-96112165D01*
X154403035Y-95965773D01*
X154288016Y-95793635D01*
X154268699Y-95747000D01*
X154208789Y-95602364D01*
X154168400Y-95399316D01*
X154168400Y-95192284D01*
X154208789Y-94989236D01*
X154288015Y-94797967D01*
X154403035Y-94625827D01*
X154549427Y-94479435D01*
X154707222Y-94374000D01*
X154721565Y-94364416D01*
X154721567Y-94364415D01*
X154912836Y-94285189D01*
X155115884Y-94244800D01*
X155322916Y-94244800D01*
X155525964Y-94285189D01*
G37*
G36*
X159333604Y-94951347D02*
G01*
X159370144Y-94962432D01*
X159403821Y-94980433D01*
X159433341Y-95004659D01*
X159457567Y-95034179D01*
X159475568Y-95067856D01*
X159486653Y-95104396D01*
X159491000Y-95148538D01*
X159491000Y-96097462D01*
X159486653Y-96141604D01*
X159475568Y-96178144D01*
X159457567Y-96211821D01*
X159433341Y-96241341D01*
X159403821Y-96265567D01*
X159370144Y-96283568D01*
X159333604Y-96294653D01*
X159289462Y-96299000D01*
X156940538Y-96299000D01*
X156896396Y-96294653D01*
X156859856Y-96283568D01*
X156826179Y-96265567D01*
X156796659Y-96241341D01*
X156772433Y-96211821D01*
X156754432Y-96178144D01*
X156743347Y-96141604D01*
X156739000Y-96097462D01*
X156739000Y-95148538D01*
X156743347Y-95104396D01*
X156754432Y-95067856D01*
X156772433Y-95034179D01*
X156796659Y-95004659D01*
X156826179Y-94980433D01*
X156859856Y-94962432D01*
X156896396Y-94951347D01*
X156940538Y-94947000D01*
X159289462Y-94947000D01*
X159333604Y-94951347D01*
G37*
G36*
X162508604Y-94951347D02*
G01*
X162545144Y-94962432D01*
X162578821Y-94980433D01*
X162608341Y-95004659D01*
X162632567Y-95034179D01*
X162650568Y-95067856D01*
X162661653Y-95104396D01*
X162666000Y-95148538D01*
X162666000Y-96097462D01*
X162661653Y-96141604D01*
X162650568Y-96178144D01*
X162632567Y-96211821D01*
X162608341Y-96241341D01*
X162578821Y-96265567D01*
X162545144Y-96283568D01*
X162508604Y-96294653D01*
X162464462Y-96299000D01*
X160115538Y-96299000D01*
X160071396Y-96294653D01*
X160034856Y-96283568D01*
X160001179Y-96265567D01*
X159971659Y-96241341D01*
X159947433Y-96211821D01*
X159929432Y-96178144D01*
X159918347Y-96141604D01*
X159914000Y-96097462D01*
X159914000Y-95148538D01*
X159918347Y-95104396D01*
X159929432Y-95067856D01*
X159947433Y-95034179D01*
X159971659Y-95004659D01*
X160001179Y-94980433D01*
X160034856Y-94962432D01*
X160071396Y-94951347D01*
X160115538Y-94947000D01*
X162464462Y-94947000D01*
X162508604Y-94951347D01*
G37*
G36*
X144625000Y-95551000D02*
G01*
X142523000Y-95551000D01*
X142523000Y-94939000D01*
X144625000Y-94939000D01*
X144625000Y-95551000D01*
G37*
G36*
X152625000Y-95551000D02*
G01*
X150523000Y-95551000D01*
X150523000Y-94939000D01*
X152625000Y-94939000D01*
X152625000Y-95551000D01*
G37*
G36*
X158304591Y-93326085D02*
G01*
X158338569Y-93336393D01*
X158369890Y-93353134D01*
X158397339Y-93375661D01*
X158419866Y-93403110D01*
X158436607Y-93434431D01*
X158446915Y-93468409D01*
X158451000Y-93509890D01*
X158451000Y-94186110D01*
X158446915Y-94227591D01*
X158436607Y-94261569D01*
X158419866Y-94292890D01*
X158397339Y-94320339D01*
X158369890Y-94342866D01*
X158338569Y-94359607D01*
X158304591Y-94369915D01*
X158263110Y-94374000D01*
X157661890Y-94374000D01*
X157620409Y-94369915D01*
X157586431Y-94359607D01*
X157555110Y-94342866D01*
X157527661Y-94320339D01*
X157505134Y-94292890D01*
X157488393Y-94261569D01*
X157478085Y-94227591D01*
X157474000Y-94186110D01*
X157474000Y-93509890D01*
X157478085Y-93468409D01*
X157488393Y-93434431D01*
X157505134Y-93403110D01*
X157527661Y-93375661D01*
X157555110Y-93353134D01*
X157586431Y-93336393D01*
X157620409Y-93326085D01*
X157661890Y-93322000D01*
X158263110Y-93322000D01*
X158304591Y-93326085D01*
G37*
G36*
X159879591Y-93326085D02*
G01*
X159913569Y-93336393D01*
X159944890Y-93353134D01*
X159972339Y-93375661D01*
X159994866Y-93403110D01*
X160011607Y-93434431D01*
X160021915Y-93468409D01*
X160026000Y-93509890D01*
X160026000Y-94186110D01*
X160021915Y-94227591D01*
X160011607Y-94261569D01*
X159994866Y-94292890D01*
X159972339Y-94320339D01*
X159944890Y-94342866D01*
X159913569Y-94359607D01*
X159879591Y-94369915D01*
X159838110Y-94374000D01*
X159236890Y-94374000D01*
X159195409Y-94369915D01*
X159161431Y-94359607D01*
X159130110Y-94342866D01*
X159102661Y-94320339D01*
X159080134Y-94292890D01*
X159063393Y-94261569D01*
X159053085Y-94227591D01*
X159049000Y-94186110D01*
X159049000Y-93509890D01*
X159053085Y-93468409D01*
X159063393Y-93434431D01*
X159080134Y-93403110D01*
X159102661Y-93375661D01*
X159130110Y-93353134D01*
X159161431Y-93336393D01*
X159195409Y-93326085D01*
X159236890Y-93322000D01*
X159838110Y-93322000D01*
X159879591Y-93326085D01*
G37*
G36*
X120712091Y-93389085D02*
G01*
X120746069Y-93399393D01*
X120777390Y-93416134D01*
X120804839Y-93438661D01*
X120827366Y-93466110D01*
X120844107Y-93497431D01*
X120854415Y-93531409D01*
X120858500Y-93572890D01*
X120858500Y-94174110D01*
X120854415Y-94215591D01*
X120844107Y-94249569D01*
X120827366Y-94280890D01*
X120804839Y-94308339D01*
X120777390Y-94330866D01*
X120746069Y-94347607D01*
X120712091Y-94357915D01*
X120670610Y-94362000D01*
X119994390Y-94362000D01*
X119952909Y-94357915D01*
X119918931Y-94347607D01*
X119887610Y-94330866D01*
X119860161Y-94308339D01*
X119837634Y-94280890D01*
X119820893Y-94249569D01*
X119810585Y-94215591D01*
X119806500Y-94174110D01*
X119806500Y-93572890D01*
X119810585Y-93531409D01*
X119820893Y-93497431D01*
X119837634Y-93466110D01*
X119860161Y-93438661D01*
X119887610Y-93416134D01*
X119918931Y-93399393D01*
X119952909Y-93389085D01*
X119994390Y-93385000D01*
X120670610Y-93385000D01*
X120712091Y-93389085D01*
G37*
G36*
X118743591Y-93389085D02*
G01*
X118777569Y-93399393D01*
X118808890Y-93416134D01*
X118836339Y-93438661D01*
X118858866Y-93466110D01*
X118875607Y-93497431D01*
X118885915Y-93531409D01*
X118890000Y-93572890D01*
X118890000Y-94174110D01*
X118885915Y-94215591D01*
X118875607Y-94249569D01*
X118858866Y-94280890D01*
X118836339Y-94308339D01*
X118808890Y-94330866D01*
X118777569Y-94347607D01*
X118743591Y-94357915D01*
X118702110Y-94362000D01*
X118025890Y-94362000D01*
X117984409Y-94357915D01*
X117950431Y-94347607D01*
X117919110Y-94330866D01*
X117891661Y-94308339D01*
X117869134Y-94280890D01*
X117852393Y-94249569D01*
X117842085Y-94215591D01*
X117838000Y-94174110D01*
X117838000Y-93572890D01*
X117842085Y-93531409D01*
X117852393Y-93497431D01*
X117869134Y-93466110D01*
X117891661Y-93438661D01*
X117919110Y-93416134D01*
X117950431Y-93399393D01*
X117984409Y-93389085D01*
X118025890Y-93385000D01*
X118702110Y-93385000D01*
X118743591Y-93389085D01*
G37*
G36*
X124839591Y-93389085D02*
G01*
X124873569Y-93399393D01*
X124904890Y-93416134D01*
X124932339Y-93438661D01*
X124954866Y-93466110D01*
X124971607Y-93497431D01*
X124981915Y-93531409D01*
X124986000Y-93572890D01*
X124986000Y-94174110D01*
X124981915Y-94215591D01*
X124971607Y-94249569D01*
X124954866Y-94280890D01*
X124932339Y-94308339D01*
X124904890Y-94330866D01*
X124873569Y-94347607D01*
X124839591Y-94357915D01*
X124798110Y-94362000D01*
X124121890Y-94362000D01*
X124080409Y-94357915D01*
X124046431Y-94347607D01*
X124015110Y-94330866D01*
X123987661Y-94308339D01*
X123965134Y-94280890D01*
X123948393Y-94249569D01*
X123938085Y-94215591D01*
X123934000Y-94174110D01*
X123934000Y-93572890D01*
X123938085Y-93531409D01*
X123948393Y-93497431D01*
X123965134Y-93466110D01*
X123987661Y-93438661D01*
X124015110Y-93416134D01*
X124046431Y-93399393D01*
X124080409Y-93389085D01*
X124121890Y-93385000D01*
X124798110Y-93385000D01*
X124839591Y-93389085D01*
G37*
G36*
X144625000Y-94281000D02*
G01*
X142523000Y-94281000D01*
X142523000Y-93669000D01*
X144625000Y-93669000D01*
X144625000Y-94281000D01*
G37*
G36*
X152625000Y-94281000D02*
G01*
X150523000Y-94281000D01*
X150523000Y-93669000D01*
X152625000Y-93669000D01*
X152625000Y-94281000D01*
G37*
G36*
X160059468Y-91323565D02*
G01*
X160098138Y-91335296D01*
X160133777Y-91354346D01*
X160165017Y-91379983D01*
X160190654Y-91411223D01*
X160209704Y-91446862D01*
X160221435Y-91485532D01*
X160226000Y-91531888D01*
X160226000Y-92608112D01*
X160221435Y-92654468D01*
X160209704Y-92693138D01*
X160190654Y-92728777D01*
X160165017Y-92760017D01*
X160133777Y-92785654D01*
X160098138Y-92804704D01*
X160059468Y-92816435D01*
X160013112Y-92821000D01*
X159361888Y-92821000D01*
X159315532Y-92816435D01*
X159276862Y-92804704D01*
X159241223Y-92785654D01*
X159209983Y-92760017D01*
X159184346Y-92728777D01*
X159165296Y-92693138D01*
X159153565Y-92654468D01*
X159149000Y-92608112D01*
X159149000Y-91531888D01*
X159153565Y-91485532D01*
X159165296Y-91446862D01*
X159184346Y-91411223D01*
X159209983Y-91379983D01*
X159241223Y-91354346D01*
X159276862Y-91335296D01*
X159315532Y-91323565D01*
X159361888Y-91319000D01*
X160013112Y-91319000D01*
X160059468Y-91323565D01*
G37*
G36*
X158184468Y-91323565D02*
G01*
X158223138Y-91335296D01*
X158258777Y-91354346D01*
X158290017Y-91379983D01*
X158315654Y-91411223D01*
X158334704Y-91446862D01*
X158346435Y-91485532D01*
X158351000Y-91531888D01*
X158351000Y-92608112D01*
X158346435Y-92654468D01*
X158334704Y-92693138D01*
X158315654Y-92728777D01*
X158290017Y-92760017D01*
X158258777Y-92785654D01*
X158223138Y-92804704D01*
X158184468Y-92816435D01*
X158138112Y-92821000D01*
X157486888Y-92821000D01*
X157440532Y-92816435D01*
X157401862Y-92804704D01*
X157366223Y-92785654D01*
X157334983Y-92760017D01*
X157309346Y-92728777D01*
X157290296Y-92693138D01*
X157278565Y-92654468D01*
X157274000Y-92608112D01*
X157274000Y-91531888D01*
X157278565Y-91485532D01*
X157290296Y-91446862D01*
X157309346Y-91411223D01*
X157334983Y-91379983D01*
X157366223Y-91354346D01*
X157401862Y-91335296D01*
X157440532Y-91323565D01*
X157486888Y-91319000D01*
X158138112Y-91319000D01*
X158184468Y-91323565D01*
G37*
G36*
X124839591Y-91814085D02*
G01*
X124873569Y-91824393D01*
X124904890Y-91841134D01*
X124932339Y-91863661D01*
X124954866Y-91891110D01*
X124971607Y-91922431D01*
X124981915Y-91956409D01*
X124986000Y-91997890D01*
X124986000Y-92599110D01*
X124981915Y-92640591D01*
X124971607Y-92674569D01*
X124954866Y-92705890D01*
X124932339Y-92733339D01*
X124904890Y-92755866D01*
X124873569Y-92772607D01*
X124839591Y-92782915D01*
X124798110Y-92787000D01*
X124121890Y-92787000D01*
X124080409Y-92782915D01*
X124046431Y-92772607D01*
X124015110Y-92755866D01*
X123987661Y-92733339D01*
X123965134Y-92705890D01*
X123948393Y-92674569D01*
X123938085Y-92640591D01*
X123934000Y-92599110D01*
X123934000Y-91997890D01*
X123938085Y-91956409D01*
X123948393Y-91922431D01*
X123965134Y-91891110D01*
X123987661Y-91863661D01*
X124015110Y-91841134D01*
X124046431Y-91824393D01*
X124080409Y-91814085D01*
X124121890Y-91810000D01*
X124798110Y-91810000D01*
X124839591Y-91814085D01*
G37*
G36*
X120712091Y-91814085D02*
G01*
X120746069Y-91824393D01*
X120777390Y-91841134D01*
X120804839Y-91863661D01*
X120827366Y-91891110D01*
X120844107Y-91922431D01*
X120854415Y-91956409D01*
X120858500Y-91997890D01*
X120858500Y-92599110D01*
X120854415Y-92640591D01*
X120844107Y-92674569D01*
X120827366Y-92705890D01*
X120804839Y-92733339D01*
X120777390Y-92755866D01*
X120746069Y-92772607D01*
X120712091Y-92782915D01*
X120670610Y-92787000D01*
X119994390Y-92787000D01*
X119952909Y-92782915D01*
X119918931Y-92772607D01*
X119887610Y-92755866D01*
X119860161Y-92733339D01*
X119837634Y-92705890D01*
X119820893Y-92674569D01*
X119810585Y-92640591D01*
X119806500Y-92599110D01*
X119806500Y-91997890D01*
X119810585Y-91956409D01*
X119820893Y-91922431D01*
X119837634Y-91891110D01*
X119860161Y-91863661D01*
X119887610Y-91841134D01*
X119918931Y-91824393D01*
X119952909Y-91814085D01*
X119994390Y-91810000D01*
X120670610Y-91810000D01*
X120712091Y-91814085D01*
G37*
G36*
X118743591Y-91814085D02*
G01*
X118777569Y-91824393D01*
X118808890Y-91841134D01*
X118836339Y-91863661D01*
X118858866Y-91891110D01*
X118875607Y-91922431D01*
X118885915Y-91956409D01*
X118890000Y-91997890D01*
X118890000Y-92599110D01*
X118885915Y-92640591D01*
X118875607Y-92674569D01*
X118858866Y-92705890D01*
X118836339Y-92733339D01*
X118808890Y-92755866D01*
X118777569Y-92772607D01*
X118743591Y-92782915D01*
X118702110Y-92787000D01*
X118025890Y-92787000D01*
X117984409Y-92782915D01*
X117950431Y-92772607D01*
X117919110Y-92755866D01*
X117891661Y-92733339D01*
X117869134Y-92705890D01*
X117852393Y-92674569D01*
X117842085Y-92640591D01*
X117838000Y-92599110D01*
X117838000Y-91997890D01*
X117842085Y-91956409D01*
X117852393Y-91922431D01*
X117869134Y-91891110D01*
X117891661Y-91863661D01*
X117919110Y-91841134D01*
X117950431Y-91824393D01*
X117984409Y-91814085D01*
X118025890Y-91810000D01*
X118702110Y-91810000D01*
X118743591Y-91814085D01*
G37*
G36*
X116595000Y-91185000D02*
G01*
X115593000Y-91185000D01*
X115593000Y-90283000D01*
X116595000Y-90283000D01*
X116595000Y-91185000D01*
G37*
G36*
X120786000Y-91185000D02*
G01*
X119784000Y-91185000D01*
X119784000Y-90283000D01*
X120786000Y-90283000D01*
X120786000Y-91185000D01*
G37*
G36*
X124926200Y-91185000D02*
G01*
X123924200Y-91185000D01*
X123924200Y-90283000D01*
X124926200Y-90283000D01*
X124926200Y-91185000D01*
G37*
G36*
X122786000Y-90235000D02*
G01*
X121784000Y-90235000D01*
X121784000Y-89333000D01*
X122786000Y-89333000D01*
X122786000Y-90235000D01*
G37*
G36*
X118595000Y-90235000D02*
G01*
X117593000Y-90235000D01*
X117593000Y-89333000D01*
X118595000Y-89333000D01*
X118595000Y-90235000D01*
G37*
G36*
X126926200Y-90235000D02*
G01*
X125924200Y-90235000D01*
X125924200Y-89333000D01*
X126926200Y-89333000D01*
X126926200Y-90235000D01*
G37*
G36*
X163764015Y-89115973D02*
G01*
X163867879Y-89147479D01*
X163895055Y-89162005D01*
X163963600Y-89198643D01*
X164047501Y-89267499D01*
X164116357Y-89351400D01*
X164152995Y-89419945D01*
X164167521Y-89447121D01*
X164199027Y-89550985D01*
X164209666Y-89659000D01*
X164199027Y-89767015D01*
X164167521Y-89870879D01*
X164167519Y-89870882D01*
X164116357Y-89966600D01*
X164047501Y-90050501D01*
X163963600Y-90119357D01*
X163895055Y-90155995D01*
X163867879Y-90170521D01*
X163764015Y-90202027D01*
X163683067Y-90210000D01*
X163028933Y-90210000D01*
X162947985Y-90202027D01*
X162844121Y-90170521D01*
X162816945Y-90155995D01*
X162748400Y-90119357D01*
X162664499Y-90050501D01*
X162595643Y-89966600D01*
X162544481Y-89870882D01*
X162544479Y-89870879D01*
X162512973Y-89767015D01*
X162502334Y-89659000D01*
X162512973Y-89550985D01*
X162544479Y-89447121D01*
X162559005Y-89419945D01*
X162595643Y-89351400D01*
X162664499Y-89267499D01*
X162748400Y-89198643D01*
X162816945Y-89162005D01*
X162844121Y-89147479D01*
X162947985Y-89115973D01*
X163028933Y-89108000D01*
X163683067Y-89108000D01*
X163764015Y-89115973D01*
G37*
G36*
X159834015Y-89115973D02*
G01*
X159937879Y-89147479D01*
X159965055Y-89162005D01*
X160033600Y-89198643D01*
X160117501Y-89267499D01*
X160186357Y-89351400D01*
X160222995Y-89419945D01*
X160237521Y-89447121D01*
X160269027Y-89550985D01*
X160279666Y-89659000D01*
X160269027Y-89767015D01*
X160237521Y-89870879D01*
X160237519Y-89870882D01*
X160186357Y-89966600D01*
X160117501Y-90050501D01*
X160033600Y-90119357D01*
X159965055Y-90155995D01*
X159937879Y-90170521D01*
X159834015Y-90202027D01*
X159753067Y-90210000D01*
X158598933Y-90210000D01*
X158517985Y-90202027D01*
X158414121Y-90170521D01*
X158386945Y-90155995D01*
X158318400Y-90119357D01*
X158234499Y-90050501D01*
X158165643Y-89966600D01*
X158114481Y-89870882D01*
X158114479Y-89870879D01*
X158082973Y-89767015D01*
X158072334Y-89659000D01*
X158082973Y-89550985D01*
X158114479Y-89447121D01*
X158129005Y-89419945D01*
X158165643Y-89351400D01*
X158234499Y-89267499D01*
X158318400Y-89198643D01*
X158386945Y-89162005D01*
X158414121Y-89147479D01*
X158517985Y-89115973D01*
X158598933Y-89108000D01*
X159753067Y-89108000D01*
X159834015Y-89115973D01*
G37*
G36*
X132701591Y-88690585D02*
G01*
X132735569Y-88700893D01*
X132766890Y-88717634D01*
X132794339Y-88740161D01*
X132816866Y-88767610D01*
X132833607Y-88798931D01*
X132843915Y-88832909D01*
X132848000Y-88874390D01*
X132848000Y-89550610D01*
X132843915Y-89592091D01*
X132833607Y-89626069D01*
X132816866Y-89657390D01*
X132794339Y-89684839D01*
X132766890Y-89707366D01*
X132735569Y-89724107D01*
X132701591Y-89734415D01*
X132660110Y-89738500D01*
X132058890Y-89738500D01*
X132017409Y-89734415D01*
X131983431Y-89724107D01*
X131952110Y-89707366D01*
X131924661Y-89684839D01*
X131902134Y-89657390D01*
X131885393Y-89626069D01*
X131875085Y-89592091D01*
X131871000Y-89550610D01*
X131871000Y-88874390D01*
X131875085Y-88832909D01*
X131885393Y-88798931D01*
X131902134Y-88767610D01*
X131924661Y-88740161D01*
X131952110Y-88717634D01*
X131983431Y-88700893D01*
X132017409Y-88690585D01*
X132058890Y-88686500D01*
X132660110Y-88686500D01*
X132701591Y-88690585D01*
G37*
G36*
X131126591Y-88690585D02*
G01*
X131160569Y-88700893D01*
X131191890Y-88717634D01*
X131219339Y-88740161D01*
X131241866Y-88767610D01*
X131258607Y-88798931D01*
X131268915Y-88832909D01*
X131273000Y-88874390D01*
X131273000Y-89550610D01*
X131268915Y-89592091D01*
X131258607Y-89626069D01*
X131241866Y-89657390D01*
X131219339Y-89684839D01*
X131191890Y-89707366D01*
X131160569Y-89724107D01*
X131126591Y-89734415D01*
X131085110Y-89738500D01*
X130483890Y-89738500D01*
X130442409Y-89734415D01*
X130408431Y-89724107D01*
X130377110Y-89707366D01*
X130349661Y-89684839D01*
X130327134Y-89657390D01*
X130310393Y-89626069D01*
X130300085Y-89592091D01*
X130296000Y-89550610D01*
X130296000Y-88874390D01*
X130300085Y-88832909D01*
X130310393Y-88798931D01*
X130327134Y-88767610D01*
X130349661Y-88740161D01*
X130377110Y-88717634D01*
X130408431Y-88700893D01*
X130442409Y-88690585D01*
X130483890Y-88686500D01*
X131085110Y-88686500D01*
X131126591Y-88690585D01*
G37*
G36*
X116595000Y-89285000D02*
G01*
X115593000Y-89285000D01*
X115593000Y-88383000D01*
X116595000Y-88383000D01*
X116595000Y-89285000D01*
G37*
G36*
X124926200Y-89285000D02*
G01*
X123924200Y-89285000D01*
X123924200Y-88383000D01*
X124926200Y-88383000D01*
X124926200Y-89285000D01*
G37*
G36*
X120786000Y-89285000D02*
G01*
X119784000Y-89285000D01*
X119784000Y-88383000D01*
X120786000Y-88383000D01*
X120786000Y-89285000D01*
G37*
G36*
X114933591Y-88309085D02*
G01*
X114967569Y-88319393D01*
X114998890Y-88336134D01*
X115026339Y-88358661D01*
X115048866Y-88386110D01*
X115065607Y-88417431D01*
X115075915Y-88451409D01*
X115080000Y-88492890D01*
X115080000Y-89094110D01*
X115075915Y-89135591D01*
X115065607Y-89169569D01*
X115048866Y-89200890D01*
X115026339Y-89228339D01*
X114998890Y-89250866D01*
X114967569Y-89267607D01*
X114933591Y-89277915D01*
X114892110Y-89282000D01*
X114215890Y-89282000D01*
X114174409Y-89277915D01*
X114140431Y-89267607D01*
X114109110Y-89250866D01*
X114081661Y-89228339D01*
X114059134Y-89200890D01*
X114042393Y-89169569D01*
X114032085Y-89135591D01*
X114028000Y-89094110D01*
X114028000Y-88492890D01*
X114032085Y-88451409D01*
X114042393Y-88417431D01*
X114059134Y-88386110D01*
X114081661Y-88358661D01*
X114109110Y-88336134D01*
X114140431Y-88319393D01*
X114174409Y-88309085D01*
X114215890Y-88305000D01*
X114892110Y-88305000D01*
X114933591Y-88309085D01*
G37*
G36*
X159815672Y-87867449D02*
G01*
X159815674Y-87867450D01*
X159815675Y-87867450D01*
X159884103Y-87895793D01*
X159945686Y-87936942D01*
X159998058Y-87989314D01*
X160039207Y-88050897D01*
X160062009Y-88105948D01*
X160067551Y-88119328D01*
X160082000Y-88191966D01*
X160082000Y-88266034D01*
X160068056Y-88336134D01*
X160067550Y-88338675D01*
X160039207Y-88407103D01*
X159998058Y-88468686D01*
X159945686Y-88521058D01*
X159884103Y-88562207D01*
X159815675Y-88590550D01*
X159815674Y-88590550D01*
X159815672Y-88590551D01*
X159743034Y-88605000D01*
X159668966Y-88605000D01*
X159596328Y-88590551D01*
X159596326Y-88590550D01*
X159596325Y-88590550D01*
X159527897Y-88562207D01*
X159466314Y-88521058D01*
X159413942Y-88468686D01*
X159372793Y-88407103D01*
X159344450Y-88338675D01*
X159343945Y-88336134D01*
X159330000Y-88266034D01*
X159330000Y-88191966D01*
X159344449Y-88119328D01*
X159349991Y-88105948D01*
X159372793Y-88050897D01*
X159413942Y-87989314D01*
X159466314Y-87936942D01*
X159527897Y-87895793D01*
X159596325Y-87867450D01*
X159596326Y-87867450D01*
X159596328Y-87867449D01*
X159668966Y-87853000D01*
X159743034Y-87853000D01*
X159815672Y-87867449D01*
G37*
G36*
X131126591Y-87166585D02*
G01*
X131160569Y-87176893D01*
X131191890Y-87193634D01*
X131219339Y-87216161D01*
X131241866Y-87243610D01*
X131258607Y-87274931D01*
X131268915Y-87308909D01*
X131273000Y-87350390D01*
X131273000Y-88026610D01*
X131268915Y-88068091D01*
X131258607Y-88102069D01*
X131241866Y-88133390D01*
X131219339Y-88160839D01*
X131191890Y-88183366D01*
X131160569Y-88200107D01*
X131126591Y-88210415D01*
X131085110Y-88214500D01*
X130483890Y-88214500D01*
X130442409Y-88210415D01*
X130408431Y-88200107D01*
X130377110Y-88183366D01*
X130349661Y-88160839D01*
X130327134Y-88133390D01*
X130310393Y-88102069D01*
X130300085Y-88068091D01*
X130296000Y-88026610D01*
X130296000Y-87350390D01*
X130300085Y-87308909D01*
X130310393Y-87274931D01*
X130327134Y-87243610D01*
X130349661Y-87216161D01*
X130377110Y-87193634D01*
X130408431Y-87176893D01*
X130442409Y-87166585D01*
X130483890Y-87162500D01*
X131085110Y-87162500D01*
X131126591Y-87166585D01*
G37*
G36*
X132701591Y-87166585D02*
G01*
X132735569Y-87176893D01*
X132766890Y-87193634D01*
X132794339Y-87216161D01*
X132816866Y-87243610D01*
X132833607Y-87274931D01*
X132843915Y-87308909D01*
X132848000Y-87350390D01*
X132848000Y-88026610D01*
X132843915Y-88068091D01*
X132833607Y-88102069D01*
X132816866Y-88133390D01*
X132794339Y-88160839D01*
X132766890Y-88183366D01*
X132735569Y-88200107D01*
X132701591Y-88210415D01*
X132660110Y-88214500D01*
X132058890Y-88214500D01*
X132017409Y-88210415D01*
X131983431Y-88200107D01*
X131952110Y-88183366D01*
X131924661Y-88160839D01*
X131902134Y-88133390D01*
X131885393Y-88102069D01*
X131875085Y-88068091D01*
X131871000Y-88026610D01*
X131871000Y-87350390D01*
X131875085Y-87308909D01*
X131885393Y-87274931D01*
X131902134Y-87243610D01*
X131924661Y-87216161D01*
X131952110Y-87193634D01*
X131983431Y-87176893D01*
X132017409Y-87166585D01*
X132058890Y-87162500D01*
X132660110Y-87162500D01*
X132701591Y-87166585D01*
G37*
G36*
X114933591Y-86734085D02*
G01*
X114967569Y-86744393D01*
X114998890Y-86761134D01*
X115026339Y-86783661D01*
X115048866Y-86811110D01*
X115065607Y-86842431D01*
X115075915Y-86876409D01*
X115080000Y-86917890D01*
X115080000Y-87519110D01*
X115075915Y-87560591D01*
X115065607Y-87594569D01*
X115048866Y-87625890D01*
X115026339Y-87653339D01*
X114998890Y-87675866D01*
X114967569Y-87692607D01*
X114933591Y-87702915D01*
X114892110Y-87707000D01*
X114215890Y-87707000D01*
X114174409Y-87702915D01*
X114140431Y-87692607D01*
X114109110Y-87675866D01*
X114081661Y-87653339D01*
X114059134Y-87625890D01*
X114042393Y-87594569D01*
X114032085Y-87560591D01*
X114028000Y-87519110D01*
X114028000Y-86917890D01*
X114032085Y-86876409D01*
X114042393Y-86842431D01*
X114059134Y-86811110D01*
X114081661Y-86783661D01*
X114109110Y-86761134D01*
X114140431Y-86744393D01*
X114174409Y-86734085D01*
X114215890Y-86730000D01*
X114892110Y-86730000D01*
X114933591Y-86734085D01*
G37*
G36*
X152857468Y-86580765D02*
G01*
X152896138Y-86592496D01*
X152931777Y-86611546D01*
X152963017Y-86637183D01*
X152988654Y-86668423D01*
X153007704Y-86704062D01*
X153019435Y-86742732D01*
X153024000Y-86789088D01*
X153024000Y-87440312D01*
X153019435Y-87486668D01*
X153007704Y-87525338D01*
X152988654Y-87560977D01*
X152963017Y-87592217D01*
X152931777Y-87617854D01*
X152896138Y-87636904D01*
X152857468Y-87648635D01*
X152811112Y-87653200D01*
X151734888Y-87653200D01*
X151688532Y-87648635D01*
X151649862Y-87636904D01*
X151614223Y-87617854D01*
X151582983Y-87592217D01*
X151557346Y-87560977D01*
X151538296Y-87525338D01*
X151526565Y-87486668D01*
X151522000Y-87440312D01*
X151522000Y-86789088D01*
X151526565Y-86742732D01*
X151538296Y-86704062D01*
X151557346Y-86668423D01*
X151582983Y-86637183D01*
X151614223Y-86611546D01*
X151649862Y-86592496D01*
X151688532Y-86580765D01*
X151734888Y-86576200D01*
X152811112Y-86576200D01*
X152857468Y-86580765D01*
G37*
G36*
X124141591Y-86595085D02*
G01*
X124175569Y-86605393D01*
X124206890Y-86622134D01*
X124234339Y-86644661D01*
X124256866Y-86672110D01*
X124273607Y-86703431D01*
X124283915Y-86737409D01*
X124288000Y-86778890D01*
X124288000Y-87455110D01*
X124283915Y-87496591D01*
X124273607Y-87530569D01*
X124256866Y-87561890D01*
X124234339Y-87589339D01*
X124206890Y-87611866D01*
X124175569Y-87628607D01*
X124141591Y-87638915D01*
X124100110Y-87643000D01*
X123498890Y-87643000D01*
X123457409Y-87638915D01*
X123423431Y-87628607D01*
X123392110Y-87611866D01*
X123364661Y-87589339D01*
X123342134Y-87561890D01*
X123325393Y-87530569D01*
X123315085Y-87496591D01*
X123311000Y-87455110D01*
X123311000Y-86778890D01*
X123315085Y-86737409D01*
X123325393Y-86703431D01*
X123342134Y-86672110D01*
X123364661Y-86644661D01*
X123392110Y-86622134D01*
X123423431Y-86605393D01*
X123457409Y-86595085D01*
X123498890Y-86591000D01*
X124100110Y-86591000D01*
X124141591Y-86595085D01*
G37*
G36*
X125716591Y-86595085D02*
G01*
X125750569Y-86605393D01*
X125781890Y-86622134D01*
X125809339Y-86644661D01*
X125831866Y-86672110D01*
X125848607Y-86703431D01*
X125858915Y-86737409D01*
X125863000Y-86778890D01*
X125863000Y-87455110D01*
X125858915Y-87496591D01*
X125848607Y-87530569D01*
X125831866Y-87561890D01*
X125809339Y-87589339D01*
X125781890Y-87611866D01*
X125750569Y-87628607D01*
X125716591Y-87638915D01*
X125675110Y-87643000D01*
X125073890Y-87643000D01*
X125032409Y-87638915D01*
X124998431Y-87628607D01*
X124967110Y-87611866D01*
X124939661Y-87589339D01*
X124917134Y-87561890D01*
X124900393Y-87530569D01*
X124890085Y-87496591D01*
X124886000Y-87455110D01*
X124886000Y-86778890D01*
X124890085Y-86737409D01*
X124900393Y-86703431D01*
X124917134Y-86672110D01*
X124939661Y-86644661D01*
X124967110Y-86622134D01*
X124998431Y-86605393D01*
X125032409Y-86595085D01*
X125073890Y-86591000D01*
X125675110Y-86591000D01*
X125716591Y-86595085D01*
G37*
G36*
X121525591Y-86595085D02*
G01*
X121559569Y-86605393D01*
X121590890Y-86622134D01*
X121618339Y-86644661D01*
X121640866Y-86672110D01*
X121657607Y-86703431D01*
X121667915Y-86737409D01*
X121672000Y-86778890D01*
X121672000Y-87455110D01*
X121667915Y-87496591D01*
X121657607Y-87530569D01*
X121640866Y-87561890D01*
X121618339Y-87589339D01*
X121590890Y-87611866D01*
X121559569Y-87628607D01*
X121525591Y-87638915D01*
X121484110Y-87643000D01*
X120882890Y-87643000D01*
X120841409Y-87638915D01*
X120807431Y-87628607D01*
X120776110Y-87611866D01*
X120748661Y-87589339D01*
X120726134Y-87561890D01*
X120709393Y-87530569D01*
X120699085Y-87496591D01*
X120695000Y-87455110D01*
X120695000Y-86778890D01*
X120699085Y-86737409D01*
X120709393Y-86703431D01*
X120726134Y-86672110D01*
X120748661Y-86644661D01*
X120776110Y-86622134D01*
X120807431Y-86605393D01*
X120841409Y-86595085D01*
X120882890Y-86591000D01*
X121484110Y-86591000D01*
X121525591Y-86595085D01*
G37*
G36*
X119950591Y-86595085D02*
G01*
X119984569Y-86605393D01*
X120015890Y-86622134D01*
X120043339Y-86644661D01*
X120065866Y-86672110D01*
X120082607Y-86703431D01*
X120092915Y-86737409D01*
X120097000Y-86778890D01*
X120097000Y-87455110D01*
X120092915Y-87496591D01*
X120082607Y-87530569D01*
X120065866Y-87561890D01*
X120043339Y-87589339D01*
X120015890Y-87611866D01*
X119984569Y-87628607D01*
X119950591Y-87638915D01*
X119909110Y-87643000D01*
X119307890Y-87643000D01*
X119266409Y-87638915D01*
X119232431Y-87628607D01*
X119201110Y-87611866D01*
X119173661Y-87589339D01*
X119151134Y-87561890D01*
X119134393Y-87530569D01*
X119124085Y-87496591D01*
X119120000Y-87455110D01*
X119120000Y-86778890D01*
X119124085Y-86737409D01*
X119134393Y-86703431D01*
X119151134Y-86672110D01*
X119173661Y-86644661D01*
X119201110Y-86622134D01*
X119232431Y-86605393D01*
X119266409Y-86595085D01*
X119307890Y-86591000D01*
X119909110Y-86591000D01*
X119950591Y-86595085D01*
G37*
G36*
X154430591Y-86480285D02*
G01*
X154464569Y-86490593D01*
X154495890Y-86507334D01*
X154523339Y-86529861D01*
X154545866Y-86557310D01*
X154562607Y-86588631D01*
X154572915Y-86622609D01*
X154577000Y-86664090D01*
X154577000Y-87265310D01*
X154572915Y-87306791D01*
X154562607Y-87340769D01*
X154545866Y-87372090D01*
X154523339Y-87399539D01*
X154495890Y-87422066D01*
X154464569Y-87438807D01*
X154430591Y-87449115D01*
X154389110Y-87453200D01*
X153712890Y-87453200D01*
X153671409Y-87449115D01*
X153637431Y-87438807D01*
X153606110Y-87422066D01*
X153578661Y-87399539D01*
X153556134Y-87372090D01*
X153539393Y-87340769D01*
X153529085Y-87306791D01*
X153525000Y-87265310D01*
X153525000Y-86664090D01*
X153529085Y-86622609D01*
X153539393Y-86588631D01*
X153556134Y-86557310D01*
X153578661Y-86529861D01*
X153606110Y-86507334D01*
X153637431Y-86490593D01*
X153671409Y-86480285D01*
X153712890Y-86476200D01*
X154389110Y-86476200D01*
X154430591Y-86480285D01*
G37*
G36*
X154430591Y-84905285D02*
G01*
X154464569Y-84915593D01*
X154495890Y-84932334D01*
X154523339Y-84954861D01*
X154545866Y-84982310D01*
X154562607Y-85013631D01*
X154572915Y-85047609D01*
X154577000Y-85089090D01*
X154577000Y-85690310D01*
X154572915Y-85731791D01*
X154562607Y-85765769D01*
X154545866Y-85797090D01*
X154523339Y-85824539D01*
X154495890Y-85847066D01*
X154464569Y-85863807D01*
X154430591Y-85874115D01*
X154389110Y-85878200D01*
X153712890Y-85878200D01*
X153671409Y-85874115D01*
X153637431Y-85863807D01*
X153606110Y-85847066D01*
X153578661Y-85824539D01*
X153556134Y-85797090D01*
X153539393Y-85765769D01*
X153529085Y-85731791D01*
X153525000Y-85690310D01*
X153525000Y-85089090D01*
X153529085Y-85047609D01*
X153539393Y-85013631D01*
X153556134Y-84982310D01*
X153578661Y-84954861D01*
X153606110Y-84932334D01*
X153637431Y-84915593D01*
X153671409Y-84905285D01*
X153712890Y-84901200D01*
X154389110Y-84901200D01*
X154430591Y-84905285D01*
G37*
G36*
X152857468Y-84705765D02*
G01*
X152896138Y-84717496D01*
X152931777Y-84736546D01*
X152963017Y-84762183D01*
X152988654Y-84793423D01*
X153007704Y-84829062D01*
X153019435Y-84867732D01*
X153024000Y-84914088D01*
X153024000Y-85565312D01*
X153019435Y-85611668D01*
X153007704Y-85650338D01*
X152988654Y-85685977D01*
X152963017Y-85717217D01*
X152931777Y-85742854D01*
X152896138Y-85761904D01*
X152857468Y-85773635D01*
X152811112Y-85778200D01*
X151734888Y-85778200D01*
X151688532Y-85773635D01*
X151649862Y-85761904D01*
X151614223Y-85742854D01*
X151582983Y-85717217D01*
X151557346Y-85685977D01*
X151538296Y-85650338D01*
X151526565Y-85611668D01*
X151522000Y-85565312D01*
X151522000Y-84914088D01*
X151526565Y-84867732D01*
X151538296Y-84829062D01*
X151557346Y-84793423D01*
X151582983Y-84762183D01*
X151614223Y-84736546D01*
X151649862Y-84717496D01*
X151688532Y-84705765D01*
X151734888Y-84701200D01*
X152811112Y-84701200D01*
X152857468Y-84705765D01*
G37*
G36*
X141201000Y-83438000D02*
G01*
X140199000Y-83438000D01*
X140199000Y-82536000D01*
X141201000Y-82536000D01*
X141201000Y-83438000D01*
G37*
G36*
X143381591Y-82213085D02*
G01*
X143415569Y-82223393D01*
X143446890Y-82240134D01*
X143474339Y-82262661D01*
X143496866Y-82290110D01*
X143513607Y-82321431D01*
X143523915Y-82355409D01*
X143528000Y-82396890D01*
X143528000Y-82998110D01*
X143523915Y-83039591D01*
X143513607Y-83073569D01*
X143496866Y-83104890D01*
X143474339Y-83132339D01*
X143446890Y-83154866D01*
X143415569Y-83171607D01*
X143381591Y-83181915D01*
X143340110Y-83186000D01*
X142663890Y-83186000D01*
X142622409Y-83181915D01*
X142588431Y-83171607D01*
X142557110Y-83154866D01*
X142529661Y-83132339D01*
X142507134Y-83104890D01*
X142490393Y-83073569D01*
X142480085Y-83039591D01*
X142476000Y-82998110D01*
X142476000Y-82396890D01*
X142480085Y-82355409D01*
X142490393Y-82321431D01*
X142507134Y-82290110D01*
X142529661Y-82262661D01*
X142557110Y-82240134D01*
X142588431Y-82223393D01*
X142622409Y-82213085D01*
X142663890Y-82209000D01*
X143340110Y-82209000D01*
X143381591Y-82213085D01*
G37*
G36*
X159815672Y-82087449D02*
G01*
X159815674Y-82087450D01*
X159815675Y-82087450D01*
X159884103Y-82115793D01*
X159945686Y-82156942D01*
X159998058Y-82209314D01*
X160039207Y-82270897D01*
X160060138Y-82321431D01*
X160067551Y-82339328D01*
X160071619Y-82359780D01*
X160082000Y-82411967D01*
X160082000Y-82486033D01*
X160067550Y-82558675D01*
X160039207Y-82627103D01*
X159998058Y-82688686D01*
X159945686Y-82741058D01*
X159884103Y-82782207D01*
X159815675Y-82810550D01*
X159815674Y-82810550D01*
X159815672Y-82810551D01*
X159743034Y-82825000D01*
X159668966Y-82825000D01*
X159596328Y-82810551D01*
X159596326Y-82810550D01*
X159596325Y-82810550D01*
X159527897Y-82782207D01*
X159466314Y-82741058D01*
X159413942Y-82688686D01*
X159372793Y-82627103D01*
X159344450Y-82558675D01*
X159330000Y-82486033D01*
X159330000Y-82411967D01*
X159340381Y-82359780D01*
X159344449Y-82339328D01*
X159351862Y-82321431D01*
X159372793Y-82270897D01*
X159413942Y-82209314D01*
X159466314Y-82156942D01*
X159527897Y-82115793D01*
X159596325Y-82087450D01*
X159596326Y-82087450D01*
X159596328Y-82087449D01*
X159668966Y-82073000D01*
X159743034Y-82073000D01*
X159815672Y-82087449D01*
G37*
G36*
X139201000Y-82488000D02*
G01*
X138199000Y-82488000D01*
X138199000Y-81586000D01*
X139201000Y-81586000D01*
X139201000Y-82488000D01*
G37*
G36*
X143381591Y-80638085D02*
G01*
X143415569Y-80648393D01*
X143446890Y-80665134D01*
X143474339Y-80687661D01*
X143496866Y-80715110D01*
X143513607Y-80746431D01*
X143523915Y-80780409D01*
X143528000Y-80821890D01*
X143528000Y-81423110D01*
X143523915Y-81464591D01*
X143513607Y-81498569D01*
X143496866Y-81529890D01*
X143474339Y-81557339D01*
X143446890Y-81579866D01*
X143415569Y-81596607D01*
X143381591Y-81606915D01*
X143340110Y-81611000D01*
X142663890Y-81611000D01*
X142622409Y-81606915D01*
X142588431Y-81596607D01*
X142557110Y-81579866D01*
X142529661Y-81557339D01*
X142507134Y-81529890D01*
X142490393Y-81498569D01*
X142480085Y-81464591D01*
X142476000Y-81423110D01*
X142476000Y-80821890D01*
X142480085Y-80780409D01*
X142490393Y-80746431D01*
X142507134Y-80715110D01*
X142529661Y-80687661D01*
X142557110Y-80665134D01*
X142588431Y-80648393D01*
X142622409Y-80638085D01*
X142663890Y-80634000D01*
X143340110Y-80634000D01*
X143381591Y-80638085D01*
G37*
G36*
X159834015Y-80475973D02*
G01*
X159937879Y-80507479D01*
X159965055Y-80522005D01*
X160033600Y-80558643D01*
X160117501Y-80627499D01*
X160186357Y-80711400D01*
X160205081Y-80746431D01*
X160237521Y-80807121D01*
X160269027Y-80910985D01*
X160279666Y-81019000D01*
X160269027Y-81127015D01*
X160237521Y-81230879D01*
X160237519Y-81230882D01*
X160186357Y-81326600D01*
X160117501Y-81410501D01*
X160033600Y-81479357D01*
X159990399Y-81502448D01*
X159937879Y-81530521D01*
X159834015Y-81562027D01*
X159753067Y-81570000D01*
X158598933Y-81570000D01*
X158517985Y-81562027D01*
X158414121Y-81530521D01*
X158361601Y-81502448D01*
X158318400Y-81479357D01*
X158234499Y-81410501D01*
X158165643Y-81326600D01*
X158114481Y-81230882D01*
X158114479Y-81230879D01*
X158082973Y-81127015D01*
X158072334Y-81019000D01*
X158082973Y-80910985D01*
X158114479Y-80807121D01*
X158146919Y-80746431D01*
X158165643Y-80711400D01*
X158234499Y-80627499D01*
X158318400Y-80558643D01*
X158386945Y-80522005D01*
X158414121Y-80507479D01*
X158517985Y-80475973D01*
X158598933Y-80468000D01*
X159753067Y-80468000D01*
X159834015Y-80475973D01*
G37*
G36*
X163764015Y-80475973D02*
G01*
X163867879Y-80507479D01*
X163895055Y-80522005D01*
X163963600Y-80558643D01*
X164047501Y-80627499D01*
X164116357Y-80711400D01*
X164135081Y-80746431D01*
X164167521Y-80807121D01*
X164199027Y-80910985D01*
X164209666Y-81019000D01*
X164199027Y-81127015D01*
X164167521Y-81230879D01*
X164167519Y-81230882D01*
X164116357Y-81326600D01*
X164047501Y-81410501D01*
X163963600Y-81479357D01*
X163920399Y-81502448D01*
X163867879Y-81530521D01*
X163764015Y-81562027D01*
X163683067Y-81570000D01*
X163028933Y-81570000D01*
X162947985Y-81562027D01*
X162844121Y-81530521D01*
X162791601Y-81502448D01*
X162748400Y-81479357D01*
X162664499Y-81410501D01*
X162595643Y-81326600D01*
X162544481Y-81230882D01*
X162544479Y-81230879D01*
X162512973Y-81127015D01*
X162502334Y-81019000D01*
X162512973Y-80910985D01*
X162544479Y-80807121D01*
X162576919Y-80746431D01*
X162595643Y-80711400D01*
X162664499Y-80627499D01*
X162748400Y-80558643D01*
X162816945Y-80522005D01*
X162844121Y-80507479D01*
X162947985Y-80475973D01*
X163028933Y-80468000D01*
X163683067Y-80468000D01*
X163764015Y-80475973D01*
G37*
G36*
X141201000Y-81538000D02*
G01*
X140199000Y-81538000D01*
X140199000Y-80636000D01*
X141201000Y-80636000D01*
X141201000Y-81538000D01*
G37*
G36*
X141201000Y-79882000D02*
G01*
X140199000Y-79882000D01*
X140199000Y-78980000D01*
X141201000Y-78980000D01*
X141201000Y-79882000D01*
G37*
G36*
X143381591Y-78784085D02*
G01*
X143415569Y-78794393D01*
X143446890Y-78811134D01*
X143474339Y-78833661D01*
X143496866Y-78861110D01*
X143513607Y-78892431D01*
X143523915Y-78926409D01*
X143528000Y-78967890D01*
X143528000Y-79569110D01*
X143523915Y-79610591D01*
X143513607Y-79644569D01*
X143496866Y-79675890D01*
X143474339Y-79703339D01*
X143446890Y-79725866D01*
X143415569Y-79742607D01*
X143381591Y-79752915D01*
X143340110Y-79757000D01*
X142663890Y-79757000D01*
X142622409Y-79752915D01*
X142588431Y-79742607D01*
X142557110Y-79725866D01*
X142529661Y-79703339D01*
X142507134Y-79675890D01*
X142490393Y-79644569D01*
X142480085Y-79610591D01*
X142476000Y-79569110D01*
X142476000Y-78967890D01*
X142480085Y-78926409D01*
X142490393Y-78892431D01*
X142507134Y-78861110D01*
X142529661Y-78833661D01*
X142557110Y-78811134D01*
X142588431Y-78794393D01*
X142622409Y-78784085D01*
X142663890Y-78780000D01*
X143340110Y-78780000D01*
X143381591Y-78784085D01*
G37*
G36*
X139201000Y-78932000D02*
G01*
X138199000Y-78932000D01*
X138199000Y-78030000D01*
X139201000Y-78030000D01*
X139201000Y-78932000D01*
G37*
G36*
X134060500Y-78810500D02*
G01*
X132258500Y-78810500D01*
X132258500Y-77008500D01*
X134060500Y-77008500D01*
X134060500Y-78810500D01*
G37*
G36*
X115493012Y-77013427D02*
G01*
X115642312Y-77043124D01*
X115806284Y-77111044D01*
X115953854Y-77209647D01*
X116079353Y-77335146D01*
X116177956Y-77482716D01*
X116245876Y-77646688D01*
X116256082Y-77698000D01*
X116280500Y-77820758D01*
X116280500Y-77998242D01*
X116276823Y-78016726D01*
X116245876Y-78172312D01*
X116177956Y-78336284D01*
X116079353Y-78483854D01*
X115953854Y-78609353D01*
X115806284Y-78707956D01*
X115642312Y-78775876D01*
X115493012Y-78805573D01*
X115468242Y-78810500D01*
X115290758Y-78810500D01*
X115265988Y-78805573D01*
X115116688Y-78775876D01*
X114952716Y-78707956D01*
X114805146Y-78609353D01*
X114679647Y-78483854D01*
X114581044Y-78336284D01*
X114513124Y-78172312D01*
X114482177Y-78016726D01*
X114478500Y-77998242D01*
X114478500Y-77820758D01*
X114502918Y-77698000D01*
X114513124Y-77646688D01*
X114581044Y-77482716D01*
X114679647Y-77335146D01*
X114805146Y-77209647D01*
X114952716Y-77111044D01*
X115116688Y-77043124D01*
X115265988Y-77013427D01*
X115290758Y-77008500D01*
X115468242Y-77008500D01*
X115493012Y-77013427D01*
G37*
G36*
X118033012Y-77013427D02*
G01*
X118182312Y-77043124D01*
X118346284Y-77111044D01*
X118493854Y-77209647D01*
X118619353Y-77335146D01*
X118717956Y-77482716D01*
X118785876Y-77646688D01*
X118796082Y-77698000D01*
X118820500Y-77820758D01*
X118820500Y-77998242D01*
X118816823Y-78016726D01*
X118785876Y-78172312D01*
X118717956Y-78336284D01*
X118619353Y-78483854D01*
X118493854Y-78609353D01*
X118346284Y-78707956D01*
X118182312Y-78775876D01*
X118033012Y-78805573D01*
X118008242Y-78810500D01*
X117830758Y-78810500D01*
X117805988Y-78805573D01*
X117656688Y-78775876D01*
X117492716Y-78707956D01*
X117345146Y-78609353D01*
X117219647Y-78483854D01*
X117121044Y-78336284D01*
X117053124Y-78172312D01*
X117022177Y-78016726D01*
X117018500Y-77998242D01*
X117018500Y-77820758D01*
X117042918Y-77698000D01*
X117053124Y-77646688D01*
X117121044Y-77482716D01*
X117219647Y-77335146D01*
X117345146Y-77209647D01*
X117492716Y-77111044D01*
X117656688Y-77043124D01*
X117805988Y-77013427D01*
X117830758Y-77008500D01*
X118008242Y-77008500D01*
X118033012Y-77013427D01*
G37*
G36*
X120573012Y-77013427D02*
G01*
X120722312Y-77043124D01*
X120886284Y-77111044D01*
X121033854Y-77209647D01*
X121159353Y-77335146D01*
X121257956Y-77482716D01*
X121325876Y-77646688D01*
X121336082Y-77698000D01*
X121360500Y-77820758D01*
X121360500Y-77998242D01*
X121356823Y-78016726D01*
X121325876Y-78172312D01*
X121257956Y-78336284D01*
X121159353Y-78483854D01*
X121033854Y-78609353D01*
X120886284Y-78707956D01*
X120722312Y-78775876D01*
X120573012Y-78805573D01*
X120548242Y-78810500D01*
X120370758Y-78810500D01*
X120345988Y-78805573D01*
X120196688Y-78775876D01*
X120032716Y-78707956D01*
X119885146Y-78609353D01*
X119759647Y-78483854D01*
X119661044Y-78336284D01*
X119593124Y-78172312D01*
X119562177Y-78016726D01*
X119558500Y-77998242D01*
X119558500Y-77820758D01*
X119582918Y-77698000D01*
X119593124Y-77646688D01*
X119661044Y-77482716D01*
X119759647Y-77335146D01*
X119885146Y-77209647D01*
X120032716Y-77111044D01*
X120196688Y-77043124D01*
X120345988Y-77013427D01*
X120370758Y-77008500D01*
X120548242Y-77008500D01*
X120573012Y-77013427D01*
G37*
G36*
X123113012Y-77013427D02*
G01*
X123262312Y-77043124D01*
X123426284Y-77111044D01*
X123573854Y-77209647D01*
X123699353Y-77335146D01*
X123797956Y-77482716D01*
X123865876Y-77646688D01*
X123876082Y-77698000D01*
X123900500Y-77820758D01*
X123900500Y-77998242D01*
X123896823Y-78016726D01*
X123865876Y-78172312D01*
X123797956Y-78336284D01*
X123699353Y-78483854D01*
X123573854Y-78609353D01*
X123426284Y-78707956D01*
X123262312Y-78775876D01*
X123113012Y-78805573D01*
X123088242Y-78810500D01*
X122910758Y-78810500D01*
X122885988Y-78805573D01*
X122736688Y-78775876D01*
X122572716Y-78707956D01*
X122425146Y-78609353D01*
X122299647Y-78483854D01*
X122201044Y-78336284D01*
X122133124Y-78172312D01*
X122102177Y-78016726D01*
X122098500Y-77998242D01*
X122098500Y-77820758D01*
X122122918Y-77698000D01*
X122133124Y-77646688D01*
X122201044Y-77482716D01*
X122299647Y-77335146D01*
X122425146Y-77209647D01*
X122572716Y-77111044D01*
X122736688Y-77043124D01*
X122885988Y-77013427D01*
X122910758Y-77008500D01*
X123088242Y-77008500D01*
X123113012Y-77013427D01*
G37*
G36*
X125653012Y-77013427D02*
G01*
X125802312Y-77043124D01*
X125966284Y-77111044D01*
X126113854Y-77209647D01*
X126239353Y-77335146D01*
X126337956Y-77482716D01*
X126405876Y-77646688D01*
X126416082Y-77698000D01*
X126440500Y-77820758D01*
X126440500Y-77998242D01*
X126436823Y-78016726D01*
X126405876Y-78172312D01*
X126337956Y-78336284D01*
X126239353Y-78483854D01*
X126113854Y-78609353D01*
X125966284Y-78707956D01*
X125802312Y-78775876D01*
X125653012Y-78805573D01*
X125628242Y-78810500D01*
X125450758Y-78810500D01*
X125425988Y-78805573D01*
X125276688Y-78775876D01*
X125112716Y-78707956D01*
X124965146Y-78609353D01*
X124839647Y-78483854D01*
X124741044Y-78336284D01*
X124673124Y-78172312D01*
X124642177Y-78016726D01*
X124638500Y-77998242D01*
X124638500Y-77820758D01*
X124662918Y-77698000D01*
X124673124Y-77646688D01*
X124741044Y-77482716D01*
X124839647Y-77335146D01*
X124965146Y-77209647D01*
X125112716Y-77111044D01*
X125276688Y-77043124D01*
X125425988Y-77013427D01*
X125450758Y-77008500D01*
X125628242Y-77008500D01*
X125653012Y-77013427D01*
G37*
G36*
X128193012Y-77013427D02*
G01*
X128342312Y-77043124D01*
X128506284Y-77111044D01*
X128653854Y-77209647D01*
X128779353Y-77335146D01*
X128877956Y-77482716D01*
X128945876Y-77646688D01*
X128956082Y-77698000D01*
X128980500Y-77820758D01*
X128980500Y-77998242D01*
X128976823Y-78016726D01*
X128945876Y-78172312D01*
X128877956Y-78336284D01*
X128779353Y-78483854D01*
X128653854Y-78609353D01*
X128506284Y-78707956D01*
X128342312Y-78775876D01*
X128193012Y-78805573D01*
X128168242Y-78810500D01*
X127990758Y-78810500D01*
X127965988Y-78805573D01*
X127816688Y-78775876D01*
X127652716Y-78707956D01*
X127505146Y-78609353D01*
X127379647Y-78483854D01*
X127281044Y-78336284D01*
X127213124Y-78172312D01*
X127182177Y-78016726D01*
X127178500Y-77998242D01*
X127178500Y-77820758D01*
X127202918Y-77698000D01*
X127213124Y-77646688D01*
X127281044Y-77482716D01*
X127379647Y-77335146D01*
X127505146Y-77209647D01*
X127652716Y-77111044D01*
X127816688Y-77043124D01*
X127965988Y-77013427D01*
X127990758Y-77008500D01*
X128168242Y-77008500D01*
X128193012Y-77013427D01*
G37*
G36*
X130733012Y-77013427D02*
G01*
X130882312Y-77043124D01*
X131046284Y-77111044D01*
X131193854Y-77209647D01*
X131319353Y-77335146D01*
X131417956Y-77482716D01*
X131485876Y-77646688D01*
X131496082Y-77698000D01*
X131520500Y-77820758D01*
X131520500Y-77998242D01*
X131516823Y-78016726D01*
X131485876Y-78172312D01*
X131417956Y-78336284D01*
X131319353Y-78483854D01*
X131193854Y-78609353D01*
X131046284Y-78707956D01*
X130882312Y-78775876D01*
X130733012Y-78805573D01*
X130708242Y-78810500D01*
X130530758Y-78810500D01*
X130505988Y-78805573D01*
X130356688Y-78775876D01*
X130192716Y-78707956D01*
X130045146Y-78609353D01*
X129919647Y-78483854D01*
X129821044Y-78336284D01*
X129753124Y-78172312D01*
X129722177Y-78016726D01*
X129718500Y-77998242D01*
X129718500Y-77820758D01*
X129742918Y-77698000D01*
X129753124Y-77646688D01*
X129821044Y-77482716D01*
X129919647Y-77335146D01*
X130045146Y-77209647D01*
X130192716Y-77111044D01*
X130356688Y-77043124D01*
X130505988Y-77013427D01*
X130530758Y-77008500D01*
X130708242Y-77008500D01*
X130733012Y-77013427D01*
G37*
G36*
X164105880Y-74208776D02*
G01*
X164486593Y-74284504D01*
X164896249Y-74454189D01*
X165264929Y-74700534D01*
X165578466Y-75014071D01*
X165824811Y-75382751D01*
X165994496Y-75792407D01*
X166081000Y-76227296D01*
X166081000Y-76670704D01*
X165994496Y-77105593D01*
X165824811Y-77515249D01*
X165578466Y-77883929D01*
X165264929Y-78197466D01*
X164896249Y-78443811D01*
X164486593Y-78613496D01*
X164105880Y-78689224D01*
X164051705Y-78700000D01*
X163608295Y-78700000D01*
X163554120Y-78689224D01*
X163173407Y-78613496D01*
X162763751Y-78443811D01*
X162395071Y-78197466D01*
X162081534Y-77883929D01*
X161835189Y-77515249D01*
X161665504Y-77105593D01*
X161579000Y-76670704D01*
X161579000Y-76227296D01*
X161665504Y-75792407D01*
X161835189Y-75382751D01*
X162081534Y-75014071D01*
X162395071Y-74700534D01*
X162763751Y-74454189D01*
X163173407Y-74284504D01*
X163554120Y-74208776D01*
X163608295Y-74198000D01*
X164051705Y-74198000D01*
X164105880Y-74208776D01*
G37*
G36*
X109749880Y-74208776D02*
G01*
X110130593Y-74284504D01*
X110540249Y-74454189D01*
X110908929Y-74700534D01*
X111222466Y-75014071D01*
X111468811Y-75382751D01*
X111638496Y-75792407D01*
X111725000Y-76227296D01*
X111725000Y-76670704D01*
X111638496Y-77105593D01*
X111468811Y-77515249D01*
X111222466Y-77883929D01*
X110908929Y-78197466D01*
X110540249Y-78443811D01*
X110130593Y-78613496D01*
X109749880Y-78689224D01*
X109695705Y-78700000D01*
X109252295Y-78700000D01*
X109198120Y-78689224D01*
X108817407Y-78613496D01*
X108407751Y-78443811D01*
X108039071Y-78197466D01*
X107725534Y-77883929D01*
X107479189Y-77515249D01*
X107309504Y-77105593D01*
X107223000Y-76670704D01*
X107223000Y-76227296D01*
X107309504Y-75792407D01*
X107479189Y-75382751D01*
X107725534Y-75014071D01*
X108039071Y-74700534D01*
X108407751Y-74454189D01*
X108817407Y-74284504D01*
X109198120Y-74208776D01*
X109252295Y-74198000D01*
X109695705Y-74198000D01*
X109749880Y-74208776D01*
G37*
G36*
X143381591Y-77209085D02*
G01*
X143415569Y-77219393D01*
X143446890Y-77236134D01*
X143474339Y-77258661D01*
X143496866Y-77286110D01*
X143513607Y-77317431D01*
X143523915Y-77351409D01*
X143528000Y-77392890D01*
X143528000Y-77994110D01*
X143523915Y-78035591D01*
X143513607Y-78069569D01*
X143496866Y-78100890D01*
X143474339Y-78128339D01*
X143446890Y-78150866D01*
X143415569Y-78167607D01*
X143381591Y-78177915D01*
X143340110Y-78182000D01*
X142663890Y-78182000D01*
X142622409Y-78177915D01*
X142588431Y-78167607D01*
X142557110Y-78150866D01*
X142529661Y-78128339D01*
X142507134Y-78100890D01*
X142490393Y-78069569D01*
X142480085Y-78035591D01*
X142476000Y-77994110D01*
X142476000Y-77392890D01*
X142480085Y-77351409D01*
X142490393Y-77317431D01*
X142507134Y-77286110D01*
X142529661Y-77258661D01*
X142557110Y-77236134D01*
X142588431Y-77219393D01*
X142622409Y-77209085D01*
X142663890Y-77205000D01*
X143340110Y-77205000D01*
X143381591Y-77209085D01*
G37*
G36*
X141201000Y-77982000D02*
G01*
X140199000Y-77982000D01*
X140199000Y-77080000D01*
X141201000Y-77080000D01*
X141201000Y-77982000D01*
G37*
M02*
