M48
; DRILL file {KiCad (5.1.5)-2} date 2020/3/24 14:46:54
; FORMAT={-:-/ absolute / metric / decimal}
; #@! TF.CreationDate,2020-03-24T14:46:54+08:00
; #@! TF.GenerationSoftware,Kicad,Pcbnew,(5.1.5)-2
; #@! TF.FileFunction,Plated,1,2,PTH
FMAT,2
METRIC
T1C0.300
T2C0.400
T3C0.600
T4C1.000
T5C1.400
T6C2.200
%
G90
G05
T1
X114.3Y-100.198
X114.427Y-104.389
X115.57Y-86.609
X115.57Y-99.182
X116.078Y-103.754
X116.141Y-91.943
X116.84Y-99.436
X118.11Y-84.958
X118.364Y-91.435
X118.491Y-86.482
X120.269Y-104.579
X120.269Y-106.294
X120.269Y-108.008
X121.793Y-94.483
X122.682Y-86.482
X123.634Y-109.278
X124.269Y-98.611
X126.365Y-109.596
X127.127Y-87.498
X128.524Y-98.738
X129.286Y-98.737
X130.048Y-97.912
X131.445Y-109.596
X131.826Y-84.323
X133.921Y-79.941
X133.985Y-109.596
X134.62Y-90.419
X135.064Y-87.498
X135.953Y-87.498
X135.953Y-89.085
X136.994Y-109.024
X137.008Y-86.888
X137.033Y-83.18
X137.384Y-88.115
X137.414Y-95.054
X140.609Y-90.209
X141.097Y-85.974
X141.567Y-102.649
X141.859Y-79.497
X141.859Y-82.672
X142.875Y-85.974
X144.272Y-91.371
X144.526Y-100.642
X144.526Y-103.754
X145.288Y-94.229
X145.542Y-77.719
X145.542Y-81.148
X145.923Y-100.642
X145.923Y-103.754
X147.256Y-90.038
X148.463Y-76.195
X148.463Y-84.831
X148.717Y-79.497
X149.225Y-83.815
X149.479Y-87.244
X149.504Y-85.618
X149.504Y-86.431
X149.733Y-100.325
X150.749Y-100.325
X151.257Y-83.815
X153.16Y-87.115
X153.187Y-86.152
X153.543Y-77.846
X153.543Y-79.243
X153.67Y-92.007
X153.67Y-93.086
X156.464Y-87.752
X161.544Y-93.848
T2
X145.859Y-109.024
X148.145Y-110.612
X107.824Y-110.866
X108.307Y-109.699
X108.307Y-112.033
X109.474Y-109.216
X109.474Y-112.516
X110.641Y-109.699
X110.641Y-112.033
X111.124Y-110.866
X162.18Y-76.449
X162.663Y-75.282
X162.663Y-77.616
X163.83Y-74.799
X163.83Y-78.099
X164.997Y-75.282
X164.997Y-77.616
X165.48Y-76.449
X107.824Y-76.449
X108.307Y-75.282
X108.307Y-77.616
X109.474Y-74.799
X109.474Y-78.099
X110.641Y-75.282
X110.641Y-77.616
X111.124Y-76.449
X162.18Y-110.866
X162.663Y-109.699
X162.663Y-112.033
X163.83Y-109.216
X163.83Y-112.516
X164.997Y-109.699
X164.997Y-112.033
X165.48Y-110.866
X146.939Y-94.788
X146.939Y-95.88
X146.939Y-96.947
X148.209Y-94.788
X148.209Y-95.88
X148.209Y-96.947
T4
X155.194Y-108.834
X157.734Y-108.834
X115.379Y-77.909
X117.919Y-77.909
X120.459Y-77.909
X122.999Y-77.909
X125.539Y-77.909
X128.079Y-77.909
X130.619Y-77.909
X133.159Y-77.909
X118.745Y-111.628
X121.285Y-111.628
X123.825Y-111.628
X126.365Y-111.628
X128.905Y-111.628
X131.445Y-111.628
X133.985Y-111.628
T5
X155.219Y-95.296
X155.219Y-100.096
X155.219Y-104.896
T6
X163.83Y-76.449
X109.474Y-76.449
X163.83Y-110.866
X109.474Y-110.866
T3
G00X158.626Y-81.019
M15
G01X159.726Y-81.019
M16
G05
G00X158.626Y-89.659
M15
G01X159.726Y-89.659
M16
G05
G00X163.056Y-81.019
M15
G01X163.656Y-81.019
M16
G05
G00X163.056Y-89.659
M15
G01X163.656Y-89.659
M16
G05
T0
M30
