G04 #@! TF.GenerationSoftware,KiCad,Pcbnew,(5.1.5)-2*
G04 #@! TF.CreationDate,2020-03-10T14:18:09+08:00*
G04 #@! TF.ProjectId,ESP32-sensorKit,45535033-322d-4736-956e-736f724b6974,rev?*
G04 #@! TF.SameCoordinates,Original*
G04 #@! TF.FileFunction,Soldermask,Top*
G04 #@! TF.FilePolarity,Negative*
%FSLAX46Y46*%
G04 Gerber Fmt 4.6, Leading zero omitted, Abs format (unit mm)*
G04 Created by KiCad (PCBNEW (5.1.5)-2) date 2020-03-10 14:18:09*
%MOMM*%
%LPD*%
G04 APERTURE LIST*
%ADD10C,0.100000*%
G04 APERTURE END LIST*
D10*
G36*
X164105880Y-108625776D02*
G01*
X164486593Y-108701504D01*
X164896249Y-108871189D01*
X165264929Y-109117534D01*
X165578466Y-109431071D01*
X165824811Y-109799751D01*
X165994496Y-110209407D01*
X166081000Y-110644296D01*
X166081000Y-111087704D01*
X165994496Y-111522593D01*
X165824811Y-111932249D01*
X165578466Y-112300929D01*
X165264929Y-112614466D01*
X164896249Y-112860811D01*
X164486593Y-113030496D01*
X164105880Y-113106224D01*
X164051705Y-113117000D01*
X163608295Y-113117000D01*
X163554120Y-113106224D01*
X163173407Y-113030496D01*
X162763751Y-112860811D01*
X162395071Y-112614466D01*
X162081534Y-112300929D01*
X161835189Y-111932249D01*
X161665504Y-111522593D01*
X161579000Y-111087704D01*
X161579000Y-110644296D01*
X161665504Y-110209407D01*
X161835189Y-109799751D01*
X162081534Y-109431071D01*
X162395071Y-109117534D01*
X162763751Y-108871189D01*
X163173407Y-108701504D01*
X163554120Y-108625776D01*
X163608295Y-108615000D01*
X164051705Y-108615000D01*
X164105880Y-108625776D01*
G37*
G36*
X109749880Y-108625776D02*
G01*
X110130593Y-108701504D01*
X110540249Y-108871189D01*
X110908929Y-109117534D01*
X111222466Y-109431071D01*
X111468811Y-109799751D01*
X111638496Y-110209407D01*
X111725000Y-110644296D01*
X111725000Y-111087704D01*
X111638496Y-111522593D01*
X111468811Y-111932249D01*
X111222466Y-112300929D01*
X110908929Y-112614466D01*
X110540249Y-112860811D01*
X110130593Y-113030496D01*
X109749880Y-113106224D01*
X109695705Y-113117000D01*
X109252295Y-113117000D01*
X109198120Y-113106224D01*
X108817407Y-113030496D01*
X108407751Y-112860811D01*
X108039071Y-112614466D01*
X107725534Y-112300929D01*
X107479189Y-111932249D01*
X107309504Y-111522593D01*
X107223000Y-111087704D01*
X107223000Y-110644296D01*
X107309504Y-110209407D01*
X107479189Y-109799751D01*
X107725534Y-109431071D01*
X108039071Y-109117534D01*
X108407751Y-108871189D01*
X108817407Y-108701504D01*
X109198120Y-108625776D01*
X109252295Y-108615000D01*
X109695705Y-108615000D01*
X109749880Y-108625776D01*
G37*
G36*
X129018512Y-110731927D02*
G01*
X129167812Y-110761624D01*
X129331784Y-110829544D01*
X129479354Y-110928147D01*
X129604853Y-111053646D01*
X129703456Y-111201216D01*
X129771376Y-111365188D01*
X129806000Y-111539259D01*
X129806000Y-111716741D01*
X129771376Y-111890812D01*
X129703456Y-112054784D01*
X129604853Y-112202354D01*
X129479354Y-112327853D01*
X129331784Y-112426456D01*
X129167812Y-112494376D01*
X129018512Y-112524073D01*
X128993742Y-112529000D01*
X128816258Y-112529000D01*
X128791488Y-112524073D01*
X128642188Y-112494376D01*
X128478216Y-112426456D01*
X128330646Y-112327853D01*
X128205147Y-112202354D01*
X128106544Y-112054784D01*
X128038624Y-111890812D01*
X128004000Y-111716741D01*
X128004000Y-111539259D01*
X128038624Y-111365188D01*
X128106544Y-111201216D01*
X128205147Y-111053646D01*
X128330646Y-110928147D01*
X128478216Y-110829544D01*
X128642188Y-110761624D01*
X128791488Y-110731927D01*
X128816258Y-110727000D01*
X128993742Y-110727000D01*
X129018512Y-110731927D01*
G37*
G36*
X123938512Y-110731927D02*
G01*
X124087812Y-110761624D01*
X124251784Y-110829544D01*
X124399354Y-110928147D01*
X124524853Y-111053646D01*
X124623456Y-111201216D01*
X124691376Y-111365188D01*
X124726000Y-111539259D01*
X124726000Y-111716741D01*
X124691376Y-111890812D01*
X124623456Y-112054784D01*
X124524853Y-112202354D01*
X124399354Y-112327853D01*
X124251784Y-112426456D01*
X124087812Y-112494376D01*
X123938512Y-112524073D01*
X123913742Y-112529000D01*
X123736258Y-112529000D01*
X123711488Y-112524073D01*
X123562188Y-112494376D01*
X123398216Y-112426456D01*
X123250646Y-112327853D01*
X123125147Y-112202354D01*
X123026544Y-112054784D01*
X122958624Y-111890812D01*
X122924000Y-111716741D01*
X122924000Y-111539259D01*
X122958624Y-111365188D01*
X123026544Y-111201216D01*
X123125147Y-111053646D01*
X123250646Y-110928147D01*
X123398216Y-110829544D01*
X123562188Y-110761624D01*
X123711488Y-110731927D01*
X123736258Y-110727000D01*
X123913742Y-110727000D01*
X123938512Y-110731927D01*
G37*
G36*
X126478512Y-110731927D02*
G01*
X126627812Y-110761624D01*
X126791784Y-110829544D01*
X126939354Y-110928147D01*
X127064853Y-111053646D01*
X127163456Y-111201216D01*
X127231376Y-111365188D01*
X127266000Y-111539259D01*
X127266000Y-111716741D01*
X127231376Y-111890812D01*
X127163456Y-112054784D01*
X127064853Y-112202354D01*
X126939354Y-112327853D01*
X126791784Y-112426456D01*
X126627812Y-112494376D01*
X126478512Y-112524073D01*
X126453742Y-112529000D01*
X126276258Y-112529000D01*
X126251488Y-112524073D01*
X126102188Y-112494376D01*
X125938216Y-112426456D01*
X125790646Y-112327853D01*
X125665147Y-112202354D01*
X125566544Y-112054784D01*
X125498624Y-111890812D01*
X125464000Y-111716741D01*
X125464000Y-111539259D01*
X125498624Y-111365188D01*
X125566544Y-111201216D01*
X125665147Y-111053646D01*
X125790646Y-110928147D01*
X125938216Y-110829544D01*
X126102188Y-110761624D01*
X126251488Y-110731927D01*
X126276258Y-110727000D01*
X126453742Y-110727000D01*
X126478512Y-110731927D01*
G37*
G36*
X121398512Y-110731927D02*
G01*
X121547812Y-110761624D01*
X121711784Y-110829544D01*
X121859354Y-110928147D01*
X121984853Y-111053646D01*
X122083456Y-111201216D01*
X122151376Y-111365188D01*
X122186000Y-111539259D01*
X122186000Y-111716741D01*
X122151376Y-111890812D01*
X122083456Y-112054784D01*
X121984853Y-112202354D01*
X121859354Y-112327853D01*
X121711784Y-112426456D01*
X121547812Y-112494376D01*
X121398512Y-112524073D01*
X121373742Y-112529000D01*
X121196258Y-112529000D01*
X121171488Y-112524073D01*
X121022188Y-112494376D01*
X120858216Y-112426456D01*
X120710646Y-112327853D01*
X120585147Y-112202354D01*
X120486544Y-112054784D01*
X120418624Y-111890812D01*
X120384000Y-111716741D01*
X120384000Y-111539259D01*
X120418624Y-111365188D01*
X120486544Y-111201216D01*
X120585147Y-111053646D01*
X120710646Y-110928147D01*
X120858216Y-110829544D01*
X121022188Y-110761624D01*
X121171488Y-110731927D01*
X121196258Y-110727000D01*
X121373742Y-110727000D01*
X121398512Y-110731927D01*
G37*
G36*
X131558512Y-110731927D02*
G01*
X131707812Y-110761624D01*
X131871784Y-110829544D01*
X132019354Y-110928147D01*
X132144853Y-111053646D01*
X132243456Y-111201216D01*
X132311376Y-111365188D01*
X132346000Y-111539259D01*
X132346000Y-111716741D01*
X132311376Y-111890812D01*
X132243456Y-112054784D01*
X132144853Y-112202354D01*
X132019354Y-112327853D01*
X131871784Y-112426456D01*
X131707812Y-112494376D01*
X131558512Y-112524073D01*
X131533742Y-112529000D01*
X131356258Y-112529000D01*
X131331488Y-112524073D01*
X131182188Y-112494376D01*
X131018216Y-112426456D01*
X130870646Y-112327853D01*
X130745147Y-112202354D01*
X130646544Y-112054784D01*
X130578624Y-111890812D01*
X130544000Y-111716741D01*
X130544000Y-111539259D01*
X130578624Y-111365188D01*
X130646544Y-111201216D01*
X130745147Y-111053646D01*
X130870646Y-110928147D01*
X131018216Y-110829544D01*
X131182188Y-110761624D01*
X131331488Y-110731927D01*
X131356258Y-110727000D01*
X131533742Y-110727000D01*
X131558512Y-110731927D01*
G37*
G36*
X134098512Y-110731927D02*
G01*
X134247812Y-110761624D01*
X134411784Y-110829544D01*
X134559354Y-110928147D01*
X134684853Y-111053646D01*
X134783456Y-111201216D01*
X134851376Y-111365188D01*
X134886000Y-111539259D01*
X134886000Y-111716741D01*
X134851376Y-111890812D01*
X134783456Y-112054784D01*
X134684853Y-112202354D01*
X134559354Y-112327853D01*
X134411784Y-112426456D01*
X134247812Y-112494376D01*
X134098512Y-112524073D01*
X134073742Y-112529000D01*
X133896258Y-112529000D01*
X133871488Y-112524073D01*
X133722188Y-112494376D01*
X133558216Y-112426456D01*
X133410646Y-112327853D01*
X133285147Y-112202354D01*
X133186544Y-112054784D01*
X133118624Y-111890812D01*
X133084000Y-111716741D01*
X133084000Y-111539259D01*
X133118624Y-111365188D01*
X133186544Y-111201216D01*
X133285147Y-111053646D01*
X133410646Y-110928147D01*
X133558216Y-110829544D01*
X133722188Y-110761624D01*
X133871488Y-110731927D01*
X133896258Y-110727000D01*
X134073742Y-110727000D01*
X134098512Y-110731927D01*
G37*
G36*
X119646000Y-112529000D02*
G01*
X117844000Y-112529000D01*
X117844000Y-110727000D01*
X119646000Y-110727000D01*
X119646000Y-112529000D01*
G37*
G36*
X155307512Y-107937927D02*
G01*
X155456812Y-107967624D01*
X155620784Y-108035544D01*
X155768354Y-108134147D01*
X155893853Y-108259646D01*
X155992456Y-108407216D01*
X156060376Y-108571188D01*
X156095000Y-108745259D01*
X156095000Y-108922741D01*
X156060376Y-109096812D01*
X155992456Y-109260784D01*
X155893853Y-109408354D01*
X155768354Y-109533853D01*
X155620784Y-109632456D01*
X155456812Y-109700376D01*
X155307512Y-109730073D01*
X155282742Y-109735000D01*
X155105258Y-109735000D01*
X155080488Y-109730073D01*
X154931188Y-109700376D01*
X154767216Y-109632456D01*
X154619646Y-109533853D01*
X154494147Y-109408354D01*
X154395544Y-109260784D01*
X154327624Y-109096812D01*
X154293000Y-108922741D01*
X154293000Y-108745259D01*
X154327624Y-108571188D01*
X154395544Y-108407216D01*
X154494147Y-108259646D01*
X154619646Y-108134147D01*
X154767216Y-108035544D01*
X154931188Y-107967624D01*
X155080488Y-107937927D01*
X155105258Y-107933000D01*
X155282742Y-107933000D01*
X155307512Y-107937927D01*
G37*
G36*
X158635000Y-109735000D02*
G01*
X156833000Y-109735000D01*
X156833000Y-107933000D01*
X158635000Y-107933000D01*
X158635000Y-109735000D01*
G37*
G36*
X119872500Y-108595000D02*
G01*
X117770500Y-108595000D01*
X117770500Y-107393000D01*
X119872500Y-107393000D01*
X119872500Y-108595000D01*
G37*
G36*
X124672500Y-108595000D02*
G01*
X122570500Y-108595000D01*
X122570500Y-107393000D01*
X124672500Y-107393000D01*
X124672500Y-108595000D01*
G37*
G36*
X124672500Y-106895000D02*
G01*
X122570500Y-106895000D01*
X122570500Y-105693000D01*
X124672500Y-105693000D01*
X124672500Y-106895000D01*
G37*
G36*
X119872500Y-106895000D02*
G01*
X117770500Y-106895000D01*
X117770500Y-105693000D01*
X119872500Y-105693000D01*
X119872500Y-106895000D01*
G37*
G36*
X137984497Y-104367551D02*
G01*
X138018152Y-104377761D01*
X138049165Y-104394338D01*
X138076351Y-104416649D01*
X138098662Y-104443835D01*
X138115239Y-104474848D01*
X138125449Y-104508503D01*
X138129500Y-104549638D01*
X138129500Y-105879362D01*
X138125449Y-105920497D01*
X138115239Y-105954152D01*
X138098662Y-105985165D01*
X138076351Y-106012351D01*
X138049165Y-106034662D01*
X138018152Y-106051239D01*
X137984497Y-106061449D01*
X137943362Y-106065500D01*
X134713638Y-106065500D01*
X134672503Y-106061449D01*
X134638848Y-106051239D01*
X134607835Y-106034662D01*
X134580649Y-106012351D01*
X134558338Y-105985165D01*
X134541761Y-105954152D01*
X134531551Y-105920497D01*
X134527500Y-105879362D01*
X134527500Y-104549638D01*
X134531551Y-104508503D01*
X134541761Y-104474848D01*
X134558338Y-104443835D01*
X134580649Y-104416649D01*
X134607835Y-104394338D01*
X134638848Y-104377761D01*
X134672503Y-104367551D01*
X134713638Y-104363500D01*
X137943362Y-104363500D01*
X137984497Y-104367551D01*
G37*
G36*
X143584497Y-104367551D02*
G01*
X143618152Y-104377761D01*
X143649165Y-104394338D01*
X143676351Y-104416649D01*
X143698662Y-104443835D01*
X143715239Y-104474848D01*
X143725449Y-104508503D01*
X143729500Y-104549638D01*
X143729500Y-105879362D01*
X143725449Y-105920497D01*
X143715239Y-105954152D01*
X143698662Y-105985165D01*
X143676351Y-106012351D01*
X143649165Y-106034662D01*
X143618152Y-106051239D01*
X143584497Y-106061449D01*
X143543362Y-106065500D01*
X140313638Y-106065500D01*
X140272503Y-106061449D01*
X140238848Y-106051239D01*
X140207835Y-106034662D01*
X140180649Y-106012351D01*
X140158338Y-105985165D01*
X140141761Y-105954152D01*
X140131551Y-105920497D01*
X140127500Y-105879362D01*
X140127500Y-104549638D01*
X140131551Y-104508503D01*
X140141761Y-104474848D01*
X140158338Y-104443835D01*
X140180649Y-104416649D01*
X140207835Y-104394338D01*
X140238848Y-104377761D01*
X140272503Y-104367551D01*
X140313638Y-104363500D01*
X143543362Y-104363500D01*
X143584497Y-104367551D01*
G37*
G36*
X155525964Y-103885189D02*
G01*
X155717233Y-103964415D01*
X155717235Y-103964416D01*
X155889373Y-104079435D01*
X156035765Y-104225827D01*
X156148361Y-104394338D01*
X156150785Y-104397967D01*
X156230011Y-104589236D01*
X156270400Y-104792284D01*
X156270400Y-104999316D01*
X156230011Y-105202364D01*
X156150785Y-105393633D01*
X156150784Y-105393635D01*
X156035765Y-105565773D01*
X155889373Y-105712165D01*
X155717235Y-105827184D01*
X155717234Y-105827185D01*
X155717233Y-105827185D01*
X155525964Y-105906411D01*
X155322916Y-105946800D01*
X155115884Y-105946800D01*
X154912836Y-105906411D01*
X154721567Y-105827185D01*
X154721566Y-105827185D01*
X154721565Y-105827184D01*
X154549427Y-105712165D01*
X154403035Y-105565773D01*
X154288016Y-105393635D01*
X154288015Y-105393633D01*
X154208789Y-105202364D01*
X154168400Y-104999316D01*
X154168400Y-104792284D01*
X154208789Y-104589236D01*
X154288015Y-104397967D01*
X154290440Y-104394338D01*
X154403035Y-104225827D01*
X154549427Y-104079435D01*
X154721565Y-103964416D01*
X154721567Y-103964415D01*
X154912836Y-103885189D01*
X155115884Y-103844800D01*
X155322916Y-103844800D01*
X155525964Y-103885189D01*
G37*
G36*
X119872500Y-105195000D02*
G01*
X117770500Y-105195000D01*
X117770500Y-103993000D01*
X119872500Y-103993000D01*
X119872500Y-105195000D01*
G37*
G36*
X124672500Y-105195000D02*
G01*
X122570500Y-105195000D01*
X122570500Y-103993000D01*
X124672500Y-103993000D01*
X124672500Y-105195000D01*
G37*
G36*
X146302548Y-102994622D02*
G01*
X146336887Y-103005039D01*
X146368536Y-103021956D01*
X146396278Y-103044722D01*
X146419044Y-103072464D01*
X146435961Y-103104113D01*
X146446378Y-103138452D01*
X146450500Y-103180307D01*
X146450500Y-104402693D01*
X146446378Y-104444548D01*
X146435961Y-104478887D01*
X146419044Y-104510536D01*
X146396278Y-104538278D01*
X146368536Y-104561044D01*
X146336887Y-104577961D01*
X146302548Y-104588378D01*
X146260693Y-104592500D01*
X144188307Y-104592500D01*
X144146452Y-104588378D01*
X144112113Y-104577961D01*
X144080464Y-104561044D01*
X144052722Y-104538278D01*
X144029956Y-104510536D01*
X144013039Y-104478887D01*
X144002622Y-104444548D01*
X143998500Y-104402693D01*
X143998500Y-103180307D01*
X144002622Y-103138452D01*
X144013039Y-103104113D01*
X144029956Y-103072464D01*
X144052722Y-103044722D01*
X144080464Y-103021956D01*
X144112113Y-103005039D01*
X144146452Y-102994622D01*
X144188307Y-102990500D01*
X146260693Y-102990500D01*
X146302548Y-102994622D01*
G37*
G36*
X119881000Y-103018000D02*
G01*
X118879000Y-103018000D01*
X118879000Y-100916000D01*
X119881000Y-100916000D01*
X119881000Y-103018000D01*
G37*
G36*
X118611000Y-103018000D02*
G01*
X117609000Y-103018000D01*
X117609000Y-100916000D01*
X118611000Y-100916000D01*
X118611000Y-103018000D01*
G37*
G36*
X121151000Y-103018000D02*
G01*
X120149000Y-103018000D01*
X120149000Y-100916000D01*
X121151000Y-100916000D01*
X121151000Y-103018000D01*
G37*
G36*
X122421000Y-103018000D02*
G01*
X121419000Y-103018000D01*
X121419000Y-100916000D01*
X122421000Y-100916000D01*
X122421000Y-103018000D01*
G37*
G36*
X123691000Y-103018000D02*
G01*
X122689000Y-103018000D01*
X122689000Y-100916000D01*
X123691000Y-100916000D01*
X123691000Y-103018000D01*
G37*
G36*
X124961000Y-103018000D02*
G01*
X123959000Y-103018000D01*
X123959000Y-100916000D01*
X124961000Y-100916000D01*
X124961000Y-103018000D01*
G37*
G36*
X127501000Y-103018000D02*
G01*
X126499000Y-103018000D01*
X126499000Y-100916000D01*
X127501000Y-100916000D01*
X127501000Y-103018000D01*
G37*
G36*
X128771000Y-103018000D02*
G01*
X127769000Y-103018000D01*
X127769000Y-100916000D01*
X128771000Y-100916000D01*
X128771000Y-103018000D01*
G37*
G36*
X130041000Y-103018000D02*
G01*
X129039000Y-103018000D01*
X129039000Y-100916000D01*
X130041000Y-100916000D01*
X130041000Y-103018000D01*
G37*
G36*
X131311000Y-103018000D02*
G01*
X130309000Y-103018000D01*
X130309000Y-100916000D01*
X131311000Y-100916000D01*
X131311000Y-103018000D01*
G37*
G36*
X117341000Y-103018000D02*
G01*
X116339000Y-103018000D01*
X116339000Y-100916000D01*
X117341000Y-100916000D01*
X117341000Y-103018000D01*
G37*
G36*
X116071000Y-103018000D02*
G01*
X115069000Y-103018000D01*
X115069000Y-100916000D01*
X116071000Y-100916000D01*
X116071000Y-103018000D01*
G37*
G36*
X114801000Y-103018000D02*
G01*
X113799000Y-103018000D01*
X113799000Y-100916000D01*
X114801000Y-100916000D01*
X114801000Y-103018000D01*
G37*
G36*
X126231000Y-103018000D02*
G01*
X125229000Y-103018000D01*
X125229000Y-100916000D01*
X126231000Y-100916000D01*
X126231000Y-103018000D01*
G37*
G36*
X146302548Y-99744622D02*
G01*
X146336887Y-99755039D01*
X146368536Y-99771956D01*
X146396278Y-99794722D01*
X146419044Y-99822464D01*
X146435961Y-99854113D01*
X146446378Y-99888452D01*
X146450500Y-99930307D01*
X146450500Y-101152693D01*
X146446378Y-101194548D01*
X146435961Y-101228887D01*
X146419044Y-101260536D01*
X146396278Y-101288278D01*
X146368536Y-101311044D01*
X146336887Y-101327961D01*
X146302548Y-101338378D01*
X146260693Y-101342500D01*
X144188307Y-101342500D01*
X144146452Y-101338378D01*
X144112113Y-101327961D01*
X144080464Y-101311044D01*
X144052722Y-101288278D01*
X144029956Y-101260536D01*
X144013039Y-101228887D01*
X144002622Y-101194548D01*
X143998500Y-101152693D01*
X143998500Y-99930307D01*
X144002622Y-99888452D01*
X144013039Y-99854113D01*
X144029956Y-99822464D01*
X144052722Y-99794722D01*
X144080464Y-99771956D01*
X144112113Y-99755039D01*
X144146452Y-99744622D01*
X144188307Y-99740500D01*
X146260693Y-99740500D01*
X146302548Y-99744622D01*
G37*
G36*
X155525964Y-99085189D02*
G01*
X155717233Y-99164415D01*
X155717235Y-99164416D01*
X155889373Y-99279435D01*
X156035765Y-99425827D01*
X156150785Y-99597967D01*
X156230011Y-99789236D01*
X156270400Y-99992284D01*
X156270400Y-100199316D01*
X156230011Y-100402364D01*
X156150785Y-100593633D01*
X156150784Y-100593635D01*
X156035765Y-100765773D01*
X155889373Y-100912165D01*
X155717235Y-101027184D01*
X155717234Y-101027185D01*
X155717233Y-101027185D01*
X155525964Y-101106411D01*
X155322916Y-101146800D01*
X155115884Y-101146800D01*
X154912836Y-101106411D01*
X154721567Y-101027185D01*
X154721566Y-101027185D01*
X154721565Y-101027184D01*
X154549427Y-100912165D01*
X154403035Y-100765773D01*
X154288016Y-100593635D01*
X154288015Y-100593633D01*
X154208789Y-100402364D01*
X154168400Y-100199316D01*
X154168400Y-99992284D01*
X154208789Y-99789236D01*
X154288015Y-99597967D01*
X154403035Y-99425827D01*
X154549427Y-99279435D01*
X154721565Y-99164416D01*
X154721567Y-99164415D01*
X154912836Y-99085189D01*
X155115884Y-99044800D01*
X155322916Y-99044800D01*
X155525964Y-99085189D01*
G37*
G36*
X151492400Y-100957600D02*
G01*
X149040400Y-100957600D01*
X149040400Y-97355600D01*
X151492400Y-97355600D01*
X151492400Y-100957600D01*
G37*
G36*
X132861000Y-99683000D02*
G01*
X130759000Y-99683000D01*
X130759000Y-98681000D01*
X132861000Y-98681000D01*
X132861000Y-99683000D01*
G37*
G36*
X144779091Y-97961585D02*
G01*
X144813069Y-97971893D01*
X144844390Y-97988634D01*
X144871839Y-98011161D01*
X144894366Y-98038610D01*
X144911107Y-98069931D01*
X144921415Y-98103909D01*
X144925500Y-98145390D01*
X144925500Y-98821610D01*
X144921415Y-98863091D01*
X144911107Y-98897069D01*
X144894366Y-98928390D01*
X144871839Y-98955839D01*
X144844390Y-98978366D01*
X144813069Y-98995107D01*
X144779091Y-99005415D01*
X144737610Y-99009500D01*
X144136390Y-99009500D01*
X144094909Y-99005415D01*
X144060931Y-98995107D01*
X144029610Y-98978366D01*
X144002161Y-98955839D01*
X143979634Y-98928390D01*
X143962893Y-98897069D01*
X143952585Y-98863091D01*
X143948500Y-98821610D01*
X143948500Y-98145390D01*
X143952585Y-98103909D01*
X143962893Y-98069931D01*
X143979634Y-98038610D01*
X144002161Y-98011161D01*
X144029610Y-97988634D01*
X144060931Y-97971893D01*
X144094909Y-97961585D01*
X144136390Y-97957500D01*
X144737610Y-97957500D01*
X144779091Y-97961585D01*
G37*
G36*
X146354091Y-97961585D02*
G01*
X146388069Y-97971893D01*
X146419390Y-97988634D01*
X146446839Y-98011161D01*
X146469366Y-98038610D01*
X146486107Y-98069931D01*
X146496415Y-98103909D01*
X146500500Y-98145390D01*
X146500500Y-98821610D01*
X146496415Y-98863091D01*
X146486107Y-98897069D01*
X146469366Y-98928390D01*
X146446839Y-98955839D01*
X146419390Y-98978366D01*
X146388069Y-98995107D01*
X146354091Y-99005415D01*
X146312610Y-99009500D01*
X145711390Y-99009500D01*
X145669909Y-99005415D01*
X145635931Y-98995107D01*
X145604610Y-98978366D01*
X145577161Y-98955839D01*
X145554634Y-98928390D01*
X145537893Y-98897069D01*
X145527585Y-98863091D01*
X145523500Y-98821610D01*
X145523500Y-98145390D01*
X145527585Y-98103909D01*
X145537893Y-98069931D01*
X145554634Y-98038610D01*
X145577161Y-98011161D01*
X145604610Y-97988634D01*
X145635931Y-97971893D01*
X145669909Y-97961585D01*
X145711390Y-97957500D01*
X146312610Y-97957500D01*
X146354091Y-97961585D01*
G37*
G36*
X132861000Y-98413000D02*
G01*
X130759000Y-98413000D01*
X130759000Y-97411000D01*
X132861000Y-97411000D01*
X132861000Y-98413000D01*
G37*
G36*
X143584497Y-95795051D02*
G01*
X143618152Y-95805261D01*
X143649165Y-95821838D01*
X143676351Y-95844149D01*
X143698662Y-95871335D01*
X143715239Y-95902348D01*
X143725449Y-95936003D01*
X143729500Y-95977138D01*
X143729500Y-97306862D01*
X143725449Y-97347997D01*
X143715239Y-97381652D01*
X143698662Y-97412665D01*
X143676351Y-97439851D01*
X143649165Y-97462162D01*
X143618152Y-97478739D01*
X143584497Y-97488949D01*
X143543362Y-97493000D01*
X140313638Y-97493000D01*
X140272503Y-97488949D01*
X140238848Y-97478739D01*
X140207835Y-97462162D01*
X140180649Y-97439851D01*
X140158338Y-97412665D01*
X140141761Y-97381652D01*
X140131551Y-97347997D01*
X140127500Y-97306862D01*
X140127500Y-95977138D01*
X140131551Y-95936003D01*
X140141761Y-95902348D01*
X140158338Y-95871335D01*
X140180649Y-95844149D01*
X140207835Y-95821838D01*
X140238848Y-95805261D01*
X140272503Y-95795051D01*
X140313638Y-95791000D01*
X143543362Y-95791000D01*
X143584497Y-95795051D01*
G37*
G36*
X137984497Y-95795051D02*
G01*
X138018152Y-95805261D01*
X138049165Y-95821838D01*
X138076351Y-95844149D01*
X138098662Y-95871335D01*
X138115239Y-95902348D01*
X138125449Y-95936003D01*
X138129500Y-95977138D01*
X138129500Y-97306862D01*
X138125449Y-97347997D01*
X138115239Y-97381652D01*
X138098662Y-97412665D01*
X138076351Y-97439851D01*
X138049165Y-97462162D01*
X138018152Y-97478739D01*
X137984497Y-97488949D01*
X137943362Y-97493000D01*
X134713638Y-97493000D01*
X134672503Y-97488949D01*
X134638848Y-97478739D01*
X134607835Y-97462162D01*
X134580649Y-97439851D01*
X134558338Y-97412665D01*
X134541761Y-97381652D01*
X134531551Y-97347997D01*
X134527500Y-97306862D01*
X134527500Y-95977138D01*
X134531551Y-95936003D01*
X134541761Y-95902348D01*
X134558338Y-95871335D01*
X134580649Y-95844149D01*
X134607835Y-95821838D01*
X134638848Y-95805261D01*
X134672503Y-95795051D01*
X134713638Y-95791000D01*
X137943362Y-95791000D01*
X137984497Y-95795051D01*
G37*
G36*
X145667591Y-96310085D02*
G01*
X145701569Y-96320393D01*
X145732890Y-96337134D01*
X145760339Y-96359661D01*
X145782866Y-96387110D01*
X145799607Y-96418431D01*
X145809915Y-96452409D01*
X145814000Y-96493890D01*
X145814000Y-97095110D01*
X145809915Y-97136591D01*
X145799607Y-97170569D01*
X145782866Y-97201890D01*
X145760339Y-97229339D01*
X145732890Y-97251866D01*
X145701569Y-97268607D01*
X145667591Y-97278915D01*
X145626110Y-97283000D01*
X144949890Y-97283000D01*
X144908409Y-97278915D01*
X144874431Y-97268607D01*
X144843110Y-97251866D01*
X144815661Y-97229339D01*
X144793134Y-97201890D01*
X144776393Y-97170569D01*
X144766085Y-97136591D01*
X144762000Y-97095110D01*
X144762000Y-96493890D01*
X144766085Y-96452409D01*
X144776393Y-96418431D01*
X144793134Y-96387110D01*
X144815661Y-96359661D01*
X144843110Y-96337134D01*
X144874431Y-96320393D01*
X144908409Y-96310085D01*
X144949890Y-96306000D01*
X145626110Y-96306000D01*
X145667591Y-96310085D01*
G37*
G36*
X132861000Y-97143000D02*
G01*
X130759000Y-97143000D01*
X130759000Y-96141000D01*
X132861000Y-96141000D01*
X132861000Y-97143000D01*
G37*
G36*
X124351000Y-97018000D02*
G01*
X119249000Y-97018000D01*
X119249000Y-91916000D01*
X124351000Y-91916000D01*
X124351000Y-97018000D01*
G37*
G36*
X155525964Y-94285189D02*
G01*
X155717233Y-94364415D01*
X155717235Y-94364416D01*
X155889373Y-94479435D01*
X156035765Y-94625827D01*
X156141895Y-94784661D01*
X156150785Y-94797967D01*
X156230011Y-94989236D01*
X156270400Y-95192284D01*
X156270400Y-95399316D01*
X156230011Y-95602364D01*
X156150785Y-95793633D01*
X156150784Y-95793635D01*
X156035765Y-95965773D01*
X155889373Y-96112165D01*
X155717235Y-96227184D01*
X155717234Y-96227185D01*
X155717233Y-96227185D01*
X155525964Y-96306411D01*
X155322916Y-96346800D01*
X155115884Y-96346800D01*
X154912836Y-96306411D01*
X154721567Y-96227185D01*
X154721566Y-96227185D01*
X154721565Y-96227184D01*
X154549427Y-96112165D01*
X154403035Y-95965773D01*
X154288016Y-95793635D01*
X154288015Y-95793633D01*
X154208789Y-95602364D01*
X154168400Y-95399316D01*
X154168400Y-95192284D01*
X154208789Y-94989236D01*
X154288015Y-94797967D01*
X154296906Y-94784661D01*
X154403035Y-94625827D01*
X154549427Y-94479435D01*
X154721565Y-94364416D01*
X154721567Y-94364415D01*
X154912836Y-94285189D01*
X155115884Y-94244800D01*
X155322916Y-94244800D01*
X155525964Y-94285189D01*
G37*
G36*
X132861000Y-95873000D02*
G01*
X130759000Y-95873000D01*
X130759000Y-94871000D01*
X132861000Y-94871000D01*
X132861000Y-95873000D01*
G37*
G36*
X145667591Y-94735085D02*
G01*
X145701569Y-94745393D01*
X145732890Y-94762134D01*
X145760339Y-94784661D01*
X145782866Y-94812110D01*
X145799607Y-94843431D01*
X145809915Y-94877409D01*
X145814000Y-94918890D01*
X145814000Y-95520110D01*
X145809915Y-95561591D01*
X145799607Y-95595569D01*
X145782866Y-95626890D01*
X145760339Y-95654339D01*
X145732890Y-95676866D01*
X145701569Y-95693607D01*
X145667591Y-95703915D01*
X145626110Y-95708000D01*
X144949890Y-95708000D01*
X144908409Y-95703915D01*
X144874431Y-95693607D01*
X144843110Y-95676866D01*
X144815661Y-95654339D01*
X144793134Y-95626890D01*
X144776393Y-95595569D01*
X144766085Y-95561591D01*
X144762000Y-95520110D01*
X144762000Y-94918890D01*
X144766085Y-94877409D01*
X144776393Y-94843431D01*
X144793134Y-94812110D01*
X144815661Y-94784661D01*
X144843110Y-94762134D01*
X144874431Y-94745393D01*
X144908409Y-94735085D01*
X144949890Y-94731000D01*
X145626110Y-94731000D01*
X145667591Y-94735085D01*
G37*
G36*
X151492400Y-94907600D02*
G01*
X149040400Y-94907600D01*
X149040400Y-91305600D01*
X151492400Y-91305600D01*
X151492400Y-94907600D01*
G37*
G36*
X132861000Y-94603000D02*
G01*
X130759000Y-94603000D01*
X130759000Y-93601000D01*
X132861000Y-93601000D01*
X132861000Y-94603000D01*
G37*
G36*
X132861000Y-93333000D02*
G01*
X130759000Y-93333000D01*
X130759000Y-92331000D01*
X132861000Y-92331000D01*
X132861000Y-93333000D01*
G37*
G36*
X164026468Y-91450565D02*
G01*
X164065138Y-91462296D01*
X164100777Y-91481346D01*
X164132017Y-91506983D01*
X164157654Y-91538223D01*
X164176704Y-91573862D01*
X164188435Y-91612532D01*
X164193000Y-91658888D01*
X164193000Y-92735112D01*
X164188435Y-92781468D01*
X164176704Y-92820138D01*
X164157654Y-92855777D01*
X164132017Y-92887017D01*
X164100777Y-92912654D01*
X164065138Y-92931704D01*
X164026468Y-92943435D01*
X163980112Y-92948000D01*
X163328888Y-92948000D01*
X163282532Y-92943435D01*
X163243862Y-92931704D01*
X163208223Y-92912654D01*
X163176983Y-92887017D01*
X163151346Y-92855777D01*
X163132296Y-92820138D01*
X163120565Y-92781468D01*
X163116000Y-92735112D01*
X163116000Y-91658888D01*
X163120565Y-91612532D01*
X163132296Y-91573862D01*
X163151346Y-91538223D01*
X163176983Y-91506983D01*
X163208223Y-91481346D01*
X163243862Y-91462296D01*
X163282532Y-91450565D01*
X163328888Y-91446000D01*
X163980112Y-91446000D01*
X164026468Y-91450565D01*
G37*
G36*
X161964468Y-91450565D02*
G01*
X162003138Y-91462296D01*
X162038777Y-91481346D01*
X162070017Y-91506983D01*
X162095654Y-91538223D01*
X162114704Y-91573862D01*
X162126435Y-91612532D01*
X162131000Y-91658888D01*
X162131000Y-92735112D01*
X162126435Y-92781468D01*
X162114704Y-92820138D01*
X162095654Y-92855777D01*
X162070017Y-92887017D01*
X162038777Y-92912654D01*
X162003138Y-92931704D01*
X161964468Y-92943435D01*
X161918112Y-92948000D01*
X161266888Y-92948000D01*
X161220532Y-92943435D01*
X161181862Y-92931704D01*
X161146223Y-92912654D01*
X161114983Y-92887017D01*
X161089346Y-92855777D01*
X161070296Y-92820138D01*
X161058565Y-92781468D01*
X161054000Y-92735112D01*
X161054000Y-91658888D01*
X161058565Y-91612532D01*
X161070296Y-91573862D01*
X161089346Y-91538223D01*
X161114983Y-91506983D01*
X161146223Y-91481346D01*
X161181862Y-91462296D01*
X161220532Y-91450565D01*
X161266888Y-91446000D01*
X161918112Y-91446000D01*
X161964468Y-91450565D01*
G37*
G36*
X160089468Y-91450565D02*
G01*
X160128138Y-91462296D01*
X160163777Y-91481346D01*
X160195017Y-91506983D01*
X160220654Y-91538223D01*
X160239704Y-91573862D01*
X160251435Y-91612532D01*
X160256000Y-91658888D01*
X160256000Y-92735112D01*
X160251435Y-92781468D01*
X160239704Y-92820138D01*
X160220654Y-92855777D01*
X160195017Y-92887017D01*
X160163777Y-92912654D01*
X160128138Y-92931704D01*
X160089468Y-92943435D01*
X160043112Y-92948000D01*
X159391888Y-92948000D01*
X159345532Y-92943435D01*
X159306862Y-92931704D01*
X159271223Y-92912654D01*
X159239983Y-92887017D01*
X159214346Y-92855777D01*
X159195296Y-92820138D01*
X159183565Y-92781468D01*
X159179000Y-92735112D01*
X159179000Y-91658888D01*
X159183565Y-91612532D01*
X159195296Y-91573862D01*
X159214346Y-91538223D01*
X159239983Y-91506983D01*
X159271223Y-91481346D01*
X159306862Y-91462296D01*
X159345532Y-91450565D01*
X159391888Y-91446000D01*
X160043112Y-91446000D01*
X160089468Y-91450565D01*
G37*
G36*
X165901468Y-91450565D02*
G01*
X165940138Y-91462296D01*
X165975777Y-91481346D01*
X166007017Y-91506983D01*
X166032654Y-91538223D01*
X166051704Y-91573862D01*
X166063435Y-91612532D01*
X166068000Y-91658888D01*
X166068000Y-92735112D01*
X166063435Y-92781468D01*
X166051704Y-92820138D01*
X166032654Y-92855777D01*
X166007017Y-92887017D01*
X165975777Y-92912654D01*
X165940138Y-92931704D01*
X165901468Y-92943435D01*
X165855112Y-92948000D01*
X165203888Y-92948000D01*
X165157532Y-92943435D01*
X165118862Y-92931704D01*
X165083223Y-92912654D01*
X165051983Y-92887017D01*
X165026346Y-92855777D01*
X165007296Y-92820138D01*
X164995565Y-92781468D01*
X164991000Y-92735112D01*
X164991000Y-91658888D01*
X164995565Y-91612532D01*
X165007296Y-91573862D01*
X165026346Y-91538223D01*
X165051983Y-91506983D01*
X165083223Y-91481346D01*
X165118862Y-91462296D01*
X165157532Y-91450565D01*
X165203888Y-91446000D01*
X165855112Y-91446000D01*
X165901468Y-91450565D01*
G37*
G36*
X132861000Y-92063000D02*
G01*
X130759000Y-92063000D01*
X130759000Y-91061000D01*
X132861000Y-91061000D01*
X132861000Y-92063000D01*
G37*
G36*
X132861000Y-90793000D02*
G01*
X130759000Y-90793000D01*
X130759000Y-89791000D01*
X132861000Y-89791000D01*
X132861000Y-90793000D01*
G37*
G36*
X147613468Y-88783565D02*
G01*
X147652138Y-88795296D01*
X147687777Y-88814346D01*
X147719017Y-88839983D01*
X147744654Y-88871223D01*
X147763704Y-88906862D01*
X147775435Y-88945532D01*
X147780000Y-88991888D01*
X147780000Y-90068112D01*
X147775435Y-90114468D01*
X147763704Y-90153138D01*
X147744654Y-90188777D01*
X147719017Y-90220017D01*
X147687777Y-90245654D01*
X147652138Y-90264704D01*
X147613468Y-90276435D01*
X147567112Y-90281000D01*
X146915888Y-90281000D01*
X146869532Y-90276435D01*
X146830862Y-90264704D01*
X146795223Y-90245654D01*
X146763983Y-90220017D01*
X146738346Y-90188777D01*
X146719296Y-90153138D01*
X146707565Y-90114468D01*
X146703000Y-90068112D01*
X146703000Y-88991888D01*
X146707565Y-88945532D01*
X146719296Y-88906862D01*
X146738346Y-88871223D01*
X146763983Y-88839983D01*
X146795223Y-88814346D01*
X146830862Y-88795296D01*
X146869532Y-88783565D01*
X146915888Y-88779000D01*
X147567112Y-88779000D01*
X147613468Y-88783565D01*
G37*
G36*
X145738468Y-88783565D02*
G01*
X145777138Y-88795296D01*
X145812777Y-88814346D01*
X145844017Y-88839983D01*
X145869654Y-88871223D01*
X145888704Y-88906862D01*
X145900435Y-88945532D01*
X145905000Y-88991888D01*
X145905000Y-90068112D01*
X145900435Y-90114468D01*
X145888704Y-90153138D01*
X145869654Y-90188777D01*
X145844017Y-90220017D01*
X145812777Y-90245654D01*
X145777138Y-90264704D01*
X145738468Y-90276435D01*
X145692112Y-90281000D01*
X145040888Y-90281000D01*
X144994532Y-90276435D01*
X144955862Y-90264704D01*
X144920223Y-90245654D01*
X144888983Y-90220017D01*
X144863346Y-90188777D01*
X144844296Y-90153138D01*
X144832565Y-90114468D01*
X144828000Y-90068112D01*
X144828000Y-88991888D01*
X144832565Y-88945532D01*
X144844296Y-88906862D01*
X144863346Y-88871223D01*
X144888983Y-88839983D01*
X144920223Y-88814346D01*
X144955862Y-88795296D01*
X144994532Y-88783565D01*
X145040888Y-88779000D01*
X145692112Y-88779000D01*
X145738468Y-88783565D01*
G37*
G36*
X159834015Y-80475973D02*
G01*
X159937879Y-80507479D01*
X159965055Y-80522005D01*
X160033600Y-80558643D01*
X160117501Y-80627499D01*
X160186357Y-80711400D01*
X160205081Y-80746431D01*
X160237521Y-80807121D01*
X160269027Y-80910985D01*
X160279666Y-81019000D01*
X160269027Y-81127015D01*
X160237521Y-81230879D01*
X160237519Y-81230882D01*
X160186357Y-81326600D01*
X160117501Y-81410501D01*
X160033600Y-81479357D01*
X159978014Y-81509068D01*
X159937879Y-81530521D01*
X159834015Y-81562027D01*
X159753067Y-81570000D01*
X159161999Y-81570000D01*
X159137613Y-81572402D01*
X159114164Y-81579515D01*
X159092553Y-81591066D01*
X159073611Y-81606611D01*
X159058066Y-81625553D01*
X159046515Y-81647164D01*
X159039402Y-81670613D01*
X159037000Y-81694999D01*
X159037000Y-88983001D01*
X159039402Y-89007387D01*
X159046515Y-89030836D01*
X159058066Y-89052447D01*
X159073611Y-89071389D01*
X159092553Y-89086934D01*
X159114164Y-89098485D01*
X159137613Y-89105598D01*
X159161999Y-89108000D01*
X159753067Y-89108000D01*
X159834015Y-89115973D01*
X159937879Y-89147479D01*
X159964344Y-89161625D01*
X160033600Y-89198643D01*
X160117501Y-89267499D01*
X160186357Y-89351400D01*
X160222995Y-89419945D01*
X160237521Y-89447121D01*
X160269027Y-89550985D01*
X160279666Y-89659000D01*
X160269027Y-89767015D01*
X160237521Y-89870879D01*
X160237519Y-89870882D01*
X160186357Y-89966600D01*
X160117501Y-90050501D01*
X160033600Y-90119357D01*
X159970400Y-90153138D01*
X159937879Y-90170521D01*
X159834015Y-90202027D01*
X159753067Y-90210000D01*
X158598933Y-90210000D01*
X158517985Y-90202027D01*
X158414121Y-90170521D01*
X158381600Y-90153138D01*
X158318400Y-90119357D01*
X158234499Y-90050501D01*
X158165643Y-89966600D01*
X158114481Y-89870882D01*
X158114479Y-89870879D01*
X158082973Y-89767015D01*
X158072334Y-89659000D01*
X158082973Y-89550985D01*
X158114479Y-89447121D01*
X158129005Y-89419945D01*
X158165643Y-89351400D01*
X158234499Y-89267499D01*
X158318399Y-89198645D01*
X158318398Y-89198645D01*
X158318400Y-89198644D01*
X158362193Y-89175236D01*
X158382563Y-89161625D01*
X158399890Y-89144298D01*
X158413504Y-89123924D01*
X158422881Y-89101285D01*
X158427662Y-89077252D01*
X158427662Y-89052748D01*
X158422882Y-89028714D01*
X158413505Y-89006076D01*
X158399891Y-88985701D01*
X158382564Y-88968374D01*
X158362190Y-88954760D01*
X158339551Y-88945383D01*
X158315518Y-88940602D01*
X158303265Y-88940000D01*
X157485000Y-88940000D01*
X157485000Y-81738000D01*
X158303265Y-81738000D01*
X158327651Y-81735598D01*
X158351100Y-81728485D01*
X158372711Y-81716934D01*
X158391653Y-81701389D01*
X158407198Y-81682447D01*
X158418749Y-81660836D01*
X158425862Y-81637387D01*
X158428264Y-81613001D01*
X158425862Y-81588615D01*
X158418749Y-81565166D01*
X158407198Y-81543555D01*
X158391653Y-81524613D01*
X158372711Y-81509068D01*
X158362198Y-81502767D01*
X158318400Y-81479356D01*
X158234499Y-81410501D01*
X158206275Y-81376110D01*
X158165643Y-81326600D01*
X158114481Y-81230882D01*
X158114479Y-81230879D01*
X158082973Y-81127015D01*
X158072334Y-81019000D01*
X158082973Y-80910985D01*
X158114479Y-80807121D01*
X158146919Y-80746431D01*
X158165643Y-80711400D01*
X158234499Y-80627499D01*
X158318400Y-80558643D01*
X158386945Y-80522005D01*
X158414121Y-80507479D01*
X158517985Y-80475973D01*
X158598933Y-80468000D01*
X159753067Y-80468000D01*
X159834015Y-80475973D01*
G37*
G36*
X163764015Y-89115973D02*
G01*
X163867879Y-89147479D01*
X163894344Y-89161625D01*
X163963600Y-89198643D01*
X164047501Y-89267499D01*
X164116357Y-89351400D01*
X164152995Y-89419945D01*
X164167521Y-89447121D01*
X164199027Y-89550985D01*
X164209666Y-89659000D01*
X164199027Y-89767015D01*
X164167521Y-89870879D01*
X164167519Y-89870882D01*
X164116357Y-89966600D01*
X164047501Y-90050501D01*
X163963600Y-90119357D01*
X163900400Y-90153138D01*
X163867879Y-90170521D01*
X163764015Y-90202027D01*
X163683067Y-90210000D01*
X163028933Y-90210000D01*
X162947985Y-90202027D01*
X162844121Y-90170521D01*
X162811600Y-90153138D01*
X162748400Y-90119357D01*
X162664499Y-90050501D01*
X162595643Y-89966600D01*
X162544481Y-89870882D01*
X162544479Y-89870879D01*
X162512973Y-89767015D01*
X162502334Y-89659000D01*
X162512973Y-89550985D01*
X162544479Y-89447121D01*
X162559005Y-89419945D01*
X162595643Y-89351400D01*
X162664499Y-89267499D01*
X162748400Y-89198643D01*
X162817656Y-89161625D01*
X162844121Y-89147479D01*
X162947985Y-89115973D01*
X163028933Y-89108000D01*
X163683067Y-89108000D01*
X163764015Y-89115973D01*
G37*
G36*
X151040191Y-88601685D02*
G01*
X151074169Y-88611993D01*
X151105490Y-88628734D01*
X151132939Y-88651261D01*
X151155466Y-88678710D01*
X151172207Y-88710031D01*
X151182515Y-88744009D01*
X151186600Y-88785490D01*
X151186600Y-89461710D01*
X151182515Y-89503191D01*
X151172207Y-89537169D01*
X151155466Y-89568490D01*
X151132939Y-89595939D01*
X151105490Y-89618466D01*
X151074169Y-89635207D01*
X151040191Y-89645515D01*
X150998710Y-89649600D01*
X150397490Y-89649600D01*
X150356009Y-89645515D01*
X150322031Y-89635207D01*
X150290710Y-89618466D01*
X150263261Y-89595939D01*
X150240734Y-89568490D01*
X150223993Y-89537169D01*
X150213685Y-89503191D01*
X150209600Y-89461710D01*
X150209600Y-88785490D01*
X150213685Y-88744009D01*
X150223993Y-88710031D01*
X150240734Y-88678710D01*
X150263261Y-88651261D01*
X150290710Y-88628734D01*
X150322031Y-88611993D01*
X150356009Y-88601685D01*
X150397490Y-88597600D01*
X150998710Y-88597600D01*
X151040191Y-88601685D01*
G37*
G36*
X152615191Y-88601685D02*
G01*
X152649169Y-88611993D01*
X152680490Y-88628734D01*
X152707939Y-88651261D01*
X152730466Y-88678710D01*
X152747207Y-88710031D01*
X152757515Y-88744009D01*
X152761600Y-88785490D01*
X152761600Y-89461710D01*
X152757515Y-89503191D01*
X152747207Y-89537169D01*
X152730466Y-89568490D01*
X152707939Y-89595939D01*
X152680490Y-89618466D01*
X152649169Y-89635207D01*
X152615191Y-89645515D01*
X152573710Y-89649600D01*
X151972490Y-89649600D01*
X151931009Y-89645515D01*
X151897031Y-89635207D01*
X151865710Y-89618466D01*
X151838261Y-89595939D01*
X151815734Y-89568490D01*
X151798993Y-89537169D01*
X151788685Y-89503191D01*
X151784600Y-89461710D01*
X151784600Y-88785490D01*
X151788685Y-88744009D01*
X151798993Y-88710031D01*
X151815734Y-88678710D01*
X151838261Y-88651261D01*
X151865710Y-88628734D01*
X151897031Y-88611993D01*
X151931009Y-88601685D01*
X151972490Y-88597600D01*
X152573710Y-88597600D01*
X152615191Y-88601685D01*
G37*
G36*
X132861000Y-89523000D02*
G01*
X130759000Y-89523000D01*
X130759000Y-88521000D01*
X132861000Y-88521000D01*
X132861000Y-89523000D01*
G37*
G36*
X140779295Y-84184323D02*
G01*
X140786309Y-84186451D01*
X140800077Y-84193810D01*
X140822716Y-84203187D01*
X140846749Y-84207967D01*
X140871253Y-84207967D01*
X140895286Y-84203186D01*
X140917923Y-84193810D01*
X140931691Y-84186451D01*
X140938705Y-84184323D01*
X140952140Y-84183000D01*
X141265860Y-84183000D01*
X141279295Y-84184323D01*
X141286309Y-84186451D01*
X141300077Y-84193810D01*
X141322716Y-84203187D01*
X141346749Y-84207967D01*
X141371253Y-84207967D01*
X141395286Y-84203186D01*
X141417923Y-84193810D01*
X141431691Y-84186451D01*
X141438705Y-84184323D01*
X141452140Y-84183000D01*
X141765860Y-84183000D01*
X141779295Y-84184323D01*
X141786309Y-84186451D01*
X141800077Y-84193810D01*
X141822716Y-84203187D01*
X141846749Y-84207967D01*
X141871253Y-84207967D01*
X141895286Y-84203186D01*
X141917923Y-84193810D01*
X141931691Y-84186451D01*
X141938705Y-84184323D01*
X141952140Y-84183000D01*
X142265860Y-84183000D01*
X142279295Y-84184323D01*
X142286309Y-84186451D01*
X142300077Y-84193810D01*
X142322716Y-84203187D01*
X142346749Y-84207967D01*
X142371253Y-84207967D01*
X142395286Y-84203186D01*
X142417923Y-84193810D01*
X142431691Y-84186451D01*
X142438705Y-84184323D01*
X142452140Y-84183000D01*
X142765860Y-84183000D01*
X142779295Y-84184323D01*
X142786309Y-84186451D01*
X142800077Y-84193810D01*
X142822716Y-84203187D01*
X142846749Y-84207967D01*
X142871253Y-84207967D01*
X142895286Y-84203186D01*
X142917923Y-84193810D01*
X142931691Y-84186451D01*
X142938705Y-84184323D01*
X142952140Y-84183000D01*
X143265860Y-84183000D01*
X143279295Y-84184323D01*
X143286310Y-84186451D01*
X143292776Y-84189908D01*
X143298442Y-84194558D01*
X143303092Y-84200224D01*
X143306549Y-84206690D01*
X143308677Y-84213705D01*
X143310000Y-84227140D01*
X143310000Y-85033001D01*
X143312402Y-85057387D01*
X143319515Y-85080836D01*
X143331066Y-85102447D01*
X143346611Y-85121389D01*
X143365553Y-85136934D01*
X143387164Y-85148485D01*
X143410613Y-85155598D01*
X143434999Y-85158000D01*
X144240860Y-85158000D01*
X144254295Y-85159323D01*
X144261310Y-85161451D01*
X144267776Y-85164908D01*
X144273442Y-85169558D01*
X144278092Y-85175224D01*
X144281549Y-85181690D01*
X144283677Y-85188705D01*
X144285000Y-85202140D01*
X144285000Y-85515860D01*
X144283677Y-85529295D01*
X144281549Y-85536309D01*
X144274190Y-85550077D01*
X144264813Y-85572716D01*
X144260033Y-85596749D01*
X144260033Y-85621253D01*
X144264814Y-85645286D01*
X144274190Y-85667923D01*
X144281549Y-85681691D01*
X144283677Y-85688705D01*
X144285000Y-85702140D01*
X144285000Y-86015860D01*
X144283677Y-86029295D01*
X144281549Y-86036309D01*
X144274190Y-86050077D01*
X144264813Y-86072716D01*
X144260033Y-86096749D01*
X144260033Y-86121253D01*
X144264814Y-86145286D01*
X144274190Y-86167923D01*
X144281549Y-86181691D01*
X144283677Y-86188705D01*
X144285000Y-86202140D01*
X144285000Y-86515860D01*
X144283677Y-86529295D01*
X144281549Y-86536309D01*
X144274190Y-86550077D01*
X144264813Y-86572716D01*
X144260033Y-86596749D01*
X144260033Y-86621253D01*
X144264814Y-86645286D01*
X144274190Y-86667923D01*
X144281549Y-86681691D01*
X144283677Y-86688705D01*
X144285000Y-86702140D01*
X144285000Y-87015860D01*
X144283677Y-87029295D01*
X144281549Y-87036309D01*
X144274190Y-87050077D01*
X144264813Y-87072716D01*
X144260033Y-87096749D01*
X144260033Y-87121253D01*
X144264814Y-87145286D01*
X144274190Y-87167923D01*
X144281549Y-87181691D01*
X144283677Y-87188705D01*
X144285000Y-87202140D01*
X144285000Y-87515860D01*
X144283677Y-87529295D01*
X144281549Y-87536309D01*
X144274190Y-87550077D01*
X144264813Y-87572716D01*
X144260033Y-87596749D01*
X144260033Y-87621253D01*
X144264814Y-87645286D01*
X144274190Y-87667923D01*
X144281549Y-87681691D01*
X144283677Y-87688705D01*
X144285000Y-87702140D01*
X144285000Y-88015860D01*
X144283677Y-88029295D01*
X144281549Y-88036310D01*
X144278092Y-88042776D01*
X144273442Y-88048442D01*
X144267776Y-88053092D01*
X144261310Y-88056549D01*
X144254295Y-88058677D01*
X144240860Y-88060000D01*
X143434999Y-88060000D01*
X143410613Y-88062402D01*
X143387164Y-88069515D01*
X143365553Y-88081066D01*
X143346611Y-88096611D01*
X143331066Y-88115553D01*
X143319515Y-88137164D01*
X143312402Y-88160613D01*
X143310000Y-88184999D01*
X143310000Y-88990860D01*
X143308677Y-89004295D01*
X143306549Y-89011310D01*
X143303092Y-89017776D01*
X143298442Y-89023442D01*
X143292776Y-89028092D01*
X143286310Y-89031549D01*
X143279295Y-89033677D01*
X143265860Y-89035000D01*
X142952140Y-89035000D01*
X142938705Y-89033677D01*
X142931691Y-89031549D01*
X142917923Y-89024190D01*
X142895284Y-89014813D01*
X142871251Y-89010033D01*
X142846747Y-89010033D01*
X142822714Y-89014814D01*
X142800077Y-89024190D01*
X142786309Y-89031549D01*
X142779295Y-89033677D01*
X142765860Y-89035000D01*
X142452140Y-89035000D01*
X142438705Y-89033677D01*
X142431691Y-89031549D01*
X142417923Y-89024190D01*
X142395284Y-89014813D01*
X142371251Y-89010033D01*
X142346747Y-89010033D01*
X142322714Y-89014814D01*
X142300077Y-89024190D01*
X142286309Y-89031549D01*
X142279295Y-89033677D01*
X142265860Y-89035000D01*
X141952140Y-89035000D01*
X141938705Y-89033677D01*
X141931691Y-89031549D01*
X141917923Y-89024190D01*
X141895284Y-89014813D01*
X141871251Y-89010033D01*
X141846747Y-89010033D01*
X141822714Y-89014814D01*
X141800077Y-89024190D01*
X141786309Y-89031549D01*
X141779295Y-89033677D01*
X141765860Y-89035000D01*
X141452140Y-89035000D01*
X141438705Y-89033677D01*
X141431691Y-89031549D01*
X141417923Y-89024190D01*
X141395284Y-89014813D01*
X141371251Y-89010033D01*
X141346747Y-89010033D01*
X141322714Y-89014814D01*
X141300077Y-89024190D01*
X141286309Y-89031549D01*
X141279295Y-89033677D01*
X141265860Y-89035000D01*
X140952140Y-89035000D01*
X140938705Y-89033677D01*
X140931691Y-89031549D01*
X140917923Y-89024190D01*
X140895284Y-89014813D01*
X140871251Y-89010033D01*
X140846747Y-89010033D01*
X140822714Y-89014814D01*
X140800077Y-89024190D01*
X140786309Y-89031549D01*
X140779295Y-89033677D01*
X140765860Y-89035000D01*
X140452140Y-89035000D01*
X140438705Y-89033677D01*
X140431690Y-89031549D01*
X140425224Y-89028092D01*
X140419558Y-89023442D01*
X140414908Y-89017776D01*
X140411451Y-89011310D01*
X140409323Y-89004295D01*
X140408000Y-88990860D01*
X140408000Y-88184999D01*
X140405598Y-88160613D01*
X140398485Y-88137164D01*
X140386934Y-88115553D01*
X140371389Y-88096611D01*
X140352447Y-88081066D01*
X140330836Y-88069515D01*
X140307387Y-88062402D01*
X140283001Y-88060000D01*
X139477140Y-88060000D01*
X139463705Y-88058677D01*
X139456690Y-88056549D01*
X139450224Y-88053092D01*
X139444558Y-88048442D01*
X139439908Y-88042776D01*
X139436451Y-88036310D01*
X139434323Y-88029295D01*
X139433000Y-88015860D01*
X139433000Y-87702140D01*
X139434323Y-87688705D01*
X139436451Y-87681691D01*
X139443810Y-87667923D01*
X139453187Y-87645284D01*
X139457967Y-87621251D01*
X139457967Y-87596747D01*
X139453186Y-87572714D01*
X139443810Y-87550077D01*
X139436451Y-87536309D01*
X139434323Y-87529295D01*
X139433000Y-87515860D01*
X139433000Y-87202140D01*
X139434323Y-87188705D01*
X139436451Y-87181691D01*
X139443810Y-87167923D01*
X139453187Y-87145284D01*
X139457967Y-87121251D01*
X139457967Y-87096747D01*
X139453186Y-87072714D01*
X139443810Y-87050077D01*
X139436451Y-87036309D01*
X139434323Y-87029295D01*
X139433000Y-87015860D01*
X139433000Y-86702140D01*
X139434323Y-86688705D01*
X139436451Y-86681691D01*
X139443810Y-86667923D01*
X139453187Y-86645284D01*
X139457967Y-86621251D01*
X139457967Y-86596747D01*
X139453186Y-86572714D01*
X139443810Y-86550077D01*
X139436451Y-86536309D01*
X139434323Y-86529295D01*
X139433000Y-86515860D01*
X139433000Y-86202140D01*
X139434323Y-86188705D01*
X139436451Y-86181691D01*
X139443810Y-86167923D01*
X139453187Y-86145284D01*
X139457967Y-86121251D01*
X139457967Y-86096747D01*
X139453186Y-86072714D01*
X139443810Y-86050077D01*
X139436451Y-86036309D01*
X139434323Y-86029295D01*
X139433000Y-86015860D01*
X139433000Y-85702140D01*
X139434323Y-85688705D01*
X139436451Y-85681691D01*
X139443810Y-85667923D01*
X139453187Y-85645284D01*
X139457967Y-85621251D01*
X139457967Y-85596749D01*
X140360033Y-85596749D01*
X140360033Y-85621253D01*
X140364814Y-85645286D01*
X140374190Y-85667923D01*
X140381549Y-85681691D01*
X140383677Y-85688705D01*
X140385000Y-85702140D01*
X140385000Y-86015860D01*
X140383677Y-86029295D01*
X140381549Y-86036309D01*
X140374190Y-86050077D01*
X140364813Y-86072716D01*
X140360033Y-86096749D01*
X140360033Y-86121253D01*
X140364814Y-86145286D01*
X140374190Y-86167923D01*
X140381549Y-86181691D01*
X140383677Y-86188705D01*
X140385000Y-86202140D01*
X140385000Y-86515860D01*
X140383677Y-86529295D01*
X140381549Y-86536309D01*
X140374190Y-86550077D01*
X140364813Y-86572716D01*
X140360033Y-86596749D01*
X140360033Y-86621253D01*
X140364814Y-86645286D01*
X140374190Y-86667923D01*
X140381549Y-86681691D01*
X140383677Y-86688705D01*
X140385000Y-86702140D01*
X140385000Y-87015860D01*
X140383677Y-87029295D01*
X140381549Y-87036309D01*
X140374190Y-87050077D01*
X140364813Y-87072716D01*
X140360033Y-87096749D01*
X140360033Y-87121253D01*
X140364814Y-87145286D01*
X140374190Y-87167923D01*
X140381549Y-87181691D01*
X140383677Y-87188705D01*
X140385000Y-87202140D01*
X140385000Y-87515860D01*
X140383677Y-87529295D01*
X140381549Y-87536309D01*
X140374190Y-87550077D01*
X140364813Y-87572716D01*
X140360033Y-87596749D01*
X140360033Y-87621253D01*
X140364814Y-87645286D01*
X140374190Y-87667923D01*
X140381549Y-87681691D01*
X140383677Y-87688705D01*
X140385000Y-87702140D01*
X140385000Y-87958001D01*
X140387402Y-87982387D01*
X140394515Y-88005836D01*
X140406066Y-88027447D01*
X140421611Y-88046389D01*
X140440553Y-88061934D01*
X140462164Y-88073485D01*
X140485613Y-88080598D01*
X140509999Y-88083000D01*
X140765860Y-88083000D01*
X140779295Y-88084323D01*
X140786309Y-88086451D01*
X140800077Y-88093810D01*
X140822716Y-88103187D01*
X140846749Y-88107967D01*
X140871253Y-88107967D01*
X140895286Y-88103186D01*
X140917923Y-88093810D01*
X140931691Y-88086451D01*
X140938705Y-88084323D01*
X140952140Y-88083000D01*
X141265860Y-88083000D01*
X141279295Y-88084323D01*
X141286309Y-88086451D01*
X141300077Y-88093810D01*
X141322716Y-88103187D01*
X141346749Y-88107967D01*
X141371253Y-88107967D01*
X141395286Y-88103186D01*
X141417923Y-88093810D01*
X141431691Y-88086451D01*
X141438705Y-88084323D01*
X141452140Y-88083000D01*
X141765860Y-88083000D01*
X141779295Y-88084323D01*
X141786309Y-88086451D01*
X141800077Y-88093810D01*
X141822716Y-88103187D01*
X141846749Y-88107967D01*
X141871253Y-88107967D01*
X141895286Y-88103186D01*
X141917923Y-88093810D01*
X141931691Y-88086451D01*
X141938705Y-88084323D01*
X141952140Y-88083000D01*
X142265860Y-88083000D01*
X142279295Y-88084323D01*
X142286309Y-88086451D01*
X142300077Y-88093810D01*
X142322716Y-88103187D01*
X142346749Y-88107967D01*
X142371253Y-88107967D01*
X142395286Y-88103186D01*
X142417923Y-88093810D01*
X142431691Y-88086451D01*
X142438705Y-88084323D01*
X142452140Y-88083000D01*
X142765860Y-88083000D01*
X142779295Y-88084323D01*
X142786309Y-88086451D01*
X142800077Y-88093810D01*
X142822716Y-88103187D01*
X142846749Y-88107967D01*
X142871253Y-88107967D01*
X142895286Y-88103186D01*
X142917923Y-88093810D01*
X142931691Y-88086451D01*
X142938705Y-88084323D01*
X142952140Y-88083000D01*
X143208001Y-88083000D01*
X143232387Y-88080598D01*
X143255836Y-88073485D01*
X143277447Y-88061934D01*
X143296389Y-88046389D01*
X143311934Y-88027447D01*
X143323485Y-88005836D01*
X143330598Y-87982387D01*
X143333000Y-87958001D01*
X143333000Y-87702140D01*
X143334323Y-87688705D01*
X143336451Y-87681691D01*
X143343810Y-87667923D01*
X143353187Y-87645284D01*
X143357967Y-87621251D01*
X143357967Y-87596747D01*
X143353186Y-87572714D01*
X143343810Y-87550077D01*
X143336451Y-87536309D01*
X143334323Y-87529295D01*
X143333000Y-87515860D01*
X143333000Y-87202140D01*
X143334323Y-87188705D01*
X143336451Y-87181691D01*
X143343810Y-87167923D01*
X143353187Y-87145284D01*
X143357967Y-87121251D01*
X143357967Y-87096747D01*
X143353186Y-87072714D01*
X143343810Y-87050077D01*
X143336451Y-87036309D01*
X143334323Y-87029295D01*
X143333000Y-87015860D01*
X143333000Y-86702140D01*
X143334323Y-86688705D01*
X143336451Y-86681691D01*
X143343810Y-86667923D01*
X143353187Y-86645284D01*
X143357967Y-86621251D01*
X143357967Y-86596747D01*
X143353186Y-86572714D01*
X143343810Y-86550077D01*
X143336451Y-86536309D01*
X143334323Y-86529295D01*
X143333000Y-86515860D01*
X143333000Y-86202140D01*
X143334323Y-86188705D01*
X143336451Y-86181691D01*
X143343810Y-86167923D01*
X143353187Y-86145284D01*
X143357967Y-86121251D01*
X143357967Y-86096747D01*
X143353186Y-86072714D01*
X143343810Y-86050077D01*
X143336451Y-86036309D01*
X143334323Y-86029295D01*
X143333000Y-86015860D01*
X143333000Y-85702140D01*
X143334323Y-85688705D01*
X143336451Y-85681691D01*
X143343810Y-85667923D01*
X143353187Y-85645284D01*
X143357967Y-85621251D01*
X143357967Y-85596747D01*
X143353186Y-85572714D01*
X143343810Y-85550077D01*
X143336451Y-85536309D01*
X143334323Y-85529295D01*
X143333000Y-85515860D01*
X143333000Y-85259999D01*
X143330598Y-85235613D01*
X143323485Y-85212164D01*
X143311934Y-85190553D01*
X143296389Y-85171611D01*
X143277447Y-85156066D01*
X143255836Y-85144515D01*
X143232387Y-85137402D01*
X143208001Y-85135000D01*
X142952140Y-85135000D01*
X142938705Y-85133677D01*
X142931691Y-85131549D01*
X142917923Y-85124190D01*
X142895284Y-85114813D01*
X142871251Y-85110033D01*
X142846747Y-85110033D01*
X142822714Y-85114814D01*
X142800077Y-85124190D01*
X142786309Y-85131549D01*
X142779295Y-85133677D01*
X142765860Y-85135000D01*
X142452140Y-85135000D01*
X142438705Y-85133677D01*
X142431691Y-85131549D01*
X142417923Y-85124190D01*
X142395284Y-85114813D01*
X142371251Y-85110033D01*
X142346747Y-85110033D01*
X142322714Y-85114814D01*
X142300077Y-85124190D01*
X142286309Y-85131549D01*
X142279295Y-85133677D01*
X142265860Y-85135000D01*
X141952140Y-85135000D01*
X141938705Y-85133677D01*
X141931691Y-85131549D01*
X141917923Y-85124190D01*
X141895284Y-85114813D01*
X141871251Y-85110033D01*
X141846747Y-85110033D01*
X141822714Y-85114814D01*
X141800077Y-85124190D01*
X141786309Y-85131549D01*
X141779295Y-85133677D01*
X141765860Y-85135000D01*
X141452140Y-85135000D01*
X141438705Y-85133677D01*
X141431691Y-85131549D01*
X141417923Y-85124190D01*
X141395284Y-85114813D01*
X141371251Y-85110033D01*
X141346747Y-85110033D01*
X141322714Y-85114814D01*
X141300077Y-85124190D01*
X141286309Y-85131549D01*
X141279295Y-85133677D01*
X141265860Y-85135000D01*
X140952140Y-85135000D01*
X140938705Y-85133677D01*
X140931691Y-85131549D01*
X140917923Y-85124190D01*
X140895284Y-85114813D01*
X140871251Y-85110033D01*
X140846747Y-85110033D01*
X140822714Y-85114814D01*
X140800077Y-85124190D01*
X140786309Y-85131549D01*
X140779295Y-85133677D01*
X140765860Y-85135000D01*
X140509999Y-85135000D01*
X140485613Y-85137402D01*
X140462164Y-85144515D01*
X140440553Y-85156066D01*
X140421611Y-85171611D01*
X140406066Y-85190553D01*
X140394515Y-85212164D01*
X140387402Y-85235613D01*
X140385000Y-85259999D01*
X140385000Y-85515860D01*
X140383677Y-85529295D01*
X140381549Y-85536309D01*
X140374190Y-85550077D01*
X140364813Y-85572716D01*
X140360033Y-85596749D01*
X139457967Y-85596749D01*
X139457967Y-85596747D01*
X139453186Y-85572714D01*
X139443810Y-85550077D01*
X139436451Y-85536309D01*
X139434323Y-85529295D01*
X139433000Y-85515860D01*
X139433000Y-85202140D01*
X139434323Y-85188705D01*
X139436451Y-85181690D01*
X139439908Y-85175224D01*
X139444558Y-85169558D01*
X139450224Y-85164908D01*
X139456690Y-85161451D01*
X139463705Y-85159323D01*
X139477140Y-85158000D01*
X140283001Y-85158000D01*
X140307387Y-85155598D01*
X140330836Y-85148485D01*
X140352447Y-85136934D01*
X140371389Y-85121389D01*
X140386934Y-85102447D01*
X140398485Y-85080836D01*
X140405598Y-85057387D01*
X140408000Y-85033001D01*
X140408000Y-84227140D01*
X140409323Y-84213705D01*
X140411451Y-84206690D01*
X140414908Y-84200224D01*
X140419558Y-84194558D01*
X140425224Y-84189908D01*
X140431690Y-84186451D01*
X140438705Y-84184323D01*
X140452140Y-84183000D01*
X140765860Y-84183000D01*
X140779295Y-84184323D01*
G37*
G36*
X159815672Y-87867449D02*
G01*
X159815674Y-87867450D01*
X159815675Y-87867450D01*
X159884103Y-87895793D01*
X159945686Y-87936942D01*
X159998058Y-87989314D01*
X160039207Y-88050897D01*
X160067550Y-88119325D01*
X160067551Y-88119328D01*
X160076749Y-88165569D01*
X160082000Y-88191967D01*
X160082000Y-88266033D01*
X160067550Y-88338675D01*
X160039207Y-88407103D01*
X159998058Y-88468686D01*
X159945686Y-88521058D01*
X159884103Y-88562207D01*
X159815675Y-88590550D01*
X159815674Y-88590550D01*
X159815672Y-88590551D01*
X159743034Y-88605000D01*
X159668966Y-88605000D01*
X159596328Y-88590551D01*
X159596326Y-88590550D01*
X159596325Y-88590550D01*
X159527897Y-88562207D01*
X159466314Y-88521058D01*
X159413942Y-88468686D01*
X159372793Y-88407103D01*
X159344450Y-88338675D01*
X159330000Y-88266033D01*
X159330000Y-88191967D01*
X159335251Y-88165569D01*
X159344449Y-88119328D01*
X159344450Y-88119325D01*
X159372793Y-88050897D01*
X159413942Y-87989314D01*
X159466314Y-87936942D01*
X159527897Y-87895793D01*
X159596325Y-87867450D01*
X159596326Y-87867450D01*
X159596328Y-87867449D01*
X159668966Y-87853000D01*
X159743034Y-87853000D01*
X159815672Y-87867449D01*
G37*
G36*
X145858591Y-87230085D02*
G01*
X145892569Y-87240393D01*
X145923890Y-87257134D01*
X145951339Y-87279661D01*
X145973866Y-87307110D01*
X145990607Y-87338431D01*
X146000915Y-87372409D01*
X146005000Y-87413890D01*
X146005000Y-88090110D01*
X146000915Y-88131591D01*
X145990607Y-88165569D01*
X145973866Y-88196890D01*
X145951339Y-88224339D01*
X145923890Y-88246866D01*
X145892569Y-88263607D01*
X145858591Y-88273915D01*
X145817110Y-88278000D01*
X145215890Y-88278000D01*
X145174409Y-88273915D01*
X145140431Y-88263607D01*
X145109110Y-88246866D01*
X145081661Y-88224339D01*
X145059134Y-88196890D01*
X145042393Y-88165569D01*
X145032085Y-88131591D01*
X145028000Y-88090110D01*
X145028000Y-87413890D01*
X145032085Y-87372409D01*
X145042393Y-87338431D01*
X145059134Y-87307110D01*
X145081661Y-87279661D01*
X145109110Y-87257134D01*
X145140431Y-87240393D01*
X145174409Y-87230085D01*
X145215890Y-87226000D01*
X145817110Y-87226000D01*
X145858591Y-87230085D01*
G37*
G36*
X147433591Y-87230085D02*
G01*
X147467569Y-87240393D01*
X147498890Y-87257134D01*
X147526339Y-87279661D01*
X147548866Y-87307110D01*
X147565607Y-87338431D01*
X147575915Y-87372409D01*
X147580000Y-87413890D01*
X147580000Y-88090110D01*
X147575915Y-88131591D01*
X147565607Y-88165569D01*
X147548866Y-88196890D01*
X147526339Y-88224339D01*
X147498890Y-88246866D01*
X147467569Y-88263607D01*
X147433591Y-88273915D01*
X147392110Y-88278000D01*
X146790890Y-88278000D01*
X146749409Y-88273915D01*
X146715431Y-88263607D01*
X146684110Y-88246866D01*
X146656661Y-88224339D01*
X146634134Y-88196890D01*
X146617393Y-88165569D01*
X146607085Y-88131591D01*
X146603000Y-88090110D01*
X146603000Y-87413890D01*
X146607085Y-87372409D01*
X146617393Y-87338431D01*
X146634134Y-87307110D01*
X146656661Y-87279661D01*
X146684110Y-87257134D01*
X146715431Y-87240393D01*
X146749409Y-87230085D01*
X146790890Y-87226000D01*
X147392110Y-87226000D01*
X147433591Y-87230085D01*
G37*
G36*
X132861000Y-88253000D02*
G01*
X130759000Y-88253000D01*
X130759000Y-87251000D01*
X132861000Y-87251000D01*
X132861000Y-88253000D01*
G37*
G36*
X151012000Y-87886200D02*
G01*
X150410000Y-87886200D01*
X150410000Y-85484200D01*
X151012000Y-85484200D01*
X151012000Y-87886200D01*
G37*
G36*
X152612000Y-87886200D02*
G01*
X152010000Y-87886200D01*
X152010000Y-85484200D01*
X152612000Y-85484200D01*
X152612000Y-87886200D01*
G37*
G36*
X145921591Y-85769085D02*
G01*
X145955569Y-85779393D01*
X145986890Y-85796134D01*
X146014339Y-85818661D01*
X146036866Y-85846110D01*
X146053607Y-85877431D01*
X146063915Y-85911409D01*
X146068000Y-85952890D01*
X146068000Y-86554110D01*
X146063915Y-86595591D01*
X146053607Y-86629569D01*
X146036866Y-86660890D01*
X146014339Y-86688339D01*
X145986890Y-86710866D01*
X145955569Y-86727607D01*
X145921591Y-86737915D01*
X145880110Y-86742000D01*
X145203890Y-86742000D01*
X145162409Y-86737915D01*
X145128431Y-86727607D01*
X145097110Y-86710866D01*
X145069661Y-86688339D01*
X145047134Y-86660890D01*
X145030393Y-86629569D01*
X145020085Y-86595591D01*
X145016000Y-86554110D01*
X145016000Y-85952890D01*
X145020085Y-85911409D01*
X145030393Y-85877431D01*
X145047134Y-85846110D01*
X145069661Y-85818661D01*
X145097110Y-85796134D01*
X145128431Y-85779393D01*
X145162409Y-85769085D01*
X145203890Y-85765000D01*
X145880110Y-85765000D01*
X145921591Y-85769085D01*
G37*
G36*
X147445591Y-85769085D02*
G01*
X147479569Y-85779393D01*
X147510890Y-85796134D01*
X147538339Y-85818661D01*
X147560866Y-85846110D01*
X147577607Y-85877431D01*
X147587915Y-85911409D01*
X147592000Y-85952890D01*
X147592000Y-86554110D01*
X147587915Y-86595591D01*
X147577607Y-86629569D01*
X147560866Y-86660890D01*
X147538339Y-86688339D01*
X147510890Y-86710866D01*
X147479569Y-86727607D01*
X147445591Y-86737915D01*
X147404110Y-86742000D01*
X146727890Y-86742000D01*
X146686409Y-86737915D01*
X146652431Y-86727607D01*
X146621110Y-86710866D01*
X146593661Y-86688339D01*
X146571134Y-86660890D01*
X146554393Y-86629569D01*
X146544085Y-86595591D01*
X146540000Y-86554110D01*
X146540000Y-85952890D01*
X146544085Y-85911409D01*
X146554393Y-85877431D01*
X146571134Y-85846110D01*
X146593661Y-85818661D01*
X146621110Y-85796134D01*
X146652431Y-85779393D01*
X146686409Y-85769085D01*
X146727890Y-85765000D01*
X147404110Y-85765000D01*
X147445591Y-85769085D01*
G37*
G36*
X138682591Y-85642085D02*
G01*
X138716569Y-85652393D01*
X138747890Y-85669134D01*
X138775339Y-85691661D01*
X138797866Y-85719110D01*
X138814607Y-85750431D01*
X138824915Y-85784409D01*
X138829000Y-85825890D01*
X138829000Y-86427110D01*
X138824915Y-86468591D01*
X138814607Y-86502569D01*
X138797866Y-86533890D01*
X138775339Y-86561339D01*
X138747890Y-86583866D01*
X138716569Y-86600607D01*
X138682591Y-86610915D01*
X138641110Y-86615000D01*
X137964890Y-86615000D01*
X137923409Y-86610915D01*
X137889431Y-86600607D01*
X137858110Y-86583866D01*
X137830661Y-86561339D01*
X137808134Y-86533890D01*
X137791393Y-86502569D01*
X137781085Y-86468591D01*
X137777000Y-86427110D01*
X137777000Y-85825890D01*
X137781085Y-85784409D01*
X137791393Y-85750431D01*
X137808134Y-85719110D01*
X137830661Y-85691661D01*
X137858110Y-85669134D01*
X137889431Y-85652393D01*
X137923409Y-85642085D01*
X137964890Y-85638000D01*
X138641110Y-85638000D01*
X138682591Y-85642085D01*
G37*
G36*
X114801000Y-86018000D02*
G01*
X113799000Y-86018000D01*
X113799000Y-83916000D01*
X114801000Y-83916000D01*
X114801000Y-86018000D01*
G37*
G36*
X118611000Y-86018000D02*
G01*
X117609000Y-86018000D01*
X117609000Y-83916000D01*
X118611000Y-83916000D01*
X118611000Y-86018000D01*
G37*
G36*
X122421000Y-86018000D02*
G01*
X121419000Y-86018000D01*
X121419000Y-83916000D01*
X122421000Y-83916000D01*
X122421000Y-86018000D01*
G37*
G36*
X128771000Y-86018000D02*
G01*
X127769000Y-86018000D01*
X127769000Y-83916000D01*
X128771000Y-83916000D01*
X128771000Y-86018000D01*
G37*
G36*
X116071000Y-86018000D02*
G01*
X115069000Y-86018000D01*
X115069000Y-83916000D01*
X116071000Y-83916000D01*
X116071000Y-86018000D01*
G37*
G36*
X131311000Y-86018000D02*
G01*
X130309000Y-86018000D01*
X130309000Y-83916000D01*
X131311000Y-83916000D01*
X131311000Y-86018000D01*
G37*
G36*
X127501000Y-86018000D02*
G01*
X126499000Y-86018000D01*
X126499000Y-83916000D01*
X127501000Y-83916000D01*
X127501000Y-86018000D01*
G37*
G36*
X126231000Y-86018000D02*
G01*
X125229000Y-86018000D01*
X125229000Y-83916000D01*
X126231000Y-83916000D01*
X126231000Y-86018000D01*
G37*
G36*
X130041000Y-86018000D02*
G01*
X129039000Y-86018000D01*
X129039000Y-83916000D01*
X130041000Y-83916000D01*
X130041000Y-86018000D01*
G37*
G36*
X124961000Y-86018000D02*
G01*
X123959000Y-86018000D01*
X123959000Y-83916000D01*
X124961000Y-83916000D01*
X124961000Y-86018000D01*
G37*
G36*
X121151000Y-86018000D02*
G01*
X120149000Y-86018000D01*
X120149000Y-83916000D01*
X121151000Y-83916000D01*
X121151000Y-86018000D01*
G37*
G36*
X119881000Y-86018000D02*
G01*
X118879000Y-86018000D01*
X118879000Y-83916000D01*
X119881000Y-83916000D01*
X119881000Y-86018000D01*
G37*
G36*
X123691000Y-86018000D02*
G01*
X122689000Y-86018000D01*
X122689000Y-83916000D01*
X123691000Y-83916000D01*
X123691000Y-86018000D01*
G37*
G36*
X117341000Y-86018000D02*
G01*
X116339000Y-86018000D01*
X116339000Y-83916000D01*
X117341000Y-83916000D01*
X117341000Y-86018000D01*
G37*
G36*
X154455991Y-84524485D02*
G01*
X154489969Y-84534793D01*
X154521290Y-84551534D01*
X154548739Y-84574061D01*
X154571266Y-84601510D01*
X154588007Y-84632831D01*
X154598315Y-84666809D01*
X154602400Y-84708290D01*
X154602400Y-85309510D01*
X154598315Y-85350991D01*
X154588007Y-85384969D01*
X154571266Y-85416290D01*
X154548739Y-85443739D01*
X154521290Y-85466266D01*
X154489969Y-85483007D01*
X154455991Y-85493315D01*
X154414510Y-85497400D01*
X153738290Y-85497400D01*
X153696809Y-85493315D01*
X153662831Y-85483007D01*
X153631510Y-85466266D01*
X153604061Y-85443739D01*
X153581534Y-85416290D01*
X153564793Y-85384969D01*
X153554485Y-85350991D01*
X153550400Y-85309510D01*
X153550400Y-84708290D01*
X153554485Y-84666809D01*
X153564793Y-84632831D01*
X153581534Y-84601510D01*
X153604061Y-84574061D01*
X153631510Y-84551534D01*
X153662831Y-84534793D01*
X153696809Y-84524485D01*
X153738290Y-84520400D01*
X154414510Y-84520400D01*
X154455991Y-84524485D01*
G37*
G36*
X147445591Y-84194085D02*
G01*
X147479569Y-84204393D01*
X147510890Y-84221134D01*
X147538339Y-84243661D01*
X147560866Y-84271110D01*
X147577607Y-84302431D01*
X147587915Y-84336409D01*
X147592000Y-84377890D01*
X147592000Y-84979110D01*
X147587915Y-85020591D01*
X147577607Y-85054569D01*
X147560866Y-85085890D01*
X147538339Y-85113339D01*
X147510890Y-85135866D01*
X147479569Y-85152607D01*
X147445591Y-85162915D01*
X147404110Y-85167000D01*
X146727890Y-85167000D01*
X146686409Y-85162915D01*
X146652431Y-85152607D01*
X146621110Y-85135866D01*
X146593661Y-85113339D01*
X146571134Y-85085890D01*
X146554393Y-85054569D01*
X146544085Y-85020591D01*
X146540000Y-84979110D01*
X146540000Y-84377890D01*
X146544085Y-84336409D01*
X146554393Y-84302431D01*
X146571134Y-84271110D01*
X146593661Y-84243661D01*
X146621110Y-84221134D01*
X146652431Y-84204393D01*
X146686409Y-84194085D01*
X146727890Y-84190000D01*
X147404110Y-84190000D01*
X147445591Y-84194085D01*
G37*
G36*
X145921591Y-84194085D02*
G01*
X145955569Y-84204393D01*
X145986890Y-84221134D01*
X146014339Y-84243661D01*
X146036866Y-84271110D01*
X146053607Y-84302431D01*
X146063915Y-84336409D01*
X146068000Y-84377890D01*
X146068000Y-84979110D01*
X146063915Y-85020591D01*
X146053607Y-85054569D01*
X146036866Y-85085890D01*
X146014339Y-85113339D01*
X145986890Y-85135866D01*
X145955569Y-85152607D01*
X145921591Y-85162915D01*
X145880110Y-85167000D01*
X145203890Y-85167000D01*
X145162409Y-85162915D01*
X145128431Y-85152607D01*
X145097110Y-85135866D01*
X145069661Y-85113339D01*
X145047134Y-85085890D01*
X145030393Y-85054569D01*
X145020085Y-85020591D01*
X145016000Y-84979110D01*
X145016000Y-84377890D01*
X145020085Y-84336409D01*
X145030393Y-84302431D01*
X145047134Y-84271110D01*
X145069661Y-84243661D01*
X145097110Y-84221134D01*
X145128431Y-84204393D01*
X145162409Y-84194085D01*
X145203890Y-84190000D01*
X145880110Y-84190000D01*
X145921591Y-84194085D01*
G37*
G36*
X138682591Y-84067085D02*
G01*
X138716569Y-84077393D01*
X138747890Y-84094134D01*
X138775339Y-84116661D01*
X138797866Y-84144110D01*
X138814607Y-84175431D01*
X138824915Y-84209409D01*
X138829000Y-84250890D01*
X138829000Y-84852110D01*
X138824915Y-84893591D01*
X138814607Y-84927569D01*
X138797866Y-84958890D01*
X138775339Y-84986339D01*
X138747890Y-85008866D01*
X138716569Y-85025607D01*
X138682591Y-85035915D01*
X138641110Y-85040000D01*
X137964890Y-85040000D01*
X137923409Y-85035915D01*
X137889431Y-85025607D01*
X137858110Y-85008866D01*
X137830661Y-84986339D01*
X137808134Y-84958890D01*
X137791393Y-84927569D01*
X137781085Y-84893591D01*
X137777000Y-84852110D01*
X137777000Y-84250890D01*
X137781085Y-84209409D01*
X137791393Y-84175431D01*
X137808134Y-84144110D01*
X137830661Y-84116661D01*
X137858110Y-84094134D01*
X137889431Y-84077393D01*
X137923409Y-84067085D01*
X137964890Y-84063000D01*
X138641110Y-84063000D01*
X138682591Y-84067085D01*
G37*
G36*
X154455991Y-82949485D02*
G01*
X154489969Y-82959793D01*
X154521290Y-82976534D01*
X154548739Y-82999061D01*
X154571266Y-83026510D01*
X154588007Y-83057831D01*
X154598315Y-83091809D01*
X154602400Y-83133290D01*
X154602400Y-83734510D01*
X154598315Y-83775991D01*
X154588007Y-83809969D01*
X154571266Y-83841290D01*
X154548739Y-83868739D01*
X154521290Y-83891266D01*
X154489969Y-83908007D01*
X154455991Y-83918315D01*
X154414510Y-83922400D01*
X153738290Y-83922400D01*
X153696809Y-83918315D01*
X153662831Y-83908007D01*
X153631510Y-83891266D01*
X153604061Y-83868739D01*
X153581534Y-83841290D01*
X153564793Y-83809969D01*
X153554485Y-83775991D01*
X153550400Y-83734510D01*
X153550400Y-83133290D01*
X153554485Y-83091809D01*
X153564793Y-83057831D01*
X153581534Y-83026510D01*
X153604061Y-82999061D01*
X153631510Y-82976534D01*
X153662831Y-82959793D01*
X153696809Y-82949485D01*
X153738290Y-82945400D01*
X154414510Y-82945400D01*
X154455991Y-82949485D01*
G37*
G36*
X148388355Y-82513083D02*
G01*
X148393029Y-82514501D01*
X148397330Y-82516800D01*
X148403702Y-82522029D01*
X148424076Y-82535643D01*
X148446715Y-82545020D01*
X148470749Y-82549800D01*
X148495253Y-82549800D01*
X148519286Y-82545019D01*
X148541925Y-82535642D01*
X148562298Y-82522029D01*
X148568670Y-82516800D01*
X148572971Y-82514501D01*
X148577645Y-82513083D01*
X148588641Y-82512000D01*
X148877359Y-82512000D01*
X148888355Y-82513083D01*
X148893029Y-82514501D01*
X148897330Y-82516800D01*
X148903702Y-82522029D01*
X148924076Y-82535643D01*
X148946715Y-82545020D01*
X148970749Y-82549800D01*
X148995253Y-82549800D01*
X149019286Y-82545019D01*
X149041925Y-82535642D01*
X149062298Y-82522029D01*
X149068670Y-82516800D01*
X149072971Y-82514501D01*
X149077645Y-82513083D01*
X149088641Y-82512000D01*
X149377359Y-82512000D01*
X149388355Y-82513083D01*
X149393029Y-82514501D01*
X149397330Y-82516800D01*
X149403702Y-82522029D01*
X149424076Y-82535643D01*
X149446715Y-82545020D01*
X149470749Y-82549800D01*
X149495253Y-82549800D01*
X149519286Y-82545019D01*
X149541925Y-82535642D01*
X149562298Y-82522029D01*
X149568670Y-82516800D01*
X149572971Y-82514501D01*
X149577645Y-82513083D01*
X149588641Y-82512000D01*
X149877359Y-82512000D01*
X149888355Y-82513083D01*
X149893029Y-82514501D01*
X149897330Y-82516800D01*
X149903702Y-82522029D01*
X149924076Y-82535643D01*
X149946715Y-82545020D01*
X149970749Y-82549800D01*
X149995253Y-82549800D01*
X150019286Y-82545019D01*
X150041925Y-82535642D01*
X150062298Y-82522029D01*
X150068670Y-82516800D01*
X150072971Y-82514501D01*
X150077645Y-82513083D01*
X150088641Y-82512000D01*
X150377359Y-82512000D01*
X150388355Y-82513083D01*
X150393029Y-82514501D01*
X150397330Y-82516800D01*
X150403702Y-82522029D01*
X150424076Y-82535643D01*
X150446715Y-82545020D01*
X150470749Y-82549800D01*
X150495253Y-82549800D01*
X150519286Y-82545019D01*
X150541925Y-82535642D01*
X150562298Y-82522029D01*
X150568670Y-82516800D01*
X150572971Y-82514501D01*
X150577645Y-82513083D01*
X150588641Y-82512000D01*
X150877359Y-82512000D01*
X150888355Y-82513083D01*
X150893029Y-82514501D01*
X150897330Y-82516800D01*
X150903702Y-82522029D01*
X150924076Y-82535643D01*
X150946715Y-82545020D01*
X150970749Y-82549800D01*
X150995253Y-82549800D01*
X151019286Y-82545019D01*
X151041925Y-82535642D01*
X151062298Y-82522029D01*
X151068670Y-82516800D01*
X151072971Y-82514501D01*
X151077645Y-82513083D01*
X151088641Y-82512000D01*
X151377359Y-82512000D01*
X151388355Y-82513083D01*
X151393029Y-82514501D01*
X151397331Y-82516800D01*
X151401104Y-82519896D01*
X151404200Y-82523669D01*
X151406499Y-82527971D01*
X151407917Y-82532645D01*
X151409000Y-82543641D01*
X151409000Y-83382359D01*
X151407917Y-83393355D01*
X151406499Y-83398029D01*
X151404200Y-83402331D01*
X151401104Y-83406104D01*
X151397331Y-83409200D01*
X151393029Y-83411499D01*
X151388355Y-83412917D01*
X151377359Y-83414000D01*
X151088641Y-83414000D01*
X151077645Y-83412917D01*
X151072971Y-83411499D01*
X151068670Y-83409200D01*
X151062298Y-83403971D01*
X151041924Y-83390357D01*
X151019285Y-83380980D01*
X150995251Y-83376200D01*
X150970747Y-83376200D01*
X150946714Y-83380981D01*
X150924075Y-83390358D01*
X150903702Y-83403971D01*
X150897330Y-83409200D01*
X150893029Y-83411499D01*
X150888355Y-83412917D01*
X150877359Y-83414000D01*
X150588641Y-83414000D01*
X150577645Y-83412917D01*
X150572971Y-83411499D01*
X150568670Y-83409200D01*
X150562298Y-83403971D01*
X150541924Y-83390357D01*
X150519285Y-83380980D01*
X150495251Y-83376200D01*
X150470747Y-83376200D01*
X150446714Y-83380981D01*
X150424075Y-83390358D01*
X150403702Y-83403971D01*
X150397330Y-83409200D01*
X150393029Y-83411499D01*
X150388355Y-83412917D01*
X150377359Y-83414000D01*
X150088641Y-83414000D01*
X150077645Y-83412917D01*
X150072971Y-83411499D01*
X150068670Y-83409200D01*
X150062298Y-83403971D01*
X150041924Y-83390357D01*
X150019285Y-83380980D01*
X149995251Y-83376200D01*
X149970747Y-83376200D01*
X149946714Y-83380981D01*
X149924075Y-83390358D01*
X149903702Y-83403971D01*
X149897330Y-83409200D01*
X149893029Y-83411499D01*
X149888355Y-83412917D01*
X149877359Y-83414000D01*
X149588641Y-83414000D01*
X149577645Y-83412917D01*
X149572971Y-83411499D01*
X149568670Y-83409200D01*
X149562298Y-83403971D01*
X149541924Y-83390357D01*
X149519285Y-83380980D01*
X149495251Y-83376200D01*
X149470747Y-83376200D01*
X149446714Y-83380981D01*
X149424075Y-83390358D01*
X149403702Y-83403971D01*
X149397330Y-83409200D01*
X149393029Y-83411499D01*
X149388355Y-83412917D01*
X149377359Y-83414000D01*
X149088641Y-83414000D01*
X149077645Y-83412917D01*
X149072971Y-83411499D01*
X149068670Y-83409200D01*
X149062298Y-83403971D01*
X149041924Y-83390357D01*
X149019285Y-83380980D01*
X148995251Y-83376200D01*
X148970747Y-83376200D01*
X148946714Y-83380981D01*
X148924075Y-83390358D01*
X148903702Y-83403971D01*
X148897330Y-83409200D01*
X148893029Y-83411499D01*
X148888355Y-83412917D01*
X148877359Y-83414000D01*
X148588641Y-83414000D01*
X148577645Y-83412917D01*
X148572971Y-83411499D01*
X148568670Y-83409200D01*
X148562298Y-83403971D01*
X148541924Y-83390357D01*
X148519285Y-83380980D01*
X148495251Y-83376200D01*
X148470747Y-83376200D01*
X148446714Y-83380981D01*
X148424075Y-83390358D01*
X148403702Y-83403971D01*
X148397330Y-83409200D01*
X148393029Y-83411499D01*
X148388355Y-83412917D01*
X148377359Y-83414000D01*
X148088641Y-83414000D01*
X148077645Y-83412917D01*
X148072971Y-83411499D01*
X148068669Y-83409200D01*
X148064896Y-83406104D01*
X148061800Y-83402331D01*
X148059501Y-83398029D01*
X148058083Y-83393355D01*
X148057000Y-83382359D01*
X148057000Y-82543641D01*
X148058083Y-82532645D01*
X148059501Y-82527971D01*
X148061800Y-82523669D01*
X148064896Y-82519896D01*
X148068669Y-82516800D01*
X148072971Y-82514501D01*
X148077645Y-82513083D01*
X148088641Y-82512000D01*
X148377359Y-82512000D01*
X148388355Y-82513083D01*
G37*
G36*
X145921591Y-82213085D02*
G01*
X145955569Y-82223393D01*
X145986890Y-82240134D01*
X146014339Y-82262661D01*
X146036866Y-82290110D01*
X146053607Y-82321431D01*
X146063915Y-82355409D01*
X146068000Y-82396890D01*
X146068000Y-82998110D01*
X146063915Y-83039591D01*
X146053607Y-83073569D01*
X146036866Y-83104890D01*
X146014339Y-83132339D01*
X145986890Y-83154866D01*
X145955569Y-83171607D01*
X145921591Y-83181915D01*
X145880110Y-83186000D01*
X145203890Y-83186000D01*
X145162409Y-83181915D01*
X145128431Y-83171607D01*
X145097110Y-83154866D01*
X145069661Y-83132339D01*
X145047134Y-83104890D01*
X145030393Y-83073569D01*
X145020085Y-83039591D01*
X145016000Y-82998110D01*
X145016000Y-82396890D01*
X145020085Y-82355409D01*
X145030393Y-82321431D01*
X145047134Y-82290110D01*
X145069661Y-82262661D01*
X145097110Y-82240134D01*
X145128431Y-82223393D01*
X145162409Y-82213085D01*
X145203890Y-82209000D01*
X145880110Y-82209000D01*
X145921591Y-82213085D01*
G37*
G36*
X159815672Y-82087449D02*
G01*
X159815674Y-82087450D01*
X159815675Y-82087450D01*
X159884103Y-82115793D01*
X159945686Y-82156942D01*
X159998058Y-82209314D01*
X160039207Y-82270897D01*
X160060138Y-82321431D01*
X160067551Y-82339328D01*
X160082000Y-82411966D01*
X160082000Y-82486034D01*
X160069316Y-82549800D01*
X160067550Y-82558675D01*
X160039207Y-82627103D01*
X159998058Y-82688686D01*
X159945686Y-82741058D01*
X159884103Y-82782207D01*
X159815675Y-82810550D01*
X159815674Y-82810550D01*
X159815672Y-82810551D01*
X159743034Y-82825000D01*
X159668966Y-82825000D01*
X159596328Y-82810551D01*
X159596326Y-82810550D01*
X159596325Y-82810550D01*
X159527897Y-82782207D01*
X159466314Y-82741058D01*
X159413942Y-82688686D01*
X159372793Y-82627103D01*
X159344450Y-82558675D01*
X159342685Y-82549800D01*
X159330000Y-82486034D01*
X159330000Y-82411966D01*
X159344449Y-82339328D01*
X159351862Y-82321431D01*
X159372793Y-82270897D01*
X159413942Y-82209314D01*
X159466314Y-82156942D01*
X159527897Y-82115793D01*
X159596325Y-82087450D01*
X159596326Y-82087450D01*
X159596328Y-82087449D01*
X159668966Y-82073000D01*
X159743034Y-82073000D01*
X159815672Y-82087449D01*
G37*
G36*
X151459000Y-82239000D02*
G01*
X148007000Y-82239000D01*
X148007000Y-78787000D01*
X151459000Y-78787000D01*
X151459000Y-82239000D01*
G37*
G36*
X152613355Y-78838083D02*
G01*
X152618029Y-78839501D01*
X152622331Y-78841800D01*
X152626104Y-78844896D01*
X152629200Y-78848669D01*
X152631499Y-78852971D01*
X152632917Y-78857645D01*
X152634000Y-78868641D01*
X152634000Y-79157359D01*
X152632917Y-79168355D01*
X152631499Y-79173029D01*
X152629200Y-79177330D01*
X152623971Y-79183702D01*
X152610357Y-79204076D01*
X152600980Y-79226715D01*
X152596200Y-79250749D01*
X152596200Y-79275253D01*
X152600981Y-79299286D01*
X152610358Y-79321925D01*
X152623971Y-79342298D01*
X152629200Y-79348670D01*
X152631499Y-79352971D01*
X152632917Y-79357645D01*
X152634000Y-79368641D01*
X152634000Y-79657359D01*
X152632917Y-79668355D01*
X152631499Y-79673029D01*
X152629200Y-79677330D01*
X152623971Y-79683702D01*
X152610357Y-79704076D01*
X152600980Y-79726715D01*
X152596200Y-79750749D01*
X152596200Y-79775253D01*
X152600981Y-79799286D01*
X152610358Y-79821925D01*
X152623971Y-79842298D01*
X152629200Y-79848670D01*
X152631499Y-79852971D01*
X152632917Y-79857645D01*
X152634000Y-79868641D01*
X152634000Y-80157359D01*
X152632917Y-80168355D01*
X152631499Y-80173029D01*
X152629200Y-80177330D01*
X152623971Y-80183702D01*
X152610357Y-80204076D01*
X152600980Y-80226715D01*
X152596200Y-80250749D01*
X152596200Y-80275253D01*
X152600981Y-80299286D01*
X152610358Y-80321925D01*
X152623971Y-80342298D01*
X152629200Y-80348670D01*
X152631499Y-80352971D01*
X152632917Y-80357645D01*
X152634000Y-80368641D01*
X152634000Y-80657359D01*
X152632917Y-80668355D01*
X152631499Y-80673029D01*
X152629200Y-80677330D01*
X152623971Y-80683702D01*
X152610357Y-80704076D01*
X152600980Y-80726715D01*
X152596200Y-80750749D01*
X152596200Y-80775253D01*
X152600981Y-80799286D01*
X152610358Y-80821925D01*
X152623971Y-80842298D01*
X152629200Y-80848670D01*
X152631499Y-80852971D01*
X152632917Y-80857645D01*
X152634000Y-80868641D01*
X152634000Y-81157359D01*
X152632917Y-81168355D01*
X152631499Y-81173029D01*
X152629200Y-81177330D01*
X152623971Y-81183702D01*
X152610357Y-81204076D01*
X152600980Y-81226715D01*
X152596200Y-81250749D01*
X152596200Y-81275253D01*
X152600981Y-81299286D01*
X152610358Y-81321925D01*
X152623971Y-81342298D01*
X152629200Y-81348670D01*
X152631499Y-81352971D01*
X152632917Y-81357645D01*
X152634000Y-81368641D01*
X152634000Y-81657359D01*
X152632917Y-81668355D01*
X152631499Y-81673029D01*
X152629200Y-81677330D01*
X152623971Y-81683702D01*
X152610357Y-81704076D01*
X152600980Y-81726715D01*
X152596200Y-81750749D01*
X152596200Y-81775253D01*
X152600981Y-81799286D01*
X152610358Y-81821925D01*
X152623971Y-81842298D01*
X152629200Y-81848670D01*
X152631499Y-81852971D01*
X152632917Y-81857645D01*
X152634000Y-81868641D01*
X152634000Y-82157359D01*
X152632917Y-82168355D01*
X152631499Y-82173029D01*
X152629200Y-82177331D01*
X152626104Y-82181104D01*
X152622331Y-82184200D01*
X152618029Y-82186499D01*
X152613355Y-82187917D01*
X152602359Y-82189000D01*
X151763641Y-82189000D01*
X151752645Y-82187917D01*
X151747971Y-82186499D01*
X151743669Y-82184200D01*
X151739896Y-82181104D01*
X151736800Y-82177331D01*
X151734501Y-82173029D01*
X151733083Y-82168355D01*
X151732000Y-82157359D01*
X151732000Y-81868641D01*
X151733083Y-81857645D01*
X151734501Y-81852971D01*
X151736800Y-81848670D01*
X151742029Y-81842298D01*
X151755643Y-81821924D01*
X151765020Y-81799285D01*
X151769800Y-81775251D01*
X151769800Y-81750747D01*
X151765019Y-81726714D01*
X151755642Y-81704075D01*
X151742029Y-81683702D01*
X151736800Y-81677330D01*
X151734501Y-81673029D01*
X151733083Y-81668355D01*
X151732000Y-81657359D01*
X151732000Y-81368641D01*
X151733083Y-81357645D01*
X151734501Y-81352971D01*
X151736800Y-81348670D01*
X151742029Y-81342298D01*
X151755643Y-81321924D01*
X151765020Y-81299285D01*
X151769800Y-81275251D01*
X151769800Y-81250747D01*
X151765019Y-81226714D01*
X151755642Y-81204075D01*
X151742029Y-81183702D01*
X151736800Y-81177330D01*
X151734501Y-81173029D01*
X151733083Y-81168355D01*
X151732000Y-81157359D01*
X151732000Y-80868641D01*
X151733083Y-80857645D01*
X151734501Y-80852971D01*
X151736800Y-80848670D01*
X151742029Y-80842298D01*
X151755643Y-80821924D01*
X151765020Y-80799285D01*
X151769800Y-80775251D01*
X151769800Y-80750747D01*
X151765019Y-80726714D01*
X151755642Y-80704075D01*
X151742029Y-80683702D01*
X151736800Y-80677330D01*
X151734501Y-80673029D01*
X151733083Y-80668355D01*
X151732000Y-80657359D01*
X151732000Y-80368641D01*
X151733083Y-80357645D01*
X151734501Y-80352971D01*
X151736800Y-80348670D01*
X151742029Y-80342298D01*
X151755643Y-80321924D01*
X151765020Y-80299285D01*
X151769800Y-80275251D01*
X151769800Y-80250747D01*
X151765019Y-80226714D01*
X151755642Y-80204075D01*
X151742029Y-80183702D01*
X151736800Y-80177330D01*
X151734501Y-80173029D01*
X151733083Y-80168355D01*
X151732000Y-80157359D01*
X151732000Y-79868641D01*
X151733083Y-79857645D01*
X151734501Y-79852971D01*
X151736800Y-79848670D01*
X151742029Y-79842298D01*
X151755643Y-79821924D01*
X151765020Y-79799285D01*
X151769800Y-79775251D01*
X151769800Y-79750747D01*
X151765019Y-79726714D01*
X151755642Y-79704075D01*
X151742029Y-79683702D01*
X151736800Y-79677330D01*
X151734501Y-79673029D01*
X151733083Y-79668355D01*
X151732000Y-79657359D01*
X151732000Y-79368641D01*
X151733083Y-79357645D01*
X151734501Y-79352971D01*
X151736800Y-79348670D01*
X151742029Y-79342298D01*
X151755643Y-79321924D01*
X151765020Y-79299285D01*
X151769800Y-79275251D01*
X151769800Y-79250747D01*
X151765019Y-79226714D01*
X151755642Y-79204075D01*
X151742029Y-79183702D01*
X151736800Y-79177330D01*
X151734501Y-79173029D01*
X151733083Y-79168355D01*
X151732000Y-79157359D01*
X151732000Y-78868641D01*
X151733083Y-78857645D01*
X151734501Y-78852971D01*
X151736800Y-78848669D01*
X151739896Y-78844896D01*
X151743669Y-78841800D01*
X151747971Y-78839501D01*
X151752645Y-78838083D01*
X151763641Y-78837000D01*
X152602359Y-78837000D01*
X152613355Y-78838083D01*
G37*
G36*
X147713355Y-78838083D02*
G01*
X147718029Y-78839501D01*
X147722331Y-78841800D01*
X147726104Y-78844896D01*
X147729200Y-78848669D01*
X147731499Y-78852971D01*
X147732917Y-78857645D01*
X147734000Y-78868641D01*
X147734000Y-79157359D01*
X147732917Y-79168355D01*
X147731499Y-79173029D01*
X147729200Y-79177330D01*
X147723971Y-79183702D01*
X147710357Y-79204076D01*
X147700980Y-79226715D01*
X147696200Y-79250749D01*
X147696200Y-79275253D01*
X147700981Y-79299286D01*
X147710358Y-79321925D01*
X147723971Y-79342298D01*
X147729200Y-79348670D01*
X147731499Y-79352971D01*
X147732917Y-79357645D01*
X147734000Y-79368641D01*
X147734000Y-79657359D01*
X147732917Y-79668355D01*
X147731499Y-79673029D01*
X147729200Y-79677330D01*
X147723971Y-79683702D01*
X147710357Y-79704076D01*
X147700980Y-79726715D01*
X147696200Y-79750749D01*
X147696200Y-79775253D01*
X147700981Y-79799286D01*
X147710358Y-79821925D01*
X147723971Y-79842298D01*
X147729200Y-79848670D01*
X147731499Y-79852971D01*
X147732917Y-79857645D01*
X147734000Y-79868641D01*
X147734000Y-80157359D01*
X147732917Y-80168355D01*
X147731499Y-80173029D01*
X147729200Y-80177330D01*
X147723971Y-80183702D01*
X147710357Y-80204076D01*
X147700980Y-80226715D01*
X147696200Y-80250749D01*
X147696200Y-80275253D01*
X147700981Y-80299286D01*
X147710358Y-80321925D01*
X147723971Y-80342298D01*
X147729200Y-80348670D01*
X147731499Y-80352971D01*
X147732917Y-80357645D01*
X147734000Y-80368641D01*
X147734000Y-80657359D01*
X147732917Y-80668355D01*
X147731499Y-80673029D01*
X147729200Y-80677330D01*
X147723971Y-80683702D01*
X147710357Y-80704076D01*
X147700980Y-80726715D01*
X147696200Y-80750749D01*
X147696200Y-80775253D01*
X147700981Y-80799286D01*
X147710358Y-80821925D01*
X147723971Y-80842298D01*
X147729200Y-80848670D01*
X147731499Y-80852971D01*
X147732917Y-80857645D01*
X147734000Y-80868641D01*
X147734000Y-81157359D01*
X147732917Y-81168355D01*
X147731499Y-81173029D01*
X147729200Y-81177330D01*
X147723971Y-81183702D01*
X147710357Y-81204076D01*
X147700980Y-81226715D01*
X147696200Y-81250749D01*
X147696200Y-81275253D01*
X147700981Y-81299286D01*
X147710358Y-81321925D01*
X147723971Y-81342298D01*
X147729200Y-81348670D01*
X147731499Y-81352971D01*
X147732917Y-81357645D01*
X147734000Y-81368641D01*
X147734000Y-81657359D01*
X147732917Y-81668355D01*
X147731499Y-81673029D01*
X147729200Y-81677330D01*
X147723971Y-81683702D01*
X147710357Y-81704076D01*
X147700980Y-81726715D01*
X147696200Y-81750749D01*
X147696200Y-81775253D01*
X147700981Y-81799286D01*
X147710358Y-81821925D01*
X147723971Y-81842298D01*
X147729200Y-81848670D01*
X147731499Y-81852971D01*
X147732917Y-81857645D01*
X147734000Y-81868641D01*
X147734000Y-82157359D01*
X147732917Y-82168355D01*
X147731499Y-82173029D01*
X147729200Y-82177331D01*
X147726104Y-82181104D01*
X147722331Y-82184200D01*
X147718029Y-82186499D01*
X147713355Y-82187917D01*
X147702359Y-82189000D01*
X146863641Y-82189000D01*
X146852645Y-82187917D01*
X146847971Y-82186499D01*
X146843669Y-82184200D01*
X146839896Y-82181104D01*
X146836800Y-82177331D01*
X146834501Y-82173029D01*
X146833083Y-82168355D01*
X146832000Y-82157359D01*
X146832000Y-81868641D01*
X146833083Y-81857645D01*
X146834501Y-81852971D01*
X146836800Y-81848670D01*
X146842029Y-81842298D01*
X146855643Y-81821924D01*
X146865020Y-81799285D01*
X146869800Y-81775251D01*
X146869800Y-81750747D01*
X146865019Y-81726714D01*
X146855642Y-81704075D01*
X146842029Y-81683702D01*
X146836800Y-81677330D01*
X146834501Y-81673029D01*
X146833083Y-81668355D01*
X146832000Y-81657359D01*
X146832000Y-81368641D01*
X146833083Y-81357645D01*
X146834501Y-81352971D01*
X146836800Y-81348670D01*
X146842029Y-81342298D01*
X146855643Y-81321924D01*
X146865020Y-81299285D01*
X146869800Y-81275251D01*
X146869800Y-81250747D01*
X146865019Y-81226714D01*
X146855642Y-81204075D01*
X146842029Y-81183702D01*
X146836800Y-81177330D01*
X146834501Y-81173029D01*
X146833083Y-81168355D01*
X146832000Y-81157359D01*
X146832000Y-80868641D01*
X146833083Y-80857645D01*
X146834501Y-80852971D01*
X146836800Y-80848670D01*
X146842029Y-80842298D01*
X146855643Y-80821924D01*
X146865020Y-80799285D01*
X146869800Y-80775251D01*
X146869800Y-80750747D01*
X146865019Y-80726714D01*
X146855642Y-80704075D01*
X146842029Y-80683702D01*
X146836800Y-80677330D01*
X146834501Y-80673029D01*
X146833083Y-80668355D01*
X146832000Y-80657359D01*
X146832000Y-80368641D01*
X146833083Y-80357645D01*
X146834501Y-80352971D01*
X146836800Y-80348670D01*
X146842029Y-80342298D01*
X146855643Y-80321924D01*
X146865020Y-80299285D01*
X146869800Y-80275251D01*
X146869800Y-80250747D01*
X146865019Y-80226714D01*
X146855642Y-80204075D01*
X146842029Y-80183702D01*
X146836800Y-80177330D01*
X146834501Y-80173029D01*
X146833083Y-80168355D01*
X146832000Y-80157359D01*
X146832000Y-79868641D01*
X146833083Y-79857645D01*
X146834501Y-79852971D01*
X146836800Y-79848670D01*
X146842029Y-79842298D01*
X146855643Y-79821924D01*
X146865020Y-79799285D01*
X146869800Y-79775251D01*
X146869800Y-79750747D01*
X146865019Y-79726714D01*
X146855642Y-79704075D01*
X146842029Y-79683702D01*
X146836800Y-79677330D01*
X146834501Y-79673029D01*
X146833083Y-79668355D01*
X146832000Y-79657359D01*
X146832000Y-79368641D01*
X146833083Y-79357645D01*
X146834501Y-79352971D01*
X146836800Y-79348670D01*
X146842029Y-79342298D01*
X146855643Y-79321924D01*
X146865020Y-79299285D01*
X146869800Y-79275251D01*
X146869800Y-79250747D01*
X146865019Y-79226714D01*
X146855642Y-79204075D01*
X146842029Y-79183702D01*
X146836800Y-79177330D01*
X146834501Y-79173029D01*
X146833083Y-79168355D01*
X146832000Y-79157359D01*
X146832000Y-78868641D01*
X146833083Y-78857645D01*
X146834501Y-78852971D01*
X146836800Y-78848669D01*
X146839896Y-78844896D01*
X146843669Y-78841800D01*
X146847971Y-78839501D01*
X146852645Y-78838083D01*
X146863641Y-78837000D01*
X147702359Y-78837000D01*
X147713355Y-78838083D01*
G37*
G36*
X145921591Y-80638085D02*
G01*
X145955569Y-80648393D01*
X145986890Y-80665134D01*
X146014339Y-80687661D01*
X146036866Y-80715110D01*
X146053607Y-80746431D01*
X146063915Y-80780409D01*
X146068000Y-80821890D01*
X146068000Y-81423110D01*
X146063915Y-81464591D01*
X146053607Y-81498569D01*
X146036866Y-81529890D01*
X146014339Y-81557339D01*
X145986890Y-81579866D01*
X145955569Y-81596607D01*
X145921591Y-81606915D01*
X145880110Y-81611000D01*
X145203890Y-81611000D01*
X145162409Y-81606915D01*
X145128431Y-81596607D01*
X145097110Y-81579866D01*
X145069661Y-81557339D01*
X145047134Y-81529890D01*
X145030393Y-81498569D01*
X145020085Y-81464591D01*
X145016000Y-81423110D01*
X145016000Y-80821890D01*
X145020085Y-80780409D01*
X145030393Y-80746431D01*
X145047134Y-80715110D01*
X145069661Y-80687661D01*
X145097110Y-80665134D01*
X145128431Y-80648393D01*
X145162409Y-80638085D01*
X145203890Y-80634000D01*
X145880110Y-80634000D01*
X145921591Y-80638085D01*
G37*
G36*
X163764015Y-80475973D02*
G01*
X163867879Y-80507479D01*
X163895055Y-80522005D01*
X163963600Y-80558643D01*
X164047501Y-80627499D01*
X164116357Y-80711400D01*
X164135081Y-80746431D01*
X164167521Y-80807121D01*
X164199027Y-80910985D01*
X164209666Y-81019000D01*
X164199027Y-81127015D01*
X164167521Y-81230879D01*
X164167519Y-81230882D01*
X164116357Y-81326600D01*
X164047501Y-81410501D01*
X163963600Y-81479357D01*
X163908014Y-81509068D01*
X163867879Y-81530521D01*
X163764015Y-81562027D01*
X163683067Y-81570000D01*
X163028933Y-81570000D01*
X162947985Y-81562027D01*
X162844121Y-81530521D01*
X162803986Y-81509068D01*
X162748400Y-81479357D01*
X162664499Y-81410501D01*
X162595643Y-81326600D01*
X162544481Y-81230882D01*
X162544479Y-81230879D01*
X162512973Y-81127015D01*
X162502334Y-81019000D01*
X162512973Y-80910985D01*
X162544479Y-80807121D01*
X162576919Y-80746431D01*
X162595643Y-80711400D01*
X162664499Y-80627499D01*
X162748400Y-80558643D01*
X162816945Y-80522005D01*
X162844121Y-80507479D01*
X162947985Y-80475973D01*
X163028933Y-80468000D01*
X163683067Y-80468000D01*
X163764015Y-80475973D01*
G37*
G36*
X145921591Y-78784085D02*
G01*
X145955569Y-78794393D01*
X145986890Y-78811134D01*
X146014339Y-78833661D01*
X146036866Y-78861110D01*
X146053607Y-78892431D01*
X146063915Y-78926409D01*
X146068000Y-78967890D01*
X146068000Y-79569110D01*
X146063915Y-79610591D01*
X146053607Y-79644569D01*
X146036866Y-79675890D01*
X146014339Y-79703339D01*
X145986890Y-79725866D01*
X145955569Y-79742607D01*
X145921591Y-79752915D01*
X145880110Y-79757000D01*
X145203890Y-79757000D01*
X145162409Y-79752915D01*
X145128431Y-79742607D01*
X145097110Y-79725866D01*
X145069661Y-79703339D01*
X145047134Y-79675890D01*
X145030393Y-79644569D01*
X145020085Y-79610591D01*
X145016000Y-79569110D01*
X145016000Y-78967890D01*
X145020085Y-78926409D01*
X145030393Y-78892431D01*
X145047134Y-78861110D01*
X145069661Y-78833661D01*
X145097110Y-78811134D01*
X145128431Y-78794393D01*
X145162409Y-78784085D01*
X145203890Y-78780000D01*
X145880110Y-78780000D01*
X145921591Y-78784085D01*
G37*
G36*
X120573012Y-77013427D02*
G01*
X120722312Y-77043124D01*
X120886284Y-77111044D01*
X121033854Y-77209647D01*
X121159353Y-77335146D01*
X121257956Y-77482716D01*
X121325876Y-77646688D01*
X121339147Y-77713410D01*
X121360500Y-77820758D01*
X121360500Y-77998242D01*
X121356823Y-78016726D01*
X121325876Y-78172312D01*
X121257956Y-78336284D01*
X121159353Y-78483854D01*
X121033854Y-78609353D01*
X120886284Y-78707956D01*
X120722312Y-78775876D01*
X120573012Y-78805573D01*
X120548242Y-78810500D01*
X120370758Y-78810500D01*
X120345988Y-78805573D01*
X120196688Y-78775876D01*
X120032716Y-78707956D01*
X119885146Y-78609353D01*
X119759647Y-78483854D01*
X119661044Y-78336284D01*
X119593124Y-78172312D01*
X119562177Y-78016726D01*
X119558500Y-77998242D01*
X119558500Y-77820758D01*
X119579853Y-77713410D01*
X119593124Y-77646688D01*
X119661044Y-77482716D01*
X119759647Y-77335146D01*
X119885146Y-77209647D01*
X120032716Y-77111044D01*
X120196688Y-77043124D01*
X120345988Y-77013427D01*
X120370758Y-77008500D01*
X120548242Y-77008500D01*
X120573012Y-77013427D01*
G37*
G36*
X134060500Y-78810500D02*
G01*
X132258500Y-78810500D01*
X132258500Y-77008500D01*
X134060500Y-77008500D01*
X134060500Y-78810500D01*
G37*
G36*
X130733012Y-77013427D02*
G01*
X130882312Y-77043124D01*
X131046284Y-77111044D01*
X131193854Y-77209647D01*
X131319353Y-77335146D01*
X131417956Y-77482716D01*
X131485876Y-77646688D01*
X131499147Y-77713410D01*
X131520500Y-77820758D01*
X131520500Y-77998242D01*
X131516823Y-78016726D01*
X131485876Y-78172312D01*
X131417956Y-78336284D01*
X131319353Y-78483854D01*
X131193854Y-78609353D01*
X131046284Y-78707956D01*
X130882312Y-78775876D01*
X130733012Y-78805573D01*
X130708242Y-78810500D01*
X130530758Y-78810500D01*
X130505988Y-78805573D01*
X130356688Y-78775876D01*
X130192716Y-78707956D01*
X130045146Y-78609353D01*
X129919647Y-78483854D01*
X129821044Y-78336284D01*
X129753124Y-78172312D01*
X129722177Y-78016726D01*
X129718500Y-77998242D01*
X129718500Y-77820758D01*
X129739853Y-77713410D01*
X129753124Y-77646688D01*
X129821044Y-77482716D01*
X129919647Y-77335146D01*
X130045146Y-77209647D01*
X130192716Y-77111044D01*
X130356688Y-77043124D01*
X130505988Y-77013427D01*
X130530758Y-77008500D01*
X130708242Y-77008500D01*
X130733012Y-77013427D01*
G37*
G36*
X125653012Y-77013427D02*
G01*
X125802312Y-77043124D01*
X125966284Y-77111044D01*
X126113854Y-77209647D01*
X126239353Y-77335146D01*
X126337956Y-77482716D01*
X126405876Y-77646688D01*
X126419147Y-77713410D01*
X126440500Y-77820758D01*
X126440500Y-77998242D01*
X126436823Y-78016726D01*
X126405876Y-78172312D01*
X126337956Y-78336284D01*
X126239353Y-78483854D01*
X126113854Y-78609353D01*
X125966284Y-78707956D01*
X125802312Y-78775876D01*
X125653012Y-78805573D01*
X125628242Y-78810500D01*
X125450758Y-78810500D01*
X125425988Y-78805573D01*
X125276688Y-78775876D01*
X125112716Y-78707956D01*
X124965146Y-78609353D01*
X124839647Y-78483854D01*
X124741044Y-78336284D01*
X124673124Y-78172312D01*
X124642177Y-78016726D01*
X124638500Y-77998242D01*
X124638500Y-77820758D01*
X124659853Y-77713410D01*
X124673124Y-77646688D01*
X124741044Y-77482716D01*
X124839647Y-77335146D01*
X124965146Y-77209647D01*
X125112716Y-77111044D01*
X125276688Y-77043124D01*
X125425988Y-77013427D01*
X125450758Y-77008500D01*
X125628242Y-77008500D01*
X125653012Y-77013427D01*
G37*
G36*
X115493012Y-77013427D02*
G01*
X115642312Y-77043124D01*
X115806284Y-77111044D01*
X115953854Y-77209647D01*
X116079353Y-77335146D01*
X116177956Y-77482716D01*
X116245876Y-77646688D01*
X116259147Y-77713410D01*
X116280500Y-77820758D01*
X116280500Y-77998242D01*
X116276823Y-78016726D01*
X116245876Y-78172312D01*
X116177956Y-78336284D01*
X116079353Y-78483854D01*
X115953854Y-78609353D01*
X115806284Y-78707956D01*
X115642312Y-78775876D01*
X115493012Y-78805573D01*
X115468242Y-78810500D01*
X115290758Y-78810500D01*
X115265988Y-78805573D01*
X115116688Y-78775876D01*
X114952716Y-78707956D01*
X114805146Y-78609353D01*
X114679647Y-78483854D01*
X114581044Y-78336284D01*
X114513124Y-78172312D01*
X114482177Y-78016726D01*
X114478500Y-77998242D01*
X114478500Y-77820758D01*
X114499853Y-77713410D01*
X114513124Y-77646688D01*
X114581044Y-77482716D01*
X114679647Y-77335146D01*
X114805146Y-77209647D01*
X114952716Y-77111044D01*
X115116688Y-77043124D01*
X115265988Y-77013427D01*
X115290758Y-77008500D01*
X115468242Y-77008500D01*
X115493012Y-77013427D01*
G37*
G36*
X118033012Y-77013427D02*
G01*
X118182312Y-77043124D01*
X118346284Y-77111044D01*
X118493854Y-77209647D01*
X118619353Y-77335146D01*
X118717956Y-77482716D01*
X118785876Y-77646688D01*
X118799147Y-77713410D01*
X118820500Y-77820758D01*
X118820500Y-77998242D01*
X118816823Y-78016726D01*
X118785876Y-78172312D01*
X118717956Y-78336284D01*
X118619353Y-78483854D01*
X118493854Y-78609353D01*
X118346284Y-78707956D01*
X118182312Y-78775876D01*
X118033012Y-78805573D01*
X118008242Y-78810500D01*
X117830758Y-78810500D01*
X117805988Y-78805573D01*
X117656688Y-78775876D01*
X117492716Y-78707956D01*
X117345146Y-78609353D01*
X117219647Y-78483854D01*
X117121044Y-78336284D01*
X117053124Y-78172312D01*
X117022177Y-78016726D01*
X117018500Y-77998242D01*
X117018500Y-77820758D01*
X117039853Y-77713410D01*
X117053124Y-77646688D01*
X117121044Y-77482716D01*
X117219647Y-77335146D01*
X117345146Y-77209647D01*
X117492716Y-77111044D01*
X117656688Y-77043124D01*
X117805988Y-77013427D01*
X117830758Y-77008500D01*
X118008242Y-77008500D01*
X118033012Y-77013427D01*
G37*
G36*
X123113012Y-77013427D02*
G01*
X123262312Y-77043124D01*
X123426284Y-77111044D01*
X123573854Y-77209647D01*
X123699353Y-77335146D01*
X123797956Y-77482716D01*
X123865876Y-77646688D01*
X123879147Y-77713410D01*
X123900500Y-77820758D01*
X123900500Y-77998242D01*
X123896823Y-78016726D01*
X123865876Y-78172312D01*
X123797956Y-78336284D01*
X123699353Y-78483854D01*
X123573854Y-78609353D01*
X123426284Y-78707956D01*
X123262312Y-78775876D01*
X123113012Y-78805573D01*
X123088242Y-78810500D01*
X122910758Y-78810500D01*
X122885988Y-78805573D01*
X122736688Y-78775876D01*
X122572716Y-78707956D01*
X122425146Y-78609353D01*
X122299647Y-78483854D01*
X122201044Y-78336284D01*
X122133124Y-78172312D01*
X122102177Y-78016726D01*
X122098500Y-77998242D01*
X122098500Y-77820758D01*
X122119853Y-77713410D01*
X122133124Y-77646688D01*
X122201044Y-77482716D01*
X122299647Y-77335146D01*
X122425146Y-77209647D01*
X122572716Y-77111044D01*
X122736688Y-77043124D01*
X122885988Y-77013427D01*
X122910758Y-77008500D01*
X123088242Y-77008500D01*
X123113012Y-77013427D01*
G37*
G36*
X128193012Y-77013427D02*
G01*
X128342312Y-77043124D01*
X128506284Y-77111044D01*
X128653854Y-77209647D01*
X128779353Y-77335146D01*
X128877956Y-77482716D01*
X128945876Y-77646688D01*
X128959147Y-77713410D01*
X128980500Y-77820758D01*
X128980500Y-77998242D01*
X128976823Y-78016726D01*
X128945876Y-78172312D01*
X128877956Y-78336284D01*
X128779353Y-78483854D01*
X128653854Y-78609353D01*
X128506284Y-78707956D01*
X128342312Y-78775876D01*
X128193012Y-78805573D01*
X128168242Y-78810500D01*
X127990758Y-78810500D01*
X127965988Y-78805573D01*
X127816688Y-78775876D01*
X127652716Y-78707956D01*
X127505146Y-78609353D01*
X127379647Y-78483854D01*
X127281044Y-78336284D01*
X127213124Y-78172312D01*
X127182177Y-78016726D01*
X127178500Y-77998242D01*
X127178500Y-77820758D01*
X127199853Y-77713410D01*
X127213124Y-77646688D01*
X127281044Y-77482716D01*
X127379647Y-77335146D01*
X127505146Y-77209647D01*
X127652716Y-77111044D01*
X127816688Y-77043124D01*
X127965988Y-77013427D01*
X127990758Y-77008500D01*
X128168242Y-77008500D01*
X128193012Y-77013427D01*
G37*
G36*
X109749880Y-74208776D02*
G01*
X110130593Y-74284504D01*
X110540249Y-74454189D01*
X110908929Y-74700534D01*
X111222466Y-75014071D01*
X111468811Y-75382751D01*
X111638496Y-75792407D01*
X111689336Y-76048000D01*
X111725000Y-76227295D01*
X111725000Y-76670705D01*
X111718694Y-76702408D01*
X111638496Y-77105593D01*
X111468811Y-77515249D01*
X111222466Y-77883929D01*
X110908929Y-78197466D01*
X110540249Y-78443811D01*
X110130593Y-78613496D01*
X109749880Y-78689224D01*
X109695705Y-78700000D01*
X109252295Y-78700000D01*
X109198120Y-78689224D01*
X108817407Y-78613496D01*
X108407751Y-78443811D01*
X108039071Y-78197466D01*
X107725534Y-77883929D01*
X107479189Y-77515249D01*
X107309504Y-77105593D01*
X107229306Y-76702408D01*
X107223000Y-76670705D01*
X107223000Y-76227295D01*
X107258664Y-76048000D01*
X107309504Y-75792407D01*
X107479189Y-75382751D01*
X107725534Y-75014071D01*
X108039071Y-74700534D01*
X108407751Y-74454189D01*
X108817407Y-74284504D01*
X109198120Y-74208776D01*
X109252295Y-74198000D01*
X109695705Y-74198000D01*
X109749880Y-74208776D01*
G37*
G36*
X164105880Y-74208776D02*
G01*
X164486593Y-74284504D01*
X164896249Y-74454189D01*
X165264929Y-74700534D01*
X165578466Y-75014071D01*
X165824811Y-75382751D01*
X165994496Y-75792407D01*
X166045336Y-76048000D01*
X166081000Y-76227295D01*
X166081000Y-76670705D01*
X166074694Y-76702408D01*
X165994496Y-77105593D01*
X165824811Y-77515249D01*
X165578466Y-77883929D01*
X165264929Y-78197466D01*
X164896249Y-78443811D01*
X164486593Y-78613496D01*
X164105880Y-78689224D01*
X164051705Y-78700000D01*
X163608295Y-78700000D01*
X163554120Y-78689224D01*
X163173407Y-78613496D01*
X162763751Y-78443811D01*
X162395071Y-78197466D01*
X162081534Y-77883929D01*
X161835189Y-77515249D01*
X161665504Y-77105593D01*
X161585306Y-76702408D01*
X161579000Y-76670705D01*
X161579000Y-76227295D01*
X161614664Y-76048000D01*
X161665504Y-75792407D01*
X161835189Y-75382751D01*
X162081534Y-75014071D01*
X162395071Y-74700534D01*
X162763751Y-74454189D01*
X163173407Y-74284504D01*
X163554120Y-74208776D01*
X163608295Y-74198000D01*
X164051705Y-74198000D01*
X164105880Y-74208776D01*
G37*
G36*
X148388355Y-77613083D02*
G01*
X148393029Y-77614501D01*
X148397330Y-77616800D01*
X148403702Y-77622029D01*
X148424076Y-77635643D01*
X148446715Y-77645020D01*
X148470749Y-77649800D01*
X148495253Y-77649800D01*
X148519286Y-77645019D01*
X148541925Y-77635642D01*
X148562298Y-77622029D01*
X148568670Y-77616800D01*
X148572971Y-77614501D01*
X148577645Y-77613083D01*
X148588641Y-77612000D01*
X148877359Y-77612000D01*
X148888355Y-77613083D01*
X148893029Y-77614501D01*
X148897330Y-77616800D01*
X148903702Y-77622029D01*
X148924076Y-77635643D01*
X148946715Y-77645020D01*
X148970749Y-77649800D01*
X148995253Y-77649800D01*
X149019286Y-77645019D01*
X149041925Y-77635642D01*
X149062298Y-77622029D01*
X149068670Y-77616800D01*
X149072971Y-77614501D01*
X149077645Y-77613083D01*
X149088641Y-77612000D01*
X149377359Y-77612000D01*
X149388355Y-77613083D01*
X149393029Y-77614501D01*
X149397330Y-77616800D01*
X149403702Y-77622029D01*
X149424076Y-77635643D01*
X149446715Y-77645020D01*
X149470749Y-77649800D01*
X149495253Y-77649800D01*
X149519286Y-77645019D01*
X149541925Y-77635642D01*
X149562298Y-77622029D01*
X149568670Y-77616800D01*
X149572971Y-77614501D01*
X149577645Y-77613083D01*
X149588641Y-77612000D01*
X149877359Y-77612000D01*
X149888355Y-77613083D01*
X149893029Y-77614501D01*
X149897330Y-77616800D01*
X149903702Y-77622029D01*
X149924076Y-77635643D01*
X149946715Y-77645020D01*
X149970749Y-77649800D01*
X149995253Y-77649800D01*
X150019286Y-77645019D01*
X150041925Y-77635642D01*
X150062298Y-77622029D01*
X150068670Y-77616800D01*
X150072971Y-77614501D01*
X150077645Y-77613083D01*
X150088641Y-77612000D01*
X150377359Y-77612000D01*
X150388355Y-77613083D01*
X150393029Y-77614501D01*
X150397330Y-77616800D01*
X150403702Y-77622029D01*
X150424076Y-77635643D01*
X150446715Y-77645020D01*
X150470749Y-77649800D01*
X150495253Y-77649800D01*
X150519286Y-77645019D01*
X150541925Y-77635642D01*
X150562298Y-77622029D01*
X150568670Y-77616800D01*
X150572971Y-77614501D01*
X150577645Y-77613083D01*
X150588641Y-77612000D01*
X150877359Y-77612000D01*
X150888355Y-77613083D01*
X150893029Y-77614501D01*
X150897330Y-77616800D01*
X150903702Y-77622029D01*
X150924076Y-77635643D01*
X150946715Y-77645020D01*
X150970749Y-77649800D01*
X150995253Y-77649800D01*
X151019286Y-77645019D01*
X151041925Y-77635642D01*
X151062298Y-77622029D01*
X151068670Y-77616800D01*
X151072971Y-77614501D01*
X151077645Y-77613083D01*
X151088641Y-77612000D01*
X151377359Y-77612000D01*
X151388355Y-77613083D01*
X151393029Y-77614501D01*
X151397331Y-77616800D01*
X151401104Y-77619896D01*
X151404200Y-77623669D01*
X151406499Y-77627971D01*
X151407917Y-77632645D01*
X151409000Y-77643641D01*
X151409000Y-78482359D01*
X151407917Y-78493355D01*
X151406499Y-78498029D01*
X151404200Y-78502331D01*
X151401104Y-78506104D01*
X151397331Y-78509200D01*
X151393029Y-78511499D01*
X151388355Y-78512917D01*
X151377359Y-78514000D01*
X151088641Y-78514000D01*
X151077645Y-78512917D01*
X151072971Y-78511499D01*
X151068670Y-78509200D01*
X151062298Y-78503971D01*
X151041924Y-78490357D01*
X151019285Y-78480980D01*
X150995251Y-78476200D01*
X150970747Y-78476200D01*
X150946714Y-78480981D01*
X150924075Y-78490358D01*
X150903702Y-78503971D01*
X150897330Y-78509200D01*
X150893029Y-78511499D01*
X150888355Y-78512917D01*
X150877359Y-78514000D01*
X150588641Y-78514000D01*
X150577645Y-78512917D01*
X150572971Y-78511499D01*
X150568670Y-78509200D01*
X150562298Y-78503971D01*
X150541924Y-78490357D01*
X150519285Y-78480980D01*
X150495251Y-78476200D01*
X150470747Y-78476200D01*
X150446714Y-78480981D01*
X150424075Y-78490358D01*
X150403702Y-78503971D01*
X150397330Y-78509200D01*
X150393029Y-78511499D01*
X150388355Y-78512917D01*
X150377359Y-78514000D01*
X150088641Y-78514000D01*
X150077645Y-78512917D01*
X150072971Y-78511499D01*
X150068670Y-78509200D01*
X150062298Y-78503971D01*
X150041924Y-78490357D01*
X150019285Y-78480980D01*
X149995251Y-78476200D01*
X149970747Y-78476200D01*
X149946714Y-78480981D01*
X149924075Y-78490358D01*
X149903702Y-78503971D01*
X149897330Y-78509200D01*
X149893029Y-78511499D01*
X149888355Y-78512917D01*
X149877359Y-78514000D01*
X149588641Y-78514000D01*
X149577645Y-78512917D01*
X149572971Y-78511499D01*
X149568670Y-78509200D01*
X149562298Y-78503971D01*
X149541924Y-78490357D01*
X149519285Y-78480980D01*
X149495251Y-78476200D01*
X149470747Y-78476200D01*
X149446714Y-78480981D01*
X149424075Y-78490358D01*
X149403702Y-78503971D01*
X149397330Y-78509200D01*
X149393029Y-78511499D01*
X149388355Y-78512917D01*
X149377359Y-78514000D01*
X149088641Y-78514000D01*
X149077645Y-78512917D01*
X149072971Y-78511499D01*
X149068670Y-78509200D01*
X149062298Y-78503971D01*
X149041924Y-78490357D01*
X149019285Y-78480980D01*
X148995251Y-78476200D01*
X148970747Y-78476200D01*
X148946714Y-78480981D01*
X148924075Y-78490358D01*
X148903702Y-78503971D01*
X148897330Y-78509200D01*
X148893029Y-78511499D01*
X148888355Y-78512917D01*
X148877359Y-78514000D01*
X148588641Y-78514000D01*
X148577645Y-78512917D01*
X148572971Y-78511499D01*
X148568670Y-78509200D01*
X148562298Y-78503971D01*
X148541924Y-78490357D01*
X148519285Y-78480980D01*
X148495251Y-78476200D01*
X148470747Y-78476200D01*
X148446714Y-78480981D01*
X148424075Y-78490358D01*
X148403702Y-78503971D01*
X148397330Y-78509200D01*
X148393029Y-78511499D01*
X148388355Y-78512917D01*
X148377359Y-78514000D01*
X148088641Y-78514000D01*
X148077645Y-78512917D01*
X148072971Y-78511499D01*
X148068669Y-78509200D01*
X148064896Y-78506104D01*
X148061800Y-78502331D01*
X148059501Y-78498029D01*
X148058083Y-78493355D01*
X148057000Y-78482359D01*
X148057000Y-77643641D01*
X148058083Y-77632645D01*
X148059501Y-77627971D01*
X148061800Y-77623669D01*
X148064896Y-77619896D01*
X148068669Y-77616800D01*
X148072971Y-77614501D01*
X148077645Y-77613083D01*
X148088641Y-77612000D01*
X148377359Y-77612000D01*
X148388355Y-77613083D01*
G37*
G36*
X156603091Y-77451085D02*
G01*
X156637069Y-77461393D01*
X156668390Y-77478134D01*
X156695839Y-77500661D01*
X156718366Y-77528110D01*
X156735107Y-77559431D01*
X156745415Y-77593409D01*
X156749500Y-77634890D01*
X156749500Y-78311110D01*
X156745415Y-78352591D01*
X156735107Y-78386569D01*
X156718366Y-78417890D01*
X156695839Y-78445339D01*
X156668390Y-78467866D01*
X156637069Y-78484607D01*
X156603091Y-78494915D01*
X156561610Y-78499000D01*
X155960390Y-78499000D01*
X155918909Y-78494915D01*
X155884931Y-78484607D01*
X155853610Y-78467866D01*
X155826161Y-78445339D01*
X155803634Y-78417890D01*
X155786893Y-78386569D01*
X155776585Y-78352591D01*
X155772500Y-78311110D01*
X155772500Y-77634890D01*
X155776585Y-77593409D01*
X155786893Y-77559431D01*
X155803634Y-77528110D01*
X155826161Y-77500661D01*
X155853610Y-77478134D01*
X155884931Y-77461393D01*
X155918909Y-77451085D01*
X155960390Y-77447000D01*
X156561610Y-77447000D01*
X156603091Y-77451085D01*
G37*
G36*
X155028091Y-77451085D02*
G01*
X155062069Y-77461393D01*
X155093390Y-77478134D01*
X155120839Y-77500661D01*
X155143366Y-77528110D01*
X155160107Y-77559431D01*
X155170415Y-77593409D01*
X155174500Y-77634890D01*
X155174500Y-78311110D01*
X155170415Y-78352591D01*
X155160107Y-78386569D01*
X155143366Y-78417890D01*
X155120839Y-78445339D01*
X155093390Y-78467866D01*
X155062069Y-78484607D01*
X155028091Y-78494915D01*
X154986610Y-78499000D01*
X154385390Y-78499000D01*
X154343909Y-78494915D01*
X154309931Y-78484607D01*
X154278610Y-78467866D01*
X154251161Y-78445339D01*
X154228634Y-78417890D01*
X154211893Y-78386569D01*
X154201585Y-78352591D01*
X154197500Y-78311110D01*
X154197500Y-77634890D01*
X154201585Y-77593409D01*
X154211893Y-77559431D01*
X154228634Y-77528110D01*
X154251161Y-77500661D01*
X154278610Y-77478134D01*
X154309931Y-77461393D01*
X154343909Y-77451085D01*
X154385390Y-77447000D01*
X154986610Y-77447000D01*
X155028091Y-77451085D01*
G37*
G36*
X145921591Y-77209085D02*
G01*
X145955569Y-77219393D01*
X145986890Y-77236134D01*
X146014339Y-77258661D01*
X146036866Y-77286110D01*
X146053607Y-77317431D01*
X146063915Y-77351409D01*
X146068000Y-77392890D01*
X146068000Y-77994110D01*
X146063915Y-78035591D01*
X146053607Y-78069569D01*
X146036866Y-78100890D01*
X146014339Y-78128339D01*
X145986890Y-78150866D01*
X145955569Y-78167607D01*
X145921591Y-78177915D01*
X145880110Y-78182000D01*
X145203890Y-78182000D01*
X145162409Y-78177915D01*
X145128431Y-78167607D01*
X145097110Y-78150866D01*
X145069661Y-78128339D01*
X145047134Y-78100890D01*
X145030393Y-78069569D01*
X145020085Y-78035591D01*
X145016000Y-77994110D01*
X145016000Y-77392890D01*
X145020085Y-77351409D01*
X145030393Y-77317431D01*
X145047134Y-77286110D01*
X145069661Y-77258661D01*
X145097110Y-77236134D01*
X145128431Y-77219393D01*
X145162409Y-77209085D01*
X145203890Y-77205000D01*
X145880110Y-77205000D01*
X145921591Y-77209085D01*
G37*
G36*
X156757468Y-75448565D02*
G01*
X156796138Y-75460296D01*
X156831777Y-75479346D01*
X156863017Y-75504983D01*
X156888654Y-75536223D01*
X156907704Y-75571862D01*
X156919435Y-75610532D01*
X156924000Y-75656888D01*
X156924000Y-76733112D01*
X156919435Y-76779468D01*
X156907704Y-76818138D01*
X156888654Y-76853777D01*
X156863017Y-76885017D01*
X156831777Y-76910654D01*
X156796138Y-76929704D01*
X156757468Y-76941435D01*
X156711112Y-76946000D01*
X156059888Y-76946000D01*
X156013532Y-76941435D01*
X155974862Y-76929704D01*
X155939223Y-76910654D01*
X155907983Y-76885017D01*
X155882346Y-76853777D01*
X155863296Y-76818138D01*
X155851565Y-76779468D01*
X155847000Y-76733112D01*
X155847000Y-75656888D01*
X155851565Y-75610532D01*
X155863296Y-75571862D01*
X155882346Y-75536223D01*
X155907983Y-75504983D01*
X155939223Y-75479346D01*
X155974862Y-75460296D01*
X156013532Y-75448565D01*
X156059888Y-75444000D01*
X156711112Y-75444000D01*
X156757468Y-75448565D01*
G37*
G36*
X154882468Y-75448565D02*
G01*
X154921138Y-75460296D01*
X154956777Y-75479346D01*
X154988017Y-75504983D01*
X155013654Y-75536223D01*
X155032704Y-75571862D01*
X155044435Y-75610532D01*
X155049000Y-75656888D01*
X155049000Y-76733112D01*
X155044435Y-76779468D01*
X155032704Y-76818138D01*
X155013654Y-76853777D01*
X154988017Y-76885017D01*
X154956777Y-76910654D01*
X154921138Y-76929704D01*
X154882468Y-76941435D01*
X154836112Y-76946000D01*
X154184888Y-76946000D01*
X154138532Y-76941435D01*
X154099862Y-76929704D01*
X154064223Y-76910654D01*
X154032983Y-76885017D01*
X154007346Y-76853777D01*
X153988296Y-76818138D01*
X153976565Y-76779468D01*
X153972000Y-76733112D01*
X153972000Y-75656888D01*
X153976565Y-75610532D01*
X153988296Y-75571862D01*
X154007346Y-75536223D01*
X154032983Y-75504983D01*
X154064223Y-75479346D01*
X154099862Y-75460296D01*
X154138532Y-75448565D01*
X154184888Y-75444000D01*
X154836112Y-75444000D01*
X154882468Y-75448565D01*
G37*
G36*
X153275591Y-75673085D02*
G01*
X153309569Y-75683393D01*
X153340890Y-75700134D01*
X153368339Y-75722661D01*
X153390866Y-75750110D01*
X153407607Y-75781431D01*
X153417915Y-75815409D01*
X153422000Y-75856890D01*
X153422000Y-76533110D01*
X153417915Y-76574591D01*
X153407607Y-76608569D01*
X153390866Y-76639890D01*
X153368339Y-76667339D01*
X153340890Y-76689866D01*
X153309569Y-76706607D01*
X153275591Y-76716915D01*
X153234110Y-76721000D01*
X152632890Y-76721000D01*
X152591409Y-76716915D01*
X152557431Y-76706607D01*
X152526110Y-76689866D01*
X152498661Y-76667339D01*
X152476134Y-76639890D01*
X152459393Y-76608569D01*
X152449085Y-76574591D01*
X152445000Y-76533110D01*
X152445000Y-75856890D01*
X152449085Y-75815409D01*
X152459393Y-75781431D01*
X152476134Y-75750110D01*
X152498661Y-75722661D01*
X152526110Y-75700134D01*
X152557431Y-75683393D01*
X152591409Y-75673085D01*
X152632890Y-75669000D01*
X153234110Y-75669000D01*
X153275591Y-75673085D01*
G37*
G36*
X147433591Y-75673085D02*
G01*
X147467569Y-75683393D01*
X147498890Y-75700134D01*
X147526339Y-75722661D01*
X147548866Y-75750110D01*
X147565607Y-75781431D01*
X147575915Y-75815409D01*
X147580000Y-75856890D01*
X147580000Y-76533110D01*
X147575915Y-76574591D01*
X147565607Y-76608569D01*
X147548866Y-76639890D01*
X147526339Y-76667339D01*
X147498890Y-76689866D01*
X147467569Y-76706607D01*
X147433591Y-76716915D01*
X147392110Y-76721000D01*
X146790890Y-76721000D01*
X146749409Y-76716915D01*
X146715431Y-76706607D01*
X146684110Y-76689866D01*
X146656661Y-76667339D01*
X146634134Y-76639890D01*
X146617393Y-76608569D01*
X146607085Y-76574591D01*
X146603000Y-76533110D01*
X146603000Y-75856890D01*
X146607085Y-75815409D01*
X146617393Y-75781431D01*
X146634134Y-75750110D01*
X146656661Y-75722661D01*
X146684110Y-75700134D01*
X146715431Y-75683393D01*
X146749409Y-75673085D01*
X146790890Y-75669000D01*
X147392110Y-75669000D01*
X147433591Y-75673085D01*
G37*
G36*
X145858591Y-75673085D02*
G01*
X145892569Y-75683393D01*
X145923890Y-75700134D01*
X145951339Y-75722661D01*
X145973866Y-75750110D01*
X145990607Y-75781431D01*
X146000915Y-75815409D01*
X146005000Y-75856890D01*
X146005000Y-76533110D01*
X146000915Y-76574591D01*
X145990607Y-76608569D01*
X145973866Y-76639890D01*
X145951339Y-76667339D01*
X145923890Y-76689866D01*
X145892569Y-76706607D01*
X145858591Y-76716915D01*
X145817110Y-76721000D01*
X145215890Y-76721000D01*
X145174409Y-76716915D01*
X145140431Y-76706607D01*
X145109110Y-76689866D01*
X145081661Y-76667339D01*
X145059134Y-76639890D01*
X145042393Y-76608569D01*
X145032085Y-76574591D01*
X145028000Y-76533110D01*
X145028000Y-75856890D01*
X145032085Y-75815409D01*
X145042393Y-75781431D01*
X145059134Y-75750110D01*
X145081661Y-75722661D01*
X145109110Y-75700134D01*
X145140431Y-75683393D01*
X145174409Y-75673085D01*
X145215890Y-75669000D01*
X145817110Y-75669000D01*
X145858591Y-75673085D01*
G37*
G36*
X150354591Y-75673085D02*
G01*
X150388569Y-75683393D01*
X150419890Y-75700134D01*
X150447339Y-75722661D01*
X150469866Y-75750110D01*
X150486607Y-75781431D01*
X150496915Y-75815409D01*
X150501000Y-75856890D01*
X150501000Y-76533110D01*
X150496915Y-76574591D01*
X150486607Y-76608569D01*
X150469866Y-76639890D01*
X150447339Y-76667339D01*
X150419890Y-76689866D01*
X150388569Y-76706607D01*
X150354591Y-76716915D01*
X150313110Y-76721000D01*
X149711890Y-76721000D01*
X149670409Y-76716915D01*
X149636431Y-76706607D01*
X149605110Y-76689866D01*
X149577661Y-76667339D01*
X149555134Y-76639890D01*
X149538393Y-76608569D01*
X149528085Y-76574591D01*
X149524000Y-76533110D01*
X149524000Y-75856890D01*
X149528085Y-75815409D01*
X149538393Y-75781431D01*
X149555134Y-75750110D01*
X149577661Y-75722661D01*
X149605110Y-75700134D01*
X149636431Y-75683393D01*
X149670409Y-75673085D01*
X149711890Y-75669000D01*
X150313110Y-75669000D01*
X150354591Y-75673085D01*
G37*
G36*
X148779591Y-75673085D02*
G01*
X148813569Y-75683393D01*
X148844890Y-75700134D01*
X148872339Y-75722661D01*
X148894866Y-75750110D01*
X148911607Y-75781431D01*
X148921915Y-75815409D01*
X148926000Y-75856890D01*
X148926000Y-76533110D01*
X148921915Y-76574591D01*
X148911607Y-76608569D01*
X148894866Y-76639890D01*
X148872339Y-76667339D01*
X148844890Y-76689866D01*
X148813569Y-76706607D01*
X148779591Y-76716915D01*
X148738110Y-76721000D01*
X148136890Y-76721000D01*
X148095409Y-76716915D01*
X148061431Y-76706607D01*
X148030110Y-76689866D01*
X148002661Y-76667339D01*
X147980134Y-76639890D01*
X147963393Y-76608569D01*
X147953085Y-76574591D01*
X147949000Y-76533110D01*
X147949000Y-75856890D01*
X147953085Y-75815409D01*
X147963393Y-75781431D01*
X147980134Y-75750110D01*
X148002661Y-75722661D01*
X148030110Y-75700134D01*
X148061431Y-75683393D01*
X148095409Y-75673085D01*
X148136890Y-75669000D01*
X148738110Y-75669000D01*
X148779591Y-75673085D01*
G37*
G36*
X151700591Y-75673085D02*
G01*
X151734569Y-75683393D01*
X151765890Y-75700134D01*
X151793339Y-75722661D01*
X151815866Y-75750110D01*
X151832607Y-75781431D01*
X151842915Y-75815409D01*
X151847000Y-75856890D01*
X151847000Y-76533110D01*
X151842915Y-76574591D01*
X151832607Y-76608569D01*
X151815866Y-76639890D01*
X151793339Y-76667339D01*
X151765890Y-76689866D01*
X151734569Y-76706607D01*
X151700591Y-76716915D01*
X151659110Y-76721000D01*
X151057890Y-76721000D01*
X151016409Y-76716915D01*
X150982431Y-76706607D01*
X150951110Y-76689866D01*
X150923661Y-76667339D01*
X150901134Y-76639890D01*
X150884393Y-76608569D01*
X150874085Y-76574591D01*
X150870000Y-76533110D01*
X150870000Y-75856890D01*
X150874085Y-75815409D01*
X150884393Y-75781431D01*
X150901134Y-75750110D01*
X150923661Y-75722661D01*
X150951110Y-75700134D01*
X150982431Y-75683393D01*
X151016409Y-75673085D01*
X151057890Y-75669000D01*
X151659110Y-75669000D01*
X151700591Y-75673085D01*
G37*
M02*
